<svg
  viewBox="0 0 0 0"
  xmlns:xlink="http://www.w3.org/1999/xlink"
  xmlns="http://www.w3.org/2000/svg">
  <g
    id="group-0">
    <g
      id="group-0">
      <rect
        id="rect-0"
        style="fill:#FAF8FD;"
        x="0"
        y="0"
        width="1332"
        height="597" />
      <g
        id="group-1">
        <text
          id="text-0"
          style="font-size:16.2px;text-decoration:none;direction:ltr;select-color:#D8E2FF;highlight-color:#FFE17B;x:502.5;y:38.484375;stroke:none;fill:#191B22;"
          x="502.5"
          y="38.484375">Ventral BG Training</text>
      </g>
      <g
        id="group-2">
        <text
          id="text-0"
          style="stroke:none;fill:#191B22;text-decoration:none;select-color:#D8E2FF;x:662;y:589.0625;font-size:16.2px;direction:ltr;highlight-color:#FFE17B;"
          x="662"
          y="589.0625">Epoch</text>
      </g>
      <g
        id="group-3">
        <text
          id="text-0"
          style="x:76;y:546.6188;stroke:none;font-size:16.2px;direction:ltr;fill:#191B22;text-decoration:none;select-color:#D8E2FF;highlight-color:#FFE17B;"
          x="76"
          y="546.6188">0</text>
      </g>
      <g
        id="group-4">
        <text
          id="text-0"
          style="select-color:#D8E2FF;stroke:none;font-size:16.2px;highlight-color:#FFE17B;x:290.65518;y:546.6188;fill:#191B22;text-decoration:none;direction:ltr;"
          x="290.65518"
          y="546.6188">5</text>
      </g>
      <g
        id="group-5">
        <text
          id="text-0"
          style="y:546.6188;font-size:16.2px;stroke:none;fill:#191B22;text-decoration:none;direction:ltr;select-color:#D8E2FF;highlight-color:#FFE17B;x:498.31036;"
          x="498.31036"
          y="546.6188">10</text>
      </g>
      <g
        id="group-6">
        <text
          id="text-0"
          style="highlight-color:#FFE17B;y:546.6188;stroke:none;fill:#191B22;font-size:16.2px;text-decoration:none;direction:ltr;select-color:#D8E2FF;x:712.9655;"
          x="712.9655"
          y="546.6188">15</text>
      </g>
      <g
        id="group-7">
        <text
          id="text-0"
          style="stroke:none;fill:#191B22;font-size:16.2px;direction:ltr;x:927.6207;y:546.6188;text-decoration:none;select-color:#D8E2FF;highlight-color:#FFE17B;"
          x="927.6207"
          y="546.6188">20</text>
      </g>
      <g
        id="group-8">
        <text
          id="text-0"
          style="fill:#191B22;text-decoration:none;highlight-color:#FFE17B;x:1142.2759;y:546.6188;stroke:none;font-size:16.2px;direction:ltr;select-color:#D8E2FF;"
          x="1142.2759"
          y="546.6188">25</text>
      </g>
      <path
        id="path-9"
        style="stroke:#191B22;stroke-width:1pt;fill:#000000;"
        d="M83 520V493" />
      <path
        id="path-10"
        style="stroke:#191B22;stroke-width:1pt;fill:#000000;"
        d="M297.6552 520V493" />
      <path
        id="path-11"
        style="stroke:#191B22;stroke-width:1pt;fill:#000000;"
        d="M512.3104 520V493" />
      <path
        id="path-12"
        style="stroke:#191B22;stroke-width:1pt;fill:#000000;"
        d="M726.9655 520V493" />
      <path
        id="path-13"
        style="stroke:#191B22;stroke-width:1pt;fill:#000000;"
        d="M941.6207 520V493" />
      <path
        id="path-14"
        style="fill:#000000;stroke:#191B22;stroke-width:1pt;"
        d="M1156.276 520V493" />
      <path
        id="path-15"
        style="stroke:#191B22;stroke-width:1pt;fill:#000000;"
        d="M125.931 506.5V493" />
      <path
        id="path-16"
        style="stroke:#191B22;stroke-width:1pt;fill:#000000;"
        d="M168.8621 506.5V493" />
      <path
        id="path-17"
        style="stroke:#191B22;stroke-width:1pt;fill:#000000;"
        d="M211.7931 506.5V493" />
      <path
        id="path-18"
        style="stroke:#191B22;stroke-width:1pt;fill:#000000;"
        d="M254.7241 506.5V493" />
      <path
        id="path-19"
        style="stroke-width:1pt;fill:#000000;stroke:#191B22;"
        d="M340.5862 506.5V493" />
      <path
        id="path-20"
        style="stroke:#191B22;stroke-width:1pt;fill:#000000;"
        d="M383.5172 506.5V493" />
      <path
        id="path-21"
        style="fill:#000000;stroke:#191B22;stroke-width:1pt;"
        d="M426.4483 506.5V493" />
      <path
        id="path-22"
        style="stroke:#191B22;stroke-width:1pt;fill:#000000;"
        d="M469.3793 506.5V493" />
      <path
        id="path-23"
        style="stroke:#191B22;stroke-width:1pt;fill:#000000;"
        d="M555.2414 506.5V493" />
      <path
        id="path-24"
        style="fill:#000000;stroke:#191B22;stroke-width:1pt;"
        d="M598.1724 506.5V493" />
      <path
        id="path-25"
        style="stroke:#191B22;stroke-width:1pt;fill:#000000;"
        d="M641.1035 506.5V493" />
      <path
        id="path-26"
        style="fill:#000000;stroke:#191B22;stroke-width:1pt;"
        d="M684.0345 506.5V493" />
      <path
        id="path-27"
        style="fill:#000000;stroke:#191B22;stroke-width:1pt;"
        d="M769.8965 506.5V493" />
      <path
        id="path-28"
        style="stroke:#191B22;stroke-width:1pt;fill:#000000;"
        d="M812.8276 506.5V493" />
      <path
        id="path-29"
        style="stroke:#191B22;stroke-width:1pt;fill:#000000;"
        d="M855.7586 506.5V493" />
      <path
        id="path-30"
        style="stroke:#191B22;stroke-width:1pt;fill:#000000;"
        d="M898.6896 506.5V493" />
      <path
        id="path-31"
        style="stroke:#191B22;stroke-width:1pt;fill:#000000;"
        d="M984.5517 506.5V493" />
      <path
        id="path-32"
        style="stroke:#191B22;stroke-width:1pt;fill:#000000;"
        d="M1027.483 506.5V493" />
      <path
        id="path-33"
        style="stroke-width:1pt;fill:#000000;stroke:#191B22;"
        d="M1070.414 506.5V493" />
      <path
        id="path-34"
        style="stroke:#191B22;stroke-width:1pt;fill:#000000;"
        d="M1113.345 506.5V493" />
      <path
        id="path-35"
        style="stroke:#191B22;stroke-width:1pt;fill:#000000;"
        d="M1199.207 506.5V493" />
      <path
        id="path-36"
        style="stroke:#191B22;stroke-width:1pt;fill:#000000;"
        d="M1242.138 506.5V493" />
      <path
        id="path-37"
        style="stroke:#191B22;stroke-width:1pt;fill:#000000;"
        d="M1285.069 506.5V493" />
      <path
        id="path-38"
        style="stroke-width:1pt;fill:#000000;stroke:#191B22;"
        d="M1328 506.5V493" />
      <path
        id="path-39"
        style="stroke:#191B22;stroke-width:1pt;fill:#000000;"
        d="M83 493H1328" />
      <g
        id="group-40">
        <text
          id="text-0"
          style="select-color:#D8E2FF;highlight-color:#FFE17B;x:2;y:496.7454;stroke:#191B22;stroke-width:1pt;fill:#191B22;text-decoration:none;font-size:16.2px;direction:ltr;"
          x="2"
          y="496.7454">0.00</text>
      </g>
      <g
        id="group-41">
        <text
          id="text-0"
          style="stroke:#191B22;stroke-width:1pt;font-size:16.2px;fill:#191B22;text-decoration:none;direction:ltr;select-color:#D8E2FF;highlight-color:#FFE17B;x:2;y:387.5981;"
          x="2"
          y="387.5981">0.25</text>
      </g>
      <g
        id="group-42">
        <text
          id="text-0"
          style="stroke:#191B22;stroke-width:1pt;fill:#191B22;font-size:16.2px;direction:ltr;select-color:#D8E2FF;text-decoration:none;highlight-color:#FFE17B;x:2;y:278.45084;"
          x="2"
          y="278.45084">0.50</text>
      </g>
      <g
        id="group-43">
        <text
          id="text-0"
          style="highlight-color:#FFE17B;x:2;fill:#191B22;font-size:16.2px;text-decoration:none;y:169.30354;stroke:#191B22;stroke-width:1pt;direction:ltr;select-color:#D8E2FF;"
          x="2"
          y="169.30354">0.75</text>
      </g>
      <g
        id="group-44">
        <text
          id="text-0"
          style="fill:#191B22;text-decoration:none;direction:ltr;highlight-color:#FFE17B;y:60.15625;stroke-width:1pt;font-size:16.2px;select-color:#D8E2FF;x:2;stroke:#191B22;"
          x="2"
          y="60.15625">1.00</text>
      </g>
      <path
        id="path-45"
        style="stroke-width:1pt;fill:#000000;stroke:#191B22;"
        d="M52 487.5891H79" />
      <path
        id="path-46"
        style="stroke-width:1pt;fill:#000000;stroke:#191B22;"
        d="M52 378.4419H79" />
      <path
        id="path-47"
        style="stroke:#191B22;stroke-width:1pt;fill:#000000;"
        d="M52 269.2946H79" />
      <path
        id="path-48"
        style="stroke:#191B22;stroke-width:1pt;fill:#000000;"
        d="M52 160.1473H79" />
      <path
        id="path-49"
        style="stroke:#191B22;stroke-width:1pt;fill:#000000;"
        d="M52 51H79" />
      <path
        id="path-50"
        style="fill:#000000;stroke:#191B22;stroke-width:1pt;"
        d="M65.5 465.7597H79" />
      <path
        id="path-51"
        style="stroke:#191B22;stroke-width:1pt;fill:#000000;"
        d="M65.5 443.9302H79" />
      <path
        id="path-52"
        style="stroke:#191B22;stroke-width:1pt;fill:#000000;"
        d="M65.5 422.1008H79" />
      <path
        id="path-53"
        style="stroke:#191B22;stroke-width:1pt;fill:#000000;"
        d="M65.5 400.2713H79" />
      <path
        id="path-54"
        style="stroke:#191B22;stroke-width:1pt;fill:#000000;"
        d="M65.5 356.6124H79" />
      <path
        id="path-55"
        style="fill:#000000;stroke:#191B22;stroke-width:1pt;"
        d="M65.5 334.783H79" />
      <path
        id="path-56"
        style="stroke-width:1pt;fill:#000000;stroke:#191B22;"
        d="M65.5 312.9535H79" />
      <path
        id="path-57"
        style="fill:#000000;stroke:#191B22;stroke-width:1pt;"
        d="M65.5 291.124H79" />
      <path
        id="path-58"
        style="stroke:#191B22;stroke-width:1pt;fill:#000000;"
        d="M65.5 247.4651H79" />
      <path
        id="path-59"
        style="stroke:#191B22;stroke-width:1pt;fill:#000000;"
        d="M65.5 225.6357H79" />
      <path
        id="path-60"
        style="fill:#000000;stroke:#191B22;stroke-width:1pt;"
        d="M65.5 203.8062H79" />
      <path
        id="path-61"
        style="stroke:#191B22;stroke-width:1pt;fill:#000000;"
        d="M65.5 181.9767H79" />
      <path
        id="path-62"
        style="stroke:#191B22;stroke-width:1pt;fill:#000000;"
        d="M65.5 138.3178H79" />
      <path
        id="path-63"
        style="stroke:#191B22;stroke-width:1pt;fill:#000000;"
        d="M65.5 116.4884H79" />
      <path
        id="path-64"
        style="stroke-width:1pt;fill:#000000;stroke:#191B22;"
        d="M65.5 94.65891H79" />
      <path
        id="path-65"
        style="stroke:#191B22;stroke-width:1pt;fill:#000000;"
        d="M65.5 72.82946H79" />
      <path
        id="path-66"
        style="stroke:#191B22;stroke-width:1pt;fill:#000000;"
        d="M79 51V491" />
      <g
        id="group-67">
        <path
          id="path-0"
          style="stroke:#0000FF;stroke-width:1pt;fill:none;"
          d="M83 409.1395L125.931 450.0698L168.8621 456.8915L211.7931 415.9612L254.7241 299.9922H297.6552L340.5862 293.1706L383.5172 269.2946L426.4483 231.7752L469.3793 248.8295L512.3104 245.4186L555.2414 296.5814L598.1724 262.4729L641.1035 245.4186L684.0345 276.1163L726.9655 248.8295L769.8965 293.1706L812.8276 259.062L855.7586 269.2946H898.6896L941.6207 248.8295L984.5517 211.3101L1027.483 245.4186L1070.414 265.8837L1113.345 276.1163L1156.276 286.3488L1242.138 245.4186L1285.069 265.8837L1328 289.7597" />
        <path
          id="path-1"
          style="stroke:#0000FF;stroke-width:1pt;fill:none;"
          d="M83 409.1395L125.931 450.0698L168.8621 456.8915L211.7931 415.9612L254.7241 299.9922H297.6552L340.5862 293.1706L383.5172 269.2946L426.4483 231.7752L469.3793 248.8295L512.3104 245.4186L555.2414 296.5814L598.1724 262.4729L641.1035 245.4186L684.0345 276.1163L726.9655 248.8295L769.8965 293.1706L812.8276 259.062L855.7586 269.2946H898.6896L941.6207 248.8295L984.5517 211.3101L1027.483 245.4186L1070.414 265.8837L1113.345 276.1163L1156.276 286.3488L1242.138 245.4186L1285.069 265.8837L1328 289.7597" />
        <path
          id="path-2"
          style="fill:none;stroke:#FF5AE2;stroke-width:1pt;"
          d="M83 306.8139L125.931 262.4729L168.8621 279.5271L211.7931 265.8837L254.7241 242.0078L297.6552 279.5271L340.5862 262.4729L383.5172 259.062L426.4483 245.4186L469.3793 255.6512L512.3104 276.1163L555.2414 272.7054L598.1724 265.8837L641.1035 252.2403L684.0345 293.1706L726.9655 248.8295L769.8965 289.7597L812.8276 282.938L855.7586 276.1163L898.6896 282.938L941.6207 255.6512L984.5517 228.3643L1027.483 276.1163L1070.414 272.7054L1113.345 282.938L1156.276 317.0465L1199.207 276.1163L1242.138 248.8295L1285.069 279.5271L1328 293.1706" />
        <path
          id="path-3"
          style="stroke-width:1pt;fill:none;stroke:#FF5AE2;"
          d="M83 306.8139L125.931 262.4729L168.8621 279.5271L211.7931 265.8837L254.7241 242.0078L297.6552 279.5271L340.5862 262.4729L383.5172 259.062L426.4483 245.4186L469.3793 255.6512L512.3104 276.1163L555.2414 272.7054L598.1724 265.8837L641.1035 252.2403L684.0345 293.1706L726.9655 248.8295L769.8965 289.7597L812.8276 282.938L855.7586 276.1163L898.6896 282.938L941.6207 255.6512L984.5517 228.3643L1027.483 276.1163L1070.414 272.7054L1113.345 282.938L1156.276 317.0465L1199.207 276.1163L1242.138 248.8295L1285.069 279.5271L1328 293.1706" />
        <path
          id="path-4"
          style="fill:none;stroke:#00AEC1;stroke-width:1pt;"
          d="M83 235.186L125.931 245.4186L168.8621 228.3643L211.7931 207.8992L254.7241 122.6279L297.6552 119.2171L340.5862 102.1628H383.5172L426.4483 85.10853L469.3793 78.28682L512.3104 102.1628L555.2414 95.34109L598.1724 81.69768L641.1035 78.28682L684.0345 102.1628L726.9655 78.28682L769.8965 88.51938H812.8276L855.7586 57.8217L898.6896 78.28682L941.6207 71.46512L984.5517 74.87597L1027.483 88.51938L1070.414 78.28682L1113.345 64.64341L1156.276 81.69768L1199.207 74.87597H1242.138L1285.069 85.10853L1328 68.05426" />
        <path
          id="path-5"
          style="stroke:#00AEC1;stroke-width:1pt;fill:none;"
          d="M83 235.186L125.931 245.4186L168.8621 228.3643L211.7931 207.8992L254.7241 122.6279L297.6552 119.2171L340.5862 102.1628H383.5172L426.4483 85.10853L469.3793 78.28682L512.3104 102.1628L555.2414 95.34109L598.1724 81.69768L641.1035 78.28682L684.0345 102.1628L726.9655 78.28682L769.8965 88.51938H812.8276L855.7586 57.8217L898.6896 78.28682L941.6207 71.46512L984.5517 74.87597L1027.483 88.51938L1070.414 78.28682L1113.345 64.64341L1156.276 81.69768L1199.207 74.87597H1242.138L1285.069 85.10853L1328 68.05426" />
        <path
          id="path-6"
          style="stroke:#49B43A;stroke-width:1pt;fill:none;"
          d="M83 491L125.931 456.8915H168.8621L211.7931 422.7829L254.7241 313.6357L297.6552 347.7442L340.5862 313.6357L383.5172 310.2248L426.4483 279.5271L469.3793 282.938L512.3104 327.2791L555.2414 317.0465L598.1724 296.5814L641.1035 279.5271L684.0345 344.3333L726.9655 276.1163L769.8965 327.2791L812.8276 320.4574L855.7586 282.938L898.6896 310.2248L941.6207 276.1163L984.5517 252.2403L1027.483 313.6357L1070.414 299.9922L1113.345 296.5814L1156.276 347.7442L1199.207 299.9922L1242.138 272.7054L1285.069 313.6357L1328 310.2248" />
        <path
          id="path-7"
          style="stroke:#49B43A;stroke-width:1pt;fill:none;"
          d="M83 491L125.931 456.8915H168.8621L211.7931 422.7829L254.7241 313.6357L297.6552 347.7442L340.5862 313.6357L383.5172 310.2248L426.4483 279.5271L469.3793 282.938L512.3104 327.2791L555.2414 317.0465L598.1724 296.5814L641.1035 279.5271L684.0345 344.3333L726.9655 276.1163L769.8965 327.2791L812.8276 320.4574L855.7586 282.938L898.6896 310.2248L941.6207 276.1163L984.5517 252.2403L1027.483 313.6357L1070.414 299.9922L1113.345 296.5814L1156.276 347.7442L1199.207 299.9922L1242.138 272.7054L1285.069 313.6357L1328 310.2248" />
        <rect
          id="rect-8"
          style="fill:#FAF9FEBF;"
          x="1165"
          y="49"
          width="165"
          height="176" />
        <g
          id="group-9">
          <path
            id="path-0"
            style="stroke:#0000FF;stroke-width:1pt;fill:none;"
            d="M1263 71H1330" />
        </g>
        <g
          id="group-10">
          <text
            id="text-0"
            style="stroke:#0000FF;stroke-width:1pt;font-size:16.2px;direction:ltr;select-color:#D8E2FF;y:81.0625;fill:#191B22;text-decoration:none;highlight-color:#FFE17B;x:1165;"
            x="1165"
            y="81.0625">Gated</text>
        </g>
        <g
          id="group-11">
          <path
            id="path-0"
            style="stroke:#FF5AE2;stroke-width:1pt;fill:none;"
            d="M1263 115H1330" />
        </g>
        <g
          id="group-12">
          <text
            id="text-0"
            style="fill:#191B22;direction:ltr;select-color:#D8E2FF;x:1165;stroke:#FF5AE2;font-size:16.2px;text-decoration:none;highlight-color:#FFE17B;y:125.0625;stroke-width:1pt;"
            x="1165"
            y="125.0625">Should</text>
        </g>
        <g
          id="group-13">
          <path
            id="path-0"
            style="fill:none;stroke:#00AEC1;stroke-width:1pt;"
            d="M1263 159H1330" />
        </g>
        <g
          id="group-14">
          <text
            id="text-0"
            style="fill:#191B22;font-size:16.2px;select-color:#D8E2FF;stroke:#00AEC1;text-decoration:none;direction:ltr;highlight-color:#FFE17B;x:1165;y:169.0625;stroke-width:1pt;"
            x="1165"
            y="169.0625">Match</text>
        </g>
        <g
          id="group-15">
          <path
            id="path-0"
            style="stroke:#49B43A;stroke-width:1pt;fill:none;"
            d="M1263 203H1330" />
        </g>
        <g
          id="group-16">
          <text
            id="text-0"
            style="stroke:#49B43A;fill:#191B22;text-decoration:none;direction:ltr;select-color:#D8E2FF;y:213.0625;stroke-width:1pt;font-size:16.2px;highlight-color:#FFE17B;x:1165;"
            x="1165"
            y="213.0625">Rew</text>
        </g>
      </g>
    </g>
  </g>
</svg>
