<svg
  viewBox="0 0 0 0"
  xmlns:xlink="http://www.w3.org/1999/xlink"
  xmlns="http://www.w3.org/2000/svg">
  <g
    id="group-0">
    <g
      id="group-0">
      <rect
        id="rect-0"
        style="fill:#FAF8FD;"
        x="0"
        y="0"
        width="1332"
        height="597" />
      <g
        id="group-1">
        <text
          id="text-0"
          style="font-size:16.2px;text-decoration:none;direction:ltr;highlight-color:#FFE17B;x:502.5;y:38.484375;stroke:none;select-color:#D8E2FF;fill:#191B22;"
          x="502.5"
          y="38.484375">Ventral BG Training</text>
      </g>
      <g
        id="group-2">
        <text
          id="text-0"
          style="font-size:16.2px;fill:#191B22;text-decoration:none;direction:ltr;select-color:#D8E2FF;highlight-color:#FFE17B;x:682;y:589.0625;stroke:none;"
          x="682"
          y="589.0625">Epoch</text>
      </g>
      <g
        id="group-3">
        <text
          id="text-0"
          style="fill:#191B22;font-size:16.2px;text-decoration:none;direction:ltr;y:546.6188;stroke:none;select-color:#D8E2FF;highlight-color:#FFE17B;x:116;"
          x="116"
          y="546.6188">0</text>
      </g>
      <g
        id="group-4">
        <text
          id="text-0"
          style="stroke:none;fill:#191B22;font-size:16.2px;text-decoration:none;direction:ltr;select-color:#D8E2FF;x:323.75864;highlight-color:#FFE17B;y:546.6188;"
          x="323.75864"
          y="546.6188">5</text>
      </g>
      <g
        id="group-5">
        <text
          id="text-0"
          style="fill:#191B22;text-decoration:none;direction:ltr;highlight-color:#FFE17B;stroke:none;font-size:16.2px;select-color:#D8E2FF;x:524.5173;y:546.6188;"
          x="524.5173"
          y="546.6188">10</text>
      </g>
      <g
        id="group-6">
        <text
          id="text-0"
          style="highlight-color:#FFE17B;x:732.2758;stroke:none;fill:#191B22;font-size:16.2px;select-color:#D8E2FF;text-decoration:none;direction:ltr;y:546.6188;"
          x="732.2758"
          y="546.6188">15</text>
      </g>
      <g
        id="group-7">
        <text
          id="text-0"
          style="fill:#191B22;highlight-color:#FFE17B;y:546.6188;stroke:none;font-size:16.2px;text-decoration:none;direction:ltr;select-color:#D8E2FF;x:940.0345;"
          x="940.0345"
          y="546.6188">20</text>
      </g>
      <g
        id="group-8">
        <text
          id="text-0"
          style="direction:ltr;y:546.6188;stroke:none;fill:#191B22;font-size:16.2px;text-decoration:none;select-color:#D8E2FF;highlight-color:#FFE17B;x:1147.7931;"
          x="1147.7931"
          y="546.6188">25</text>
      </g>
      <path
        id="path-9"
        style="stroke:#191B22;stroke-width:1pt;fill:#000000;"
        d="M123 520V493" />
      <path
        id="path-10"
        style="stroke:#191B22;stroke-width:1pt;fill:#000000;"
        d="M330.7586 520V493" />
      <path
        id="path-11"
        style="stroke:#191B22;stroke-width:1pt;fill:#000000;"
        d="M538.5173 520V493" />
      <path
        id="path-12"
        style="stroke:#191B22;stroke-width:1pt;fill:#000000;"
        d="M746.2758 520V493" />
      <path
        id="path-13"
        style="stroke:#191B22;stroke-width:1pt;fill:#000000;"
        d="M954.0345 520V493" />
      <path
        id="path-14"
        style="stroke:#191B22;stroke-width:1pt;fill:#000000;"
        d="M1161.793 520V493" />
      <path
        id="path-15"
        style="stroke:#191B22;stroke-width:1pt;fill:#000000;"
        d="M164.5517 506.5V493" />
      <path
        id="path-16"
        style="stroke-width:1pt;fill:#000000;stroke:#191B22;"
        d="M206.1035 506.5V493" />
      <path
        id="path-17"
        style="stroke:#191B22;stroke-width:1pt;fill:#000000;"
        d="M247.6552 506.5V493" />
      <path
        id="path-18"
        style="stroke:#191B22;stroke-width:1pt;fill:#000000;"
        d="M289.2069 506.5V493" />
      <path
        id="path-19"
        style="stroke:#191B22;stroke-width:1pt;fill:#000000;"
        d="M372.3104 506.5V493" />
      <path
        id="path-20"
        style="stroke:#191B22;stroke-width:1pt;fill:#000000;"
        d="M413.8621 506.5V493" />
      <path
        id="path-21"
        style="fill:#000000;stroke:#191B22;stroke-width:1pt;"
        d="M455.4138 506.5V493" />
      <path
        id="path-22"
        style="stroke:#191B22;stroke-width:1pt;fill:#000000;"
        d="M496.9655 506.5V493" />
      <path
        id="path-23"
        style="stroke:#191B22;stroke-width:1pt;fill:#000000;"
        d="M580.069 506.5V493" />
      <path
        id="path-24"
        style="stroke:#191B22;stroke-width:1pt;fill:#000000;"
        d="M621.6207 506.5V493" />
      <path
        id="path-25"
        style="stroke:#191B22;stroke-width:1pt;fill:#000000;"
        d="M663.1724 506.5V493" />
      <path
        id="path-26"
        style="stroke:#191B22;stroke-width:1pt;fill:#000000;"
        d="M704.7241 506.5V493" />
      <path
        id="path-27"
        style="stroke:#191B22;stroke-width:1pt;fill:#000000;"
        d="M787.8276 506.5V493" />
      <path
        id="path-28"
        style="stroke:#191B22;stroke-width:1pt;fill:#000000;"
        d="M829.3793 506.5V493" />
      <path
        id="path-29"
        style="stroke-width:1pt;fill:#000000;stroke:#191B22;"
        d="M870.931 506.5V493" />
      <path
        id="path-30"
        style="stroke:#191B22;stroke-width:1pt;fill:#000000;"
        d="M912.4827 506.5V493" />
      <path
        id="path-31"
        style="stroke:#191B22;stroke-width:1pt;fill:#000000;"
        d="M995.5862 506.5V493" />
      <path
        id="path-32"
        style="stroke:#191B22;stroke-width:1pt;fill:#000000;"
        d="M1037.138 506.5V493" />
      <path
        id="path-33"
        style="stroke:#191B22;stroke-width:1pt;fill:#000000;"
        d="M1078.69 506.5V493" />
      <path
        id="path-34"
        style="stroke:#191B22;stroke-width:1pt;fill:#000000;"
        d="M1120.241 506.5V493" />
      <path
        id="path-35"
        style="stroke:#191B22;stroke-width:1pt;fill:#000000;"
        d="M1203.345 506.5V493" />
      <path
        id="path-36"
        style="fill:#000000;stroke:#191B22;stroke-width:1pt;"
        d="M1244.897 506.5V493" />
      <path
        id="path-37"
        style="stroke:#191B22;stroke-width:1pt;fill:#000000;"
        d="M1286.448 506.5V493" />
      <path
        id="path-38"
        style="stroke:#191B22;stroke-width:1pt;fill:#000000;"
        d="M1328 506.5V493" />
      <path
        id="path-39"
        style="stroke:#191B22;stroke-width:1pt;fill:#000000;"
        d="M123 493H1328" />
      <g
        id="group-40">
        <text
          id="text-0"
          style="select-color:#D8E2FF;highlight-color:#FFE17B;y:345.5625;stroke:#191B22;stroke-width:1pt;fill:#191B22;text-decoration:none;font-size:16.2px;direction:ltr;x:0;"
          transform="matrix(-4.371139e-08,-1,1,-4.371139e-08,-313.5,313.5)"
          x="0"
          y="345.5625">Gated</text>
      </g>
      <g
        id="group-41">
        <text
          id="text-0"
          style="text-decoration:none;direction:ltr;y:500.15625;stroke:#191B22;stroke-width:1pt;font-size:16.2px;x:42;fill:#191B22;select-color:#D8E2FF;highlight-color:#FFE17B;"
          x="42"
          y="500.15625">0.00</text>
      </g>
      <g
        id="group-42">
        <text
          id="text-0"
          style="direction:ltr;select-color:#D8E2FF;highlight-color:#FFE17B;x:42;fill:#191B22;font-size:16.2px;text-decoration:none;y:390.15625;stroke:#191B22;stroke-width:1pt;"
          x="42"
          y="390.15625">0.25</text>
      </g>
      <g
        id="group-43">
        <text
          id="text-0"
          style="stroke-width:1pt;fill:#191B22;font-size:16.2px;direction:ltr;highlight-color:#FFE17B;x:42;stroke:#191B22;text-decoration:none;select-color:#D8E2FF;y:280.15625;"
          x="42"
          y="280.15625">0.50</text>
      </g>
      <g
        id="group-44">
        <text
          id="text-0"
          style="stroke:#191B22;fill:#191B22;font-size:16.2px;highlight-color:#FFE17B;x:42;stroke-width:1pt;text-decoration:none;direction:ltr;select-color:#D8E2FF;y:170.15625;"
          x="42"
          y="170.15625">0.75</text>
      </g>
      <g
        id="group-45">
        <text
          id="text-0"
          style="stroke:#191B22;font-size:16.2px;select-color:#D8E2FF;highlight-color:#FFE17B;x:42;stroke-width:1pt;fill:#191B22;text-decoration:none;direction:ltr;y:60.15625;"
          x="42"
          y="60.15625">1.00</text>
      </g>
      <path
        id="path-46"
        style="stroke:#191B22;stroke-width:1pt;fill:#000000;"
        d="M92 491H119" />
      <path
        id="path-47"
        style="stroke-width:1pt;fill:#000000;stroke:#191B22;"
        d="M92 381H119" />
      <path
        id="path-48"
        style="stroke:#191B22;stroke-width:1pt;fill:#000000;"
        d="M92 271H119" />
      <path
        id="path-49"
        style="stroke:#191B22;stroke-width:1pt;fill:#000000;"
        d="M92 161H119" />
      <path
        id="path-50"
        style="stroke:#191B22;stroke-width:1pt;fill:#000000;"
        d="M92 51H119" />
      <path
        id="path-51"
        style="stroke-width:1pt;fill:#000000;stroke:#191B22;"
        d="M105.5 469H119" />
      <path
        id="path-52"
        style="stroke:#191B22;stroke-width:1pt;fill:#000000;"
        d="M105.5 447H119" />
      <path
        id="path-53"
        style="stroke:#191B22;stroke-width:1pt;fill:#000000;"
        d="M105.5 425H119" />
      <path
        id="path-54"
        style="fill:#000000;stroke:#191B22;stroke-width:1pt;"
        d="M105.5 403H119" />
      <path
        id="path-55"
        style="stroke:#191B22;stroke-width:1pt;fill:#000000;"
        d="M105.5 359H119" />
      <path
        id="path-56"
        style="fill:#000000;stroke:#191B22;stroke-width:1pt;"
        d="M105.5 337H119" />
      <path
        id="path-57"
        style="stroke:#191B22;stroke-width:1pt;fill:#000000;"
        d="M105.5 315H119" />
      <path
        id="path-58"
        style="stroke:#191B22;stroke-width:1pt;fill:#000000;"
        d="M105.5 293H119" />
      <path
        id="path-59"
        style="stroke:#191B22;stroke-width:1pt;fill:#000000;"
        d="M105.5 249H119" />
      <path
        id="path-60"
        style="stroke:#191B22;stroke-width:1pt;fill:#000000;"
        d="M105.5 227H119" />
      <path
        id="path-61"
        style="fill:#000000;stroke:#191B22;stroke-width:1pt;"
        d="M105.5 205H119" />
      <path
        id="path-62"
        style="stroke:#191B22;stroke-width:1pt;fill:#000000;"
        d="M105.5 183H119" />
      <path
        id="path-63"
        style="stroke-width:1pt;fill:#000000;stroke:#191B22;"
        d="M105.5 139H119" />
      <path
        id="path-64"
        style="fill:#000000;stroke:#191B22;stroke-width:1pt;"
        d="M105.5 117H119" />
      <path
        id="path-65"
        style="fill:#000000;stroke:#191B22;stroke-width:1pt;"
        d="M105.5 95.00001H119" />
      <path
        id="path-66"
        style="stroke:#191B22;stroke-width:1pt;fill:#000000;"
        d="M105.5 73.00001H119" />
      <path
        id="path-67"
        style="stroke:#191B22;stroke-width:1pt;fill:#000000;"
        d="M119 51V491" />
      <g
        id="group-68">
        <path
          id="path-0"
          style="stroke-width:1pt;fill:none;stroke:#0000FF;"
          d="M123 356.9375L164.5517 429.125L206.1035 401.625L247.6552 336.3125L289.2069 274.4375L330.7586 277.875L372.3104 257.25L413.8621 250.375L496.9655 243.5L538.5173 250.375L580.069 288.1875L621.6207 253.8125L663.1724 246.9375L704.7241 284.75L746.2758 246.9375L787.8276 288.1875L829.3793 267.5625L870.931 257.25L912.4827 260.6875L954.0345 243.5L995.5862 216L1037.138 260.6875L1078.69 267.5625L1120.241 271L1161.793 291.625L1203.345 271L1244.897 236.625L1286.448 257.25L1328 288.1875" />
        <path
          id="path-1"
          style="stroke:#0000FF;stroke-width:1pt;fill:none;"
          d="M123 356.9375L164.5517 429.125L206.1035 401.625L247.6552 336.3125L289.2069 274.4375L330.7586 277.875L372.3104 257.25L413.8621 250.375L496.9655 243.5L538.5173 250.375L580.069 288.1875L621.6207 253.8125L663.1724 246.9375L704.7241 284.75L746.2758 246.9375L787.8276 288.1875L829.3793 267.5625L870.931 257.25L912.4827 260.6875L954.0345 243.5L995.5862 216L1037.138 260.6875L1078.69 267.5625L1120.241 271L1161.793 291.625L1203.345 271L1244.897 236.625L1286.448 257.25L1328 288.1875" />
        <path
          id="path-2"
          style="stroke:#FF5AE2;stroke-width:1pt;fill:none;"
          d="M123 308.8125L164.5517 264.125L206.1035 281.3125L247.6552 267.5625L289.2069 243.5L330.7586 281.3125L372.3104 264.125L413.8621 260.6875L455.4138 246.9375L496.9655 257.25L538.5173 277.875L580.069 274.4375L621.6207 267.5625L663.1724 253.8125L704.7241 295.0625L746.2758 250.375L787.8276 291.625L829.3793 284.75L870.931 277.875L912.4827 284.75L954.0345 257.25L995.5862 229.75L1037.138 277.875L1078.69 274.4375L1120.241 284.75L1161.793 319.125L1203.345 277.875L1244.897 250.375L1286.448 281.3125L1328 295.0625" />
        <path
          id="path-3"
          style="fill:none;stroke:#FF5AE2;stroke-width:1pt;"
          d="M123 308.8125L164.5517 264.125L206.1035 281.3125L247.6552 267.5625L289.2069 243.5L330.7586 281.3125L372.3104 264.125L413.8621 260.6875L455.4138 246.9375L496.9655 257.25L538.5173 277.875L580.069 274.4375L621.6207 267.5625L663.1724 253.8125L704.7241 295.0625L746.2758 250.375L787.8276 291.625L829.3793 284.75L870.931 277.875L912.4827 284.75L954.0345 257.25L995.5862 229.75L1037.138 277.875L1078.69 274.4375L1120.241 284.75L1161.793 319.125L1203.345 277.875L1244.897 250.375L1286.448 281.3125L1328 295.0625" />
        <path
          id="path-4"
          style="stroke:#00AEC1;stroke-width:1pt;fill:none;"
          d="M123 216L164.5517 222.875L206.1035 185.0625L247.6552 133.5L289.2069 88.8125L330.7586 109.4375L372.3104 99.125L413.8621 102.5625L455.4138 78.5H496.9655L538.5173 99.125L580.069 92.25L621.6207 78.5L663.1724 92.25L704.7241 95.6875L746.2758 75.0625L787.8276 88.8125L829.3793 75.0625L870.931 71.625L912.4827 88.8125L954.0345 71.625L995.5862 78.5L1037.138 88.8125L1078.69 85.375L1120.241 71.625L1161.793 78.5L1203.345 64.75L1244.897 71.625L1286.448 88.8125L1328 64.75" />
        <path
          id="path-5"
          style="fill:none;stroke:#00AEC1;stroke-width:1pt;"
          d="M123 216L164.5517 222.875L206.1035 185.0625L247.6552 133.5L289.2069 88.8125L330.7586 109.4375L372.3104 99.125L413.8621 102.5625L455.4138 78.5H496.9655L538.5173 99.125L580.069 92.25L621.6207 78.5L663.1724 92.25L704.7241 95.6875L746.2758 75.0625L787.8276 88.8125L829.3793 75.0625L870.931 71.625L912.4827 88.8125L954.0345 71.625L995.5862 78.5L1037.138 88.8125L1078.69 85.375L1120.241 71.625L1161.793 78.5L1203.345 64.75L1244.897 71.625L1286.448 88.8125L1328 64.75" />
        <path
          id="path-6"
          style="stroke:#3DA930;stroke-width:1pt;fill:none;"
          d="M123 473.8125L164.5517 436L206.1035 415.375L247.6552 350.0625L289.2069 281.3125L330.7586 339.75L372.3104 312.25H413.8621L455.4138 274.4375L496.9655 284.75L538.5173 326L580.069 315.6875L621.6207 295.0625H663.1724L704.7241 339.75L746.2758 274.4375L787.8276 329.4375L829.3793 308.8125L870.931 298.5L912.4827 322.5625L954.0345 277.875L995.5862 257.25L1037.138 315.6875L1078.69 308.8125L1120.241 305.375L1161.793 346.625L1203.345 291.625L1244.897 271L1286.448 319.125L1328 308.8125" />
        <path
          id="path-7"
          style="stroke:#3DA930;stroke-width:1pt;fill:none;"
          d="M123 473.8125L164.5517 436L206.1035 415.375L247.6552 350.0625L289.2069 281.3125L330.7586 339.75L372.3104 312.25H413.8621L455.4138 274.4375L496.9655 284.75L538.5173 326L580.069 315.6875L621.6207 295.0625H663.1724L704.7241 339.75L746.2758 274.4375L787.8276 329.4375L829.3793 308.8125L870.931 298.5L912.4827 322.5625L954.0345 277.875L995.5862 257.25L1037.138 315.6875L1078.69 308.8125L1120.241 305.375L1161.793 346.625L1203.345 291.625L1244.897 271L1286.448 319.125L1328 308.8125" />
        <rect
          id="rect-8"
          style="fill:#FAF9FEBF;"
          x="1165"
          y="49"
          width="165"
          height="176" />
        <g
          id="group-9">
          <path
            id="path-0"
            style="stroke:#0000FF;stroke-width:1pt;fill:none;"
            d="M1263 71H1330" />
        </g>
        <g
          id="group-10">
          <text
            id="text-0"
            style="text-decoration:none;direction:ltr;highlight-color:#FFE17B;x:1165;y:81.0625;stroke:#0000FF;font-size:16.2px;select-color:#D8E2FF;stroke-width:1pt;fill:#191B22;"
            x="1165"
            y="81.0625">Gated</text>
        </g>
        <g
          id="group-11">
          <path
            id="path-0"
            style="stroke:#FF5AE2;stroke-width:1pt;fill:none;"
            d="M1263 115H1330" />
        </g>
        <g
          id="group-12">
          <text
            id="text-0"
            style="x:1165;fill:#191B22;text-decoration:none;direction:ltr;select-color:#D8E2FF;y:125.0625;stroke:#FF5AE2;stroke-width:1pt;font-size:16.2px;highlight-color:#FFE17B;"
            x="1165"
            y="125.0625">Should</text>
        </g>
        <g
          id="group-13">
          <path
            id="path-0"
            style="stroke:#00AEC1;stroke-width:1pt;fill:none;"
            d="M1263 159H1330" />
        </g>
        <g
          id="group-14">
          <text
            id="text-0"
            style="y:169.0625;stroke:#00AEC1;stroke-width:1pt;fill:#191B22;text-decoration:none;x:1165;font-size:16.2px;direction:ltr;select-color:#D8E2FF;highlight-color:#FFE17B;"
            x="1165"
            y="169.0625">Match</text>
        </g>
        <g
          id="group-15">
          <path
            id="path-0"
            style="stroke:#3DA930;stroke-width:1pt;fill:none;"
            d="M1263 203H1330" />
        </g>
        <g
          id="group-16">
          <text
            id="text-0"
            style="fill:#191B22;x:1165;stroke:#3DA930;stroke-width:1pt;direction:ltr;select-color:#D8E2FF;highlight-color:#FFE17B;y:213.0625;font-size:16.2px;text-decoration:none;"
            x="1165"
            y="213.0625">Rew</text>
        </g>
      </g>
    </g>
  </g>
</svg>
