<?xml version="1.0"?>
<!-- Generated by SVGo and Plotinum VG -->
<svg width="975.38pt" height="340.12pt" viewBox="0 0 975.38 340.12"
	xmlns="http://www.w3.org/2000/svg"
	xmlns:xlink="http://www.w3.org/1999/xlink">
<g transform="scale(1, -1) translate(0, -340.12)">
<text x="415.98" y="-330.4" transform="scale(1, -1)"
	style="font-family:Liberation Sans;font-variant:normal;font-weight:normal;font-style:normal;font-size:12px">Kinase Equations Trial Plot</text>
<text x="500.35" y="-3.6797" transform="scale(1, -1)"
	style="font-family:Liberation Sans;font-variant:normal;font-weight:normal;font-style:normal;font-size:12px">Cycle</text>
<text x="52.545" y="-16.473" transform="scale(1, -1)"
	style="font-family:Liberation Sans;font-variant:normal;font-weight:normal;font-style:normal;font-size:10px">0</text>
<text x="277.57" y="-16.473" transform="scale(1, -1)"
	style="font-family:Liberation Sans;font-variant:normal;font-weight:normal;font-style:normal;font-size:10px">100</text>
<text x="508.16" y="-16.473" transform="scale(1, -1)"
	style="font-family:Liberation Sans;font-variant:normal;font-weight:normal;font-style:normal;font-size:10px">200</text>
<text x="738.75" y="-16.473" transform="scale(1, -1)"
	style="font-family:Liberation Sans;font-variant:normal;font-weight:normal;font-style:normal;font-size:10px">300</text>
<path d="M55.326,24.578L55.326,32.578" style="fill:none;stroke:#000000;stroke-width:0.5" />
<path d="M285.91,24.578L285.91,32.578" style="fill:none;stroke:#000000;stroke-width:0.5" />
<path d="M516.5,24.578L516.5,32.578" style="fill:none;stroke:#000000;stroke-width:0.5" />
<path d="M747.09,24.578L747.09,32.578" style="fill:none;stroke:#000000;stroke-width:0.5" />
<path d="M101.44,28.578L101.44,32.578" style="fill:none;stroke:#000000;stroke-width:0.5" />
<path d="M147.56,28.578L147.56,32.578" style="fill:none;stroke:#000000;stroke-width:0.5" />
<path d="M193.68,28.578L193.68,32.578" style="fill:none;stroke:#000000;stroke-width:0.5" />
<path d="M239.8,28.578L239.8,32.578" style="fill:none;stroke:#000000;stroke-width:0.5" />
<path d="M332.03,28.578L332.03,32.578" style="fill:none;stroke:#000000;stroke-width:0.5" />
<path d="M378.15,28.578L378.15,32.578" style="fill:none;stroke:#000000;stroke-width:0.5" />
<path d="M424.27,28.578L424.27,32.578" style="fill:none;stroke:#000000;stroke-width:0.5" />
<path d="M470.39,28.578L470.39,32.578" style="fill:none;stroke:#000000;stroke-width:0.5" />
<path d="M562.62,28.578L562.62,32.578" style="fill:none;stroke:#000000;stroke-width:0.5" />
<path d="M608.74,28.578L608.74,32.578" style="fill:none;stroke:#000000;stroke-width:0.5" />
<path d="M654.86,28.578L654.86,32.578" style="fill:none;stroke:#000000;stroke-width:0.5" />
<path d="M700.97,28.578L700.97,32.578" style="fill:none;stroke:#000000;stroke-width:0.5" />
<path d="M793.21,28.578L793.21,32.578" style="fill:none;stroke:#000000;stroke-width:0.5" />
<path d="M839.33,28.578L839.33,32.578" style="fill:none;stroke:#000000;stroke-width:0.5" />
<path d="M885.45,28.578L885.45,32.578" style="fill:none;stroke:#000000;stroke-width:0.5" />
<path d="M931.56,28.578L931.56,32.578" style="fill:none;stroke:#000000;stroke-width:0.5" />
<path d="M55.326,32.578L975.38,32.578" style="fill:none;stroke:#000000;stroke-width:0.5" />
<g transform="rotate(90)">
<text x="164.53" y="9.7266" transform="scale(1, -1)"
	style="font-family:Liberation Sans;font-variant:normal;font-weight:normal;font-style:normal;font-size:12px">SSpike</text>
</g>
<text x="15.949" y="-62.042" transform="scale(1, -1)"
	style="font-family:Liberation Sans;font-variant:normal;font-weight:normal;font-style:normal;font-size:10px">-0.03</text>
<text x="19.279" y="-183.04" transform="scale(1, -1)"
	style="font-family:Liberation Sans;font-variant:normal;font-weight:normal;font-style:normal;font-size:10px">0.03</text>
<text x="19.279" y="-304.03" transform="scale(1, -1)"
	style="font-family:Liberation Sans;font-variant:normal;font-weight:normal;font-style:normal;font-size:10px">0.09</text>
<path d="M41.521,64.561L49.521,64.561" style="fill:none;stroke:#000000;stroke-width:0.5" />
<path d="M41.521,185.56L49.521,185.56" style="fill:none;stroke:#000000;stroke-width:0.5" />
<path d="M41.521,306.55L49.521,306.55" style="fill:none;stroke:#000000;stroke-width:0.5" />
<path d="M45.521,125.06L49.521,125.06" style="fill:none;stroke:#000000;stroke-width:0.5" />
<path d="M45.521,246.05L49.521,246.05" style="fill:none;stroke:#000000;stroke-width:0.5" />
<path d="M49.521,40.371L49.521,326.72" style="fill:none;stroke:#000000;stroke-width:0.5" />
<path d="M55.326,125.06L57.632,125.06L59.938,125.06L62.244,125.06L64.55,125.06L66.856,125.06L69.161,125.06L71.467,125.06L73.773,125.06L76.079,125.06L78.385,125.06L80.691,125.06L82.997,125.06L85.303,125.06L87.609,125.06L89.914,125.06L92.22,125.06L94.526,125.06L96.832,125.06L99.138,125.06L101.44,125.06L103.75,125.06L106.06,125.06L108.36,125.06L110.67,125.06L112.97,125.06L115.28,125.06L117.59,125.06L119.89,125.06L122.2,125.06L124.5,125.06L126.81,125.06L129.11,125.06L131.42,125.06L133.73,125.06L136.03,125.06L138.34,125.06L140.64,125.06L142.95,326.72L145.26,125.06L147.56,125.06L149.87,125.06L152.17,125.06L154.48,125.06L156.79,125.06L159.09,125.06L161.4,125.06L163.7,125.06L166.01,125.06L168.31,125.06L170.62,125.06L172.93,125.06L175.23,125.06L177.54,125.06L179.84,125.06L182.15,125.06L184.46,125.06L186.76,125.06L189.07,125.06L191.37,125.06L193.68,125.06L195.99,125.06L198.29,125.06L200.6,125.06L202.9,125.06L205.21,125.06L207.51,125.06L209.82,125.06L212.13,125.06L214.43,125.06L216.74,125.06L219.04,125.06L221.35,125.06L223.66,125.06L225.96,326.72L228.27,125.06L230.57,125.06L232.88,125.06L235.19,125.06L237.49,125.06L239.8,125.06L242.1,125.06L244.41,125.06L246.71,125.06L249.02,125.06L251.33,125.06L253.63,125.06L255.94,125.06L258.24,125.06L260.55,125.06L262.86,125.06L265.16,125.06L267.47,125.06L269.77,125.06L272.08,125.06L274.39,125.06L276.69,125.06L279,125.06L281.3,125.06L283.61,125.06L285.91,125.06L288.22,125.06L290.53,125.06L292.83,125.06L295.14,125.06L297.44,125.06L299.75,125.06L302.06,125.06L304.36,125.06L306.67,125.06L308.97,125.06L311.28,125.06L313.59,326.72L315.89,125.06L318.2,125.06L320.5,125.06L322.81,125.06L325.11,125.06L327.42,125.06L329.73,125.06L332.03,125.06L334.34,125.06L336.64,125.06L338.95,125.06L341.26,125.06L343.56,125.06L345.87,125.06L348.17,125.06L350.48,125.06L352.79,125.06L355.09,125.06L357.4,125.06L359.7,125.06L362.01,125.06L364.32,125.06L366.62,125.06L368.93,125.06L371.23,125.06L373.54,125.06L375.84,125.06L378.15,125.06L380.46,125.06L382.76,125.06L385.07,125.06L387.37,125.06L389.68,125.06L391.99,125.06L394.29,125.06L396.6,125.06L398.9,125.06L401.21,326.72L403.52,125.06L405.82,125.06L408.13,125.06L410.43,125.06L412.74,125.06L415.04,125.06L417.35,125.06L419.66,125.06L421.96,125.06L424.27,125.06L426.57,125.06L428.88,125.06L431.19,125.06L433.49,125.06L435.8,125.06L438.1,125.06L440.41,125.06L442.72,326.72L445.02,125.06L447.33,125.06L449.63,125.06L451.94,125.06L454.24,125.06L456.55,125.06L458.86,125.06L461.16,125.06L463.47,125.06L465.77,125.06L468.08,125.06L470.39,125.06L472.69,125.06L475,125.06L477.3,125.06L479.61,125.06L481.92,125.06L484.22,125.06L486.53,125.06L488.83,125.06L491.14,326.72L493.44,125.06L495.75,125.06L498.06,125.06L500.36,125.06L502.67,125.06L504.97,125.06L507.28,125.06L509.59,125.06L511.89,125.06L514.2,125.06L516.5,125.06L518.81,125.06L521.12,125.06L523.42,125.06L525.73,125.06L528.03,125.06L530.34,125.06L532.64,125.06L534.95,125.06L537.26,125.06L539.56,125.06L541.87,125.06L544.17,125.06L546.48,125.06L548.79,125.06L551.09,125.06L553.4,125.06L555.7,125.06L558.01,125.06L560.32,125.06L562.62,125.06L564.93,125.06L567.23,125.06L569.54,125.06L571.84,125.06L574.15,125.06L576.46,125.06L578.76,125.06L581.07,125.06L583.37,125.06L585.68,125.06L587.99,125.06L590.29,125.06L592.6,125.06L594.9,125.06L597.21,125.06L599.52,125.06L601.82,125.06L604.13,125.06L606.43,125.06L608.74,125.06L611.04,125.06L613.35,125.06L615.66,125.06L617.96,125.06L620.27,125.06L622.57,125.06L624.88,125.06L627.19,125.06L629.49,125.06L631.8,125.06L634.1,125.06L636.41,125.06L638.72,125.06L641.02,125.06L643.33,125.06L645.63,125.06L647.94,125.06L650.24,125.06L652.55,125.06L654.86,125.06L657.16,125.06L659.47,125.06L661.77,125.06L664.08,125.06L666.39,125.06L668.69,125.06L671,125.06L673.3,125.06L675.61,125.06L677.92,125.06L680.22,125.06L682.53,125.06L684.83,125.06L687.14,125.06L689.45,125.06L691.75,125.06L694.06,125.06L696.36,125.06L698.67,125.06L700.97,125.06L703.28,125.06L705.59,125.06L707.89,125.06L710.2,125.06L712.5,125.06L714.81,125.06L717.12,125.06L719.42,125.06L721.73,125.06L724.03,125.06L726.34,125.06L728.65,125.06L730.95,125.06L733.26,125.06L735.56,125.06L737.87,125.06L740.17,125.06L742.48,125.06L744.79,125.06L747.09,125.06L749.4,125.06L751.7,125.06L754.01,125.06L756.32,125.06L758.62,125.06L760.93,125.06L763.23,125.06L765.54,326.72L767.85,125.06L770.15,125.06L772.46,125.06L774.76,125.06L777.07,125.06L779.37,125.06L781.68,125.06L783.99,125.06L786.29,125.06L788.6,125.06L790.9,125.06L793.21,125.06L795.52,125.06L797.82,125.06L800.13,125.06L802.43,125.06L804.74,125.06L807.05,125.06L809.35,125.06L811.66,125.06L813.96,125.06L816.27,125.06L818.57,125.06L820.88,125.06L823.19,125.06L825.49,125.06L827.8,125.06L830.1,125.06L832.41,125.06L834.72,125.06L837.02,125.06L839.33,125.06L841.63,125.06L843.94,125.06L846.25,125.06L848.55,125.06L850.86,125.06L853.16,125.06L855.47,125.06L857.77,125.06L860.08,125.06L862.39,125.06L864.69,125.06L867,125.06L869.3,125.06L871.61,125.06L873.92,125.06L876.22,125.06L878.53,125.06L880.83,125.06L883.14,125.06L885.45,125.06L887.75,125.06L890.06,125.06L892.36,125.06L894.67,125.06L896.97,125.06L899.28,125.06L901.59,125.06L903.89,125.06L906.2,125.06L908.5,125.06L910.81,125.06L913.12,125.06L915.42,125.06L917.73,125.06L920.03,125.06L922.34,125.06L924.65,125.06L926.95,125.06L929.26,125.06L931.56,125.06L933.87,125.06L936.17,125.06L938.48,125.06L940.79,125.06L943.09,125.06L945.4,125.06L947.7,125.06L950.01,125.06L952.32,125.06L954.62,125.06L956.93,125.06L959.23,125.06L961.54,125.06L963.85,125.06L966.15,125.06L968.46,125.06L970.76,125.06L973.07,125.06L975.38,125.06" style="fill:none;stroke:#228B22" />
<path d="M55.326,125.06L57.632,125.06L59.938,125.06L62.244,125.06L64.55,125.06L66.856,125.06L69.161,125.06L71.467,125.06L73.773,125.06L76.079,125.06L78.385,125.06L80.691,125.06L82.997,125.06L85.303,125.06L87.609,125.06L89.914,125.06L92.22,125.06L94.526,125.06L96.832,125.06L99.138,125.06L101.44,326.72L103.75,125.06L106.06,125.06L108.36,125.06L110.67,125.06L112.97,125.06L115.28,125.06L117.59,125.06L119.89,125.06L122.2,125.06L124.5,125.06L126.81,125.06L129.11,125.06L131.42,125.06L133.73,125.06L136.03,125.06L138.34,125.06L140.64,125.06L142.95,125.06L145.26,125.06L147.56,125.06L149.87,125.06L152.17,125.06L154.48,125.06L156.79,125.06L159.09,125.06L161.4,125.06L163.7,125.06L166.01,125.06L168.31,125.06L170.62,125.06L172.93,125.06L175.23,125.06L177.54,125.06L179.84,125.06L182.15,125.06L184.46,125.06L186.76,125.06L189.07,125.06L191.37,125.06L193.68,326.72L195.99,125.06L198.29,125.06L200.6,125.06L202.9,125.06L205.21,125.06L207.51,125.06L209.82,125.06L212.13,125.06L214.43,125.06L216.74,125.06L219.04,125.06L221.35,125.06L223.66,125.06L225.96,125.06L228.27,125.06L230.57,125.06L232.88,125.06L235.19,125.06L237.49,125.06L239.8,125.06L242.1,125.06L244.41,125.06L246.71,125.06L249.02,125.06L251.33,125.06L253.63,125.06L255.94,125.06L258.24,125.06L260.55,125.06L262.86,125.06L265.16,125.06L267.47,125.06L269.77,125.06L272.08,125.06L274.39,125.06L276.69,125.06L279,125.06L281.3,125.06L283.61,125.06L285.91,125.06L288.22,125.06L290.53,326.72L292.83,125.06L295.14,125.06L297.44,125.06L299.75,125.06L302.06,125.06L304.36,125.06L306.67,125.06L308.97,125.06L311.28,125.06L313.59,125.06L315.89,125.06L318.2,125.06L320.5,125.06L322.81,125.06L325.11,125.06L327.42,125.06L329.73,125.06L332.03,125.06L334.34,125.06L336.64,125.06L338.95,125.06L341.26,125.06L343.56,125.06L345.87,125.06L348.17,125.06L350.48,125.06L352.79,125.06L355.09,125.06L357.4,125.06L359.7,125.06L362.01,125.06L364.32,125.06L366.62,125.06L368.93,125.06L371.23,125.06L373.54,125.06L375.84,125.06L378.15,125.06L380.46,326.72L382.76,125.06L385.07,125.06L387.37,125.06L389.68,125.06L391.99,125.06L394.29,125.06L396.6,125.06L398.9,125.06L401.21,125.06L403.52,125.06L405.82,125.06L408.13,125.06L410.43,125.06L412.74,125.06L415.04,125.06L417.35,125.06L419.66,125.06L421.96,125.06L424.27,125.06L426.57,125.06L428.88,125.06L431.19,125.06L433.49,125.06L435.8,125.06L438.1,125.06L440.41,125.06L442.72,125.06L445.02,125.06L447.33,125.06L449.63,326.72L451.94,125.06L454.24,125.06L456.55,125.06L458.86,125.06L461.16,125.06L463.47,125.06L465.77,125.06L468.08,125.06L470.39,125.06L472.69,125.06L475,125.06L477.3,125.06L479.61,125.06L481.92,125.06L484.22,125.06L486.53,125.06L488.83,125.06L491.14,125.06L493.44,125.06L495.75,125.06L498.06,125.06L500.36,125.06L502.67,125.06L504.97,326.72L507.28,125.06L509.59,125.06L511.89,125.06L514.2,125.06L516.5,125.06L518.81,125.06L521.12,125.06L523.42,125.06L525.73,125.06L528.03,125.06L530.34,125.06L532.64,125.06L534.95,125.06L537.26,125.06L539.56,125.06L541.87,125.06L544.17,125.06L546.48,125.06L548.79,125.06L551.09,125.06L553.4,125.06L555.7,125.06L558.01,125.06L560.32,125.06L562.62,125.06L564.93,125.06L567.23,125.06L569.54,125.06L571.84,125.06L574.15,125.06L576.46,125.06L578.76,125.06L581.07,125.06L583.37,125.06L585.68,125.06L587.99,125.06L590.29,125.06L592.6,125.06L594.9,125.06L597.21,125.06L599.52,125.06L601.82,125.06L604.13,125.06L606.43,125.06L608.74,125.06L611.04,125.06L613.35,125.06L615.66,125.06L617.96,125.06L620.27,125.06L622.57,125.06L624.88,125.06L627.19,125.06L629.49,125.06L631.8,125.06L634.1,125.06L636.41,125.06L638.72,125.06L641.02,125.06L643.33,125.06L645.63,125.06L647.94,125.06L650.24,125.06L652.55,125.06L654.86,125.06L657.16,125.06L659.47,125.06L661.77,125.06L664.08,125.06L666.39,125.06L668.69,125.06L671,125.06L673.3,125.06L675.61,125.06L677.92,125.06L680.22,125.06L682.53,125.06L684.83,125.06L687.14,125.06L689.45,125.06L691.75,125.06L694.06,125.06L696.36,125.06L698.67,125.06L700.97,125.06L703.28,125.06L705.59,125.06L707.89,125.06L710.2,125.06L712.5,125.06L714.81,125.06L717.12,125.06L719.42,125.06L721.73,125.06L724.03,125.06L726.34,125.06L728.65,125.06L730.95,125.06L733.26,125.06L735.56,125.06L737.87,125.06L740.17,125.06L742.48,125.06L744.79,125.06L747.09,125.06L749.4,125.06L751.7,125.06L754.01,125.06L756.32,125.06L758.62,125.06L760.93,125.06L763.23,125.06L765.54,125.06L767.85,125.06L770.15,125.06L772.46,125.06L774.76,125.06L777.07,125.06L779.37,125.06L781.68,326.72L783.99,125.06L786.29,125.06L788.6,125.06L790.9,125.06L793.21,125.06L795.52,125.06L797.82,125.06L800.13,125.06L802.43,125.06L804.74,125.06L807.05,125.06L809.35,125.06L811.66,125.06L813.96,125.06L816.27,125.06L818.57,125.06L820.88,125.06L823.19,125.06L825.49,125.06L827.8,125.06L830.1,125.06L832.41,125.06L834.72,125.06L837.02,125.06L839.33,125.06L841.63,125.06L843.94,125.06L846.25,125.06L848.55,125.06L850.86,125.06L853.16,125.06L855.47,125.06L857.77,125.06L860.08,125.06L862.39,125.06L864.69,125.06L867,125.06L869.3,125.06L871.61,125.06L873.92,125.06L876.22,125.06L878.53,125.06L880.83,125.06L883.14,125.06L885.45,125.06L887.75,125.06L890.06,125.06L892.36,125.06L894.67,125.06L896.97,125.06L899.28,125.06L901.59,125.06L903.89,125.06L906.2,125.06L908.5,125.06L910.81,125.06L913.12,125.06L915.42,125.06L917.73,125.06L920.03,125.06L922.34,125.06L924.65,125.06L926.95,125.06L929.26,125.06L931.56,125.06L933.87,125.06L936.17,125.06L938.48,125.06L940.79,125.06L943.09,125.06L945.4,125.06L947.7,125.06L950.01,125.06L952.32,125.06L954.62,125.06L956.93,125.06L959.23,125.06L961.54,125.06L963.85,125.06L966.15,125.06L968.46,125.06L970.76,125.06L973.07,125.06L975.38,125.06" style="fill:none;stroke:#800080" />
<path d="M55.326,143.22L57.632,143.61L59.938,143.82L62.244,143.9L64.55,143.86L66.856,143.73L69.161,143.54L71.467,143.3L73.773,143.03L76.079,142.72L78.385,142.39L80.691,142.05L82.997,141.7L85.303,141.34L87.609,140.98L89.914,140.62L92.22,140.26L94.526,139.9L96.832,139.55L99.138,139.2L101.44,142.68L103.75,145.3L106.06,147.24L108.36,148.65L110.67,149.63L112.97,150.27L115.28,150.64L117.59,150.81L119.89,150.8L122.2,150.68L124.5,150.45L126.81,150.14L129.11,149.78L131.42,149.37L133.73,148.93L136.03,148.47L138.34,147.99L140.64,147.5L142.95,152.81L145.26,156.82L147.56,159.78L149.87,161.92L152.17,163.41L154.48,164.37L156.79,164.93L159.09,165.16L161.4,165.14L163.7,164.93L166.01,164.56L168.31,164.08L170.62,163.51L172.93,162.87L175.23,162.18L177.54,161.46L179.84,160.72L182.15,159.96L184.46,159.19L186.76,158.42L189.07,157.66L191.37,156.9L193.68,161.82L195.99,165.47L198.29,168.12L200.6,169.97L202.9,171.19L205.21,171.91L207.51,172.24L209.82,172.26L212.13,172.04L214.43,171.63L216.74,171.08L219.04,170.42L221.35,169.68L223.66,168.88L225.96,175.94L228.27,181.19L230.57,185.01L232.88,187.68L235.19,189.46L237.49,190.52L239.8,191.02L242.1,191.08L244.41,190.8L246.71,190.25L249.02,189.5L251.33,188.59L253.63,187.56L255.94,186.45L258.24,185.27L260.55,184.05L262.86,182.81L265.16,181.55L267.47,180.28L269.77,179.02L272.08,177.76L274.39,176.52L276.69,175.3L279,174.09L281.3,172.9L283.61,171.74L285.91,170.59L288.22,169.47L290.53,173.98L292.83,177.25L295.14,179.53L297.44,181.05L299.75,181.95L302.06,182.36L304.36,182.4L306.67,182.15L308.97,181.66L311.28,181L313.59,189.29L315.89,195.43L318.2,199.87L320.5,202.96L322.81,204.98L325.11,206.16L327.42,206.67L329.73,206.66L332.03,206.25L334.34,205.52L336.64,204.55L338.95,203.39L341.26,202.1L343.56,200.71L345.87,199.24L348.17,197.73L350.48,196.18L352.79,194.62L355.09,193.06L357.4,191.5L359.7,189.95L362.01,188.42L364.32,186.9L366.62,185.41L368.93,183.95L371.23,182.52L373.54,181.11L375.84,179.73L378.15,178.38L380.46,182.85L382.76,186.05L385.07,188.24L387.37,189.63L389.68,190.39L391.99,190.66L394.29,190.54L396.6,190.12L398.9,189.47L401.21,198.34L403.52,204.89L405.82,209.61L408.13,212.86L410.43,214.96L412.74,216.15L415.04,216.62L417.35,216.53L419.66,216L421.96,215.13L424.27,214.01L426.57,212.68L428.88,211.21L431.19,209.64L433.49,207.98L435.8,206.28L438.1,204.54L440.41,202.79L442.72,208.76L445.02,213L447.33,215.87L449.63,233.35L451.94,246.44L454.24,256.05L456.55,262.89L458.86,267.53L461.16,270.44L463.47,271.98L465.77,272.45L468.08,272.08L470.39,271.06L472.69,269.53L475,267.61L477.3,265.4L479.61,262.98L481.92,260.4L484.22,257.71L486.53,254.95L488.83,252.15L491.14,260.95L493.44,267.14L495.75,271.26L498.06,273.74L500.36,274.93L502.67,275.11L504.97,292.17L507.28,304.64L509.59,313.47L511.89,319.42L514.2,323.08L516.5,324.95L518.81,325.41L521.12,324.77L523.42,323.27L525.73,321.11L528.03,318.44L530.34,315.39L532.64,312.06L534.95,308.53L537.26,304.86L539.56,301.1L541.87,297.28L544.17,293.45L546.48,289.61L548.79,285.8L551.09,282.02L553.4,278.29L555.7,274.61L558.01,270.99L560.32,267.44L562.62,263.96L564.93,260.55L567.23,257.22L569.54,253.95L571.84,250.76L574.15,247.65L576.46,244.6L578.76,241.63L581.07,238.73L583.37,235.9L585.68,233.14L587.99,230.44L590.29,227.81L592.6,225.25L594.9,222.75L597.21,220.31L599.52,217.93L601.82,215.61L604.13,213.34L606.43,211.14L608.74,208.99L611.04,206.89L613.35,204.84L615.66,202.85L617.96,200.91L620.27,199.01L622.57,197.16L624.88,195.36L627.19,193.6L629.49,191.89L631.8,190.22L634.1,188.59L636.41,187L638.72,185.45L641.02,183.94L643.33,182.47L645.63,181.04L647.94,179.64L650.24,178.27L652.55,176.94L654.86,175.64L657.16,174.38L659.47,173.15L661.77,171.94L664.08,170.77L666.39,169.63L668.69,168.52L671,167.43L673.3,166.37L675.61,165.34L677.92,164.33L680.22,163.35L682.53,162.39L684.83,161.46L687.14,160.55L689.45,159.66L691.75,158.8L694.06,157.95L696.36,157.13L698.67,156.33L700.97,155.55L703.28,154.78L705.59,154.04L707.89,153.32L710.2,152.61L712.5,151.92L714.81,151.25L717.12,125.06L719.42,125.06L721.73,125.06L724.03,125.06L726.34,125.06L728.65,125.06L730.95,125.06L733.26,125.06L735.56,125.06L737.87,125.06L740.17,125.06L742.48,125.06L744.79,125.06L747.09,125.06L749.4,125.06L751.7,125.06L754.01,125.06L756.32,125.06L758.62,125.06L760.93,125.06L763.23,125.06L765.54,125.66L767.85,126.12L770.15,126.47L772.46,126.74L774.76,126.94L777.07,127.09L779.37,127.2L781.68,132.18L783.99,136.03L786.29,138.97L788.6,141.2L790.9,142.86L793.21,144.06L795.52,144.91L797.82,145.47L800.13,145.8L802.43,145.96L804.74,145.98L807.05,145.88L809.35,145.71L811.66,145.47L813.96,145.18L816.27,144.86L818.57,144.5L820.88,144.13L823.19,143.74L825.49,143.35L827.8,142.95L830.1,142.55L832.41,142.15L834.72,141.75L837.02,141.36L839.33,140.97L841.63,140.59L843.94,140.21L846.25,139.84L848.55,139.48L850.86,139.13L853.16,138.78L855.47,138.44L857.77,138.11L860.08,137.78L862.39,137.47L864.69,137.16L867,136.86L869.3,136.56L871.61,136.28L873.92,136L876.22,135.73L878.53,135.46L880.83,135.2L883.14,134.95L885.45,134.7L887.75,134.46L890.06,134.22L892.36,133.99L894.67,133.77L896.97,133.55L899.28,133.34L901.59,133.13L903.89,132.93L906.2,132.74L908.5,132.54L910.81,132.36L913.12,132.17L915.42,132L917.73,131.82L920.03,131.65L922.34,131.49L924.65,131.33L926.95,131.17L929.26,131.02L931.56,130.87L933.87,130.72L936.17,130.58L938.48,130.44L940.79,130.31L943.09,130.18L945.4,130.05L947.7,129.93L950.01,129.8L952.32,129.69L954.62,129.57L956.93,129.46L959.23,129.35L961.54,129.24L963.85,129.14L966.15,129.03L968.46,128.93L970.76,128.84L973.07,128.74L975.38,128.65" style="fill:none;stroke:#FF0000" />
<path d="M55.326,131.46L57.632,131.76L59.938,132.06L62.244,132.36L64.55,132.64L66.856,132.92L69.161,133.19L71.467,133.44L73.773,133.68L76.079,133.91L78.385,134.12L80.691,134.32L82.997,134.5L85.303,134.67L87.609,134.83L89.914,134.97L92.22,135.11L94.526,135.23L96.832,135.33L99.138,135.43L101.44,135.61L103.75,135.85L106.06,136.14L108.36,136.45L110.67,136.78L112.97,137.12L115.28,137.46L117.59,137.79L119.89,138.12L122.2,138.43L124.5,138.73L126.81,139.02L129.11,139.28L131.42,139.54L133.73,139.77L136.03,139.99L138.34,140.19L140.64,140.37L142.95,140.68L145.26,141.09L147.56,141.55L149.87,142.06L152.17,142.6L154.48,143.14L156.79,143.69L159.09,144.22L161.4,144.75L163.7,145.25L166.01,145.73L168.31,146.19L170.62,146.62L172.93,147.03L175.23,147.41L177.54,147.76L179.84,148.08L182.15,148.38L184.46,148.65L186.76,148.9L189.07,149.12L191.37,149.31L193.68,149.62L195.99,150.02L198.29,150.47L200.6,150.96L202.9,151.46L205.21,151.98L207.51,152.48L209.82,152.98L212.13,153.45L214.43,153.91L216.74,154.34L219.04,154.74L221.35,155.11L223.66,155.46L225.96,155.97L228.27,156.6L230.57,157.31L232.88,158.07L235.19,158.85L237.49,159.65L239.8,160.43L242.1,161.2L244.41,161.94L246.71,162.64L249.02,163.32L251.33,163.95L253.63,164.54L255.94,165.09L258.24,165.59L260.55,166.05L262.86,166.47L265.16,166.85L267.47,167.18L269.77,167.48L272.08,167.74L274.39,167.96L276.69,168.14L279,168.29L281.3,168.4L283.61,168.49L285.91,168.54L288.22,168.56L290.53,168.7L292.83,168.91L295.14,169.18L297.44,169.47L299.75,169.79L302.06,170.1L304.36,170.41L306.67,170.7L308.97,170.98L311.28,171.23L313.59,171.68L315.89,172.27L318.2,172.96L320.5,173.71L322.81,174.49L325.11,175.29L327.42,176.07L329.73,176.83L332.03,177.57L334.34,178.27L336.64,178.93L338.95,179.54L341.26,180.1L343.56,180.62L345.87,181.08L348.17,181.5L350.48,181.87L352.79,182.18L355.09,182.46L357.4,182.68L359.7,182.86L362.01,183L364.32,183.1L366.62,183.16L368.93,183.18L371.23,183.16L373.54,183.11L375.84,183.03L378.15,182.91L380.46,182.91L382.76,182.99L385.07,183.12L387.37,183.28L389.68,183.46L391.99,183.64L394.29,183.81L396.6,183.97L398.9,184.11L401.21,184.46L403.52,184.97L405.82,185.59L408.13,186.27L410.43,186.99L412.74,187.72L415.04,188.44L417.35,189.14L419.66,189.81L421.96,190.45L424.27,191.03L426.57,191.58L428.88,192.07L431.19,192.51L433.49,192.89L435.8,193.23L438.1,193.51L440.41,193.74L442.72,194.12L445.02,194.59L447.33,195.12L449.63,196.08L451.94,197.34L454.24,198.8L456.55,200.41L458.86,202.08L461.16,203.79L463.47,205.5L465.77,207.17L468.08,208.8L470.39,210.35L472.69,211.83L475,213.23L477.3,214.53L479.61,215.74L481.92,216.86L484.22,217.88L486.53,218.81L488.83,219.64L491.14,220.67L493.44,221.83L495.75,223.07L498.06,224.34L500.36,225.6L502.67,226.84L504.97,228.47L507.28,230.38L509.59,232.45L511.89,234.63L514.2,236.84L516.5,239.04L518.81,241.2L521.12,243.29L523.42,245.29L525.73,247.19L528.03,248.97L530.34,250.63L532.64,252.16L534.95,253.57L537.26,254.85L539.56,256.01L541.87,257.04L544.17,257.95L546.48,258.74L548.79,259.42L551.09,259.99L553.4,260.44L555.7,260.8L558.01,261.05L560.32,261.21L562.62,261.28L564.93,261.26L567.23,261.16L569.54,260.98L571.84,260.73L574.15,260.4L576.46,260L578.76,259.54L581.07,259.02L583.37,258.45L585.68,257.81L587.99,257.13L590.29,256.4L592.6,255.62L594.9,254.8L597.21,253.93L599.52,253.03L601.82,252.1L604.13,251.13L606.43,250.13L608.74,249.1L611.04,248.05L613.35,246.97L615.66,245.86L617.96,244.74L620.27,243.6L622.57,242.43L624.88,241.26L627.19,240.07L629.49,238.86L631.8,237.65L634.1,236.42L636.41,235.18L638.72,233.94L641.02,232.69L643.33,231.43L645.63,230.17L647.94,228.91L650.24,227.65L652.55,226.38L654.86,225.11L657.16,223.84L659.47,222.57L661.77,221.31L664.08,220.04L666.39,218.78L668.69,217.53L671,216.28L673.3,215.03L675.61,213.79L677.92,212.55L680.22,211.32L682.53,210.1L684.83,208.88L687.14,207.67L689.45,206.47L691.75,205.28L694.06,204.1L696.36,202.92L698.67,201.76L700.97,200.6L703.28,199.46L705.59,198.32L707.89,197.2L710.2,196.08L712.5,194.98L714.81,193.88L717.12,125.06L719.42,125.06L721.73,125.06L724.03,125.06L726.34,125.06L728.65,125.06L730.95,125.06L733.26,125.06L735.56,125.06L737.87,125.06L740.17,125.06L742.48,125.06L744.79,125.06L747.09,125.06L749.4,125.06L751.7,125.06L754.01,125.06L756.32,125.06L758.62,125.06L760.93,125.06L763.23,125.06L765.54,125.07L767.85,125.1L770.15,125.13L772.46,125.17L774.76,125.22L777.07,125.27L779.37,125.31L781.68,125.49L783.99,125.75L786.29,126.08L788.6,126.46L790.9,126.87L793.21,127.3L795.52,127.74L797.82,128.18L800.13,128.62L802.43,129.05L804.74,129.48L807.05,129.89L809.35,130.28L811.66,130.66L813.96,131.03L816.27,131.37L818.57,131.7L820.88,132.01L823.19,132.3L825.49,132.58L827.8,132.84L830.1,133.08L832.41,133.31L834.72,133.52L837.02,133.72L839.33,133.9L841.63,134.06L843.94,134.22L846.25,134.36L848.55,134.49L850.86,134.6L853.16,134.71L855.47,134.8L857.77,134.88L860.08,134.96L862.39,135.02L864.69,135.07L867,135.12L869.3,135.15L871.61,135.18L873.92,135.2L876.22,135.21L878.53,135.22L880.83,135.22L883.14,135.21L885.45,135.2L887.75,135.18L890.06,135.16L892.36,135.13L894.67,135.09L896.97,135.06L899.28,135.01L901.59,134.97L903.89,134.92L906.2,134.86L908.5,134.8L910.81,134.74L913.12,134.68L915.42,134.61L917.73,134.54L920.03,134.47L922.34,134.39L924.65,134.32L926.95,134.24L929.26,134.16L931.56,134.08L933.87,133.99L936.17,133.91L938.48,133.82L940.79,133.73L943.09,133.64L945.4,133.55L947.7,133.46L950.01,133.37L952.32,133.28L954.62,133.19L956.93,133.09L959.23,133L961.54,132.91L963.85,132.81L966.15,132.72L968.46,132.62L970.76,132.53L973.07,132.43L975.38,132.34" style="fill:none;stroke:#0000FF" />
<path d="M55.326,131.99L57.632,131.99L59.938,132.06L62.244,132.36L64.55,132.64L66.856,132.92L69.161,133.19L71.467,133.44L73.773,133.68L76.079,133.91L78.385,134.12L80.691,134.32L82.997,134.5L85.303,134.67L87.609,134.83L89.914,134.97L92.22,135.11L94.526,135.23L96.832,135.33L99.138,135.43L101.44,135.61L103.75,135.85L106.06,136.14L108.36,136.45L110.67,136.78L112.97,137.12L115.28,137.46L117.59,137.79L119.89,138.12L122.2,138.43L124.5,138.73L126.81,139.02L129.11,139.28L131.42,139.54L133.73,139.77L136.03,139.99L138.34,140.19L140.64,140.37L142.95,140.68L145.26,141.09L147.56,141.55L149.87,142.06L152.17,142.6L154.48,143.14L156.79,143.69L159.09,144.22L161.4,144.75L163.7,145.25L166.01,145.73L168.31,146.19L170.62,146.62L172.93,147.03L175.23,147.41L177.54,147.76L179.84,148.08L182.15,148.38L184.46,148.65L186.76,148.9L189.07,149.12L191.37,149.31L193.68,149.62L195.99,150.02L198.29,150.47L200.6,150.96L202.9,151.46L205.21,151.98L207.51,152.48L209.82,152.98L212.13,153.45L214.43,153.91L216.74,154.34L219.04,154.74L221.35,155.11L223.66,155.46L225.96,155.97L228.27,156.6L230.57,157.31L232.88,158.07L235.19,158.85L237.49,159.65L239.8,160.43L242.1,161.2L244.41,161.94L246.71,162.64L249.02,163.32L251.33,163.95L253.63,164.54L255.94,165.09L258.24,165.59L260.55,166.05L262.86,166.47L265.16,166.85L267.47,167.18L269.77,167.48L272.08,167.74L274.39,167.96L276.69,168.14L279,168.29L281.3,168.4L283.61,168.49L285.91,168.54L288.22,168.56L290.53,168.7L292.83,168.91L295.14,169.18L297.44,169.47L299.75,169.79L302.06,170.1L304.36,170.41L306.67,170.7L308.97,170.98L311.28,171.23L313.59,171.68L315.89,172.27L318.2,172.96L320.5,173.71L322.81,174.49L325.11,175.29L327.42,176.07L329.73,176.83L332.03,177.57L334.34,178.27L336.64,178.93L338.95,179.54L341.26,180.1L343.56,180.62L345.87,181.08L348.17,181.5L350.48,181.87L352.79,182.18L355.09,182.46L357.4,182.68L359.7,182.86L362.01,183L364.32,183.1L366.62,183.16L368.93,183.18L371.23,183.18L373.54,183.18L375.84,183.18L378.15,183.18L380.46,183.18L382.76,183.18L385.07,183.18L387.37,183.28L389.68,183.46L391.99,183.64L394.29,183.81L396.6,183.97L398.9,184.11L401.21,184.46L403.52,184.97L405.82,185.59L408.13,186.27L410.43,186.99L412.74,187.72L415.04,188.44L417.35,189.14L419.66,189.81L421.96,190.45L424.27,191.03L426.57,191.58L428.88,192.07L431.19,192.51L433.49,192.89L435.8,193.23L438.1,193.51L440.41,193.74L442.72,194.12L445.02,194.59L447.33,195.12L449.63,196.08L451.94,197.34L454.24,198.8L456.55,200.41L458.86,202.08L461.16,203.79L463.47,205.5L465.77,207.17L468.08,208.8L470.39,210.35L472.69,211.83L475,213.23L477.3,214.53L479.61,215.74L481.92,216.86L484.22,217.88L486.53,218.81L488.83,219.64L491.14,220.67L493.44,221.83L495.75,223.07L498.06,224.34L500.36,225.6L502.67,226.84L504.97,228.47L507.28,230.38L509.59,232.45L511.89,234.63L514.2,236.84L516.5,239.04L518.81,241.2L521.12,243.29L523.42,245.29L525.73,247.19L528.03,248.97L530.34,250.63L532.64,252.16L534.95,253.57L537.26,254.85L539.56,256.01L541.87,257.04L544.17,257.95L546.48,258.74L548.79,259.42L551.09,259.99L553.4,260.44L555.7,260.8L558.01,261.05L560.32,261.21L562.62,261.28L564.93,261.28L567.23,261.28L569.54,261.28L571.84,261.28L574.15,261.28L576.46,261.28L578.76,261.28L581.07,261.28L583.37,261.28L585.68,261.28L587.99,261.28L590.29,261.28L592.6,261.28L594.9,261.28L597.21,261.28L599.52,261.28L601.82,261.28L604.13,261.28L606.43,261.28L608.74,261.28L611.04,261.28L613.35,261.28L615.66,261.28L617.96,261.28L620.27,261.28L622.57,261.28L624.88,261.28L627.19,261.28L629.49,261.28L631.8,261.28L634.1,261.28L636.41,261.28L638.72,261.28L641.02,261.28L643.33,261.28L645.63,261.28L647.94,261.28L650.24,261.28L652.55,261.28L654.86,261.28L657.16,261.28L659.47,261.28L661.77,261.28L664.08,261.28L666.39,261.28L668.69,261.28L671,261.28L673.3,261.28L675.61,261.28L677.92,261.28L680.22,261.28L682.53,261.28L684.83,261.28L687.14,261.28L689.45,261.28L691.75,261.28L694.06,261.28L696.36,261.28L698.67,261.28L700.97,261.28L703.28,261.28L705.59,261.28L707.89,261.28L710.2,261.28L712.5,261.28L714.81,261.28L717.12,125.06L719.42,125.06L721.73,125.06L724.03,125.06L726.34,125.06L728.65,125.06L730.95,125.06L733.26,125.06L735.56,125.06L737.87,125.06L740.17,125.06L742.48,125.06L744.79,125.06L747.09,125.06L749.4,125.06L751.7,125.06L754.01,125.06L756.32,125.06L758.62,125.06L760.93,125.06L763.23,125.06L765.54,125.07L767.85,125.1L770.15,125.13L772.46,125.17L774.76,125.22L777.07,125.27L779.37,125.31L781.68,125.49L783.99,125.75L786.29,126.08L788.6,126.46L790.9,126.87L793.21,127.3L795.52,127.74L797.82,128.18L800.13,128.62L802.43,129.05L804.74,129.48L807.05,129.89L809.35,130.28L811.66,130.66L813.96,131.03L816.27,131.37L818.57,131.7L820.88,132.01L823.19,132.3L825.49,132.58L827.8,132.84L830.1,133.08L832.41,133.31L834.72,133.52L837.02,133.72L839.33,133.9L841.63,134.06L843.94,134.22L846.25,134.36L848.55,134.49L850.86,134.6L853.16,134.71L855.47,134.8L857.77,134.88L860.08,134.96L862.39,135.02L864.69,135.07L867,135.12L869.3,135.15L871.61,135.18L873.92,135.2L876.22,135.21L878.53,135.22L880.83,135.22L883.14,135.22L885.45,135.22L887.75,135.22L890.06,135.22L892.36,135.22L894.67,135.22L896.97,135.22L899.28,135.22L901.59,135.22L903.89,135.22L906.2,135.22L908.5,135.22L910.81,135.22L913.12,135.22L915.42,135.22L917.73,135.22L920.03,135.22L922.34,135.22L924.65,135.22L926.95,135.22L929.26,135.22L931.56,135.22L933.87,135.22L936.17,135.22L938.48,135.22L940.79,135.22L943.09,135.22L945.4,135.22L947.7,135.22L950.01,135.22L952.32,135.22L954.62,135.22L956.93,135.22L959.23,135.22L961.54,135.22L963.85,135.22L966.15,135.22L968.46,135.22L970.76,135.22L973.07,135.22L975.38,135.22" style="fill:none;stroke:#228B22" />
<path d="M55.326,50.215L57.632,50.215L59.938,50.215L62.244,50.215L64.55,43.028L66.856,43.028L69.161,43.028L71.467,43.028L73.773,43.028L76.079,43.028L78.385,43.028L80.691,43.028L82.997,43.028L85.303,43.028L87.609,43.028L89.914,43.028L92.22,43.028L94.526,43.028L96.832,43.028L99.138,43.028L101.44,41.848L103.75,41.848L106.06,41.848L108.36,41.848L110.67,41.848L112.97,41.848L115.28,41.848L117.59,41.848L119.89,41.848L122.2,41.848L124.5,49.616L126.81,49.616L129.11,49.616L131.42,49.616L133.73,49.616L136.03,49.616L138.34,49.616L140.64,49.616L142.95,51.984L145.26,51.984L147.56,51.984L149.87,51.984L152.17,51.984L154.48,51.984L156.79,51.984L159.09,51.984L161.4,51.984L163.7,51.984L166.01,63.735L168.31,63.735L170.62,63.735L172.93,63.735L175.23,63.735L177.54,63.735L179.84,63.735L182.15,63.735L184.46,63.735L186.76,63.735L189.07,63.735L191.37,63.735L193.68,60.988L195.99,60.988L198.29,60.988L200.6,60.988L202.9,60.988L205.21,60.988L207.51,60.988L209.82,60.988L212.13,60.988L214.43,60.988L216.74,70.25L219.04,70.25L221.35,70.25L223.66,70.25L225.96,75.109L228.27,75.109L230.57,75.109L232.88,75.109L235.19,75.109L237.49,75.109L239.8,75.109L242.1,75.109L244.41,75.109L246.71,75.109L249.02,88.669L251.33,88.669L253.63,88.669L255.94,88.669L258.24,88.669L260.55,88.669L262.86,88.669L265.16,88.669L267.47,88.669L269.77,88.669L272.08,88.669L274.39,88.669L276.69,88.669L279,88.669L281.3,88.669L283.61,88.669L285.91,88.669L288.22,88.669L290.53,73.148L292.83,73.148L295.14,73.148L297.44,73.148L299.75,73.148L302.06,73.148L304.36,73.148L306.67,73.148L308.97,73.148L311.28,73.148L313.59,88.459L315.89,88.459L318.2,88.459L320.5,88.459L322.81,88.459L325.11,88.459L327.42,88.459L329.73,88.459L332.03,88.459L334.34,88.459L336.64,103.72L338.95,103.72L341.26,103.72L343.56,103.72L345.87,103.72L348.17,103.72L350.48,103.72L352.79,103.72L355.09,103.72L357.4,103.72L359.7,103.72L362.01,103.72L364.32,103.72L366.62,103.72L368.93,103.72L371.23,103.72L373.54,103.72L375.84,103.72L378.15,103.72L380.46,82.022L382.76,82.022L385.07,82.022L387.37,82.022L389.68,82.022L391.99,82.022L394.29,82.022L396.6,82.022L398.9,82.022L401.21,97.509L403.52,104.06L405.82,104.06L408.13,104.06L410.43,104.06L412.74,104.06L415.04,104.06L417.35,104.06L419.66,104.06L421.96,104.06L424.27,113.18L426.57,113.18L428.88,113.18L431.19,113.18L433.49,113.18L435.8,113.18L438.1,113.18L440.41,113.18L442.72,107.93L445.02,107.93L447.33,107.93L449.63,132.52L451.94,132.52L454.24,132.52L456.55,132.52L458.86,132.52L461.16,132.52L463.47,132.52L465.77,171.62L468.08,171.62L470.39,171.62L472.69,168.7L475,168.7L477.3,168.7L479.61,168.7L481.92,168.7L484.22,168.7L486.53,168.7L488.83,168.7L491.14,160.12L493.44,160.12L495.75,160.12L498.06,160.12L500.36,160.12L502.67,160.12L504.97,188.76L507.28,188.76L509.59,188.76L511.89,188.76L514.2,211.3L516.5,211.3L518.81,211.3L521.12,211.3L523.42,211.3L525.73,211.3L528.03,194.53L530.34,194.53L532.64,194.53L534.95,194.53L537.26,194.53L539.56,194.53L541.87,194.53L544.17,194.53L546.48,194.53L548.79,194.53L551.09,194.53L553.4,194.53L555.7,194.53L558.01,194.53L560.32,194.53L562.62,194.53L564.93,194.53L567.23,194.53L569.54,194.53L571.84,194.53L574.15,194.53L576.46,194.53L578.76,194.53L581.07,194.53L583.37,194.53L585.68,194.53L587.99,194.53L590.29,194.53L592.6,194.53L594.9,194.53L597.21,194.53L599.52,194.53L601.82,194.53L604.13,194.53L606.43,194.53L608.74,194.53L611.04,194.53L613.35,194.53L615.66,194.53L617.96,194.53L620.27,194.53L622.57,194.53L624.88,194.53L627.19,194.53L629.49,194.53L631.8,194.53L634.1,194.53L636.41,194.53L638.72,194.53L641.02,194.53L643.33,194.53L645.63,194.53L647.94,194.53L650.24,194.53L652.55,194.53L654.86,194.53L657.16,194.53L659.47,194.53L661.77,194.53L664.08,194.53L666.39,194.53L668.69,194.53L671,194.53L673.3,194.53L675.61,194.53L677.92,194.53L680.22,194.53L682.53,194.53L684.83,194.53L687.14,194.53L689.45,194.53L691.75,194.53L694.06,194.53L696.36,194.53L698.67,194.53L700.97,194.53L703.28,194.53L705.59,194.53L707.89,194.53L710.2,194.53L712.5,194.53L714.81,194.53L717.12,125.06L719.42,125.06L721.73,125.06L724.03,125.06L726.34,125.06L728.65,125.06L730.95,125.06L733.26,125.06L735.56,125.06L737.87,125.06L740.17,125.06L742.48,125.06L744.79,125.06L747.09,125.06L749.4,125.06L751.7,125.06L754.01,125.06L756.32,125.06L758.62,125.06L760.93,125.06L763.23,125.06L765.54,119.69L767.85,119.69L770.15,119.69L772.46,119.69L774.76,119.69L777.07,119.69L779.37,119.69L781.68,60.997L783.99,60.997L786.29,60.997L788.6,40.371L790.9,40.371L793.21,40.371L795.52,40.371L797.82,40.371L800.13,40.371L802.43,40.371L804.74,45.146L807.05,45.146L809.35,45.146L811.66,45.146L813.96,45.146L816.27,45.146L818.57,45.146L820.88,45.146L823.19,45.146L825.49,45.146L827.8,45.146L830.1,45.146L832.41,45.146L834.72,45.146L837.02,45.146L839.33,45.146L841.63,45.146L843.94,45.146L846.25,45.146L848.55,45.146L850.86,45.146L853.16,45.146L855.47,45.146L857.77,45.146L860.08,45.146L862.39,45.146L864.69,45.146L867,45.146L869.3,45.146L871.61,45.146L873.92,45.146L876.22,45.146L878.53,45.146L880.83,45.146L883.14,45.146L885.45,45.146L887.75,45.146L890.06,45.146L892.36,45.146L894.67,45.146L896.97,45.146L899.28,45.146L901.59,45.146L903.89,45.146L906.2,45.146L908.5,45.146L910.81,45.146L913.12,45.146L915.42,45.146L917.73,45.146L920.03,45.146L922.34,45.146L924.65,45.146L926.95,45.146L929.26,45.146L931.56,45.146L933.87,45.146L936.17,45.146L938.48,45.146L940.79,45.146L943.09,45.146L945.4,45.146L947.7,45.146L950.01,45.146L952.32,45.146L954.62,45.146L956.93,45.146L959.23,45.146L961.54,45.146L963.85,45.146L966.15,45.146L968.46,45.146L970.76,45.146L973.07,45.146L975.38,45.146" style="fill:none;stroke:#800080" />
<path d="M55.326,125.06L57.632,125.06L59.938,125.06L62.244,125.06L64.55,125.06L66.856,125.06L69.161,125.06L71.467,125.06L73.773,125.06L76.079,125.06L78.385,125.06L80.691,125.06L82.997,125.06L85.303,125.06L87.609,125.06L89.914,125.06L92.22,125.06L94.526,125.06L96.832,125.06L99.138,125.06L101.44,125.06L103.75,125.06L106.06,125.06L108.36,125.06L110.67,125.06L112.97,125.06L115.28,125.06L117.59,125.06L119.89,125.06L122.2,125.06L124.5,125.06L126.81,125.06L129.11,125.06L131.42,125.06L133.73,125.06L136.03,125.06L138.34,125.06L140.64,125.06L142.95,125.06L145.26,125.06L147.56,125.06L149.87,125.06L152.17,125.06L154.48,125.06L156.79,125.06L159.09,125.06L161.4,125.06L163.7,125.06L166.01,125.06L168.31,125.06L170.62,125.06L172.93,125.06L175.23,125.06L177.54,125.06L179.84,125.06L182.15,125.06L184.46,125.06L186.76,125.06L189.07,125.06L191.37,125.06L193.68,125.06L195.99,125.06L198.29,125.06L200.6,125.06L202.9,125.06L205.21,125.06L207.51,125.06L209.82,125.06L212.13,125.06L214.43,125.06L216.74,125.06L219.04,125.06L221.35,125.06L223.66,125.06L225.96,125.06L228.27,125.06L230.57,125.06L232.88,125.06L235.19,125.06L237.49,125.06L239.8,125.06L242.1,125.06L244.41,125.06L246.71,125.06L249.02,125.06L251.33,125.06L253.63,125.06L255.94,125.06L258.24,125.06L260.55,125.06L262.86,125.06L265.16,125.06L267.47,125.06L269.77,125.06L272.08,125.06L274.39,125.06L276.69,125.06L279,125.06L281.3,125.06L283.61,125.06L285.91,125.06L288.22,125.06L290.53,125.06L292.83,125.06L295.14,125.06L297.44,125.06L299.75,125.06L302.06,125.06L304.36,125.06L306.67,125.06L308.97,125.06L311.28,125.06L313.59,125.06L315.89,125.06L318.2,125.06L320.5,125.06L322.81,125.06L325.11,125.06L327.42,125.06L329.73,125.06L332.03,125.06L334.34,125.06L336.64,125.06L338.95,125.06L341.26,125.06L343.56,125.06L345.87,125.06L348.17,125.06L350.48,125.06L352.79,125.06L355.09,125.06L357.4,125.06L359.7,125.06L362.01,125.06L364.32,125.06L366.62,125.06L368.93,125.06L371.23,125.06L373.54,125.06L375.84,125.06L378.15,125.06L380.46,125.06L382.76,125.06L385.07,125.06L387.37,125.06L389.68,125.06L391.99,125.06L394.29,125.06L396.6,125.06L398.9,125.06L401.21,125.06L403.52,125.06L405.82,125.06L408.13,125.06L410.43,125.06L412.74,125.06L415.04,125.06L417.35,125.06L419.66,125.06L421.96,125.06L424.27,125.06L426.57,125.06L428.88,125.06L431.19,125.06L433.49,125.06L435.8,125.06L438.1,125.06L440.41,125.06L442.72,125.06L445.02,125.06L447.33,125.06L449.63,125.06L451.94,125.06L454.24,125.06L456.55,125.06L458.86,125.06L461.16,125.06L463.47,125.06L465.77,125.06L468.08,125.06L470.39,125.06L472.69,125.06L475,125.06L477.3,125.06L479.61,125.06L481.92,125.06L484.22,125.06L486.53,125.06L488.83,125.06L491.14,125.06L493.44,125.06L495.75,125.06L498.06,125.06L500.36,125.06L502.67,125.06L504.97,125.06L507.28,125.06L509.59,125.06L511.89,125.06L514.2,125.06L516.5,125.06L518.81,125.06L521.12,125.06L523.42,125.06L525.73,125.06L528.03,125.06L530.34,125.06L532.64,125.06L534.95,125.06L537.26,125.06L539.56,125.06L541.87,125.06L544.17,125.06L546.48,125.06L548.79,125.06L551.09,125.06L553.4,125.06L555.7,125.06L558.01,125.06L560.32,125.06L562.62,125.06L564.93,125.06L567.23,125.06L569.54,125.06L571.84,125.06L574.15,125.06L576.46,125.06L578.76,125.06L581.07,125.06L583.37,125.06L585.68,125.06L587.99,125.06L590.29,125.06L592.6,125.06L594.9,125.06L597.21,125.06L599.52,125.06L601.82,125.06L604.13,125.06L606.43,125.06L608.74,125.06L611.04,125.06L613.35,125.06L615.66,125.06L617.96,125.06L620.27,125.06L622.57,125.06L624.88,125.06L627.19,125.06L629.49,125.06L631.8,125.06L634.1,125.06L636.41,125.06L638.72,125.06L641.02,125.06L643.33,125.06L645.63,125.06L647.94,125.06L650.24,125.06L652.55,125.06L654.86,125.06L657.16,125.06L659.47,125.06L661.77,125.06L664.08,125.06L666.39,125.06L668.69,125.06L671,125.06L673.3,125.06L675.61,125.06L677.92,125.06L680.22,125.06L682.53,125.06L684.83,125.06L687.14,125.06L689.45,125.06L691.75,125.06L694.06,125.06L696.36,125.06L698.67,125.06L700.97,125.06L703.28,125.06L705.59,125.06L707.89,125.06L710.2,125.06L712.5,125.06L714.81,125.06L717.12,159.8L719.42,159.8L721.73,159.8L724.03,159.8L726.34,159.8L728.65,159.8L730.95,159.8L733.26,159.8L735.56,159.8L737.87,159.8L740.17,159.8L742.48,159.8L744.79,159.8L747.09,159.8L749.4,159.8L751.7,159.8L754.01,159.8L756.32,159.8L758.62,159.8L760.93,159.8L763.23,159.8L765.54,159.8L767.85,159.8L770.15,159.8L772.46,159.8L774.76,159.8L777.07,159.8L779.37,159.8L781.68,159.8L783.99,159.8L786.29,159.8L788.6,159.8L790.9,159.8L793.21,159.8L795.52,159.8L797.82,159.8L800.13,159.8L802.43,159.8L804.74,159.8L807.05,159.8L809.35,159.8L811.66,159.8L813.96,159.8L816.27,159.8L818.57,159.8L820.88,159.8L823.19,159.8L825.49,159.8L827.8,159.8L830.1,159.8L832.41,159.8L834.72,159.8L837.02,159.8L839.33,159.8L841.63,159.8L843.94,159.8L846.25,159.8L848.55,159.8L850.86,159.8L853.16,159.8L855.47,159.8L857.77,159.8L860.08,159.8L862.39,159.8L864.69,159.8L867,159.8L869.3,159.8L871.61,159.8L873.92,159.8L876.22,159.8L878.53,159.8L880.83,159.8L883.14,159.8L885.45,159.8L887.75,159.8L890.06,159.8L892.36,159.8L894.67,159.8L896.97,159.8L899.28,159.8L901.59,159.8L903.89,159.8L906.2,159.8L908.5,159.8L910.81,159.8L913.12,159.8L915.42,159.8L917.73,159.8L920.03,159.8L922.34,159.8L924.65,159.8L926.95,159.8L929.26,159.8L931.56,159.8L933.87,159.8L936.17,159.8L938.48,159.8L940.79,159.8L943.09,159.8L945.4,159.8L947.7,159.8L950.01,159.8L952.32,159.8L954.62,159.8L956.93,159.8L959.23,159.8L961.54,159.8L963.85,159.8L966.15,159.8L968.46,159.8L970.76,159.8L973.07,159.8L975.38,159.8" style="fill:none;stroke:#FFA500" />
<path d="M955.38,318.94L975.38,318.94" style="fill:none;stroke:#228B22" />
<text x="914.02" y="-316.11" transform="scale(1, -1)"
	style="font-family:Liberation Sans;font-variant:normal;font-weight:normal;font-style:normal;font-size:12px">SSpike</text>
<path d="M955.38,308.47L975.38,308.47" style="fill:none;stroke:#800080" />
<text x="913.36" y="-305.64" transform="scale(1, -1)"
	style="font-family:Liberation Sans;font-variant:normal;font-weight:normal;font-style:normal;font-size:12px">RSpike</text>
<path d="M955.38,298L975.38,298" style="fill:none;stroke:#FF0000" />
<text x="914.02" y="-295.17" transform="scale(1, -1)"
	style="font-family:Liberation Sans;font-variant:normal;font-weight:normal;font-style:normal;font-size:12px">X_CaP</text>
<path d="M955.38,287.53L975.38,287.53" style="fill:none;stroke:#0000FF" />
<text x="913.36" y="-284.7" transform="scale(1, -1)"
	style="font-family:Liberation Sans;font-variant:normal;font-weight:normal;font-style:normal;font-size:12px">X_CaD</text>
<path d="M955.38,277.06L975.38,277.06" style="fill:none;stroke:#228B22" />
<text x="890.69" y="-274.23" transform="scale(1, -1)"
	style="font-family:Liberation Sans;font-variant:normal;font-weight:normal;font-style:normal;font-size:12px">X_CaDMax</text>
<path d="M955.38,266.59L975.38,266.59" style="fill:none;stroke:#800080" />
<text x="906.71" y="-263.76" transform="scale(1, -1)"
	style="font-family:Liberation Sans;font-variant:normal;font-weight:normal;font-style:normal;font-size:12px">X_TDWt</text>
<path d="M955.38,256.12L975.38,256.12" style="fill:none;stroke:#FFA500" />
<text x="914.04" y="-253.29" transform="scale(1, -1)"
	style="font-family:Liberation Sans;font-variant:normal;font-weight:normal;font-style:normal;font-size:12px">X_DWt</text>
</g>
</svg>
