<?xml version="1.0"?>
<!-- Generated by SVGo and Plotinum VG -->
<svg width="583.12pt" height="489pt" viewBox="0 0 583.12 489"
	xmlns="http://www.w3.org/2000/svg"
	xmlns:xlink="http://www.w3.org/1999/xlink">
<g transform="scale(1, -1) translate(0, -489)">
<text x="219.53" y="-479.27" transform="scale(1, -1)"
	style="font-family:Liberation Sans;font-variant:normal;font-weight:normal;font-style:normal;font-size:12px">Kinase Equations DWt Plot</text>
<text x="300.68" y="-3.6797" transform="scale(1, -1)"
	style="font-family:Liberation Sans;font-variant:normal;font-weight:normal;font-style:normal;font-size:12px">ErrDWt</text>
<text x="53.112" y="-16.473" transform="scale(1, -1)"
	style="font-family:Liberation Sans;font-variant:normal;font-weight:normal;font-style:normal;font-size:10px">-1</text>
<text x="265" y="-16.473" transform="scale(1, -1)"
	style="font-family:Liberation Sans;font-variant:normal;font-weight:normal;font-style:normal;font-size:10px">0</text>
<text x="475.23" y="-16.473" transform="scale(1, -1)"
	style="font-family:Liberation Sans;font-variant:normal;font-weight:normal;font-style:normal;font-size:10px">1</text>
<path d="M57.558,24.578L57.558,32.578" style="fill:none;stroke:#000000;stroke-width:0.5" />
<path d="M267.78,24.578L267.78,32.578" style="fill:none;stroke:#000000;stroke-width:0.5" />
<path d="M478.01,24.578L478.01,32.578" style="fill:none;stroke:#000000;stroke-width:0.5" />
<path d="M99.603,28.578L99.603,32.578" style="fill:none;stroke:#000000;stroke-width:0.5" />
<path d="M141.65,28.578L141.65,32.578" style="fill:none;stroke:#000000;stroke-width:0.5" />
<path d="M183.69,28.578L183.69,32.578" style="fill:none;stroke:#000000;stroke-width:0.5" />
<path d="M225.74,28.578L225.74,32.578" style="fill:none;stroke:#000000;stroke-width:0.5" />
<path d="M309.83,28.578L309.83,32.578" style="fill:none;stroke:#000000;stroke-width:0.5" />
<path d="M351.88,28.578L351.88,32.578" style="fill:none;stroke:#000000;stroke-width:0.5" />
<path d="M393.92,28.578L393.92,32.578" style="fill:none;stroke:#000000;stroke-width:0.5" />
<path d="M435.97,28.578L435.97,32.578" style="fill:none;stroke:#000000;stroke-width:0.5" />
<path d="M520.06,28.578L520.06,32.578" style="fill:none;stroke:#000000;stroke-width:0.5" />
<path d="M562.1,28.578L562.1,32.578" style="fill:none;stroke:#000000;stroke-width:0.5" />
<path d="M57.558,32.578L583.12,32.578" style="fill:none;stroke:#000000;stroke-width:0.5" />
<g transform="rotate(90)">
<text x="236.19" y="9.7266" transform="scale(1, -1)"
	style="font-family:Liberation Sans;font-variant:normal;font-weight:normal;font-style:normal;font-size:12px">P_DWt</text>
</g>
<text x="35.412" y="-37.852" transform="scale(1, -1)"
	style="font-family:Liberation Sans;font-variant:normal;font-weight:normal;font-style:normal;font-size:10px">0</text>
<text x="15.949" y="-252.67" transform="scale(1, -1)"
	style="font-family:Liberation Sans;font-variant:normal;font-weight:normal;font-style:normal;font-size:10px">0.003</text>
<text x="15.949" y="-467.49" transform="scale(1, -1)"
	style="font-family:Liberation Sans;font-variant:normal;font-weight:normal;font-style:normal;font-size:10px">0.006</text>
<path d="M43.752,40.371L51.752,40.371" style="fill:none;stroke:#000000;stroke-width:0.5" />
<path d="M43.752,255.19L51.752,255.19" style="fill:none;stroke:#000000;stroke-width:0.5" />
<path d="M43.752,470.01L51.752,470.01" style="fill:none;stroke:#000000;stroke-width:0.5" />
<path d="M47.752,111.98L51.752,111.98" style="fill:none;stroke:#000000;stroke-width:0.5" />
<path d="M47.752,183.58L51.752,183.58" style="fill:none;stroke:#000000;stroke-width:0.5" />
<path d="M47.752,326.8L51.752,326.8" style="fill:none;stroke:#000000;stroke-width:0.5" />
<path d="M47.752,398.4L51.752,398.4" style="fill:none;stroke:#000000;stroke-width:0.5" />
<path d="M51.752,40.371L51.752,470.01" style="fill:none;stroke:#000000;stroke-width:0.5" />
<path d="M270.78,98.89A3,3 0 1 1 264.78,98.89A3,3 0 1 1 270.78,98.89Z" style="fill:none;stroke:#000000;stroke-width:0.5" />
<path d="M323.34,142.88A3,3 0 1 1 317.34,142.88A3,3 0 1 1 323.34,142.88Z" style="fill:none;stroke:#FF0000;stroke-width:0.5" />
<path d="M428.45,316.62A3,3 0 1 1 422.45,316.62A3,3 0 1 1 428.45,316.62Z" style="fill:none;stroke:#0000FF;stroke-width:0.5" />
<path d="M218.23,103.07A3,3 0 1 1 212.23,103.07A3,3 0 1 1 218.23,103.07Z" style="fill:none;stroke:#228B22;stroke-width:0.5" />
<path d="M270.78,155.75A3,3 0 1 1 264.78,155.75A3,3 0 1 1 270.78,155.75Z" style="fill:none;stroke:#800080;stroke-width:0.5" />
<path d="M375.9,331.88A3,3 0 1 1 369.9,331.88A3,3 0 1 1 375.9,331.88Z" style="fill:none;stroke:#FFA500;stroke-width:0.5" />
<path d="M113.11,201.84A3,3 0 1 1 107.11,201.84A3,3 0 1 1 113.11,201.84Z" style="fill:none;stroke:#A52A2A;stroke-width:0.5" />
<path d="M165.67,223.29A3,3 0 1 1 159.67,223.29A3,3 0 1 1 165.67,223.29Z" style="fill:none;stroke:#7FFF00;stroke-width:0.5" />
<path d="M270.78,380.04A3,3 0 1 1 264.78,380.04A3,3 0 1 1 270.78,380.04Z" style="fill:none;stroke:#000080;stroke-width:0.5" />
<path d="M270.78,65.628A3,3 0 1 1 264.78,65.628A3,3 0 1 1 270.78,65.628Z" style="fill:none;stroke:#00FFFF;stroke-width:0.5" />
<path d="M323.34,106.93A3,3 0 1 1 317.34,106.93A3,3 0 1 1 323.34,106.93Z" style="fill:none;stroke:#FF00FF;stroke-width:0.5" />
<path d="M428.45,337.54A3,3 0 1 1 422.45,337.54A3,3 0 1 1 428.45,337.54Z" style="fill:none;stroke:#D2B48C;stroke-width:0.5" />
<path d="M218.23,75.169A3,3 0 1 1 212.23,75.169A3,3 0 1 1 218.23,75.169Z" style="fill:none;stroke:#FA8072;stroke-width:0.5" />
<path d="M270.78,115.96A3,3 0 1 1 264.78,115.96A3,3 0 1 1 270.78,115.96Z" style="fill:none;stroke:#DAA520;stroke-width:0.5" />
<path d="M375.9,353.45A3,3 0 1 1 369.9,353.45A3,3 0 1 1 375.9,353.45Z" style="fill:none;stroke:#87CEEB;stroke-width:0.5" />
<path d="M113.11,214.84A3,3 0 1 1 107.11,214.84A3,3 0 1 1 113.11,214.84Z" style="fill:none;stroke:#FFC0CB;stroke-width:0.5" />
<path d="M165.67,222.01A3,3 0 1 1 159.67,222.01A3,3 0 1 1 165.67,222.01Z" style="fill:none;stroke:#000000;stroke-width:0.5" />
<path d="M270.78,412.26A3,3 0 1 1 264.78,412.26A3,3 0 1 1 270.78,412.26Z" style="fill:none;stroke:#FF0000;stroke-width:0.5" />
<path d="M576.12,467.82A3,3 0 1 1 570.12,467.82A3,3 0 1 1 576.12,467.82Z" style="fill:none;stroke:#000000;stroke-width:0.5" />
<text x="460.74" y="-464.99" transform="scale(1, -1)"
	style="font-family:Liberation Sans;font-variant:normal;font-weight:normal;font-style:normal;font-size:12px">025 -&gt; 025 P_DWt</text>
<path d="M576.12,457.34A3,3 0 1 1 570.12,457.34A3,3 0 1 1 576.12,457.34Z" style="fill:none;stroke:#FF0000;stroke-width:0.5" />
<text x="460.74" y="-454.52" transform="scale(1, -1)"
	style="font-family:Liberation Sans;font-variant:normal;font-weight:normal;font-style:normal;font-size:12px">025 -&gt; 050 P_DWt</text>
<path d="M576.12,446.87A3,3 0 1 1 570.12,446.87A3,3 0 1 1 576.12,446.87Z" style="fill:none;stroke:#0000FF;stroke-width:0.5" />
<text x="460.74" y="-444.05" transform="scale(1, -1)"
	style="font-family:Liberation Sans;font-variant:normal;font-weight:normal;font-style:normal;font-size:12px">025 -&gt; 100 P_DWt</text>
<path d="M576.12,436.4A3,3 0 1 1 570.12,436.4A3,3 0 1 1 576.12,436.4Z" style="fill:none;stroke:#228B22;stroke-width:0.5" />
<text x="460.74" y="-433.58" transform="scale(1, -1)"
	style="font-family:Liberation Sans;font-variant:normal;font-weight:normal;font-style:normal;font-size:12px">050 -&gt; 025 P_DWt</text>
<path d="M576.12,425.93A3,3 0 1 1 570.12,425.93A3,3 0 1 1 576.12,425.93Z" style="fill:none;stroke:#800080;stroke-width:0.5" />
<text x="460.74" y="-423.11" transform="scale(1, -1)"
	style="font-family:Liberation Sans;font-variant:normal;font-weight:normal;font-style:normal;font-size:12px">050 -&gt; 050 P_DWt</text>
<path d="M576.12,415.46A3,3 0 1 1 570.12,415.46A3,3 0 1 1 576.12,415.46Z" style="fill:none;stroke:#FFA500;stroke-width:0.5" />
<text x="460.74" y="-412.63" transform="scale(1, -1)"
	style="font-family:Liberation Sans;font-variant:normal;font-weight:normal;font-style:normal;font-size:12px">050 -&gt; 100 P_DWt</text>
<path d="M576.12,404.99A3,3 0 1 1 570.12,404.99A3,3 0 1 1 576.12,404.99Z" style="fill:none;stroke:#A52A2A;stroke-width:0.5" />
<text x="460.74" y="-402.16" transform="scale(1, -1)"
	style="font-family:Liberation Sans;font-variant:normal;font-weight:normal;font-style:normal;font-size:12px">100 -&gt; 025 P_DWt</text>
<path d="M576.12,394.52A3,3 0 1 1 570.12,394.52A3,3 0 1 1 576.12,394.52Z" style="fill:none;stroke:#7FFF00;stroke-width:0.5" />
<text x="460.74" y="-391.69" transform="scale(1, -1)"
	style="font-family:Liberation Sans;font-variant:normal;font-weight:normal;font-style:normal;font-size:12px">100 -&gt; 050 P_DWt</text>
<path d="M576.12,384.05A3,3 0 1 1 570.12,384.05A3,3 0 1 1 576.12,384.05Z" style="fill:none;stroke:#000080;stroke-width:0.5" />
<text x="460.74" y="-381.22" transform="scale(1, -1)"
	style="font-family:Liberation Sans;font-variant:normal;font-weight:normal;font-style:normal;font-size:12px">100 -&gt; 100 P_DWt</text>
<path d="M576.12,373.58A3,3 0 1 1 570.12,373.58A3,3 0 1 1 576.12,373.58Z" style="fill:none;stroke:#00FFFF;stroke-width:0.5" />
<text x="460.74" y="-370.75" transform="scale(1, -1)"
	style="font-family:Liberation Sans;font-variant:normal;font-weight:normal;font-style:normal;font-size:12px">025 -&gt; 025 X_DWt</text>
<path d="M576.12,363.11A3,3 0 1 1 570.12,363.11A3,3 0 1 1 576.12,363.11Z" style="fill:none;stroke:#FF00FF;stroke-width:0.5" />
<text x="460.74" y="-360.28" transform="scale(1, -1)"
	style="font-family:Liberation Sans;font-variant:normal;font-weight:normal;font-style:normal;font-size:12px">025 -&gt; 050 X_DWt</text>
<path d="M576.12,352.64A3,3 0 1 1 570.12,352.64A3,3 0 1 1 576.12,352.64Z" style="fill:none;stroke:#D2B48C;stroke-width:0.5" />
<text x="460.74" y="-349.81" transform="scale(1, -1)"
	style="font-family:Liberation Sans;font-variant:normal;font-weight:normal;font-style:normal;font-size:12px">025 -&gt; 100 X_DWt</text>
<path d="M576.12,342.17A3,3 0 1 1 570.12,342.17A3,3 0 1 1 576.12,342.17Z" style="fill:none;stroke:#FA8072;stroke-width:0.5" />
<text x="460.74" y="-339.34" transform="scale(1, -1)"
	style="font-family:Liberation Sans;font-variant:normal;font-weight:normal;font-style:normal;font-size:12px">050 -&gt; 025 X_DWt</text>
<path d="M576.12,331.7A3,3 0 1 1 570.12,331.7A3,3 0 1 1 576.12,331.7Z" style="fill:none;stroke:#DAA520;stroke-width:0.5" />
<text x="460.74" y="-328.87" transform="scale(1, -1)"
	style="font-family:Liberation Sans;font-variant:normal;font-weight:normal;font-style:normal;font-size:12px">050 -&gt; 050 X_DWt</text>
<path d="M576.12,321.23A3,3 0 1 1 570.12,321.23A3,3 0 1 1 576.12,321.23Z" style="fill:none;stroke:#87CEEB;stroke-width:0.5" />
<text x="460.74" y="-318.4" transform="scale(1, -1)"
	style="font-family:Liberation Sans;font-variant:normal;font-weight:normal;font-style:normal;font-size:12px">050 -&gt; 100 X_DWt</text>
<path d="M576.12,310.75A3,3 0 1 1 570.12,310.75A3,3 0 1 1 576.12,310.75Z" style="fill:none;stroke:#FFC0CB;stroke-width:0.5" />
<text x="460.74" y="-307.93" transform="scale(1, -1)"
	style="font-family:Liberation Sans;font-variant:normal;font-weight:normal;font-style:normal;font-size:12px">100 -&gt; 025 X_DWt</text>
<path d="M576.12,300.28A3,3 0 1 1 570.12,300.28A3,3 0 1 1 576.12,300.28Z" style="fill:none;stroke:#000000;stroke-width:0.5" />
<text x="460.74" y="-297.46" transform="scale(1, -1)"
	style="font-family:Liberation Sans;font-variant:normal;font-weight:normal;font-style:normal;font-size:12px">100 -&gt; 050 X_DWt</text>
<path d="M576.12,289.81A3,3 0 1 1 570.12,289.81A3,3 0 1 1 576.12,289.81Z" style="fill:none;stroke:#FF0000;stroke-width:0.5" />
<text x="460.74" y="-286.99" transform="scale(1, -1)"
	style="font-family:Liberation Sans;font-variant:normal;font-weight:normal;font-style:normal;font-size:12px">100 -&gt; 100 X_DWt</text>
</g>
</svg>
