<?xml version="1.0"?>
<!-- Generated by SVGo and Plotinum VG -->
<svg width="583.12pt" height="489pt" viewBox="0 0 583.12 489"
	xmlns="http://www.w3.org/2000/svg"
	xmlns:xlink="http://www.w3.org/1999/xlink">
<g transform="scale(1, -1) translate(0, -489)">
<text x="219.53" y="-479.27" transform="scale(1, -1)"
	style="font-family:Liberation Sans;font-variant:normal;font-weight:normal;font-style:normal;font-size:12px">Kinase Equations DWt Plot</text>
<text x="292.61" y="-3.6797" transform="scale(1, -1)"
	style="font-family:Liberation Sans;font-variant:normal;font-weight:normal;font-style:normal;font-size:12px">ErrDWt</text>
<text x="36.979" y="-16.473" transform="scale(1, -1)"
	style="font-family:Liberation Sans;font-variant:normal;font-weight:normal;font-style:normal;font-size:10px">-1</text>
<text x="255.32" y="-16.473" transform="scale(1, -1)"
	style="font-family:Liberation Sans;font-variant:normal;font-weight:normal;font-style:normal;font-size:10px">0</text>
<text x="472" y="-16.473" transform="scale(1, -1)"
	style="font-family:Liberation Sans;font-variant:normal;font-weight:normal;font-style:normal;font-size:10px">1</text>
<path d="M41.425,24.578L41.425,32.578" style="fill:none;stroke:#000000;stroke-width:0.5" />
<path d="M258.1,24.578L258.1,32.578" style="fill:none;stroke:#000000;stroke-width:0.5" />
<path d="M474.78,24.578L474.78,32.578" style="fill:none;stroke:#000000;stroke-width:0.5" />
<path d="M84.761,28.578L84.761,32.578" style="fill:none;stroke:#000000;stroke-width:0.5" />
<path d="M128.1,28.578L128.1,32.578" style="fill:none;stroke:#000000;stroke-width:0.5" />
<path d="M171.43,28.578L171.43,32.578" style="fill:none;stroke:#000000;stroke-width:0.5" />
<path d="M214.77,28.578L214.77,32.578" style="fill:none;stroke:#000000;stroke-width:0.5" />
<path d="M301.44,28.578L301.44,32.578" style="fill:none;stroke:#000000;stroke-width:0.5" />
<path d="M344.78,28.578L344.78,32.578" style="fill:none;stroke:#000000;stroke-width:0.5" />
<path d="M388.11,28.578L388.11,32.578" style="fill:none;stroke:#000000;stroke-width:0.5" />
<path d="M431.45,28.578L431.45,32.578" style="fill:none;stroke:#000000;stroke-width:0.5" />
<path d="M518.12,28.578L518.12,32.578" style="fill:none;stroke:#000000;stroke-width:0.5" />
<path d="M561.46,28.578L561.46,32.578" style="fill:none;stroke:#000000;stroke-width:0.5" />
<path d="M41.425,32.578L583.12,32.578" style="fill:none;stroke:#000000;stroke-width:0.5" />
<g transform="rotate(90)">
<text x="238.98" y="9.7266" transform="scale(1, -1)"
	style="font-family:Liberation Sans;font-variant:normal;font-weight:normal;font-style:normal;font-size:12px">P_DWt</text>
</g>
<text x="15.949" y="-102.92" transform="scale(1, -1)"
	style="font-family:Liberation Sans;font-variant:normal;font-weight:normal;font-style:normal;font-size:10px">-1</text>
<text x="19.279" y="-241.78" transform="scale(1, -1)"
	style="font-family:Liberation Sans;font-variant:normal;font-weight:normal;font-style:normal;font-size:10px">0</text>
<text x="19.279" y="-380.65" transform="scale(1, -1)"
	style="font-family:Liberation Sans;font-variant:normal;font-weight:normal;font-style:normal;font-size:10px">1</text>
<path d="M27.619,105.44L35.619,105.44" style="fill:none;stroke:#000000;stroke-width:0.5" />
<path d="M27.619,244.3L35.619,244.3" style="fill:none;stroke:#000000;stroke-width:0.5" />
<path d="M27.619,383.17L35.619,383.17" style="fill:none;stroke:#000000;stroke-width:0.5" />
<path d="M31.619,49.892L35.619,49.892" style="fill:none;stroke:#000000;stroke-width:0.5" />
<path d="M31.619,77.665L35.619,77.665" style="fill:none;stroke:#000000;stroke-width:0.5" />
<path d="M31.619,133.21L35.619,133.21" style="fill:none;stroke:#000000;stroke-width:0.5" />
<path d="M31.619,160.98L35.619,160.98" style="fill:none;stroke:#000000;stroke-width:0.5" />
<path d="M31.619,188.76L35.619,188.76" style="fill:none;stroke:#000000;stroke-width:0.5" />
<path d="M31.619,216.53L35.619,216.53" style="fill:none;stroke:#000000;stroke-width:0.5" />
<path d="M31.619,272.08L35.619,272.08" style="fill:none;stroke:#000000;stroke-width:0.5" />
<path d="M31.619,299.85L35.619,299.85" style="fill:none;stroke:#000000;stroke-width:0.5" />
<path d="M31.619,327.62L35.619,327.62" style="fill:none;stroke:#000000;stroke-width:0.5" />
<path d="M31.619,355.39L35.619,355.39" style="fill:none;stroke:#000000;stroke-width:0.5" />
<path d="M31.619,410.94L35.619,410.94" style="fill:none;stroke:#000000;stroke-width:0.5" />
<path d="M31.619,438.71L35.619,438.71" style="fill:none;stroke:#000000;stroke-width:0.5" />
<path d="M31.619,466.49L35.619,466.49" style="fill:none;stroke:#000000;stroke-width:0.5" />
<path d="M35.619,43.371L35.619,472.59" style="fill:none;stroke:#000000;stroke-width:0.5" />
<path d="M261.1,244.17A3,3 0 1 1 255.1,244.17A3,3 0 1 1 261.1,244.17Z" style="fill:none;stroke:#000000;stroke-width:0.5" />
<path d="M315.27,295.74A3,3 0 1 1 309.27,295.74A3,3 0 1 1 315.27,295.74Z" style="fill:none;stroke:#FF0000;stroke-width:0.5" />
<path d="M423.61,472.59A3,3 0 1 1 417.61,472.59A3,3 0 1 1 423.61,472.59Z" style="fill:none;stroke:#0000FF;stroke-width:0.5" />
<path d="M206.93,203.94A3,3 0 1 1 200.93,203.94A3,3 0 1 1 206.93,203.94Z" style="fill:none;stroke:#228B22;stroke-width:0.5" />
<path d="M261.1,244.82A3,3 0 1 1 255.1,244.82A3,3 0 1 1 261.1,244.82Z" style="fill:none;stroke:#800080;stroke-width:0.5" />
<path d="M369.44,422.21A3,3 0 1 1 363.44,422.21A3,3 0 1 1 369.44,422.21Z" style="fill:none;stroke:#FFA500;stroke-width:0.5" />
<path d="M98.595,43.895A3,3 0 1 1 92.595,43.895A3,3 0 1 1 98.595,43.895Z" style="fill:none;stroke:#A52A2A;stroke-width:0.5" />
<path d="M152.76,73.346A3,3 0 1 1 146.76,73.346A3,3 0 1 1 152.76,73.346Z" style="fill:none;stroke:#7FFF00;stroke-width:0.5" />
<path d="M261.1,243.94A3,3 0 1 1 255.1,243.94A3,3 0 1 1 261.1,243.94Z" style="fill:none;stroke:#000080;stroke-width:0.5" />
<path d="M261.1,244.21A3,3 0 1 1 255.1,244.21A3,3 0 1 1 261.1,244.21Z" style="fill:none;stroke:#00FFFF;stroke-width:0.5" />
<path d="M315.27,274.74A3,3 0 1 1 309.27,274.74A3,3 0 1 1 315.27,274.74Z" style="fill:none;stroke:#FF00FF;stroke-width:0.5" />
<path d="M423.61,427.23A3,3 0 1 1 417.61,427.23A3,3 0 1 1 423.61,427.23Z" style="fill:none;stroke:#D2B48C;stroke-width:0.5" />
<path d="M206.93,214.82A3,3 0 1 1 200.93,214.82A3,3 0 1 1 206.93,214.82Z" style="fill:none;stroke:#FA8072;stroke-width:0.5" />
<path d="M261.1,244.63A3,3 0 1 1 255.1,244.63A3,3 0 1 1 261.1,244.63Z" style="fill:none;stroke:#DAA520;stroke-width:0.5" />
<path d="M369.44,406.21A3,3 0 1 1 363.44,406.21A3,3 0 1 1 369.44,406.21Z" style="fill:none;stroke:#87CEEB;stroke-width:0.5" />
<path d="M98.595,43.371A3,3 0 1 1 92.595,43.371A3,3 0 1 1 98.595,43.371Z" style="fill:none;stroke:#FFC0CB;stroke-width:0.5" />
<path d="M152.76,74.363A3,3 0 1 1 146.76,74.363A3,3 0 1 1 152.76,74.363Z" style="fill:none;stroke:#000000;stroke-width:0.5" />
<path d="M261.1,244.26A3,3 0 1 1 255.1,244.26A3,3 0 1 1 261.1,244.26Z" style="fill:none;stroke:#FF0000;stroke-width:0.5" />
<path d="M576.12,467.82A3,3 0 1 1 570.12,467.82A3,3 0 1 1 576.12,467.82Z" style="fill:none;stroke:#000000;stroke-width:0.5" />
<text x="460.74" y="-464.99" transform="scale(1, -1)"
	style="font-family:Liberation Sans;font-variant:normal;font-weight:normal;font-style:normal;font-size:12px">025 -&gt; 025 P_DWt</text>
<path d="M576.12,457.34A3,3 0 1 1 570.12,457.34A3,3 0 1 1 576.12,457.34Z" style="fill:none;stroke:#FF0000;stroke-width:0.5" />
<text x="460.74" y="-454.52" transform="scale(1, -1)"
	style="font-family:Liberation Sans;font-variant:normal;font-weight:normal;font-style:normal;font-size:12px">025 -&gt; 050 P_DWt</text>
<path d="M576.12,446.87A3,3 0 1 1 570.12,446.87A3,3 0 1 1 576.12,446.87Z" style="fill:none;stroke:#0000FF;stroke-width:0.5" />
<text x="460.74" y="-444.05" transform="scale(1, -1)"
	style="font-family:Liberation Sans;font-variant:normal;font-weight:normal;font-style:normal;font-size:12px">025 -&gt; 100 P_DWt</text>
<path d="M576.12,436.4A3,3 0 1 1 570.12,436.4A3,3 0 1 1 576.12,436.4Z" style="fill:none;stroke:#228B22;stroke-width:0.5" />
<text x="460.74" y="-433.58" transform="scale(1, -1)"
	style="font-family:Liberation Sans;font-variant:normal;font-weight:normal;font-style:normal;font-size:12px">050 -&gt; 025 P_DWt</text>
<path d="M576.12,425.93A3,3 0 1 1 570.12,425.93A3,3 0 1 1 576.12,425.93Z" style="fill:none;stroke:#800080;stroke-width:0.5" />
<text x="460.74" y="-423.11" transform="scale(1, -1)"
	style="font-family:Liberation Sans;font-variant:normal;font-weight:normal;font-style:normal;font-size:12px">050 -&gt; 050 P_DWt</text>
<path d="M576.12,415.46A3,3 0 1 1 570.12,415.46A3,3 0 1 1 576.12,415.46Z" style="fill:none;stroke:#FFA500;stroke-width:0.5" />
<text x="460.74" y="-412.63" transform="scale(1, -1)"
	style="font-family:Liberation Sans;font-variant:normal;font-weight:normal;font-style:normal;font-size:12px">050 -&gt; 100 P_DWt</text>
<path d="M576.12,404.99A3,3 0 1 1 570.12,404.99A3,3 0 1 1 576.12,404.99Z" style="fill:none;stroke:#A52A2A;stroke-width:0.5" />
<text x="460.74" y="-402.16" transform="scale(1, -1)"
	style="font-family:Liberation Sans;font-variant:normal;font-weight:normal;font-style:normal;font-size:12px">100 -&gt; 025 P_DWt</text>
<path d="M576.12,394.52A3,3 0 1 1 570.12,394.52A3,3 0 1 1 576.12,394.52Z" style="fill:none;stroke:#7FFF00;stroke-width:0.5" />
<text x="460.74" y="-391.69" transform="scale(1, -1)"
	style="font-family:Liberation Sans;font-variant:normal;font-weight:normal;font-style:normal;font-size:12px">100 -&gt; 050 P_DWt</text>
<path d="M576.12,384.05A3,3 0 1 1 570.12,384.05A3,3 0 1 1 576.12,384.05Z" style="fill:none;stroke:#000080;stroke-width:0.5" />
<text x="460.74" y="-381.22" transform="scale(1, -1)"
	style="font-family:Liberation Sans;font-variant:normal;font-weight:normal;font-style:normal;font-size:12px">100 -&gt; 100 P_DWt</text>
<path d="M576.12,373.58A3,3 0 1 1 570.12,373.58A3,3 0 1 1 576.12,373.58Z" style="fill:none;stroke:#00FFFF;stroke-width:0.5" />
<text x="460.74" y="-370.75" transform="scale(1, -1)"
	style="font-family:Liberation Sans;font-variant:normal;font-weight:normal;font-style:normal;font-size:12px">025 -&gt; 025 X_DWt</text>
<path d="M576.12,363.11A3,3 0 1 1 570.12,363.11A3,3 0 1 1 576.12,363.11Z" style="fill:none;stroke:#FF00FF;stroke-width:0.5" />
<text x="460.74" y="-360.28" transform="scale(1, -1)"
	style="font-family:Liberation Sans;font-variant:normal;font-weight:normal;font-style:normal;font-size:12px">025 -&gt; 050 X_DWt</text>
<path d="M576.12,352.64A3,3 0 1 1 570.12,352.64A3,3 0 1 1 576.12,352.64Z" style="fill:none;stroke:#D2B48C;stroke-width:0.5" />
<text x="460.74" y="-349.81" transform="scale(1, -1)"
	style="font-family:Liberation Sans;font-variant:normal;font-weight:normal;font-style:normal;font-size:12px">025 -&gt; 100 X_DWt</text>
<path d="M576.12,342.17A3,3 0 1 1 570.12,342.17A3,3 0 1 1 576.12,342.17Z" style="fill:none;stroke:#FA8072;stroke-width:0.5" />
<text x="460.74" y="-339.34" transform="scale(1, -1)"
	style="font-family:Liberation Sans;font-variant:normal;font-weight:normal;font-style:normal;font-size:12px">050 -&gt; 025 X_DWt</text>
<path d="M576.12,331.7A3,3 0 1 1 570.12,331.7A3,3 0 1 1 576.12,331.7Z" style="fill:none;stroke:#DAA520;stroke-width:0.5" />
<text x="460.74" y="-328.87" transform="scale(1, -1)"
	style="font-family:Liberation Sans;font-variant:normal;font-weight:normal;font-style:normal;font-size:12px">050 -&gt; 050 X_DWt</text>
<path d="M576.12,321.23A3,3 0 1 1 570.12,321.23A3,3 0 1 1 576.12,321.23Z" style="fill:none;stroke:#87CEEB;stroke-width:0.5" />
<text x="460.74" y="-318.4" transform="scale(1, -1)"
	style="font-family:Liberation Sans;font-variant:normal;font-weight:normal;font-style:normal;font-size:12px">050 -&gt; 100 X_DWt</text>
<path d="M576.12,310.75A3,3 0 1 1 570.12,310.75A3,3 0 1 1 576.12,310.75Z" style="fill:none;stroke:#FFC0CB;stroke-width:0.5" />
<text x="460.74" y="-307.93" transform="scale(1, -1)"
	style="font-family:Liberation Sans;font-variant:normal;font-weight:normal;font-style:normal;font-size:12px">100 -&gt; 025 X_DWt</text>
<path d="M576.12,300.28A3,3 0 1 1 570.12,300.28A3,3 0 1 1 576.12,300.28Z" style="fill:none;stroke:#000000;stroke-width:0.5" />
<text x="460.74" y="-297.46" transform="scale(1, -1)"
	style="font-family:Liberation Sans;font-variant:normal;font-weight:normal;font-style:normal;font-size:12px">100 -&gt; 050 X_DWt</text>
<path d="M576.12,289.81A3,3 0 1 1 570.12,289.81A3,3 0 1 1 576.12,289.81Z" style="fill:none;stroke:#FF0000;stroke-width:0.5" />
<text x="460.74" y="-286.99" transform="scale(1, -1)"
	style="font-family:Liberation Sans;font-variant:normal;font-weight:normal;font-style:normal;font-size:12px">100 -&gt; 100 X_DWt</text>
</g>
</svg>
