<?xml version="1.0"?>
<!-- Generated by SVGo and Plotinum VG -->
<svg width="583.12pt" height="489pt" viewBox="0 0 583.12 489"
	xmlns="http://www.w3.org/2000/svg"
	xmlns:xlink="http://www.w3.org/1999/xlink">
<g transform="scale(1, -1) translate(0, -489)">
<text x="219.53" y="-479.27" transform="scale(1, -1)"
	style="font-family:Liberation Sans;font-variant:normal;font-weight:normal;font-style:normal;font-size:12px">Kinase Equations DWt Plot</text>
<text x="296.78" y="-3.6797" transform="scale(1, -1)"
	style="font-family:Liberation Sans;font-variant:normal;font-weight:normal;font-style:normal;font-size:12px">ErrDWt</text>
<text x="45.319" y="-16.473" transform="scale(1, -1)"
	style="font-family:Liberation Sans;font-variant:normal;font-weight:normal;font-style:normal;font-size:10px">-1</text>
<text x="260.33" y="-16.473" transform="scale(1, -1)"
	style="font-family:Liberation Sans;font-variant:normal;font-weight:normal;font-style:normal;font-size:10px">0</text>
<text x="473.67" y="-16.473" transform="scale(1, -1)"
	style="font-family:Liberation Sans;font-variant:normal;font-weight:normal;font-style:normal;font-size:10px">1</text>
<path d="M49.765,24.578L49.765,32.578" style="fill:none;stroke:#000000;stroke-width:0.5" />
<path d="M263.11,24.578L263.11,32.578" style="fill:none;stroke:#000000;stroke-width:0.5" />
<path d="M476.45,24.578L476.45,32.578" style="fill:none;stroke:#000000;stroke-width:0.5" />
<path d="M92.433,28.578L92.433,32.578" style="fill:none;stroke:#000000;stroke-width:0.5" />
<path d="M135.1,28.578L135.1,32.578" style="fill:none;stroke:#000000;stroke-width:0.5" />
<path d="M177.77,28.578L177.77,32.578" style="fill:none;stroke:#000000;stroke-width:0.5" />
<path d="M220.44,28.578L220.44,32.578" style="fill:none;stroke:#000000;stroke-width:0.5" />
<path d="M305.78,28.578L305.78,32.578" style="fill:none;stroke:#000000;stroke-width:0.5" />
<path d="M348.45,28.578L348.45,32.578" style="fill:none;stroke:#000000;stroke-width:0.5" />
<path d="M391.12,28.578L391.12,32.578" style="fill:none;stroke:#000000;stroke-width:0.5" />
<path d="M433.78,28.578L433.78,32.578" style="fill:none;stroke:#000000;stroke-width:0.5" />
<path d="M519.12,28.578L519.12,32.578" style="fill:none;stroke:#000000;stroke-width:0.5" />
<path d="M561.79,28.578L561.79,32.578" style="fill:none;stroke:#000000;stroke-width:0.5" />
<path d="M49.765,32.578L583.12,32.578" style="fill:none;stroke:#000000;stroke-width:0.5" />
<g transform="rotate(90)">
<text x="238.98" y="9.7266" transform="scale(1, -1)"
	style="font-family:Liberation Sans;font-variant:normal;font-weight:normal;font-style:normal;font-size:12px">P_DWt</text>
</g>
<text x="15.949" y="-48.629" transform="scale(1, -1)"
	style="font-family:Liberation Sans;font-variant:normal;font-weight:normal;font-style:normal;font-size:10px">-1.5</text>
<text x="19.279" y="-249.69" transform="scale(1, -1)"
	style="font-family:Liberation Sans;font-variant:normal;font-weight:normal;font-style:normal;font-size:10px">0.0</text>
<text x="19.279" y="-450.75" transform="scale(1, -1)"
	style="font-family:Liberation Sans;font-variant:normal;font-weight:normal;font-style:normal;font-size:10px">1.5</text>
<path d="M35.959,51.149L43.959,51.149" style="fill:none;stroke:#000000;stroke-width:0.5" />
<path d="M35.959,252.21L43.959,252.21" style="fill:none;stroke:#000000;stroke-width:0.5" />
<path d="M35.959,453.27L43.959,453.27" style="fill:none;stroke:#000000;stroke-width:0.5" />
<path d="M39.959,151.68L43.959,151.68" style="fill:none;stroke:#000000;stroke-width:0.5" />
<path d="M39.959,352.74L43.959,352.74" style="fill:none;stroke:#000000;stroke-width:0.5" />
<path d="M43.959,43.371L43.959,472.59" style="fill:none;stroke:#000000;stroke-width:0.5" />
<path d="M266.11,252.08A3,3 0 1 1 260.11,252.08A3,3 0 1 1 266.11,252.08Z" style="fill:none;stroke:#000000;stroke-width:0.5" />
<path d="M319.44,302.12A3,3 0 1 1 313.44,302.12A3,3 0 1 1 319.44,302.12Z" style="fill:none;stroke:#FF0000;stroke-width:0.5" />
<path d="M426.12,472.59A3,3 0 1 1 420.12,472.59A3,3 0 1 1 426.12,472.59Z" style="fill:none;stroke:#0000FF;stroke-width:0.5" />
<path d="M212.77,213.06A3,3 0 1 1 206.77,213.06A3,3 0 1 1 212.77,213.06Z" style="fill:none;stroke:#228B22;stroke-width:0.5" />
<path d="M266.11,252.28A3,3 0 1 1 260.11,252.28A3,3 0 1 1 266.11,252.28Z" style="fill:none;stroke:#800080;stroke-width:0.5" />
<path d="M372.78,422.89A3,3 0 1 1 366.78,422.89A3,3 0 1 1 372.78,422.89Z" style="fill:none;stroke:#FFA500;stroke-width:0.5" />
<path d="M106.1,59.045A3,3 0 1 1 100.1,59.045A3,3 0 1 1 106.1,59.045Z" style="fill:none;stroke:#A52A2A;stroke-width:0.5" />
<path d="M159.44,87.373A3,3 0 1 1 153.44,87.373A3,3 0 1 1 159.44,87.373Z" style="fill:none;stroke:#7FFF00;stroke-width:0.5" />
<path d="M266.11,252.72A3,3 0 1 1 260.11,252.72A3,3 0 1 1 266.11,252.72Z" style="fill:none;stroke:#000080;stroke-width:0.5" />
<path d="M266.11,252.14A3,3 0 1 1 260.11,252.14A3,3 0 1 1 266.11,252.14Z" style="fill:none;stroke:#00FFFF;stroke-width:0.5" />
<path d="M319.44,288.81A3,3 0 1 1 313.44,288.81A3,3 0 1 1 319.44,288.81Z" style="fill:none;stroke:#FF00FF;stroke-width:0.5" />
<path d="M426.12,458.88A3,3 0 1 1 420.12,458.88A3,3 0 1 1 426.12,458.88Z" style="fill:none;stroke:#D2B48C;stroke-width:0.5" />
<path d="M212.77,218.63A3,3 0 1 1 206.77,218.63A3,3 0 1 1 212.77,218.63Z" style="fill:none;stroke:#FA8072;stroke-width:0.5" />
<path d="M266.11,252.3A3,3 0 1 1 260.11,252.3A3,3 0 1 1 266.11,252.3Z" style="fill:none;stroke:#DAA520;stroke-width:0.5" />
<path d="M372.78,426.34A3,3 0 1 1 366.78,426.34A3,3 0 1 1 372.78,426.34Z" style="fill:none;stroke:#87CEEB;stroke-width:0.5" />
<path d="M106.1,43.371A3,3 0 1 1 100.1,43.371A3,3 0 1 1 106.1,43.371Z" style="fill:none;stroke:#FFC0CB;stroke-width:0.5" />
<path d="M159.44,76.069A3,3 0 1 1 153.44,76.069A3,3 0 1 1 159.44,76.069Z" style="fill:none;stroke:#000000;stroke-width:0.5" />
<path d="M266.11,252.77A3,3 0 1 1 260.11,252.77A3,3 0 1 1 266.11,252.77Z" style="fill:none;stroke:#FF0000;stroke-width:0.5" />
<path d="M266.11,252.16A3,3 0 1 1 260.11,252.16A3,3 0 1 1 266.11,252.16Z" style="fill:none;stroke:#0000FF;stroke-width:0.5" />
<path d="M319.44,297.18A3,3 0 1 1 313.44,297.18A3,3 0 1 1 319.44,297.18Z" style="fill:none;stroke:#228B22;stroke-width:0.5" />
<path d="M426.12,450.57A3,3 0 1 1 420.12,450.57A3,3 0 1 1 426.12,450.57Z" style="fill:none;stroke:#800080;stroke-width:0.5" />
<path d="M212.77,210.99A3,3 0 1 1 206.77,210.99A3,3 0 1 1 212.77,210.99Z" style="fill:none;stroke:#FFA500;stroke-width:0.5" />
<path d="M266.11,252.31A3,3 0 1 1 260.11,252.31A3,3 0 1 1 266.11,252.31Z" style="fill:none;stroke:#A52A2A;stroke-width:0.5" />
<path d="M372.78,410.62A3,3 0 1 1 366.78,410.62A3,3 0 1 1 372.78,410.62Z" style="fill:none;stroke:#7FFF00;stroke-width:0.5" />
<path d="M106.1,49.735A3,3 0 1 1 100.1,49.735A3,3 0 1 1 106.1,49.735Z" style="fill:none;stroke:#000080;stroke-width:0.5" />
<path d="M159.44,92.032A3,3 0 1 1 153.44,92.032A3,3 0 1 1 159.44,92.032Z" style="fill:none;stroke:#00FFFF;stroke-width:0.5" />
<path d="M266.11,252.86A3,3 0 1 1 260.11,252.86A3,3 0 1 1 266.11,252.86Z" style="fill:none;stroke:#FF00FF;stroke-width:0.5" />
<path d="M576.12,467.82A3,3 0 1 1 570.12,467.82A3,3 0 1 1 576.12,467.82Z" style="fill:none;stroke:#000000;stroke-width:0.5" />
<text x="460.74" y="-464.99" transform="scale(1, -1)"
	style="font-family:Liberation Sans;font-variant:normal;font-weight:normal;font-style:normal;font-size:12px">025 -&gt; 025 P_DWt</text>
<path d="M576.12,457.34A3,3 0 1 1 570.12,457.34A3,3 0 1 1 576.12,457.34Z" style="fill:none;stroke:#FF0000;stroke-width:0.5" />
<text x="460.74" y="-454.52" transform="scale(1, -1)"
	style="font-family:Liberation Sans;font-variant:normal;font-weight:normal;font-style:normal;font-size:12px">025 -&gt; 050 P_DWt</text>
<path d="M576.12,446.87A3,3 0 1 1 570.12,446.87A3,3 0 1 1 576.12,446.87Z" style="fill:none;stroke:#0000FF;stroke-width:0.5" />
<text x="460.74" y="-444.05" transform="scale(1, -1)"
	style="font-family:Liberation Sans;font-variant:normal;font-weight:normal;font-style:normal;font-size:12px">025 -&gt; 100 P_DWt</text>
<path d="M576.12,436.4A3,3 0 1 1 570.12,436.4A3,3 0 1 1 576.12,436.4Z" style="fill:none;stroke:#228B22;stroke-width:0.5" />
<text x="460.74" y="-433.58" transform="scale(1, -1)"
	style="font-family:Liberation Sans;font-variant:normal;font-weight:normal;font-style:normal;font-size:12px">050 -&gt; 025 P_DWt</text>
<path d="M576.12,425.93A3,3 0 1 1 570.12,425.93A3,3 0 1 1 576.12,425.93Z" style="fill:none;stroke:#800080;stroke-width:0.5" />
<text x="460.74" y="-423.11" transform="scale(1, -1)"
	style="font-family:Liberation Sans;font-variant:normal;font-weight:normal;font-style:normal;font-size:12px">050 -&gt; 050 P_DWt</text>
<path d="M576.12,415.46A3,3 0 1 1 570.12,415.46A3,3 0 1 1 576.12,415.46Z" style="fill:none;stroke:#FFA500;stroke-width:0.5" />
<text x="460.74" y="-412.63" transform="scale(1, -1)"
	style="font-family:Liberation Sans;font-variant:normal;font-weight:normal;font-style:normal;font-size:12px">050 -&gt; 100 P_DWt</text>
<path d="M576.12,404.99A3,3 0 1 1 570.12,404.99A3,3 0 1 1 576.12,404.99Z" style="fill:none;stroke:#A52A2A;stroke-width:0.5" />
<text x="460.74" y="-402.16" transform="scale(1, -1)"
	style="font-family:Liberation Sans;font-variant:normal;font-weight:normal;font-style:normal;font-size:12px">100 -&gt; 025 P_DWt</text>
<path d="M576.12,394.52A3,3 0 1 1 570.12,394.52A3,3 0 1 1 576.12,394.52Z" style="fill:none;stroke:#7FFF00;stroke-width:0.5" />
<text x="460.74" y="-391.69" transform="scale(1, -1)"
	style="font-family:Liberation Sans;font-variant:normal;font-weight:normal;font-style:normal;font-size:12px">100 -&gt; 050 P_DWt</text>
<path d="M576.12,384.05A3,3 0 1 1 570.12,384.05A3,3 0 1 1 576.12,384.05Z" style="fill:none;stroke:#000080;stroke-width:0.5" />
<text x="460.74" y="-381.22" transform="scale(1, -1)"
	style="font-family:Liberation Sans;font-variant:normal;font-weight:normal;font-style:normal;font-size:12px">100 -&gt; 100 P_DWt</text>
<path d="M576.12,373.58A3,3 0 1 1 570.12,373.58A3,3 0 1 1 576.12,373.58Z" style="fill:none;stroke:#00FFFF;stroke-width:0.5" />
<text x="460.74" y="-370.75" transform="scale(1, -1)"
	style="font-family:Liberation Sans;font-variant:normal;font-weight:normal;font-style:normal;font-size:12px">025 -&gt; 025 X_DWt</text>
<path d="M576.12,363.11A3,3 0 1 1 570.12,363.11A3,3 0 1 1 576.12,363.11Z" style="fill:none;stroke:#FF00FF;stroke-width:0.5" />
<text x="460.74" y="-360.28" transform="scale(1, -1)"
	style="font-family:Liberation Sans;font-variant:normal;font-weight:normal;font-style:normal;font-size:12px">025 -&gt; 050 X_DWt</text>
<path d="M576.12,352.64A3,3 0 1 1 570.12,352.64A3,3 0 1 1 576.12,352.64Z" style="fill:none;stroke:#D2B48C;stroke-width:0.5" />
<text x="460.74" y="-349.81" transform="scale(1, -1)"
	style="font-family:Liberation Sans;font-variant:normal;font-weight:normal;font-style:normal;font-size:12px">025 -&gt; 100 X_DWt</text>
<path d="M576.12,342.17A3,3 0 1 1 570.12,342.17A3,3 0 1 1 576.12,342.17Z" style="fill:none;stroke:#FA8072;stroke-width:0.5" />
<text x="460.74" y="-339.34" transform="scale(1, -1)"
	style="font-family:Liberation Sans;font-variant:normal;font-weight:normal;font-style:normal;font-size:12px">050 -&gt; 025 X_DWt</text>
<path d="M576.12,331.7A3,3 0 1 1 570.12,331.7A3,3 0 1 1 576.12,331.7Z" style="fill:none;stroke:#DAA520;stroke-width:0.5" />
<text x="460.74" y="-328.87" transform="scale(1, -1)"
	style="font-family:Liberation Sans;font-variant:normal;font-weight:normal;font-style:normal;font-size:12px">050 -&gt; 050 X_DWt</text>
<path d="M576.12,321.23A3,3 0 1 1 570.12,321.23A3,3 0 1 1 576.12,321.23Z" style="fill:none;stroke:#87CEEB;stroke-width:0.5" />
<text x="460.74" y="-318.4" transform="scale(1, -1)"
	style="font-family:Liberation Sans;font-variant:normal;font-weight:normal;font-style:normal;font-size:12px">050 -&gt; 100 X_DWt</text>
<path d="M576.12,310.75A3,3 0 1 1 570.12,310.75A3,3 0 1 1 576.12,310.75Z" style="fill:none;stroke:#FFC0CB;stroke-width:0.5" />
<text x="460.74" y="-307.93" transform="scale(1, -1)"
	style="font-family:Liberation Sans;font-variant:normal;font-weight:normal;font-style:normal;font-size:12px">100 -&gt; 025 X_DWt</text>
<path d="M576.12,300.28A3,3 0 1 1 570.12,300.28A3,3 0 1 1 576.12,300.28Z" style="fill:none;stroke:#000000;stroke-width:0.5" />
<text x="460.74" y="-297.46" transform="scale(1, -1)"
	style="font-family:Liberation Sans;font-variant:normal;font-weight:normal;font-style:normal;font-size:12px">100 -&gt; 050 X_DWt</text>
<path d="M576.12,289.81A3,3 0 1 1 570.12,289.81A3,3 0 1 1 576.12,289.81Z" style="fill:none;stroke:#FF0000;stroke-width:0.5" />
<text x="460.74" y="-286.99" transform="scale(1, -1)"
	style="font-family:Liberation Sans;font-variant:normal;font-weight:normal;font-style:normal;font-size:12px">100 -&gt; 100 X_DWt</text>
<path d="M576.12,279.34A3,3 0 1 1 570.12,279.34A3,3 0 1 1 576.12,279.34Z" style="fill:none;stroke:#0000FF;stroke-width:0.5" />
<text x="459.41" y="-276.52" transform="scale(1, -1)"
	style="font-family:Liberation Sans;font-variant:normal;font-weight:normal;font-style:normal;font-size:12px">025 -&gt; 025 O_DWt</text>
<path d="M576.12,268.87A3,3 0 1 1 570.12,268.87A3,3 0 1 1 576.12,268.87Z" style="fill:none;stroke:#228B22;stroke-width:0.5" />
<text x="459.41" y="-266.04" transform="scale(1, -1)"
	style="font-family:Liberation Sans;font-variant:normal;font-weight:normal;font-style:normal;font-size:12px">025 -&gt; 050 O_DWt</text>
<path d="M576.12,258.4A3,3 0 1 1 570.12,258.4A3,3 0 1 1 576.12,258.4Z" style="fill:none;stroke:#800080;stroke-width:0.5" />
<text x="459.41" y="-255.57" transform="scale(1, -1)"
	style="font-family:Liberation Sans;font-variant:normal;font-weight:normal;font-style:normal;font-size:12px">025 -&gt; 100 O_DWt</text>
<path d="M576.12,247.93A3,3 0 1 1 570.12,247.93A3,3 0 1 1 576.12,247.93Z" style="fill:none;stroke:#FFA500;stroke-width:0.5" />
<text x="459.41" y="-245.1" transform="scale(1, -1)"
	style="font-family:Liberation Sans;font-variant:normal;font-weight:normal;font-style:normal;font-size:12px">050 -&gt; 025 O_DWt</text>
<path d="M576.12,237.46A3,3 0 1 1 570.12,237.46A3,3 0 1 1 576.12,237.46Z" style="fill:none;stroke:#A52A2A;stroke-width:0.5" />
<text x="459.41" y="-234.63" transform="scale(1, -1)"
	style="font-family:Liberation Sans;font-variant:normal;font-weight:normal;font-style:normal;font-size:12px">050 -&gt; 050 O_DWt</text>
<path d="M576.12,226.99A3,3 0 1 1 570.12,226.99A3,3 0 1 1 576.12,226.99Z" style="fill:none;stroke:#7FFF00;stroke-width:0.5" />
<text x="459.41" y="-224.16" transform="scale(1, -1)"
	style="font-family:Liberation Sans;font-variant:normal;font-weight:normal;font-style:normal;font-size:12px">050 -&gt; 100 O_DWt</text>
<path d="M576.12,216.52A3,3 0 1 1 570.12,216.52A3,3 0 1 1 576.12,216.52Z" style="fill:none;stroke:#000080;stroke-width:0.5" />
<text x="459.41" y="-213.69" transform="scale(1, -1)"
	style="font-family:Liberation Sans;font-variant:normal;font-weight:normal;font-style:normal;font-size:12px">100 -&gt; 025 O_DWt</text>
<path d="M576.12,206.05A3,3 0 1 1 570.12,206.05A3,3 0 1 1 576.12,206.05Z" style="fill:none;stroke:#00FFFF;stroke-width:0.5" />
<text x="459.41" y="-203.22" transform="scale(1, -1)"
	style="font-family:Liberation Sans;font-variant:normal;font-weight:normal;font-style:normal;font-size:12px">100 -&gt; 050 O_DWt</text>
<path d="M576.12,195.58A3,3 0 1 1 570.12,195.58A3,3 0 1 1 576.12,195.58Z" style="fill:none;stroke:#FF00FF;stroke-width:0.5" />
<text x="459.41" y="-192.75" transform="scale(1, -1)"
	style="font-family:Liberation Sans;font-variant:normal;font-weight:normal;font-style:normal;font-size:12px">100 -&gt; 100 O_DWt</text>
</g>
</svg>
