<?xml version="1.0"?>
<!-- Generated by SVGo and Plotinum VG -->
<svg width="633.38pt" height="313.12pt" viewBox="0 0 633.38 313.12"
	xmlns="http://www.w3.org/2000/svg"
	xmlns:xlink="http://www.w3.org/1999/xlink">
<g transform="scale(1, -1) translate(0, -313.12)">
<text x="268.67" y="-303.4" transform="scale(1, -1)"
	style="font-family:Helvetica;font-weight:normal;font-style:normal;font-size:12px">Urakubo DWt Plot</text>
<text x="334.79" y="-3.6797" transform="scale(1, -1)"
	style="font-family:Helvetica;font-weight:normal;font-style:normal;font-size:12px">X</text>
<text x="42.538" y="-16.473" transform="scale(1, -1)"
	style="font-family:Helvetica;font-weight:normal;font-style:normal;font-size:10px">-50</text>
<text x="336.01" y="-16.473" transform="scale(1, -1)"
	style="font-family:Helvetica;font-weight:normal;font-style:normal;font-size:10px">0</text>
<text x="622.25" y="-16.473" transform="scale(1, -1)"
	style="font-family:Helvetica;font-weight:normal;font-style:normal;font-size:10px">50</text>
<path d="M49.765,24.578L49.765,32.578" style="fill:none;stroke:#000000;stroke-width:0.5" />
<path d="M338.79,24.578L338.79,32.578" style="fill:none;stroke:#000000;stroke-width:0.5" />
<path d="M627.81,24.578L627.81,32.578" style="fill:none;stroke:#000000;stroke-width:0.5" />
<path d="M107.57,28.578L107.57,32.578" style="fill:none;stroke:#000000;stroke-width:0.5" />
<path d="M165.37,28.578L165.37,32.578" style="fill:none;stroke:#000000;stroke-width:0.5" />
<path d="M223.18,28.578L223.18,32.578" style="fill:none;stroke:#000000;stroke-width:0.5" />
<path d="M280.98,28.578L280.98,32.578" style="fill:none;stroke:#000000;stroke-width:0.5" />
<path d="M396.59,28.578L396.59,32.578" style="fill:none;stroke:#000000;stroke-width:0.5" />
<path d="M454.4,28.578L454.4,32.578" style="fill:none;stroke:#000000;stroke-width:0.5" />
<path d="M512.2,28.578L512.2,32.578" style="fill:none;stroke:#000000;stroke-width:0.5" />
<path d="M570.01,28.578L570.01,32.578" style="fill:none;stroke:#000000;stroke-width:0.5" />
<path d="M49.765,32.578L627.81,32.578" style="fill:none;stroke:#000000;stroke-width:0.5" />
<g transform="rotate(90)">
<text x="156.81" y="9.7266" transform="scale(1, -1)"
	style="font-family:Helvetica;font-weight:normal;font-style:normal;font-size:12px">DWt</text>
</g>
<text x="15.949" y="-37.852" transform="scale(1, -1)"
	style="font-family:Helvetica;font-weight:normal;font-style:normal;font-size:10px">-0.5</text>
<text x="19.279" y="-165.96" transform="scale(1, -1)"
	style="font-family:Helvetica;font-weight:normal;font-style:normal;font-size:10px">0.0</text>
<text x="19.279" y="-294.06" transform="scale(1, -1)"
	style="font-family:Helvetica;font-weight:normal;font-style:normal;font-size:10px">0.5</text>
<path d="M35.959,40.371L43.959,40.371" style="fill:none;stroke:#000000;stroke-width:0.5" />
<path d="M35.959,168.48L43.959,168.48" style="fill:none;stroke:#000000;stroke-width:0.5" />
<path d="M35.959,296.58L43.959,296.58" style="fill:none;stroke:#000000;stroke-width:0.5" />
<path d="M39.959,65.992L43.959,65.992" style="fill:none;stroke:#000000;stroke-width:0.5" />
<path d="M39.959,91.613L43.959,91.613" style="fill:none;stroke:#000000;stroke-width:0.5" />
<path d="M39.959,117.23L43.959,117.23" style="fill:none;stroke:#000000;stroke-width:0.5" />
<path d="M39.959,142.85L43.959,142.85" style="fill:none;stroke:#000000;stroke-width:0.5" />
<path d="M39.959,194.1L43.959,194.1" style="fill:none;stroke:#000000;stroke-width:0.5" />
<path d="M39.959,219.72L43.959,219.72" style="fill:none;stroke:#000000;stroke-width:0.5" />
<path d="M39.959,245.34L43.959,245.34" style="fill:none;stroke:#000000;stroke-width:0.5" />
<path d="M39.959,270.96L43.959,270.96" style="fill:none;stroke:#000000;stroke-width:0.5" />
<path d="M43.959,40.371L43.959,296.58" style="fill:none;stroke:#000000;stroke-width:0.5" />
<path d="M49.765,115.89L78.667,111.48L107.57,105.99L136.47,99.144L165.37,90.639L194.28,80.335L223.18,69.002L252.08,59.824L280.98,57.28L309.89,58.344L338.79,134.94L367.69,243.57L396.59,254.98L425.5,230.8L454.4,205.25L483.3,185.41L512.2,171.36L541.11,161.61L570.01,154.82L598.91,150.05L627.81,146.67" style="fill:none;stroke:#FF0000" />
<path d="M613.38,294.48L633.38,294.48" style="fill:none;stroke:#FF0000" />
<text x="576.71" y="-291.66" transform="scale(1, -1)"
	style="font-family:Helvetica;font-weight:normal;font-style:normal;font-size:12px">0 DWt</text>
</g>
</svg>
