<?xml version="1.0"?>
<!-- Generated by SVGo and Plotinum VG -->
<svg width="633.38pt" height="313.12pt" viewBox="0 0 633.38 313.12"
	xmlns="http://www.w3.org/2000/svg"
	xmlns:xlink="http://www.w3.org/1999/xlink">
<g transform="scale(1, -1) translate(0, -313.12)">
<text x="268.67" y="-303.4" transform="scale(1, -1)"
	style="font-family:Helvetica;font-weight:normal;font-style:normal;font-size:12px">Urakubo DWt Plot</text>
<text x="334.79" y="-3.6797" transform="scale(1, -1)"
	style="font-family:Helvetica;font-weight:normal;font-style:normal;font-size:12px">X</text>
<text x="42.538" y="-16.473" transform="scale(1, -1)"
	style="font-family:Helvetica;font-weight:normal;font-style:normal;font-size:10px">-15</text>
<text x="238" y="-16.473" transform="scale(1, -1)"
	style="font-family:Helvetica;font-weight:normal;font-style:normal;font-size:10px">-5</text>
<text x="432.35" y="-16.473" transform="scale(1, -1)"
	style="font-family:Helvetica;font-weight:normal;font-style:normal;font-size:10px">5</text>
<text x="622.25" y="-16.473" transform="scale(1, -1)"
	style="font-family:Helvetica;font-weight:normal;font-style:normal;font-size:10px">15</text>
<path d="M49.765,24.578L49.765,32.578" style="fill:none;stroke:#000000;stroke-width:0.5" />
<path d="M242.45,24.578L242.45,32.578" style="fill:none;stroke:#000000;stroke-width:0.5" />
<path d="M435.13,24.578L435.13,32.578" style="fill:none;stroke:#000000;stroke-width:0.5" />
<path d="M627.81,24.578L627.81,32.578" style="fill:none;stroke:#000000;stroke-width:0.5" />
<path d="M146.11,28.578L146.11,32.578" style="fill:none;stroke:#000000;stroke-width:0.5" />
<path d="M338.79,28.578L338.79,32.578" style="fill:none;stroke:#000000;stroke-width:0.5" />
<path d="M531.47,28.578L531.47,32.578" style="fill:none;stroke:#000000;stroke-width:0.5" />
<path d="M49.765,32.578L627.81,32.578" style="fill:none;stroke:#000000;stroke-width:0.5" />
<g transform="rotate(90)">
<text x="156.81" y="9.7266" transform="scale(1, -1)"
	style="font-family:Helvetica;font-weight:normal;font-style:normal;font-size:12px">DWt</text>
</g>
<text x="15.949" y="-37.852" transform="scale(1, -1)"
	style="font-family:Helvetica;font-weight:normal;font-style:normal;font-size:10px">-0.3</text>
<text x="19.279" y="-165.96" transform="scale(1, -1)"
	style="font-family:Helvetica;font-weight:normal;font-style:normal;font-size:10px">0.0</text>
<text x="19.279" y="-294.06" transform="scale(1, -1)"
	style="font-family:Helvetica;font-weight:normal;font-style:normal;font-size:10px">0.3</text>
<path d="M35.959,40.371L43.959,40.371" style="fill:none;stroke:#000000;stroke-width:0.5" />
<path d="M35.959,168.48L43.959,168.48" style="fill:none;stroke:#000000;stroke-width:0.5" />
<path d="M35.959,296.58L43.959,296.58" style="fill:none;stroke:#000000;stroke-width:0.5" />
<path d="M39.959,83.072L43.959,83.072" style="fill:none;stroke:#000000;stroke-width:0.5" />
<path d="M39.959,125.77L43.959,125.77" style="fill:none;stroke:#000000;stroke-width:0.5" />
<path d="M39.959,211.18L43.959,211.18" style="fill:none;stroke:#000000;stroke-width:0.5" />
<path d="M39.959,253.88L43.959,253.88" style="fill:none;stroke:#000000;stroke-width:0.5" />
<path d="M43.959,40.371L43.959,296.58" style="fill:none;stroke:#000000;stroke-width:0.5" />
<path d="M49.765,133.38L69.033,106.47L88.301,103L107.57,101.56L126.84,100.43L146.11,99.6L165.37,99.059L184.64,98.777L203.91,98.712L223.18,98.798L242.45,98.944L261.72,99.022L280.98,98.891L300.25,98.614L319.52,99.327L338.79,104.34L358.06,115.82L377.33,129.66L396.59,144.82L415.86,158.47L435.13,165.13L454.4,167.38L473.67,167.28L492.94,165.73L512.2,163.33L531.47,160.44L550.74,157.3L570.01,154.04L589.28,150.76L608.55,147.49L627.81,144.26" style="fill:none;stroke:#FF0000" />
<path d="M613.38,294.48L633.38,294.48" style="fill:none;stroke:#FF0000" />
<text x="570.03" y="-291.66" transform="scale(1, -1)"
	style="font-family:Helvetica;font-weight:normal;font-style:normal;font-size:12px">25 DWt</text>
</g>
</svg>
