<?xml version="1.0"?>
<!-- Generated by SVGo and Plotinum VG -->
<svg width="643.88pt" height="316.5pt" viewBox="0 0 643.88 316.5"
	xmlns="http://www.w3.org/2000/svg"
	xmlns:xlink="http://www.w3.org/1999/xlink">
<g transform="scale(1, -1) translate(0, -316.5)">
<text x="273.92" y="-306.77" transform="scale(1, -1)"
	style="font-family:Helvetica;font-weight:normal;font-style:normal;font-size:12px">Urakubo DWt Plot</text>
<text x="338.65" y="-3.6797" transform="scale(1, -1)"
	style="font-family:Helvetica;font-weight:normal;font-style:normal;font-size:12px">X</text>
<text x="109.29" y="-16.473" transform="scale(1, -1)"
	style="font-family:Helvetica;font-weight:normal;font-style:normal;font-size:10px">20</text>
<text x="369.63" y="-16.473" transform="scale(1, -1)"
	style="font-family:Helvetica;font-weight:normal;font-style:normal;font-size:10px">60</text>
<text x="627.19" y="-16.473" transform="scale(1, -1)"
	style="font-family:Helvetica;font-weight:normal;font-style:normal;font-size:10px">100</text>
<path d="M114.85,24.578L114.85,32.578" style="fill:none;stroke:#000000;stroke-width:0.5" />
<path d="M375.19,24.578L375.19,32.578" style="fill:none;stroke:#000000;stroke-width:0.5" />
<path d="M635.53,24.578L635.53,32.578" style="fill:none;stroke:#000000;stroke-width:0.5" />
<path d="M179.94,28.578L179.94,32.578" style="fill:none;stroke:#000000;stroke-width:0.5" />
<path d="M245.02,28.578L245.02,32.578" style="fill:none;stroke:#000000;stroke-width:0.5" />
<path d="M310.11,28.578L310.11,32.578" style="fill:none;stroke:#000000;stroke-width:0.5" />
<path d="M440.28,28.578L440.28,32.578" style="fill:none;stroke:#000000;stroke-width:0.5" />
<path d="M505.36,28.578L505.36,32.578" style="fill:none;stroke:#000000;stroke-width:0.5" />
<path d="M570.45,28.578L570.45,32.578" style="fill:none;stroke:#000000;stroke-width:0.5" />
<path d="M49.765,32.578L635.53,32.578" style="fill:none;stroke:#000000;stroke-width:0.5" />
<g transform="rotate(90)">
<text x="158.5" y="9.7266" transform="scale(1, -1)"
	style="font-family:Helvetica;font-weight:normal;font-style:normal;font-size:12px">DWt</text>
</g>
<text x="15.949" y="-37.852" transform="scale(1, -1)"
	style="font-family:Helvetica;font-weight:normal;font-style:normal;font-size:10px">-0.5</text>
<text x="19.279" y="-167.64" transform="scale(1, -1)"
	style="font-family:Helvetica;font-weight:normal;font-style:normal;font-size:10px">0.0</text>
<text x="19.279" y="-297.43" transform="scale(1, -1)"
	style="font-family:Helvetica;font-weight:normal;font-style:normal;font-size:10px">0.5</text>
<path d="M35.959,40.371L43.959,40.371" style="fill:none;stroke:#000000;stroke-width:0.5" />
<path d="M35.959,170.16L43.959,170.16" style="fill:none;stroke:#000000;stroke-width:0.5" />
<path d="M35.959,299.95L43.959,299.95" style="fill:none;stroke:#000000;stroke-width:0.5" />
<path d="M39.959,66.329L43.959,66.329" style="fill:none;stroke:#000000;stroke-width:0.5" />
<path d="M39.959,92.288L43.959,92.288" style="fill:none;stroke:#000000;stroke-width:0.5" />
<path d="M39.959,118.25L43.959,118.25" style="fill:none;stroke:#000000;stroke-width:0.5" />
<path d="M39.959,144.2L43.959,144.2" style="fill:none;stroke:#000000;stroke-width:0.5" />
<path d="M39.959,196.12L43.959,196.12" style="fill:none;stroke:#000000;stroke-width:0.5" />
<path d="M39.959,222.08L43.959,222.08" style="fill:none;stroke:#000000;stroke-width:0.5" />
<path d="M39.959,248.04L43.959,248.04" style="fill:none;stroke:#000000;stroke-width:0.5" />
<path d="M39.959,274L43.959,274" style="fill:none;stroke:#000000;stroke-width:0.5" />
<path d="M43.959,40.371L43.959,299.95" style="fill:none;stroke:#000000;stroke-width:0.5" />
<path d="M49.765,156.96L114.85,160.09L179.94,151.58L245.02,145.36L310.11,145.35L375.19,146.52L440.28,260.57L505.36,279.02L570.45,272.89L635.53,279.39" style="fill:none;stroke:#000000" />
<path d="M49.765,153.85L114.85,172.43L179.94,166.85L245.02,167.94L310.11,164.25L375.19,159.42L440.28,165.41L505.36,167.26L570.45,287.45L635.53,295.84" style="fill:none;stroke:#FF0000" />
<path d="M49.765,154.76L114.85,176.15L179.94,172.91L245.02,168.35L310.11,174.08L375.19,169.87L440.28,179.09L505.36,268.27L570.45,290.19L635.53,296.55" style="fill:none;stroke:#0000FF" />
<path d="M49.765,153.77L114.85,167.98L179.94,185.65L245.02,193.37L310.11,187.44L375.19,186.37L440.28,189.37L505.36,266.99L570.45,290.75L635.53,293.05" style="fill:none;stroke:#228B22" />
<path d="M49.765,154.85L114.85,169.08L179.94,186.85L245.02,193.34L310.11,194.59L375.19,199.36L440.28,199.93L505.36,248.67L570.45,284.69L635.53,298.99" style="fill:none;stroke:#800080" />
<path d="M49.765,154.41L114.85,170.18L179.94,184.18L245.02,199.13L310.11,204.93L375.19,204.46L440.28,248.31L505.36,290.36L570.45,292.92L635.53,294.94" style="fill:none;stroke:#FFA500" />
<path d="M49.765,157.04L114.85,169.31L179.94,183.86L245.02,199.07L310.11,209.71L375.19,216.86L440.28,282.38L505.36,224.69L570.45,279.34L635.53,296.81" style="fill:none;stroke:#A52A2A" />
<path d="M49.765,157.5L114.85,169.61L179.94,179.33L245.02,196.94L310.11,210.31L375.19,211.42L440.28,225.22L505.36,259.34L570.45,288.23L635.53,294.3" style="fill:none;stroke:#7FFF00" />
<path d="M49.765,158.53L114.85,169.72L179.94,188.68L245.02,198.58L310.11,209.68L375.19,217.25L440.28,271.55L505.36,266.28L570.45,291.79L635.53,298.92" style="fill:none;stroke:#000080" />
<path d="M49.765,157.98L114.85,170.98L179.94,187.06L245.02,194.97L310.11,208.13L375.19,218.86L440.28,260.09L505.36,276.49L570.45,296.65L635.53,295.19" style="fill:none;stroke:#00FFFF" />
<path d="M623.88,297.86L643.88,297.86" style="fill:none;stroke:#000000" />
<text x="580.53" y="-295.03" transform="scale(1, -1)"
	style="font-family:Helvetica;font-weight:normal;font-style:normal;font-size:12px">10 DWt</text>
<path d="M623.88,287.39L643.88,287.39" style="fill:none;stroke:#FF0000" />
<text x="580.53" y="-284.56" transform="scale(1, -1)"
	style="font-family:Helvetica;font-weight:normal;font-style:normal;font-size:12px">20 DWt</text>
<path d="M623.88,276.92L643.88,276.92" style="fill:none;stroke:#0000FF" />
<text x="580.53" y="-274.09" transform="scale(1, -1)"
	style="font-family:Helvetica;font-weight:normal;font-style:normal;font-size:12px">30 DWt</text>
<path d="M623.88,266.45L643.88,266.45" style="fill:none;stroke:#228B22" />
<text x="580.53" y="-263.62" transform="scale(1, -1)"
	style="font-family:Helvetica;font-weight:normal;font-style:normal;font-size:12px">40 DWt</text>
<path d="M623.88,255.98L643.88,255.98" style="fill:none;stroke:#800080" />
<text x="580.53" y="-253.15" transform="scale(1, -1)"
	style="font-family:Helvetica;font-weight:normal;font-style:normal;font-size:12px">50 DWt</text>
<path d="M623.88,245.5L643.88,245.5" style="fill:none;stroke:#FFA500" />
<text x="580.53" y="-242.68" transform="scale(1, -1)"
	style="font-family:Helvetica;font-weight:normal;font-style:normal;font-size:12px">60 DWt</text>
<path d="M623.88,235.03L643.88,235.03" style="fill:none;stroke:#A52A2A" />
<text x="580.53" y="-232.21" transform="scale(1, -1)"
	style="font-family:Helvetica;font-weight:normal;font-style:normal;font-size:12px">70 DWt</text>
<path d="M623.88,224.56L643.88,224.56" style="fill:none;stroke:#7FFF00" />
<text x="580.53" y="-221.74" transform="scale(1, -1)"
	style="font-family:Helvetica;font-weight:normal;font-style:normal;font-size:12px">80 DWt</text>
<path d="M623.88,214.09L643.88,214.09" style="fill:none;stroke:#000080" />
<text x="580.53" y="-211.27" transform="scale(1, -1)"
	style="font-family:Helvetica;font-weight:normal;font-style:normal;font-size:12px">90 DWt</text>
<path d="M623.88,203.62L643.88,203.62" style="fill:none;stroke:#00FFFF" />
<text x="573.86" y="-200.79" transform="scale(1, -1)"
	style="font-family:Helvetica;font-weight:normal;font-style:normal;font-size:12px">100 DWt</text>
</g>
</svg>
