<?xml version="1.0"?>
<!-- Generated by SVGo and Plotinum VG -->
<svg width="633.75pt" height="315.75pt" viewBox="0 0 633.75 315.75"
	xmlns="http://www.w3.org/2000/svg"
	xmlns:xlink="http://www.w3.org/1999/xlink">
<g transform="scale(1, -1) translate(0, -315.75)">
<text x="268.86" y="-306.02" transform="scale(1, -1)"
	style="font-family:Helvetica;font-weight:normal;font-style:normal;font-size:12px">Urakubo DWt Plot</text>
<text x="337.76" y="-3.6797" transform="scale(1, -1)"
	style="font-family:Helvetica;font-weight:normal;font-style:normal;font-size:12px">X</text>
<text x="46.984" y="-16.473" transform="scale(1, -1)"
	style="font-family:Helvetica;font-weight:normal;font-style:normal;font-size:10px">0</text>
<text x="298.11" y="-16.473" transform="scale(1, -1)"
	style="font-family:Helvetica;font-weight:normal;font-style:normal;font-size:10px">50</text>
<text x="549.24" y="-16.473" transform="scale(1, -1)"
	style="font-family:Helvetica;font-weight:normal;font-style:normal;font-size:10px">100</text>
<path d="M49.765,24.578L49.765,32.578" style="fill:none;stroke:#000000;stroke-width:0.5" />
<path d="M303.67,24.578L303.67,32.578" style="fill:none;stroke:#000000;stroke-width:0.5" />
<path d="M557.58,24.578L557.58,32.578" style="fill:none;stroke:#000000;stroke-width:0.5" />
<path d="M100.55,28.578L100.55,32.578" style="fill:none;stroke:#000000;stroke-width:0.5" />
<path d="M151.33,28.578L151.33,32.578" style="fill:none;stroke:#000000;stroke-width:0.5" />
<path d="M202.11,28.578L202.11,32.578" style="fill:none;stroke:#000000;stroke-width:0.5" />
<path d="M252.89,28.578L252.89,32.578" style="fill:none;stroke:#000000;stroke-width:0.5" />
<path d="M354.45,28.578L354.45,32.578" style="fill:none;stroke:#000000;stroke-width:0.5" />
<path d="M405.23,28.578L405.23,32.578" style="fill:none;stroke:#000000;stroke-width:0.5" />
<path d="M456.02,28.578L456.02,32.578" style="fill:none;stroke:#000000;stroke-width:0.5" />
<path d="M506.8,28.578L506.8,32.578" style="fill:none;stroke:#000000;stroke-width:0.5" />
<path d="M608.36,28.578L608.36,32.578" style="fill:none;stroke:#000000;stroke-width:0.5" />
<path d="M49.765,32.578L633.75,32.578" style="fill:none;stroke:#000000;stroke-width:0.5" />
<g transform="rotate(90)">
<text x="158.12" y="9.7266" transform="scale(1, -1)"
	style="font-family:Helvetica;font-weight:normal;font-style:normal;font-size:12px">DWt</text>
</g>
<text x="15.949" y="-37.852" transform="scale(1, -1)"
	style="font-family:Helvetica;font-weight:normal;font-style:normal;font-size:10px">-0.2</text>
<text x="19.279" y="-167.27" transform="scale(1, -1)"
	style="font-family:Helvetica;font-weight:normal;font-style:normal;font-size:10px">0.0</text>
<text x="19.279" y="-296.68" transform="scale(1, -1)"
	style="font-family:Helvetica;font-weight:normal;font-style:normal;font-size:10px">0.2</text>
<path d="M35.959,40.371L43.959,40.371" style="fill:none;stroke:#000000;stroke-width:0.5" />
<path d="M35.959,169.79L43.959,169.79" style="fill:none;stroke:#000000;stroke-width:0.5" />
<path d="M35.959,299.2L43.959,299.2" style="fill:none;stroke:#000000;stroke-width:0.5" />
<path d="M39.959,105.08L43.959,105.08" style="fill:none;stroke:#000000;stroke-width:0.5" />
<path d="M39.959,234.5L43.959,234.5" style="fill:none;stroke:#000000;stroke-width:0.5" />
<path d="M43.959,40.371L43.959,299.2" style="fill:none;stroke:#000000;stroke-width:0.5" />
<path d="M100.55,96.733L151.33,90.3L202.11,86.253L252.89,85.596L303.67,87.982L354.45,96.028L405.23,106.84L456.02,119.92L506.8,127.82L557.58,143.89" style="fill:none;stroke:#000000" />
<path d="M100.55,90.329L151.33,85.259L202.11,84.536L252.89,88.267L303.67,93.888L354.45,107.16L405.23,120.82L456.02,135.46L506.8,144.96L557.58,161.55" style="fill:none;stroke:#FF0000" />
<path d="M100.55,86.257L151.33,83.355L202.11,86.259L252.89,93.568L303.67,101.19L354.45,117.75L405.23,131.36L456.02,146.55L506.8,157.02L557.58,175.25" style="fill:none;stroke:#0000FF" />
<path d="M100.55,83.63L151.33,83.294L202.11,89.657L252.89,99.719L303.67,108.54L354.45,127.07L405.23,141.64L456.02,156.97L506.8,166.82L557.58,186.54" style="fill:none;stroke:#228B22" />
<path d="M100.55,81.996L151.33,84.403L202.11,93.854L252.89,106L303.67,115.52L354.45,135.25L405.23,150.24L456.02,165.84L506.8,176.31L557.58,196.27" style="fill:none;stroke:#800080" />
<path d="M100.55,81.098L151.33,86.3L202.11,98.399L252.89,112.12L303.67,122.01L354.45,142.4L405.23,156.91L456.02,172.68L506.8,183.82L557.58,204.91" style="fill:none;stroke:#FFA500" />
<path d="M100.55,80.777L151.33,88.738L202.11,103.09L252.89,117.95L303.67,128.01L354.45,148.87L405.23,163.83L456.02,179.7L506.8,190.52L557.58,212.75" style="fill:none;stroke:#A52A2A" />
<path d="M100.55,80.925L151.33,91.551L202.11,107.9L252.89,123.44L303.67,133.55L354.45,153.97L405.23,169.98L456.02,186.18L506.8,197.49L557.58,219.97" style="fill:none;stroke:#7FFF00" />
<path d="M100.55,81.465L151.33,94.613L202.11,112.58L252.89,128.59L303.67,138.68L354.45,159.4L405.23,174.98L456.02,191.43L506.8,203.31L557.58,226.7" style="fill:none;stroke:#000080" />
<path d="M613.75,297.11L633.75,297.11" style="fill:none;stroke:#000000" />
<text x="563.73" y="-294.28" transform="scale(1, -1)"
	style="font-family:Helvetica;font-weight:normal;font-style:normal;font-size:12px">200 DWt</text>
<path d="M613.75,286.64L633.75,286.64" style="fill:none;stroke:#FF0000" />
<text x="563.73" y="-283.81" transform="scale(1, -1)"
	style="font-family:Helvetica;font-weight:normal;font-style:normal;font-size:12px">300 DWt</text>
<path d="M613.75,276.17L633.75,276.17" style="fill:none;stroke:#0000FF" />
<text x="563.73" y="-273.34" transform="scale(1, -1)"
	style="font-family:Helvetica;font-weight:normal;font-style:normal;font-size:12px">400 DWt</text>
<path d="M613.75,265.7L633.75,265.7" style="fill:none;stroke:#228B22" />
<text x="563.73" y="-262.87" transform="scale(1, -1)"
	style="font-family:Helvetica;font-weight:normal;font-style:normal;font-size:12px">500 DWt</text>
<path d="M613.75,255.23L633.75,255.23" style="fill:none;stroke:#800080" />
<text x="563.73" y="-252.4" transform="scale(1, -1)"
	style="font-family:Helvetica;font-weight:normal;font-style:normal;font-size:12px">600 DWt</text>
<path d="M613.75,244.75L633.75,244.75" style="fill:none;stroke:#FFA500" />
<text x="563.73" y="-241.93" transform="scale(1, -1)"
	style="font-family:Helvetica;font-weight:normal;font-style:normal;font-size:12px">700 DWt</text>
<path d="M613.75,234.28L633.75,234.28" style="fill:none;stroke:#A52A2A" />
<text x="563.73" y="-231.46" transform="scale(1, -1)"
	style="font-family:Helvetica;font-weight:normal;font-style:normal;font-size:12px">800 DWt</text>
<path d="M613.75,223.81L633.75,223.81" style="fill:none;stroke:#7FFF00" />
<text x="563.73" y="-220.99" transform="scale(1, -1)"
	style="font-family:Helvetica;font-weight:normal;font-style:normal;font-size:12px">900 DWt</text>
<path d="M613.75,213.34L633.75,213.34" style="fill:none;stroke:#000080" />
<text x="557.06" y="-210.52" transform="scale(1, -1)"
	style="font-family:Helvetica;font-weight:normal;font-style:normal;font-size:12px">1000 DWt</text>
</g>
</svg>
