<?xml version="1.0"?>
<!-- Generated by SVGo and Plotinum VG -->
<svg width="753pt" height="315.75pt" viewBox="0 0 753 315.75"
	xmlns="http://www.w3.org/2000/svg"
	xmlns:xlink="http://www.w3.org/1999/xlink">
<g transform="scale(1, -1) translate(0, -315.75)">
<text x="328.49" y="-306.02" transform="scale(1, -1)"
	style="font-family:Helvetica;font-weight:normal;font-style:normal;font-size:12px">Urakubo DWt Plot</text>
<text x="394.6" y="-3.6797" transform="scale(1, -1)"
	style="font-family:Helvetica;font-weight:normal;font-style:normal;font-size:12px">X</text>
<text x="42.538" y="-16.473" transform="scale(1, -1)"
	style="font-family:Helvetica;font-weight:normal;font-style:normal;font-size:10px">-50</text>
<text x="395.82" y="-16.473" transform="scale(1, -1)"
	style="font-family:Helvetica;font-weight:normal;font-style:normal;font-size:10px">0</text>
<text x="741.88" y="-16.473" transform="scale(1, -1)"
	style="font-family:Helvetica;font-weight:normal;font-style:normal;font-size:10px">50</text>
<path d="M49.765,24.578L49.765,32.578" style="fill:none;stroke:#000000;stroke-width:0.5" />
<path d="M398.6,24.578L398.6,32.578" style="fill:none;stroke:#000000;stroke-width:0.5" />
<path d="M747.44,24.578L747.44,32.578" style="fill:none;stroke:#000000;stroke-width:0.5" />
<path d="M119.53,28.578L119.53,32.578" style="fill:none;stroke:#000000;stroke-width:0.5" />
<path d="M189.3,28.578L189.3,32.578" style="fill:none;stroke:#000000;stroke-width:0.5" />
<path d="M259.07,28.578L259.07,32.578" style="fill:none;stroke:#000000;stroke-width:0.5" />
<path d="M328.83,28.578L328.83,32.578" style="fill:none;stroke:#000000;stroke-width:0.5" />
<path d="M468.37,28.578L468.37,32.578" style="fill:none;stroke:#000000;stroke-width:0.5" />
<path d="M538.14,28.578L538.14,32.578" style="fill:none;stroke:#000000;stroke-width:0.5" />
<path d="M607.9,28.578L607.9,32.578" style="fill:none;stroke:#000000;stroke-width:0.5" />
<path d="M677.67,28.578L677.67,32.578" style="fill:none;stroke:#000000;stroke-width:0.5" />
<path d="M49.765,32.578L747.44,32.578" style="fill:none;stroke:#000000;stroke-width:0.5" />
<g transform="rotate(90)">
<text x="158.12" y="9.7266" transform="scale(1, -1)"
	style="font-family:Helvetica;font-weight:normal;font-style:normal;font-size:12px">DWt</text>
</g>
<text x="15.949" y="-37.852" transform="scale(1, -1)"
	style="font-family:Helvetica;font-weight:normal;font-style:normal;font-size:10px">-0.5</text>
<text x="19.279" y="-167.27" transform="scale(1, -1)"
	style="font-family:Helvetica;font-weight:normal;font-style:normal;font-size:10px">0.0</text>
<text x="19.279" y="-296.68" transform="scale(1, -1)"
	style="font-family:Helvetica;font-weight:normal;font-style:normal;font-size:10px">0.5</text>
<path d="M35.959,40.371L43.959,40.371" style="fill:none;stroke:#000000;stroke-width:0.5" />
<path d="M35.959,169.79L43.959,169.79" style="fill:none;stroke:#000000;stroke-width:0.5" />
<path d="M35.959,299.2L43.959,299.2" style="fill:none;stroke:#000000;stroke-width:0.5" />
<path d="M39.959,66.254L43.959,66.254" style="fill:none;stroke:#000000;stroke-width:0.5" />
<path d="M39.959,92.138L43.959,92.138" style="fill:none;stroke:#000000;stroke-width:0.5" />
<path d="M39.959,118.02L43.959,118.02" style="fill:none;stroke:#000000;stroke-width:0.5" />
<path d="M39.959,143.9L43.959,143.9" style="fill:none;stroke:#000000;stroke-width:0.5" />
<path d="M39.959,195.67L43.959,195.67" style="fill:none;stroke:#000000;stroke-width:0.5" />
<path d="M39.959,221.55L43.959,221.55" style="fill:none;stroke:#000000;stroke-width:0.5" />
<path d="M39.959,247.44L43.959,247.44" style="fill:none;stroke:#000000;stroke-width:0.5" />
<path d="M39.959,273.32L43.959,273.32" style="fill:none;stroke:#000000;stroke-width:0.5" />
<path d="M43.959,40.371L43.959,299.2" style="fill:none;stroke:#000000;stroke-width:0.5" />
<path d="M49.765,163.92L84.648,159.25L119.53,153.38L154.42,145.97L189.3,136.54L224.18,124.5L259.07,109.57L293.95,93.459L328.83,81.841L363.72,82.268L398.6,179.81L433.49,277.66L468.37,285.85L503.25,267.31L538.14,246.17L573.02,228.93L607.9,216.41L642.79,207.6L677.67,201.43L712.55,197.08L747.44,193.99" style="fill:none;stroke:#FF0000" />
<path d="M733,297.11L753,297.11" style="fill:none;stroke:#FF0000" />
<text x="696.33" y="-294.28" transform="scale(1, -1)"
	style="font-family:Helvetica;font-weight:normal;font-style:normal;font-size:12px">0 DWt</text>
</g>
</svg>
