<?xml version="1.0"?>
<!-- Generated by SVGo and Plotinum VG -->
<svg width="633.38pt" height="313.12pt" viewBox="0 0 633.38 313.12"
	xmlns="http://www.w3.org/2000/svg"
	xmlns:xlink="http://www.w3.org/1999/xlink">
<g transform="scale(1, -1) translate(0, -313.12)">
<text x="268.67" y="-303.4" transform="scale(1, -1)"
	style="font-family:Helvetica;font-weight:normal;font-style:normal;font-size:12px">Urakubo DWt Plot</text>
<text x="337.57" y="-3.6797" transform="scale(1, -1)"
	style="font-family:Helvetica;font-weight:normal;font-style:normal;font-size:12px">X</text>
<text x="46.984" y="-16.473" transform="scale(1, -1)"
	style="font-family:Helvetica;font-weight:normal;font-style:normal;font-size:10px">0</text>
<text x="297.95" y="-16.473" transform="scale(1, -1)"
	style="font-family:Helvetica;font-weight:normal;font-style:normal;font-size:10px">50</text>
<text x="548.91" y="-16.473" transform="scale(1, -1)"
	style="font-family:Helvetica;font-weight:normal;font-style:normal;font-size:10px">100</text>
<path d="M49.765,24.578L49.765,32.578" style="fill:none;stroke:#000000;stroke-width:0.5" />
<path d="M303.51,24.578L303.51,32.578" style="fill:none;stroke:#000000;stroke-width:0.5" />
<path d="M557.25,24.578L557.25,32.578" style="fill:none;stroke:#000000;stroke-width:0.5" />
<path d="M100.51,28.578L100.51,32.578" style="fill:none;stroke:#000000;stroke-width:0.5" />
<path d="M151.26,28.578L151.26,32.578" style="fill:none;stroke:#000000;stroke-width:0.5" />
<path d="M202.01,28.578L202.01,32.578" style="fill:none;stroke:#000000;stroke-width:0.5" />
<path d="M252.76,28.578L252.76,32.578" style="fill:none;stroke:#000000;stroke-width:0.5" />
<path d="M354.26,28.578L354.26,32.578" style="fill:none;stroke:#000000;stroke-width:0.5" />
<path d="M405.01,28.578L405.01,32.578" style="fill:none;stroke:#000000;stroke-width:0.5" />
<path d="M455.75,28.578L455.75,32.578" style="fill:none;stroke:#000000;stroke-width:0.5" />
<path d="M506.5,28.578L506.5,32.578" style="fill:none;stroke:#000000;stroke-width:0.5" />
<path d="M608,28.578L608,32.578" style="fill:none;stroke:#000000;stroke-width:0.5" />
<path d="M49.765,32.578L633.38,32.578" style="fill:none;stroke:#000000;stroke-width:0.5" />
<g transform="rotate(90)">
<text x="156.81" y="9.7266" transform="scale(1, -1)"
	style="font-family:Helvetica;font-weight:normal;font-style:normal;font-size:12px">DWt</text>
</g>
<text x="15.949" y="-37.852" transform="scale(1, -1)"
	style="font-family:Helvetica;font-weight:normal;font-style:normal;font-size:10px">-0.4</text>
<text x="19.279" y="-165.96" transform="scale(1, -1)"
	style="font-family:Helvetica;font-weight:normal;font-style:normal;font-size:10px">0.0</text>
<text x="19.279" y="-294.06" transform="scale(1, -1)"
	style="font-family:Helvetica;font-weight:normal;font-style:normal;font-size:10px">0.4</text>
<path d="M35.959,40.371L43.959,40.371" style="fill:none;stroke:#000000;stroke-width:0.5" />
<path d="M35.959,168.48L43.959,168.48" style="fill:none;stroke:#000000;stroke-width:0.5" />
<path d="M35.959,296.58L43.959,296.58" style="fill:none;stroke:#000000;stroke-width:0.5" />
<path d="M39.959,72.397L43.959,72.397" style="fill:none;stroke:#000000;stroke-width:0.5" />
<path d="M39.959,104.42L43.959,104.42" style="fill:none;stroke:#000000;stroke-width:0.5" />
<path d="M39.959,136.45L43.959,136.45" style="fill:none;stroke:#000000;stroke-width:0.5" />
<path d="M39.959,200.5L43.959,200.5" style="fill:none;stroke:#000000;stroke-width:0.5" />
<path d="M39.959,232.53L43.959,232.53" style="fill:none;stroke:#000000;stroke-width:0.5" />
<path d="M39.959,264.55L43.959,264.55" style="fill:none;stroke:#000000;stroke-width:0.5" />
<path d="M43.959,40.371L43.959,296.58" style="fill:none;stroke:#000000;stroke-width:0.5" />
<path d="M100.51,152.92L151.26,150.5L202.01,148.94L252.76,150.07L303.51,148.09L354.26,152.04L405.01,147.99L455.75,244.84L506.5,238.01L557.25,238.1" style="fill:none;stroke:#000000" />
<path d="M100.51,150L151.26,148.67L202.01,147.37L252.76,148.25L303.51,150.76L354.26,150.68L405.01,236.69L455.75,148.04L506.5,239.17L557.25,238.11" style="fill:none;stroke:#FF0000" />
<path d="M100.51,149.78L151.26,147.24L202.01,147.58L252.76,148.91L303.51,149.07L354.26,147.88L405.01,150.88L455.75,161.6L506.5,153.91L557.25,244.08" style="fill:none;stroke:#0000FF" />
<path d="M100.51,148.41L151.26,146.33L202.01,147.83L252.76,149.46L303.51,149.56L354.26,156.57L405.01,236.91L455.75,237.5L506.5,242.86L557.25,249.26" style="fill:none;stroke:#228B22" />
<path d="M100.51,147.55L151.26,145.74L202.01,149.39L252.76,149.51L303.51,146.6L354.26,153.08L405.01,155.38L455.75,244.02L506.5,252.51L557.25,255.09" style="fill:none;stroke:#800080" />
<path d="M100.51,146.39L151.26,145.46L202.01,151.08L252.76,150.46L303.51,149.94L354.26,234.9L405.01,154.47L455.75,239.14L506.5,255.46L557.25,249.79" style="fill:none;stroke:#FFA500" />
<path d="M100.51,145.24L151.26,145.1L202.01,151.29L252.76,154.33L303.51,156.88L354.26,158.5L405.01,239.81L455.75,240.9L506.5,250.3L557.25,259.53" style="fill:none;stroke:#A52A2A" />
<path d="M100.51,144.78L151.26,144.63L202.01,147.04L252.76,154.6L303.51,156.77L354.26,237.67L405.01,159.11L455.75,237.38L506.5,254.02L557.25,254.88" style="fill:none;stroke:#7FFF00" />
<path d="M100.51,144L151.26,144.68L202.01,151.1L252.76,153.96L303.51,152.6L354.26,157.62L405.01,167.36L455.75,259.51L506.5,261.65L557.25,263.16" style="fill:none;stroke:#000080" />
<path d="M613.38,294.48L633.38,294.48" style="fill:none;stroke:#000000" />
<text x="563.36" y="-291.66" transform="scale(1, -1)"
	style="font-family:Helvetica;font-weight:normal;font-style:normal;font-size:12px">200 DWt</text>
<path d="M613.38,284.01L633.38,284.01" style="fill:none;stroke:#FF0000" />
<text x="563.36" y="-281.19" transform="scale(1, -1)"
	style="font-family:Helvetica;font-weight:normal;font-style:normal;font-size:12px">300 DWt</text>
<path d="M613.38,273.54L633.38,273.54" style="fill:none;stroke:#0000FF" />
<text x="563.36" y="-270.71" transform="scale(1, -1)"
	style="font-family:Helvetica;font-weight:normal;font-style:normal;font-size:12px">400 DWt</text>
<path d="M613.38,263.07L633.38,263.07" style="fill:none;stroke:#228B22" />
<text x="563.36" y="-260.24" transform="scale(1, -1)"
	style="font-family:Helvetica;font-weight:normal;font-style:normal;font-size:12px">500 DWt</text>
<path d="M613.38,252.6L633.38,252.6" style="fill:none;stroke:#800080" />
<text x="563.36" y="-249.77" transform="scale(1, -1)"
	style="font-family:Helvetica;font-weight:normal;font-style:normal;font-size:12px">600 DWt</text>
<path d="M613.38,242.13L633.38,242.13" style="fill:none;stroke:#FFA500" />
<text x="563.36" y="-239.3" transform="scale(1, -1)"
	style="font-family:Helvetica;font-weight:normal;font-style:normal;font-size:12px">700 DWt</text>
<path d="M613.38,231.66L633.38,231.66" style="fill:none;stroke:#A52A2A" />
<text x="563.36" y="-228.83" transform="scale(1, -1)"
	style="font-family:Helvetica;font-weight:normal;font-style:normal;font-size:12px">800 DWt</text>
<path d="M613.38,221.19L633.38,221.19" style="fill:none;stroke:#7FFF00" />
<text x="563.36" y="-218.36" transform="scale(1, -1)"
	style="font-family:Helvetica;font-weight:normal;font-style:normal;font-size:12px">900 DWt</text>
<path d="M613.38,210.72L633.38,210.72" style="fill:none;stroke:#000080" />
<text x="556.69" y="-207.89" transform="scale(1, -1)"
	style="font-family:Helvetica;font-weight:normal;font-style:normal;font-size:12px">1000 DWt</text>
</g>
</svg>
