<?xml version="1.0"?>
<!-- Generated by SVGo and Plotinum VG -->
<svg width="633.38pt" height="313.12pt" viewBox="0 0 633.38 313.12"
	xmlns="http://www.w3.org/2000/svg"
	xmlns:xlink="http://www.w3.org/1999/xlink">
<g transform="scale(1, -1) translate(0, -313.12)">
<text x="268.67" y="-303.4" transform="scale(1, -1)"
	style="font-family:Helvetica;font-weight:normal;font-style:normal;font-size:12px">Urakubo DWt Plot</text>
<text x="337.57" y="-3.6797" transform="scale(1, -1)"
	style="font-family:Helvetica;font-weight:normal;font-style:normal;font-size:12px">X</text>
<text x="46.984" y="-16.473" transform="scale(1, -1)"
	style="font-family:Helvetica;font-weight:normal;font-style:normal;font-size:10px">0</text>
<text x="297.95" y="-16.473" transform="scale(1, -1)"
	style="font-family:Helvetica;font-weight:normal;font-style:normal;font-size:10px">50</text>
<text x="548.91" y="-16.473" transform="scale(1, -1)"
	style="font-family:Helvetica;font-weight:normal;font-style:normal;font-size:10px">100</text>
<path d="M49.765,24.578L49.765,32.578" style="fill:none;stroke:#000000;stroke-width:0.5" />
<path d="M303.51,24.578L303.51,32.578" style="fill:none;stroke:#000000;stroke-width:0.5" />
<path d="M557.25,24.578L557.25,32.578" style="fill:none;stroke:#000000;stroke-width:0.5" />
<path d="M100.51,28.578L100.51,32.578" style="fill:none;stroke:#000000;stroke-width:0.5" />
<path d="M151.26,28.578L151.26,32.578" style="fill:none;stroke:#000000;stroke-width:0.5" />
<path d="M202.01,28.578L202.01,32.578" style="fill:none;stroke:#000000;stroke-width:0.5" />
<path d="M252.76,28.578L252.76,32.578" style="fill:none;stroke:#000000;stroke-width:0.5" />
<path d="M354.26,28.578L354.26,32.578" style="fill:none;stroke:#000000;stroke-width:0.5" />
<path d="M405.01,28.578L405.01,32.578" style="fill:none;stroke:#000000;stroke-width:0.5" />
<path d="M455.75,28.578L455.75,32.578" style="fill:none;stroke:#000000;stroke-width:0.5" />
<path d="M506.5,28.578L506.5,32.578" style="fill:none;stroke:#000000;stroke-width:0.5" />
<path d="M608,28.578L608,32.578" style="fill:none;stroke:#000000;stroke-width:0.5" />
<path d="M49.765,32.578L633.38,32.578" style="fill:none;stroke:#000000;stroke-width:0.5" />
<g transform="rotate(90)">
<text x="156.81" y="9.7266" transform="scale(1, -1)"
	style="font-family:Helvetica;font-weight:normal;font-style:normal;font-size:12px">DWt</text>
</g>
<text x="15.949" y="-74.453" transform="scale(1, -1)"
	style="font-family:Helvetica;font-weight:normal;font-style:normal;font-size:10px">-0.2</text>
<text x="15.949" y="-147.65" transform="scale(1, -1)"
	style="font-family:Helvetica;font-weight:normal;font-style:normal;font-size:10px">-0.1</text>
<text x="19.279" y="-220.86" transform="scale(1, -1)"
	style="font-family:Helvetica;font-weight:normal;font-style:normal;font-size:10px">0.0</text>
<text x="19.279" y="-294.06" transform="scale(1, -1)"
	style="font-family:Helvetica;font-weight:normal;font-style:normal;font-size:10px">0.1</text>
<path d="M35.959,76.972L43.959,76.972" style="fill:none;stroke:#000000;stroke-width:0.5" />
<path d="M35.959,150.17L43.959,150.17" style="fill:none;stroke:#000000;stroke-width:0.5" />
<path d="M35.959,223.38L43.959,223.38" style="fill:none;stroke:#000000;stroke-width:0.5" />
<path d="M35.959,296.58L43.959,296.58" style="fill:none;stroke:#000000;stroke-width:0.5" />
<path d="M39.959,47.691L43.959,47.691" style="fill:none;stroke:#000000;stroke-width:0.5" />
<path d="M39.959,62.332L43.959,62.332" style="fill:none;stroke:#000000;stroke-width:0.5" />
<path d="M39.959,91.613L43.959,91.613" style="fill:none;stroke:#000000;stroke-width:0.5" />
<path d="M39.959,106.25L43.959,106.25" style="fill:none;stroke:#000000;stroke-width:0.5" />
<path d="M39.959,120.89L43.959,120.89" style="fill:none;stroke:#000000;stroke-width:0.5" />
<path d="M39.959,135.53L43.959,135.53" style="fill:none;stroke:#000000;stroke-width:0.5" />
<path d="M39.959,164.81L43.959,164.81" style="fill:none;stroke:#000000;stroke-width:0.5" />
<path d="M39.959,179.46L43.959,179.46" style="fill:none;stroke:#000000;stroke-width:0.5" />
<path d="M39.959,194.1L43.959,194.1" style="fill:none;stroke:#000000;stroke-width:0.5" />
<path d="M39.959,208.74L43.959,208.74" style="fill:none;stroke:#000000;stroke-width:0.5" />
<path d="M39.959,238.02L43.959,238.02" style="fill:none;stroke:#000000;stroke-width:0.5" />
<path d="M39.959,252.66L43.959,252.66" style="fill:none;stroke:#000000;stroke-width:0.5" />
<path d="M39.959,267.3L43.959,267.3" style="fill:none;stroke:#000000;stroke-width:0.5" />
<path d="M39.959,281.94L43.959,281.94" style="fill:none;stroke:#000000;stroke-width:0.5" />
<path d="M43.959,40.371L43.959,296.58" style="fill:none;stroke:#000000;stroke-width:0.5" />
<path d="M100.51,108.24L151.26,97.254L202.01,89.401L252.76,86.522L303.51,88.545L354.26,98.33L405.01,112.44L455.75,129.73L506.5,140.26L557.25,161.71" style="fill:none;stroke:#000000" />
<path d="M100.51,98.061L151.26,88.395L202.01,85.045L252.76,88.466L303.51,95.182L354.26,112.32L405.01,130.39L455.75,149.89L506.5,162.72L557.25,185.46" style="fill:none;stroke:#FF0000" />
<path d="M100.51,91.296L151.26,84.34L202.01,86.101L252.76,94.699L303.51,104.22L354.26,125.94L405.01,144.1L455.75,164.55L506.5,178.95L557.25,204.61" style="fill:none;stroke:#0000FF" />
<path d="M100.51,86.688L151.26,83.171L202.01,89.892L252.76,102.41L303.51,113.55L354.26,138.02L405.01,157.61L455.75,178.58L506.5,192.46L557.25,220.88" style="fill:none;stroke:#228B22" />
<path d="M100.51,83.579L151.26,83.856L202.01,95.009L252.76,110.43L303.51,122.47L354.26,148.68L405.01,169.03L455.75,190.74L506.5,205.83L557.25,235.22" style="fill:none;stroke:#800080" />
<path d="M100.51,81.586L151.26,85.784L202.01,100.71L252.76,118.27L303.51,130.78L354.26,158.03L405.01,177.99L455.75,200.29L506.5,216.59L557.25,248.27" style="fill:none;stroke:#FFA500" />
<path d="M100.51,80.468L151.26,88.563L202.01,106.66L252.76,125.75L303.51,138.46L354.26,166.55L405.01,187.4L455.75,210.21L506.5,226.34L557.25,260.37" style="fill:none;stroke:#A52A2A" />
<path d="M100.51,80.06L151.26,91.919L202.01,112.77L252.76,132.78L303.51,145.56L354.26,173.29L405.01,195.86L455.75,219.51L506.5,236.63L557.25,271.66" style="fill:none;stroke:#7FFF00" />
<path d="M100.51,80.24L151.26,95.653L202.01,118.71L252.76,139.36L303.51,152.13L354.26,180.53L405.01,202.8L455.75,227.12L506.5,245.35L557.25,282.3" style="fill:none;stroke:#000080" />
<path d="M613.38,294.48L633.38,294.48" style="fill:none;stroke:#000000" />
<text x="563.36" y="-291.66" transform="scale(1, -1)"
	style="font-family:Helvetica;font-weight:normal;font-style:normal;font-size:12px">200 DWt</text>
<path d="M613.38,284.01L633.38,284.01" style="fill:none;stroke:#FF0000" />
<text x="563.36" y="-281.19" transform="scale(1, -1)"
	style="font-family:Helvetica;font-weight:normal;font-style:normal;font-size:12px">300 DWt</text>
<path d="M613.38,273.54L633.38,273.54" style="fill:none;stroke:#0000FF" />
<text x="563.36" y="-270.71" transform="scale(1, -1)"
	style="font-family:Helvetica;font-weight:normal;font-style:normal;font-size:12px">400 DWt</text>
<path d="M613.38,263.07L633.38,263.07" style="fill:none;stroke:#228B22" />
<text x="563.36" y="-260.24" transform="scale(1, -1)"
	style="font-family:Helvetica;font-weight:normal;font-style:normal;font-size:12px">500 DWt</text>
<path d="M613.38,252.6L633.38,252.6" style="fill:none;stroke:#800080" />
<text x="563.36" y="-249.77" transform="scale(1, -1)"
	style="font-family:Helvetica;font-weight:normal;font-style:normal;font-size:12px">600 DWt</text>
<path d="M613.38,242.13L633.38,242.13" style="fill:none;stroke:#FFA500" />
<text x="563.36" y="-239.3" transform="scale(1, -1)"
	style="font-family:Helvetica;font-weight:normal;font-style:normal;font-size:12px">700 DWt</text>
<path d="M613.38,231.66L633.38,231.66" style="fill:none;stroke:#A52A2A" />
<text x="563.36" y="-228.83" transform="scale(1, -1)"
	style="font-family:Helvetica;font-weight:normal;font-style:normal;font-size:12px">800 DWt</text>
<path d="M613.38,221.19L633.38,221.19" style="fill:none;stroke:#7FFF00" />
<text x="563.36" y="-218.36" transform="scale(1, -1)"
	style="font-family:Helvetica;font-weight:normal;font-style:normal;font-size:12px">900 DWt</text>
<path d="M613.38,210.72L633.38,210.72" style="fill:none;stroke:#000080" />
<text x="556.69" y="-207.89" transform="scale(1, -1)"
	style="font-family:Helvetica;font-weight:normal;font-style:normal;font-size:12px">1000 DWt</text>
</g>
</svg>
