<?xml version="1.0"?>
<!-- Generated by SVGo and Plotinum VG -->
<svg width="633.38pt" height="313.12pt" viewBox="0 0 633.38 313.12"
	xmlns="http://www.w3.org/2000/svg"
	xmlns:xlink="http://www.w3.org/1999/xlink">
<g transform="scale(1, -1) translate(0, -313.12)">
<text x="268.67" y="-303.4" transform="scale(1, -1)"
	style="font-family:Helvetica;font-weight:normal;font-style:normal;font-size:12px">Urakubo DWt Plot</text>
<text x="337.57" y="-3.6797" transform="scale(1, -1)"
	style="font-family:Helvetica;font-weight:normal;font-style:normal;font-size:12px">X</text>
<text x="46.984" y="-16.473" transform="scale(1, -1)"
	style="font-family:Helvetica;font-weight:normal;font-style:normal;font-size:10px">0</text>
<text x="297.95" y="-16.473" transform="scale(1, -1)"
	style="font-family:Helvetica;font-weight:normal;font-style:normal;font-size:10px">50</text>
<text x="548.91" y="-16.473" transform="scale(1, -1)"
	style="font-family:Helvetica;font-weight:normal;font-style:normal;font-size:10px">100</text>
<path d="M49.765,24.578L49.765,32.578" style="fill:none;stroke:#000000;stroke-width:0.5" />
<path d="M303.51,24.578L303.51,32.578" style="fill:none;stroke:#000000;stroke-width:0.5" />
<path d="M557.25,24.578L557.25,32.578" style="fill:none;stroke:#000000;stroke-width:0.5" />
<path d="M100.51,28.578L100.51,32.578" style="fill:none;stroke:#000000;stroke-width:0.5" />
<path d="M151.26,28.578L151.26,32.578" style="fill:none;stroke:#000000;stroke-width:0.5" />
<path d="M202.01,28.578L202.01,32.578" style="fill:none;stroke:#000000;stroke-width:0.5" />
<path d="M252.76,28.578L252.76,32.578" style="fill:none;stroke:#000000;stroke-width:0.5" />
<path d="M354.26,28.578L354.26,32.578" style="fill:none;stroke:#000000;stroke-width:0.5" />
<path d="M405.01,28.578L405.01,32.578" style="fill:none;stroke:#000000;stroke-width:0.5" />
<path d="M455.75,28.578L455.75,32.578" style="fill:none;stroke:#000000;stroke-width:0.5" />
<path d="M506.5,28.578L506.5,32.578" style="fill:none;stroke:#000000;stroke-width:0.5" />
<path d="M608,28.578L608,32.578" style="fill:none;stroke:#000000;stroke-width:0.5" />
<path d="M49.765,32.578L633.38,32.578" style="fill:none;stroke:#000000;stroke-width:0.5" />
<g transform="rotate(90)">
<text x="158.38" y="9.7266" transform="scale(1, -1)"
	style="font-family:Helvetica;font-weight:normal;font-style:normal;font-size:12px">DWt</text>
</g>
<text x="15.949" y="-74.901" transform="scale(1, -1)"
	style="font-family:Helvetica;font-weight:normal;font-style:normal;font-size:10px">-0.5</text>
<text x="19.279" y="-167.53" transform="scale(1, -1)"
	style="font-family:Helvetica;font-weight:normal;font-style:normal;font-size:10px">0.0</text>
<text x="19.279" y="-260.15" transform="scale(1, -1)"
	style="font-family:Helvetica;font-weight:normal;font-style:normal;font-size:10px">0.5</text>
<path d="M35.959,77.421L43.959,77.421" style="fill:none;stroke:#000000;stroke-width:0.5" />
<path d="M35.959,170.04L43.959,170.04" style="fill:none;stroke:#000000;stroke-width:0.5" />
<path d="M35.959,262.67L43.959,262.67" style="fill:none;stroke:#000000;stroke-width:0.5" />
<path d="M39.959,58.896L43.959,58.896" style="fill:none;stroke:#000000;stroke-width:0.5" />
<path d="M39.959,95.946L43.959,95.946" style="fill:none;stroke:#000000;stroke-width:0.5" />
<path d="M39.959,114.47L43.959,114.47" style="fill:none;stroke:#000000;stroke-width:0.5" />
<path d="M39.959,133L43.959,133" style="fill:none;stroke:#000000;stroke-width:0.5" />
<path d="M39.959,151.52L43.959,151.52" style="fill:none;stroke:#000000;stroke-width:0.5" />
<path d="M39.959,188.57L43.959,188.57" style="fill:none;stroke:#000000;stroke-width:0.5" />
<path d="M39.959,207.09L43.959,207.09" style="fill:none;stroke:#000000;stroke-width:0.5" />
<path d="M39.959,225.62L43.959,225.62" style="fill:none;stroke:#000000;stroke-width:0.5" />
<path d="M39.959,244.14L43.959,244.14" style="fill:none;stroke:#000000;stroke-width:0.5" />
<path d="M39.959,281.19L43.959,281.19" style="fill:none;stroke:#000000;stroke-width:0.5" />
<path d="M43.959,40.371L43.959,299.72" style="fill:none;stroke:#000000;stroke-width:0.5" />
<path d="M100.51,159.53L151.26,147.35L202.01,142.48L252.76,138.36L303.51,140.5L354.26,138.59L405.01,146.52L455.75,229.34L506.5,290.22L557.25,284.5" style="fill:none;stroke:#000000" />
<path d="M100.51,147.88L151.26,161.97L202.01,154.37L252.76,147.98L303.51,147.27L354.26,152.25L405.01,226.9L455.75,267.58L506.5,284.21L557.25,273.39" style="fill:none;stroke:#FF0000" />
<path d="M100.51,146.98L151.26,160.64L202.01,163.87L252.76,154.17L303.51,156.85L354.26,158.68L405.01,229.75L455.75,230.88L506.5,260.43L557.25,284.51" style="fill:none;stroke:#0000FF" />
<path d="M100.51,147.55L151.26,159.05L202.01,170L252.76,166.9L303.51,168.72L354.26,164.23L405.01,229.51L455.75,261.17L506.5,285.94L557.25,289.51" style="fill:none;stroke:#228B22" />
<path d="M100.51,147.42L151.26,158.46L202.01,167.63L252.76,173.65L303.51,176.99L354.26,175.82L405.01,182.06L455.75,260.87L506.5,282.84L557.25,288.7" style="fill:none;stroke:#800080" />
<path d="M100.51,149.15L151.26,156.82L202.01,168.19L252.76,177.55L303.51,180.91L354.26,182.28L405.01,262.55L455.75,280.3L506.5,284.26L557.25,289.1" style="fill:none;stroke:#FFA500" />
<path d="M100.51,150.04L151.26,156.98L202.01,166.66L252.76,173.96L303.51,186.53L354.26,182.81L405.01,260.29L455.75,260.28L506.5,287.79L557.25,287.61" style="fill:none;stroke:#A52A2A" />
<path d="M100.51,150.93L151.26,157.67L202.01,166.87L252.76,176.93L303.51,178.96L354.26,187.46L405.01,241.77L455.75,261.58L506.5,273.98L557.25,275.26" style="fill:none;stroke:#7FFF00" />
<path d="M100.51,150.89L151.26,157L202.01,166.95L252.76,175.25L303.51,183.38L354.26,186.21L405.01,199.07L455.75,241.48L506.5,285.15L557.25,290.3" style="fill:none;stroke:#000080" />
<path d="M100.51,150.27L151.26,157.25L202.01,165.5L252.76,173.93L303.51,182.66L354.26,189.53L405.01,265.28L455.75,273.6L506.5,279.37L557.25,290.26" style="fill:none;stroke:#00FFFF" />
<path d="M613.38,294.48L633.38,294.48" style="fill:none;stroke:#000000" />
<text x="570.03" y="-291.66" transform="scale(1, -1)"
	style="font-family:Helvetica;font-weight:normal;font-style:normal;font-size:12px">10 DWt</text>
<path d="M613.38,284.01L633.38,284.01" style="fill:none;stroke:#FF0000" />
<text x="570.03" y="-281.19" transform="scale(1, -1)"
	style="font-family:Helvetica;font-weight:normal;font-style:normal;font-size:12px">20 DWt</text>
<path d="M613.38,273.54L633.38,273.54" style="fill:none;stroke:#0000FF" />
<text x="570.03" y="-270.71" transform="scale(1, -1)"
	style="font-family:Helvetica;font-weight:normal;font-style:normal;font-size:12px">30 DWt</text>
<path d="M613.38,263.07L633.38,263.07" style="fill:none;stroke:#228B22" />
<text x="570.03" y="-260.24" transform="scale(1, -1)"
	style="font-family:Helvetica;font-weight:normal;font-style:normal;font-size:12px">40 DWt</text>
<path d="M613.38,252.6L633.38,252.6" style="fill:none;stroke:#800080" />
<text x="570.03" y="-249.77" transform="scale(1, -1)"
	style="font-family:Helvetica;font-weight:normal;font-style:normal;font-size:12px">50 DWt</text>
<path d="M613.38,242.13L633.38,242.13" style="fill:none;stroke:#FFA500" />
<text x="570.03" y="-239.3" transform="scale(1, -1)"
	style="font-family:Helvetica;font-weight:normal;font-style:normal;font-size:12px">60 DWt</text>
<path d="M613.38,231.66L633.38,231.66" style="fill:none;stroke:#A52A2A" />
<text x="570.03" y="-228.83" transform="scale(1, -1)"
	style="font-family:Helvetica;font-weight:normal;font-style:normal;font-size:12px">70 DWt</text>
<path d="M613.38,221.19L633.38,221.19" style="fill:none;stroke:#7FFF00" />
<text x="570.03" y="-218.36" transform="scale(1, -1)"
	style="font-family:Helvetica;font-weight:normal;font-style:normal;font-size:12px">80 DWt</text>
<path d="M613.38,210.72L633.38,210.72" style="fill:none;stroke:#000080" />
<text x="570.03" y="-207.89" transform="scale(1, -1)"
	style="font-family:Helvetica;font-weight:normal;font-style:normal;font-size:12px">90 DWt</text>
<path d="M613.38,200.25L633.38,200.25" style="fill:none;stroke:#00FFFF" />
<text x="563.36" y="-197.42" transform="scale(1, -1)"
	style="font-family:Helvetica;font-weight:normal;font-style:normal;font-size:12px">100 DWt</text>
</g>
</svg>
