<?xml version="1.0"?>
<!-- Generated by SVGo and Plotinum VG -->
<svg width="762.38pt" height="315.75pt" viewBox="0 0 762.38 315.75"
	xmlns="http://www.w3.org/2000/svg"
	xmlns:xlink="http://www.w3.org/1999/xlink">
<g transform="scale(1, -1) translate(0, -315.75)">
<text x="333.17" y="-306.02" transform="scale(1, -1)"
	style="font-family:Helvetica;font-weight:normal;font-style:normal;font-size:12px">Urakubo DWt Plot</text>
<text x="396.23" y="-3.6797" transform="scale(1, -1)"
	style="font-family:Helvetica;font-weight:normal;font-style:normal;font-size:12px">X</text>
<text x="36.43" y="-16.473" transform="scale(1, -1)"
	style="font-family:Helvetica;font-weight:normal;font-style:normal;font-size:10px">-50</text>
<text x="397.45" y="-16.473" transform="scale(1, -1)"
	style="font-family:Helvetica;font-weight:normal;font-style:normal;font-size:10px">0</text>
<text x="751.25" y="-16.473" transform="scale(1, -1)"
	style="font-family:Helvetica;font-weight:normal;font-style:normal;font-size:10px">50</text>
<path d="M43.656,24.578L43.656,32.578" style="fill:none;stroke:#000000;stroke-width:0.5" />
<path d="M400.23,24.578L400.23,32.578" style="fill:none;stroke:#000000;stroke-width:0.5" />
<path d="M756.81,24.578L756.81,32.578" style="fill:none;stroke:#000000;stroke-width:0.5" />
<path d="M114.97,28.578L114.97,32.578" style="fill:none;stroke:#000000;stroke-width:0.5" />
<path d="M186.29,28.578L186.29,32.578" style="fill:none;stroke:#000000;stroke-width:0.5" />
<path d="M257.6,28.578L257.6,32.578" style="fill:none;stroke:#000000;stroke-width:0.5" />
<path d="M328.92,28.578L328.92,32.578" style="fill:none;stroke:#000000;stroke-width:0.5" />
<path d="M471.55,28.578L471.55,32.578" style="fill:none;stroke:#000000;stroke-width:0.5" />
<path d="M542.87,28.578L542.87,32.578" style="fill:none;stroke:#000000;stroke-width:0.5" />
<path d="M614.18,28.578L614.18,32.578" style="fill:none;stroke:#000000;stroke-width:0.5" />
<path d="M685.5,28.578L685.5,32.578" style="fill:none;stroke:#000000;stroke-width:0.5" />
<path d="M43.656,32.578L756.81,32.578" style="fill:none;stroke:#000000;stroke-width:0.5" />
<g transform="rotate(90)">
<text x="159.69" y="9.7266" transform="scale(1, -1)"
	style="font-family:Helvetica;font-weight:normal;font-style:normal;font-size:12px">DWt</text>
</g>
<text x="21.511" y="-49.637" transform="scale(1, -1)"
	style="font-family:Helvetica;font-weight:normal;font-style:normal;font-size:10px">0</text>
<text x="21.511" y="-167.5" transform="scale(1, -1)"
	style="font-family:Helvetica;font-weight:normal;font-style:normal;font-size:10px">5</text>
<text x="15.949" y="-285.35" transform="scale(1, -1)"
	style="font-family:Helvetica;font-weight:normal;font-style:normal;font-size:10px">10</text>
<path d="M29.851,52.157L37.851,52.157" style="fill:none;stroke:#000000;stroke-width:0.5" />
<path d="M29.851,170.02L37.851,170.02" style="fill:none;stroke:#000000;stroke-width:0.5" />
<path d="M29.851,287.87L37.851,287.87" style="fill:none;stroke:#000000;stroke-width:0.5" />
<path d="M33.851,75.729L37.851,75.729" style="fill:none;stroke:#000000;stroke-width:0.5" />
<path d="M33.851,99.3L37.851,99.3" style="fill:none;stroke:#000000;stroke-width:0.5" />
<path d="M33.851,122.87L37.851,122.87" style="fill:none;stroke:#000000;stroke-width:0.5" />
<path d="M33.851,146.44L37.851,146.44" style="fill:none;stroke:#000000;stroke-width:0.5" />
<path d="M33.851,193.59L37.851,193.59" style="fill:none;stroke:#000000;stroke-width:0.5" />
<path d="M33.851,217.16L37.851,217.16" style="fill:none;stroke:#000000;stroke-width:0.5" />
<path d="M33.851,240.73L37.851,240.73" style="fill:none;stroke:#000000;stroke-width:0.5" />
<path d="M33.851,264.3L37.851,264.3" style="fill:none;stroke:#000000;stroke-width:0.5" />
<path d="M37.851,40.371L37.851,302.34" style="fill:none;stroke:#000000;stroke-width:0.5" />
<path d="M43.656,48.513L79.314,48.031L114.97,47.435L150.63,46.702L186.29,45.814L221.95,44.79L257.6,43.761L293.26,43.062L328.92,43.004L364.58,43.11L400.23,50.557L435.89,59.404L471.55,60.149L507.21,58.556L542.87,56.799L578.52,55.29L614.18,54.11L649.84,53.229L685.5,52.585L721.16,52.118L756.81,51.78" style="fill:none;stroke:#FF0000" />
<path d="M43.656,107.79L79.314,106.06L114.97,104.12L150.63,101.99L186.29,99.706L221.95,97.368L257.6,95.132L293.26,93.211L328.92,91.845L364.58,91.761L400.23,113.73L435.89,259.66L471.55,302.34L507.21,225.8L542.87,178.8L578.52,154.1L614.18,140.54L649.84,132.59L685.5,127.64L721.16,124.42L756.81,122.22" style="fill:none;stroke:#0000FF" />
<path d="M43.656,59.798L79.314,59.649L114.97,59.458L150.63,59.206L186.29,58.871L221.95,58.423L257.6,57.833L293.26,57.109L328.92,56.401L364.58,56.335L400.23,59.945L435.89,61.037L471.55,61.095L507.21,60.982L542.87,60.851L578.52,60.724L614.18,60.608L649.84,60.508L685.5,60.425L721.16,60.357L756.81,60.301" style="fill:none;stroke:#800080" />
<path d="M43.656,63.355L79.314,62.441L114.97,61.36L150.63,60.101L186.29,58.675L221.95,57.134L257.6,55.621L293.26,54.408L328.92,53.727L364.58,53.7L400.23,66.699L435.89,88.381L471.55,90.413L507.21,86.399L542.87,82.104L578.52,78.486L614.18,75.715L649.84,73.688L685.5,72.233L721.16,71.192L756.81,70.443" style="fill:none;stroke:#FF00FF" />
<path d="M43.656,53.987L79.314,54.054L114.97,54.147L150.63,54.283L186.29,54.491L221.95,54.825L257.6,55.38L293.26,56.194L328.92,56.898L364.58,56.873L400.23,53.759L435.89,53.343L471.55,53.326L507.21,53.362L542.87,53.411L578.52,53.463L614.18,53.514L649.84,53.558L685.5,53.594L721.16,53.623L756.81,53.645" style="fill:none;stroke:#87CEEB" />
<path d="M742.38,297.11L762.38,297.11" style="fill:none;stroke:#FF0000" />
<text x="705.71" y="-294.28" transform="scale(1, -1)"
	style="font-family:Helvetica;font-weight:normal;font-style:normal;font-size:12px">0 DWt</text>
<path d="M742.38,286.64L762.38,286.64" style="fill:none;stroke:#0000FF" />
<text x="641.67" y="-283.81" transform="scale(1, -1)"
	style="font-family:Helvetica;font-weight:normal;font-style:normal;font-size:12px">0 PSD_CaMKIIact</text>
<path d="M742.38,276.17L762.38,276.17" style="fill:none;stroke:#800080" />
<text x="657.67" y="-273.34" transform="scale(1, -1)"
	style="font-family:Helvetica;font-weight:normal;font-style:normal;font-size:12px">0 PSD_CaNact</text>
<path d="M742.38,265.7L762.38,265.7" style="fill:none;stroke:#FF00FF" />
<text x="657.67" y="-262.87" transform="scale(1, -1)"
	style="font-family:Helvetica;font-weight:normal;font-style:normal;font-size:12px">0 PSD_PKAact</text>
<path d="M742.38,255.23L762.38,255.23" style="fill:none;stroke:#87CEEB" />
<text x="659" y="-252.4" transform="scale(1, -1)"
	style="font-family:Helvetica;font-weight:normal;font-style:normal;font-size:12px">0 PSD_PP1act</text>
</g>
</svg>
