<?xml version="1.0"?>
<!-- Generated by SVGo and Plotinum VG -->
<svg width="633.38pt" height="313.12pt" viewBox="0 0 633.38 313.12"
	xmlns="http://www.w3.org/2000/svg"
	xmlns:xlink="http://www.w3.org/1999/xlink">
<g transform="scale(1, -1) translate(0, -313.12)">
<text x="268.67" y="-303.4" transform="scale(1, -1)"
	style="font-family:Helvetica;font-weight:normal;font-style:normal;font-size:12px">Urakubo DWt Plot</text>
<text x="337.57" y="-3.6797" transform="scale(1, -1)"
	style="font-family:Helvetica;font-weight:normal;font-style:normal;font-size:12px">X</text>
<text x="46.984" y="-16.473" transform="scale(1, -1)"
	style="font-family:Helvetica;font-weight:normal;font-style:normal;font-size:10px">0</text>
<text x="297.95" y="-16.473" transform="scale(1, -1)"
	style="font-family:Helvetica;font-weight:normal;font-style:normal;font-size:10px">50</text>
<text x="548.91" y="-16.473" transform="scale(1, -1)"
	style="font-family:Helvetica;font-weight:normal;font-style:normal;font-size:10px">100</text>
<path d="M49.765,24.578L49.765,32.578" style="fill:none;stroke:#000000;stroke-width:0.5" />
<path d="M303.51,24.578L303.51,32.578" style="fill:none;stroke:#000000;stroke-width:0.5" />
<path d="M557.25,24.578L557.25,32.578" style="fill:none;stroke:#000000;stroke-width:0.5" />
<path d="M100.51,28.578L100.51,32.578" style="fill:none;stroke:#000000;stroke-width:0.5" />
<path d="M151.26,28.578L151.26,32.578" style="fill:none;stroke:#000000;stroke-width:0.5" />
<path d="M202.01,28.578L202.01,32.578" style="fill:none;stroke:#000000;stroke-width:0.5" />
<path d="M252.76,28.578L252.76,32.578" style="fill:none;stroke:#000000;stroke-width:0.5" />
<path d="M354.26,28.578L354.26,32.578" style="fill:none;stroke:#000000;stroke-width:0.5" />
<path d="M405.01,28.578L405.01,32.578" style="fill:none;stroke:#000000;stroke-width:0.5" />
<path d="M455.75,28.578L455.75,32.578" style="fill:none;stroke:#000000;stroke-width:0.5" />
<path d="M506.5,28.578L506.5,32.578" style="fill:none;stroke:#000000;stroke-width:0.5" />
<path d="M608,28.578L608,32.578" style="fill:none;stroke:#000000;stroke-width:0.5" />
<path d="M49.765,32.578L633.38,32.578" style="fill:none;stroke:#000000;stroke-width:0.5" />
<g transform="rotate(90)">
<text x="156.81" y="9.7266" transform="scale(1, -1)"
	style="font-family:Helvetica;font-weight:normal;font-style:normal;font-size:12px">DWt</text>
</g>
<text x="15.949" y="-74.453" transform="scale(1, -1)"
	style="font-family:Helvetica;font-weight:normal;font-style:normal;font-size:10px">-0.2</text>
<text x="15.949" y="-147.65" transform="scale(1, -1)"
	style="font-family:Helvetica;font-weight:normal;font-style:normal;font-size:10px">-0.1</text>
<text x="19.279" y="-220.86" transform="scale(1, -1)"
	style="font-family:Helvetica;font-weight:normal;font-style:normal;font-size:10px">0.0</text>
<text x="19.279" y="-294.06" transform="scale(1, -1)"
	style="font-family:Helvetica;font-weight:normal;font-style:normal;font-size:10px">0.1</text>
<path d="M35.959,76.972L43.959,76.972" style="fill:none;stroke:#000000;stroke-width:0.5" />
<path d="M35.959,150.17L43.959,150.17" style="fill:none;stroke:#000000;stroke-width:0.5" />
<path d="M35.959,223.38L43.959,223.38" style="fill:none;stroke:#000000;stroke-width:0.5" />
<path d="M35.959,296.58L43.959,296.58" style="fill:none;stroke:#000000;stroke-width:0.5" />
<path d="M39.959,47.691L43.959,47.691" style="fill:none;stroke:#000000;stroke-width:0.5" />
<path d="M39.959,62.332L43.959,62.332" style="fill:none;stroke:#000000;stroke-width:0.5" />
<path d="M39.959,91.613L43.959,91.613" style="fill:none;stroke:#000000;stroke-width:0.5" />
<path d="M39.959,106.25L43.959,106.25" style="fill:none;stroke:#000000;stroke-width:0.5" />
<path d="M39.959,120.89L43.959,120.89" style="fill:none;stroke:#000000;stroke-width:0.5" />
<path d="M39.959,135.53L43.959,135.53" style="fill:none;stroke:#000000;stroke-width:0.5" />
<path d="M39.959,164.81L43.959,164.81" style="fill:none;stroke:#000000;stroke-width:0.5" />
<path d="M39.959,179.46L43.959,179.46" style="fill:none;stroke:#000000;stroke-width:0.5" />
<path d="M39.959,194.1L43.959,194.1" style="fill:none;stroke:#000000;stroke-width:0.5" />
<path d="M39.959,208.74L43.959,208.74" style="fill:none;stroke:#000000;stroke-width:0.5" />
<path d="M39.959,238.02L43.959,238.02" style="fill:none;stroke:#000000;stroke-width:0.5" />
<path d="M39.959,252.66L43.959,252.66" style="fill:none;stroke:#000000;stroke-width:0.5" />
<path d="M39.959,267.3L43.959,267.3" style="fill:none;stroke:#000000;stroke-width:0.5" />
<path d="M39.959,281.94L43.959,281.94" style="fill:none;stroke:#000000;stroke-width:0.5" />
<path d="M43.959,40.371L43.959,296.58" style="fill:none;stroke:#000000;stroke-width:0.5" />
<path d="M100.51,120.59L151.26,105.57L202.01,94.03L252.76,87.565L303.51,90.659L354.26,109.14L405.01,107.31L455.75,102.82L506.5,92.015L557.25,103.31" style="fill:none;stroke:#000000" />
<path d="M100.51,109.14L151.26,93.068L202.01,86.229L252.76,88.338L303.51,94.613L354.26,121.31L405.01,122.58L455.75,120.09L506.5,110.51L557.25,133.73" style="fill:none;stroke:#FF0000" />
<path d="M100.51,100.63L151.26,86.317L202.01,84.268L252.76,93.118L303.51,100.42L354.26,132.4L405.01,135.45L455.75,135.69L506.5,128.98L557.25,159.58" style="fill:none;stroke:#0000FF" />
<path d="M100.51,94.168L151.26,83.322L202.01,85.429L252.76,99.636L303.51,106.87L354.26,142.41L405.01,147.62L455.75,150.65L506.5,145.42L557.25,180.67" style="fill:none;stroke:#228B22" />
<path d="M100.51,89.218L151.26,82.866L202.01,88.827L252.76,106.77L303.51,113.43L354.26,151.57L405.01,158.7L455.75,163.07L506.5,160.75L557.25,198.58" style="fill:none;stroke:#800080" />
<path d="M100.51,85.44L151.26,84.162L202.01,93.32L252.76,113.98L303.51,119.83L354.26,160.03L405.01,167.63L455.75,173.67L506.5,173.13L557.25,214.38" style="fill:none;stroke:#FFA500" />
<path d="M100.51,82.612L151.26,86.671L202.01,98.438L252.76,120.99L303.51,125.95L354.26,167.77L405.01,176.32L455.75,183.96L506.5,184.25L557.25,228.68" style="fill:none;stroke:#A52A2A" />
<path d="M100.51,80.58L151.26,90.007L202.01,104.26L252.76,127.67L303.51,131.75L354.26,174.06L405.01,184.53L455.75,193.17L506.5,195.18L557.25,241.86" style="fill:none;stroke:#7FFF00" />
<path d="M100.51,79.226L151.26,93.889L202.01,109.98L252.76,133.97L303.51,137.22L354.26,180.75L405.01,191.38L455.75,201.17L506.5,204.48L557.25,254.26" style="fill:none;stroke:#000080" />
<path d="M613.38,294.48L633.38,294.48" style="fill:none;stroke:#000000" />
<text x="563.36" y="-291.66" transform="scale(1, -1)"
	style="font-family:Helvetica;font-weight:normal;font-style:normal;font-size:12px">200 DWt</text>
<path d="M613.38,284.01L633.38,284.01" style="fill:none;stroke:#FF0000" />
<text x="563.36" y="-281.19" transform="scale(1, -1)"
	style="font-family:Helvetica;font-weight:normal;font-style:normal;font-size:12px">300 DWt</text>
<path d="M613.38,273.54L633.38,273.54" style="fill:none;stroke:#0000FF" />
<text x="563.36" y="-270.71" transform="scale(1, -1)"
	style="font-family:Helvetica;font-weight:normal;font-style:normal;font-size:12px">400 DWt</text>
<path d="M613.38,263.07L633.38,263.07" style="fill:none;stroke:#228B22" />
<text x="563.36" y="-260.24" transform="scale(1, -1)"
	style="font-family:Helvetica;font-weight:normal;font-style:normal;font-size:12px">500 DWt</text>
<path d="M613.38,252.6L633.38,252.6" style="fill:none;stroke:#800080" />
<text x="563.36" y="-249.77" transform="scale(1, -1)"
	style="font-family:Helvetica;font-weight:normal;font-style:normal;font-size:12px">600 DWt</text>
<path d="M613.38,242.13L633.38,242.13" style="fill:none;stroke:#FFA500" />
<text x="563.36" y="-239.3" transform="scale(1, -1)"
	style="font-family:Helvetica;font-weight:normal;font-style:normal;font-size:12px">700 DWt</text>
<path d="M613.38,231.66L633.38,231.66" style="fill:none;stroke:#A52A2A" />
<text x="563.36" y="-228.83" transform="scale(1, -1)"
	style="font-family:Helvetica;font-weight:normal;font-style:normal;font-size:12px">800 DWt</text>
<path d="M613.38,221.19L633.38,221.19" style="fill:none;stroke:#7FFF00" />
<text x="563.36" y="-218.36" transform="scale(1, -1)"
	style="font-family:Helvetica;font-weight:normal;font-style:normal;font-size:12px">900 DWt</text>
<path d="M613.38,210.72L633.38,210.72" style="fill:none;stroke:#000080" />
<text x="556.69" y="-207.89" transform="scale(1, -1)"
	style="font-family:Helvetica;font-weight:normal;font-style:normal;font-size:12px">1000 DWt</text>
</g>
</svg>
