<?xml version="1.0"?>
<!-- Generated by SVGo and Plotinum VG -->
<svg width="617.25pt" height="316.5pt" viewBox="0 0 617.25 316.5"
	xmlns="http://www.w3.org/2000/svg"
	xmlns:xlink="http://www.w3.org/1999/xlink">
<g transform="scale(1, -1) translate(0, -316.5)">
<text x="260.61" y="-306.77" transform="scale(1, -1)"
	style="font-family:Helvetica;font-weight:normal;font-style:normal;font-size:12px">Urakubo DWt Plot</text>
<text x="329.51" y="-3.6797" transform="scale(1, -1)"
	style="font-family:Helvetica;font-weight:normal;font-style:normal;font-size:12px">X</text>
<text x="98.249" y="-16.473" transform="scale(1, -1)"
	style="font-family:Helvetica;font-weight:normal;font-style:normal;font-size:10px">20</text>
<text x="314.43" y="-16.473" transform="scale(1, -1)"
	style="font-family:Helvetica;font-weight:normal;font-style:normal;font-size:10px">60</text>
<text x="527.84" y="-16.473" transform="scale(1, -1)"
	style="font-family:Helvetica;font-weight:normal;font-style:normal;font-size:10px">100</text>
<path d="M103.81,24.578L103.81,32.578" style="fill:none;stroke:#000000;stroke-width:0.5" />
<path d="M320,24.578L320,32.578" style="fill:none;stroke:#000000;stroke-width:0.5" />
<path d="M536.18,24.578L536.18,32.578" style="fill:none;stroke:#000000;stroke-width:0.5" />
<path d="M157.86,28.578L157.86,32.578" style="fill:none;stroke:#000000;stroke-width:0.5" />
<path d="M211.9,28.578L211.9,32.578" style="fill:none;stroke:#000000;stroke-width:0.5" />
<path d="M265.95,28.578L265.95,32.578" style="fill:none;stroke:#000000;stroke-width:0.5" />
<path d="M374.04,28.578L374.04,32.578" style="fill:none;stroke:#000000;stroke-width:0.5" />
<path d="M428.09,28.578L428.09,32.578" style="fill:none;stroke:#000000;stroke-width:0.5" />
<path d="M482.13,28.578L482.13,32.578" style="fill:none;stroke:#000000;stroke-width:0.5" />
<path d="M590.23,28.578L590.23,32.578" style="fill:none;stroke:#000000;stroke-width:0.5" />
<path d="M49.765,32.578L617.25,32.578" style="fill:none;stroke:#000000;stroke-width:0.5" />
<g transform="rotate(90)">
<text x="158.5" y="9.7266" transform="scale(1, -1)"
	style="font-family:Helvetica;font-weight:normal;font-style:normal;font-size:12px">DWt</text>
</g>
<text x="15.949" y="-37.852" transform="scale(1, -1)"
	style="font-family:Helvetica;font-weight:normal;font-style:normal;font-size:10px">-0.2</text>
<text x="19.279" y="-167.64" transform="scale(1, -1)"
	style="font-family:Helvetica;font-weight:normal;font-style:normal;font-size:10px">0.0</text>
<text x="19.279" y="-297.43" transform="scale(1, -1)"
	style="font-family:Helvetica;font-weight:normal;font-style:normal;font-size:10px">0.2</text>
<path d="M35.959,40.371L43.959,40.371" style="fill:none;stroke:#000000;stroke-width:0.5" />
<path d="M35.959,170.16L43.959,170.16" style="fill:none;stroke:#000000;stroke-width:0.5" />
<path d="M35.959,299.95L43.959,299.95" style="fill:none;stroke:#000000;stroke-width:0.5" />
<path d="M39.959,105.27L43.959,105.27" style="fill:none;stroke:#000000;stroke-width:0.5" />
<path d="M39.959,235.06L43.959,235.06" style="fill:none;stroke:#000000;stroke-width:0.5" />
<path d="M43.959,40.371L43.959,299.95" style="fill:none;stroke:#000000;stroke-width:0.5" />
<path d="M49.765,121.52L103.81,115.59L157.86,112.19L211.9,112.69L265.95,116.46L320,125.96L374.04,137.01L428.09,148.89L482.13,155.76L536.18,169.33" style="fill:none;stroke:#000000" />
<path d="M49.765,114.78L103.81,110.66L157.86,111.04L211.9,116L265.95,122.42L320,136.24L374.04,149.23L428.09,162.06L482.13,170.18L536.18,183.9" style="fill:none;stroke:#FF0000" />
<path d="M49.765,110.65L103.81,109.11L157.86,113.33L211.9,121.53L265.95,129.32L320,145.75L374.04,158.35L428.09,171.49L482.13,180.4L536.18,195.37" style="fill:none;stroke:#0000FF" />
<path d="M49.765,108.16L103.81,109.49L157.86,117.15L211.9,127.63L265.95,136.09L320,154.02L374.04,167.24L428.09,180.39L482.13,188.74L536.18,204.84" style="fill:none;stroke:#228B22" />
<path d="M49.765,106.77L103.81,111.03L157.86,121.6L211.9,133.68L265.95,142.43L320,161.25L374.04,174.67L428.09,187.96L482.13,196.8L536.18,212.96" style="fill:none;stroke:#800080" />
<path d="M49.765,106.19L103.81,113.31L157.86,126.24L211.9,139.46L265.95,148.28L320,167.55L374.04,180.39L428.09,193.75L482.13,203.09L536.18,220.13" style="fill:none;stroke:#FFA500" />
<path d="M49.765,106.23L103.81,116.07L157.86,130.93L211.9,144.9L265.95,153.67L320,173.22L374.04,186.32L428.09,199.64L482.13,208.65L536.18,226.58" style="fill:none;stroke:#A52A2A" />
<path d="M49.765,106.74L103.81,119.12L157.86,135.64L211.9,149.99L265.95,158.63L320,177.65L374.04,191.54L428.09,205.02L482.13,214.39L536.18,232.48" style="fill:none;stroke:#7FFF00" />
<path d="M49.765,107.65L103.81,122.35L157.86,140.16L211.9,154.73L265.95,163.21L320,182.37L374.04,195.73L428.09,209.31L482.13,219.1L536.18,237.92" style="fill:none;stroke:#000080" />
<path d="M597.25,297.86L617.25,297.86" style="fill:none;stroke:#000000" />
<text x="547.23" y="-295.03" transform="scale(1, -1)"
	style="font-family:Helvetica;font-weight:normal;font-style:normal;font-size:12px">200 DWt</text>
<path d="M597.25,287.39L617.25,287.39" style="fill:none;stroke:#FF0000" />
<text x="547.23" y="-284.56" transform="scale(1, -1)"
	style="font-family:Helvetica;font-weight:normal;font-style:normal;font-size:12px">300 DWt</text>
<path d="M597.25,276.92L617.25,276.92" style="fill:none;stroke:#0000FF" />
<text x="547.23" y="-274.09" transform="scale(1, -1)"
	style="font-family:Helvetica;font-weight:normal;font-style:normal;font-size:12px">400 DWt</text>
<path d="M597.25,266.45L617.25,266.45" style="fill:none;stroke:#228B22" />
<text x="547.23" y="-263.62" transform="scale(1, -1)"
	style="font-family:Helvetica;font-weight:normal;font-style:normal;font-size:12px">500 DWt</text>
<path d="M597.25,255.98L617.25,255.98" style="fill:none;stroke:#800080" />
<text x="547.23" y="-253.15" transform="scale(1, -1)"
	style="font-family:Helvetica;font-weight:normal;font-style:normal;font-size:12px">600 DWt</text>
<path d="M597.25,245.5L617.25,245.5" style="fill:none;stroke:#FFA500" />
<text x="547.23" y="-242.68" transform="scale(1, -1)"
	style="font-family:Helvetica;font-weight:normal;font-style:normal;font-size:12px">700 DWt</text>
<path d="M597.25,235.03L617.25,235.03" style="fill:none;stroke:#A52A2A" />
<text x="547.23" y="-232.21" transform="scale(1, -1)"
	style="font-family:Helvetica;font-weight:normal;font-style:normal;font-size:12px">800 DWt</text>
<path d="M597.25,224.56L617.25,224.56" style="fill:none;stroke:#7FFF00" />
<text x="547.23" y="-221.74" transform="scale(1, -1)"
	style="font-family:Helvetica;font-weight:normal;font-style:normal;font-size:12px">900 DWt</text>
<path d="M597.25,214.09L617.25,214.09" style="fill:none;stroke:#000080" />
<text x="540.56" y="-211.27" transform="scale(1, -1)"
	style="font-family:Helvetica;font-weight:normal;font-style:normal;font-size:12px">1000 DWt</text>
</g>
</svg>
