<?xml version="1.0"?>
<!-- Generated by SVGo and Plotinum VG -->
<svg width="633.75pt" height="315.75pt" viewBox="0 0 633.75 315.75"
	xmlns="http://www.w3.org/2000/svg"
	xmlns:xlink="http://www.w3.org/1999/xlink">
<g transform="scale(1, -1) translate(0, -315.75)">
<text x="268.86" y="-306.02" transform="scale(1, -1)"
	style="font-family:Helvetica;font-weight:normal;font-style:normal;font-size:12px">Urakubo DWt Plot</text>
<text x="337.76" y="-3.6797" transform="scale(1, -1)"
	style="font-family:Helvetica;font-weight:normal;font-style:normal;font-size:12px">X</text>
<text x="46.984" y="-16.473" transform="scale(1, -1)"
	style="font-family:Helvetica;font-weight:normal;font-style:normal;font-size:10px">0</text>
<text x="298.11" y="-16.473" transform="scale(1, -1)"
	style="font-family:Helvetica;font-weight:normal;font-style:normal;font-size:10px">50</text>
<text x="549.24" y="-16.473" transform="scale(1, -1)"
	style="font-family:Helvetica;font-weight:normal;font-style:normal;font-size:10px">100</text>
<path d="M49.765,24.578L49.765,32.578" style="fill:none;stroke:#000000;stroke-width:0.5" />
<path d="M303.67,24.578L303.67,32.578" style="fill:none;stroke:#000000;stroke-width:0.5" />
<path d="M557.58,24.578L557.58,32.578" style="fill:none;stroke:#000000;stroke-width:0.5" />
<path d="M100.55,28.578L100.55,32.578" style="fill:none;stroke:#000000;stroke-width:0.5" />
<path d="M151.33,28.578L151.33,32.578" style="fill:none;stroke:#000000;stroke-width:0.5" />
<path d="M202.11,28.578L202.11,32.578" style="fill:none;stroke:#000000;stroke-width:0.5" />
<path d="M252.89,28.578L252.89,32.578" style="fill:none;stroke:#000000;stroke-width:0.5" />
<path d="M354.45,28.578L354.45,32.578" style="fill:none;stroke:#000000;stroke-width:0.5" />
<path d="M405.23,28.578L405.23,32.578" style="fill:none;stroke:#000000;stroke-width:0.5" />
<path d="M456.02,28.578L456.02,32.578" style="fill:none;stroke:#000000;stroke-width:0.5" />
<path d="M506.8,28.578L506.8,32.578" style="fill:none;stroke:#000000;stroke-width:0.5" />
<path d="M608.36,28.578L608.36,32.578" style="fill:none;stroke:#000000;stroke-width:0.5" />
<path d="M49.765,32.578L633.75,32.578" style="fill:none;stroke:#000000;stroke-width:0.5" />
<g transform="rotate(90)">
<text x="158.12" y="9.7266" transform="scale(1, -1)"
	style="font-family:Helvetica;font-weight:normal;font-style:normal;font-size:12px">DWt</text>
</g>
<text x="15.949" y="-37.852" transform="scale(1, -1)"
	style="font-family:Helvetica;font-weight:normal;font-style:normal;font-size:10px">-0.2</text>
<text x="19.279" y="-167.27" transform="scale(1, -1)"
	style="font-family:Helvetica;font-weight:normal;font-style:normal;font-size:10px">0.0</text>
<text x="19.279" y="-296.68" transform="scale(1, -1)"
	style="font-family:Helvetica;font-weight:normal;font-style:normal;font-size:10px">0.2</text>
<path d="M35.959,40.371L43.959,40.371" style="fill:none;stroke:#000000;stroke-width:0.5" />
<path d="M35.959,169.79L43.959,169.79" style="fill:none;stroke:#000000;stroke-width:0.5" />
<path d="M35.959,299.2L43.959,299.2" style="fill:none;stroke:#000000;stroke-width:0.5" />
<path d="M39.959,105.08L43.959,105.08" style="fill:none;stroke:#000000;stroke-width:0.5" />
<path d="M39.959,234.5L43.959,234.5" style="fill:none;stroke:#000000;stroke-width:0.5" />
<path d="M43.959,40.371L43.959,299.2" style="fill:none;stroke:#000000;stroke-width:0.5" />
<path d="M100.55,104.59L151.33,95.335L202.11,88.775L252.89,86.147L303.67,89.057L354.45,103.51L405.23,102.33L456.02,99.157L506.8,91.086L557.58,100.55" style="fill:none;stroke:#000000" />
<path d="M100.55,97.063L151.33,87.803L202.11,84.584L252.89,87.68L303.67,92.632L354.45,113.07L405.23,114.28L456.02,112.77L506.8,106.1L557.58,124.29" style="fill:none;stroke:#FF0000" />
<path d="M100.55,91.639L151.33,84.105L202.11,84.105L252.89,91.784L303.67,97.423L354.45,121.71L405.23,124.26L456.02,124.89L506.8,120.49L557.58,143.88" style="fill:none;stroke:#0000FF" />
<path d="M100.55,87.64L151.33,82.843L202.11,85.608L252.89,96.99L303.67,102.62L354.45,129.48L405.23,133.65L456.02,136.39L506.8,133.14L557.58,159.42" style="fill:none;stroke:#228B22" />
<path d="M100.55,84.677L151.33,83.205L202.11,88.601L252.89,102.58L303.67,107.86L354.45,136.55L405.23,142.14L456.02,145.86L506.8,144.8L557.58,172.24" style="fill:none;stroke:#800080" />
<path d="M100.55,82.51L151.33,84.684L202.11,92.269L252.89,108.21L303.67,112.97L354.45,143.07L405.23,148.93L456.02,153.84L506.8,154.07L557.58,183.23" style="fill:none;stroke:#FFA500" />
<path d="M100.55,80.985L151.33,86.941L202.11,96.342L252.89,113.68L303.67,117.87L354.45,149L405.23,155.49L456.02,161.47L506.8,162.28L557.58,192.96" style="fill:none;stroke:#A52A2A" />
<path d="M100.55,79.994L151.33,89.736L202.11,100.93L252.89,118.91L303.67,122.52L354.45,153.79L405.23,161.62L456.02,168.24L506.8,170.22L557.58,201.74" style="fill:none;stroke:#7FFF00" />
<path d="M100.55,79.459L151.33,92.893L202.11,105.43L252.89,123.87L303.67,126.92L354.45,158.86L405.23,166.69L456.02,174.01L506.8,176.86L557.58,209.8" style="fill:none;stroke:#000080" />
<path d="M613.75,297.11L633.75,297.11" style="fill:none;stroke:#000000" />
<text x="563.73" y="-294.28" transform="scale(1, -1)"
	style="font-family:Helvetica;font-weight:normal;font-style:normal;font-size:12px">200 DWt</text>
<path d="M613.75,286.64L633.75,286.64" style="fill:none;stroke:#FF0000" />
<text x="563.73" y="-283.81" transform="scale(1, -1)"
	style="font-family:Helvetica;font-weight:normal;font-style:normal;font-size:12px">300 DWt</text>
<path d="M613.75,276.17L633.75,276.17" style="fill:none;stroke:#0000FF" />
<text x="563.73" y="-273.34" transform="scale(1, -1)"
	style="font-family:Helvetica;font-weight:normal;font-style:normal;font-size:12px">400 DWt</text>
<path d="M613.75,265.7L633.75,265.7" style="fill:none;stroke:#228B22" />
<text x="563.73" y="-262.87" transform="scale(1, -1)"
	style="font-family:Helvetica;font-weight:normal;font-style:normal;font-size:12px">500 DWt</text>
<path d="M613.75,255.23L633.75,255.23" style="fill:none;stroke:#800080" />
<text x="563.73" y="-252.4" transform="scale(1, -1)"
	style="font-family:Helvetica;font-weight:normal;font-style:normal;font-size:12px">600 DWt</text>
<path d="M613.75,244.75L633.75,244.75" style="fill:none;stroke:#FFA500" />
<text x="563.73" y="-241.93" transform="scale(1, -1)"
	style="font-family:Helvetica;font-weight:normal;font-style:normal;font-size:12px">700 DWt</text>
<path d="M613.75,234.28L633.75,234.28" style="fill:none;stroke:#A52A2A" />
<text x="563.73" y="-231.46" transform="scale(1, -1)"
	style="font-family:Helvetica;font-weight:normal;font-style:normal;font-size:12px">800 DWt</text>
<path d="M613.75,223.81L633.75,223.81" style="fill:none;stroke:#7FFF00" />
<text x="563.73" y="-220.99" transform="scale(1, -1)"
	style="font-family:Helvetica;font-weight:normal;font-style:normal;font-size:12px">900 DWt</text>
<path d="M613.75,213.34L633.75,213.34" style="fill:none;stroke:#000080" />
<text x="557.06" y="-210.52" transform="scale(1, -1)"
	style="font-family:Helvetica;font-weight:normal;font-style:normal;font-size:12px">1000 DWt</text>
</g>
</svg>
