<?xml version="1.0"?>
<!-- Generated by SVGo and Plotinum VG -->
<svg width="633.38pt" height="313.12pt" viewBox="0 0 633.38 313.12"
	xmlns="http://www.w3.org/2000/svg"
	xmlns:xlink="http://www.w3.org/1999/xlink">
<g transform="scale(1, -1) translate(0, -313.12)">
<text x="268.67" y="-303.4" transform="scale(1, -1)"
	style="font-family:Helvetica;font-weight:normal;font-style:normal;font-size:12px">Urakubo DWt Plot</text>
<text x="334.79" y="-3.6797" transform="scale(1, -1)"
	style="font-family:Helvetica;font-weight:normal;font-style:normal;font-size:12px">X</text>
<text x="42.538" y="-16.473" transform="scale(1, -1)"
	style="font-family:Helvetica;font-weight:normal;font-style:normal;font-size:10px">-15</text>
<text x="238" y="-16.473" transform="scale(1, -1)"
	style="font-family:Helvetica;font-weight:normal;font-style:normal;font-size:10px">-5</text>
<text x="432.35" y="-16.473" transform="scale(1, -1)"
	style="font-family:Helvetica;font-weight:normal;font-style:normal;font-size:10px">5</text>
<text x="622.25" y="-16.473" transform="scale(1, -1)"
	style="font-family:Helvetica;font-weight:normal;font-style:normal;font-size:10px">15</text>
<path d="M49.765,24.578L49.765,32.578" style="fill:none;stroke:#000000;stroke-width:0.5" />
<path d="M242.45,24.578L242.45,32.578" style="fill:none;stroke:#000000;stroke-width:0.5" />
<path d="M435.13,24.578L435.13,32.578" style="fill:none;stroke:#000000;stroke-width:0.5" />
<path d="M627.81,24.578L627.81,32.578" style="fill:none;stroke:#000000;stroke-width:0.5" />
<path d="M146.11,28.578L146.11,32.578" style="fill:none;stroke:#000000;stroke-width:0.5" />
<path d="M338.79,28.578L338.79,32.578" style="fill:none;stroke:#000000;stroke-width:0.5" />
<path d="M531.47,28.578L531.47,32.578" style="fill:none;stroke:#000000;stroke-width:0.5" />
<path d="M49.765,32.578L627.81,32.578" style="fill:none;stroke:#000000;stroke-width:0.5" />
<g transform="rotate(90)">
<text x="156.81" y="9.7266" transform="scale(1, -1)"
	style="font-family:Helvetica;font-weight:normal;font-style:normal;font-size:12px">DWt</text>
</g>
<text x="15.949" y="-37.852" transform="scale(1, -1)"
	style="font-family:Helvetica;font-weight:normal;font-style:normal;font-size:10px">-0.3</text>
<text x="19.279" y="-165.96" transform="scale(1, -1)"
	style="font-family:Helvetica;font-weight:normal;font-style:normal;font-size:10px">0.0</text>
<text x="19.279" y="-294.06" transform="scale(1, -1)"
	style="font-family:Helvetica;font-weight:normal;font-style:normal;font-size:10px">0.3</text>
<path d="M35.959,40.371L43.959,40.371" style="fill:none;stroke:#000000;stroke-width:0.5" />
<path d="M35.959,168.48L43.959,168.48" style="fill:none;stroke:#000000;stroke-width:0.5" />
<path d="M35.959,296.58L43.959,296.58" style="fill:none;stroke:#000000;stroke-width:0.5" />
<path d="M39.959,83.072L43.959,83.072" style="fill:none;stroke:#000000;stroke-width:0.5" />
<path d="M39.959,125.77L43.959,125.77" style="fill:none;stroke:#000000;stroke-width:0.5" />
<path d="M39.959,211.18L43.959,211.18" style="fill:none;stroke:#000000;stroke-width:0.5" />
<path d="M39.959,253.88L43.959,253.88" style="fill:none;stroke:#000000;stroke-width:0.5" />
<path d="M43.959,40.371L43.959,296.58" style="fill:none;stroke:#000000;stroke-width:0.5" />
<path d="M49.765,154.27L69.033,147.44L88.301,134.11L107.57,133.54L126.84,133.16L146.11,132.95L165.37,132.88L184.64,132.95L203.91,133.1L223.18,133.31L242.45,133.5L261.72,133.58L280.98,133.44L300.25,132.99L319.52,132.72L338.79,134.51L358.06,140.65L377.33,149.75L396.59,160.95L415.86,171.44L435.13,176.57L454.4,178.3L473.67,178.23L492.94,177.05L512.2,175.21L531.47,172.99L550.74,170.56L570.01,168.04L589.28,165.5L608.55,162.98L627.81,160.5" style="fill:none;stroke:#FF0000" />
<path d="M613.38,294.48L633.38,294.48" style="fill:none;stroke:#FF0000" />
<text x="570.03" y="-291.66" transform="scale(1, -1)"
	style="font-family:Helvetica;font-weight:normal;font-style:normal;font-size:12px">25 DWt</text>
</g>
</svg>
