<?xml version="1.0"?>
<!-- Generated by SVGo and Plotinum VG -->
<svg width="643.88pt" height="316.5pt" viewBox="0 0 643.88 316.5"
	xmlns="http://www.w3.org/2000/svg"
	xmlns:xlink="http://www.w3.org/1999/xlink">
<g transform="scale(1, -1) translate(0, -316.5)">
<text x="273.92" y="-306.77" transform="scale(1, -1)"
	style="font-family:Helvetica;font-weight:normal;font-style:normal;font-size:12px">Urakubo DWt Plot</text>
<text x="338.65" y="-3.6797" transform="scale(1, -1)"
	style="font-family:Helvetica;font-weight:normal;font-style:normal;font-size:12px">X</text>
<text x="109.29" y="-16.473" transform="scale(1, -1)"
	style="font-family:Helvetica;font-weight:normal;font-style:normal;font-size:10px">20</text>
<text x="369.63" y="-16.473" transform="scale(1, -1)"
	style="font-family:Helvetica;font-weight:normal;font-style:normal;font-size:10px">60</text>
<text x="627.19" y="-16.473" transform="scale(1, -1)"
	style="font-family:Helvetica;font-weight:normal;font-style:normal;font-size:10px">100</text>
<path d="M114.85,24.578L114.85,32.578" style="fill:none;stroke:#000000;stroke-width:0.5" />
<path d="M375.19,24.578L375.19,32.578" style="fill:none;stroke:#000000;stroke-width:0.5" />
<path d="M635.53,24.578L635.53,32.578" style="fill:none;stroke:#000000;stroke-width:0.5" />
<path d="M179.94,28.578L179.94,32.578" style="fill:none;stroke:#000000;stroke-width:0.5" />
<path d="M245.02,28.578L245.02,32.578" style="fill:none;stroke:#000000;stroke-width:0.5" />
<path d="M310.11,28.578L310.11,32.578" style="fill:none;stroke:#000000;stroke-width:0.5" />
<path d="M440.28,28.578L440.28,32.578" style="fill:none;stroke:#000000;stroke-width:0.5" />
<path d="M505.36,28.578L505.36,32.578" style="fill:none;stroke:#000000;stroke-width:0.5" />
<path d="M570.45,28.578L570.45,32.578" style="fill:none;stroke:#000000;stroke-width:0.5" />
<path d="M49.765,32.578L635.53,32.578" style="fill:none;stroke:#000000;stroke-width:0.5" />
<g transform="rotate(90)">
<text x="158.5" y="9.7266" transform="scale(1, -1)"
	style="font-family:Helvetica;font-weight:normal;font-style:normal;font-size:12px">DWt</text>
</g>
<text x="15.949" y="-37.852" transform="scale(1, -1)"
	style="font-family:Helvetica;font-weight:normal;font-style:normal;font-size:10px">-0.5</text>
<text x="19.279" y="-167.64" transform="scale(1, -1)"
	style="font-family:Helvetica;font-weight:normal;font-style:normal;font-size:10px">0.0</text>
<text x="19.279" y="-297.43" transform="scale(1, -1)"
	style="font-family:Helvetica;font-weight:normal;font-style:normal;font-size:10px">0.5</text>
<path d="M35.959,40.371L43.959,40.371" style="fill:none;stroke:#000000;stroke-width:0.5" />
<path d="M35.959,170.16L43.959,170.16" style="fill:none;stroke:#000000;stroke-width:0.5" />
<path d="M35.959,299.95L43.959,299.95" style="fill:none;stroke:#000000;stroke-width:0.5" />
<path d="M39.959,66.329L43.959,66.329" style="fill:none;stroke:#000000;stroke-width:0.5" />
<path d="M39.959,92.288L43.959,92.288" style="fill:none;stroke:#000000;stroke-width:0.5" />
<path d="M39.959,118.25L43.959,118.25" style="fill:none;stroke:#000000;stroke-width:0.5" />
<path d="M39.959,144.2L43.959,144.2" style="fill:none;stroke:#000000;stroke-width:0.5" />
<path d="M39.959,196.12L43.959,196.12" style="fill:none;stroke:#000000;stroke-width:0.5" />
<path d="M39.959,222.08L43.959,222.08" style="fill:none;stroke:#000000;stroke-width:0.5" />
<path d="M39.959,248.04L43.959,248.04" style="fill:none;stroke:#000000;stroke-width:0.5" />
<path d="M39.959,274L43.959,274" style="fill:none;stroke:#000000;stroke-width:0.5" />
<path d="M43.959,40.371L43.959,299.95" style="fill:none;stroke:#000000;stroke-width:0.5" />
<path d="M49.765,182.39L114.85,163.33L179.94,160.77L245.02,154.02L310.11,154.68L375.19,155.54L440.28,159.42L505.36,277.08L570.45,264.08L635.53,276.39" style="fill:none;stroke:#000000" />
<path d="M49.765,167.27L114.85,178.77L179.94,166.51L245.02,165.62L310.11,166.68L375.19,175.63L440.28,174.75L505.36,177.18L570.45,279.06L635.53,284.93" style="fill:none;stroke:#FF0000" />
<path d="M49.765,165.13L114.85,185.4L179.94,181.37L245.02,182.98L310.11,188.69L375.19,183.86L440.28,186.52L505.36,237.27L570.45,273.36L635.53,282.43" style="fill:none;stroke:#0000FF" />
<path d="M49.765,165.72L114.85,181.18L179.94,197.47L245.02,195.93L310.11,193.63L375.19,192.77L440.28,243.78L505.36,265.88L570.45,254.93L635.53,275.4" style="fill:none;stroke:#228B22" />
<path d="M49.765,167.76L114.85,182.55L179.94,195.7L245.02,197.88L310.11,204.69L375.19,204.08L440.28,203.27L505.36,261L570.45,264.28L635.53,283.57" style="fill:none;stroke:#800080" />
<path d="M49.765,168.06L114.85,183.79L179.94,194.92L245.02,200.84L310.11,206.77L375.19,211.17L440.28,213.78L505.36,248.31L570.45,278.45L635.53,278.34" style="fill:none;stroke:#FFA500" />
<path d="M49.765,169.98L114.85,182.6L179.94,193.38L245.02,202.3L310.11,207.64L375.19,214.51L440.28,247.76L505.36,260.42L570.45,267.89L635.53,285.66" style="fill:none;stroke:#A52A2A" />
<path d="M49.765,170.23L114.85,183.95L179.94,194.24L245.02,203.11L310.11,209.09L375.19,245.11L440.28,248.44L505.36,260.4L570.45,270.41L635.53,281.76" style="fill:none;stroke:#7FFF00" />
<path d="M49.765,170.18L114.85,182.41L179.94,192.95L245.02,203.49L310.11,208.52L375.19,213.15L440.28,264.43L505.36,266.95L570.45,268.36L635.53,280.04" style="fill:none;stroke:#000080" />
<path d="M49.765,171.27L114.85,184.1L179.94,195.02L245.02,200.25L310.11,209.38L375.19,215.9L440.28,247.73L505.36,261.42L570.45,278.21L635.53,285.94" style="fill:none;stroke:#00FFFF" />
<path d="M623.88,297.86L643.88,297.86" style="fill:none;stroke:#000000" />
<text x="580.53" y="-295.03" transform="scale(1, -1)"
	style="font-family:Helvetica;font-weight:normal;font-style:normal;font-size:12px">10 DWt</text>
<path d="M623.88,287.39L643.88,287.39" style="fill:none;stroke:#FF0000" />
<text x="580.53" y="-284.56" transform="scale(1, -1)"
	style="font-family:Helvetica;font-weight:normal;font-style:normal;font-size:12px">20 DWt</text>
<path d="M623.88,276.92L643.88,276.92" style="fill:none;stroke:#0000FF" />
<text x="580.53" y="-274.09" transform="scale(1, -1)"
	style="font-family:Helvetica;font-weight:normal;font-style:normal;font-size:12px">30 DWt</text>
<path d="M623.88,266.45L643.88,266.45" style="fill:none;stroke:#228B22" />
<text x="580.53" y="-263.62" transform="scale(1, -1)"
	style="font-family:Helvetica;font-weight:normal;font-style:normal;font-size:12px">40 DWt</text>
<path d="M623.88,255.98L643.88,255.98" style="fill:none;stroke:#800080" />
<text x="580.53" y="-253.15" transform="scale(1, -1)"
	style="font-family:Helvetica;font-weight:normal;font-style:normal;font-size:12px">50 DWt</text>
<path d="M623.88,245.5L643.88,245.5" style="fill:none;stroke:#FFA500" />
<text x="580.53" y="-242.68" transform="scale(1, -1)"
	style="font-family:Helvetica;font-weight:normal;font-style:normal;font-size:12px">60 DWt</text>
<path d="M623.88,235.03L643.88,235.03" style="fill:none;stroke:#A52A2A" />
<text x="580.53" y="-232.21" transform="scale(1, -1)"
	style="font-family:Helvetica;font-weight:normal;font-style:normal;font-size:12px">70 DWt</text>
<path d="M623.88,224.56L643.88,224.56" style="fill:none;stroke:#7FFF00" />
<text x="580.53" y="-221.74" transform="scale(1, -1)"
	style="font-family:Helvetica;font-weight:normal;font-style:normal;font-size:12px">80 DWt</text>
<path d="M623.88,214.09L643.88,214.09" style="fill:none;stroke:#000080" />
<text x="580.53" y="-211.27" transform="scale(1, -1)"
	style="font-family:Helvetica;font-weight:normal;font-style:normal;font-size:12px">90 DWt</text>
<path d="M623.88,203.62L643.88,203.62" style="fill:none;stroke:#00FFFF" />
<text x="573.86" y="-200.79" transform="scale(1, -1)"
	style="font-family:Helvetica;font-weight:normal;font-style:normal;font-size:12px">100 DWt</text>
</g>
</svg>
