<?xml version="1.0"?>
<!-- Generated by SVGo and Plotinum VG -->
<svg width="633.38pt" height="313.12pt" viewBox="0 0 633.38 313.12"
	xmlns="http://www.w3.org/2000/svg"
	xmlns:xlink="http://www.w3.org/1999/xlink">
<g transform="scale(1, -1) translate(0, -313.12)">
<text x="268.67" y="-303.4" transform="scale(1, -1)"
	style="font-family:Helvetica;font-weight:normal;font-style:normal;font-size:12px">Urakubo DWt Plot</text>
<text x="337.57" y="-3.6797" transform="scale(1, -1)"
	style="font-family:Helvetica;font-weight:normal;font-style:normal;font-size:12px">X</text>
<text x="46.984" y="-16.473" transform="scale(1, -1)"
	style="font-family:Helvetica;font-weight:normal;font-style:normal;font-size:10px">0</text>
<text x="297.95" y="-16.473" transform="scale(1, -1)"
	style="font-family:Helvetica;font-weight:normal;font-style:normal;font-size:10px">50</text>
<text x="548.91" y="-16.473" transform="scale(1, -1)"
	style="font-family:Helvetica;font-weight:normal;font-style:normal;font-size:10px">100</text>
<path d="M49.765,24.578L49.765,32.578" style="fill:none;stroke:#000000;stroke-width:0.5" />
<path d="M303.51,24.578L303.51,32.578" style="fill:none;stroke:#000000;stroke-width:0.5" />
<path d="M557.25,24.578L557.25,32.578" style="fill:none;stroke:#000000;stroke-width:0.5" />
<path d="M100.51,28.578L100.51,32.578" style="fill:none;stroke:#000000;stroke-width:0.5" />
<path d="M151.26,28.578L151.26,32.578" style="fill:none;stroke:#000000;stroke-width:0.5" />
<path d="M202.01,28.578L202.01,32.578" style="fill:none;stroke:#000000;stroke-width:0.5" />
<path d="M252.76,28.578L252.76,32.578" style="fill:none;stroke:#000000;stroke-width:0.5" />
<path d="M354.26,28.578L354.26,32.578" style="fill:none;stroke:#000000;stroke-width:0.5" />
<path d="M405.01,28.578L405.01,32.578" style="fill:none;stroke:#000000;stroke-width:0.5" />
<path d="M455.75,28.578L455.75,32.578" style="fill:none;stroke:#000000;stroke-width:0.5" />
<path d="M506.5,28.578L506.5,32.578" style="fill:none;stroke:#000000;stroke-width:0.5" />
<path d="M608,28.578L608,32.578" style="fill:none;stroke:#000000;stroke-width:0.5" />
<path d="M49.765,32.578L633.38,32.578" style="fill:none;stroke:#000000;stroke-width:0.5" />
<g transform="rotate(90)">
<text x="156.81" y="9.7266" transform="scale(1, -1)"
	style="font-family:Helvetica;font-weight:normal;font-style:normal;font-size:12px">DWt</text>
</g>
<text x="15.949" y="-74.453" transform="scale(1, -1)"
	style="font-family:Helvetica;font-weight:normal;font-style:normal;font-size:10px">-0.2</text>
<text x="15.949" y="-147.65" transform="scale(1, -1)"
	style="font-family:Helvetica;font-weight:normal;font-style:normal;font-size:10px">-0.1</text>
<text x="19.279" y="-220.86" transform="scale(1, -1)"
	style="font-family:Helvetica;font-weight:normal;font-style:normal;font-size:10px">0.0</text>
<text x="19.279" y="-294.06" transform="scale(1, -1)"
	style="font-family:Helvetica;font-weight:normal;font-style:normal;font-size:10px">0.1</text>
<path d="M35.959,76.972L43.959,76.972" style="fill:none;stroke:#000000;stroke-width:0.5" />
<path d="M35.959,150.17L43.959,150.17" style="fill:none;stroke:#000000;stroke-width:0.5" />
<path d="M35.959,223.38L43.959,223.38" style="fill:none;stroke:#000000;stroke-width:0.5" />
<path d="M35.959,296.58L43.959,296.58" style="fill:none;stroke:#000000;stroke-width:0.5" />
<path d="M39.959,47.691L43.959,47.691" style="fill:none;stroke:#000000;stroke-width:0.5" />
<path d="M39.959,62.332L43.959,62.332" style="fill:none;stroke:#000000;stroke-width:0.5" />
<path d="M39.959,91.613L43.959,91.613" style="fill:none;stroke:#000000;stroke-width:0.5" />
<path d="M39.959,106.25L43.959,106.25" style="fill:none;stroke:#000000;stroke-width:0.5" />
<path d="M39.959,120.89L43.959,120.89" style="fill:none;stroke:#000000;stroke-width:0.5" />
<path d="M39.959,135.53L43.959,135.53" style="fill:none;stroke:#000000;stroke-width:0.5" />
<path d="M39.959,164.81L43.959,164.81" style="fill:none;stroke:#000000;stroke-width:0.5" />
<path d="M39.959,179.46L43.959,179.46" style="fill:none;stroke:#000000;stroke-width:0.5" />
<path d="M39.959,194.1L43.959,194.1" style="fill:none;stroke:#000000;stroke-width:0.5" />
<path d="M39.959,208.74L43.959,208.74" style="fill:none;stroke:#000000;stroke-width:0.5" />
<path d="M39.959,238.02L43.959,238.02" style="fill:none;stroke:#000000;stroke-width:0.5" />
<path d="M39.959,252.66L43.959,252.66" style="fill:none;stroke:#000000;stroke-width:0.5" />
<path d="M39.959,267.3L43.959,267.3" style="fill:none;stroke:#000000;stroke-width:0.5" />
<path d="M39.959,281.94L43.959,281.94" style="fill:none;stroke:#000000;stroke-width:0.5" />
<path d="M43.959,40.371L43.959,296.58" style="fill:none;stroke:#000000;stroke-width:0.5" />
<path d="M100.51,194.52L151.26,188.32L202.01,182.94L252.76,178.22L303.51,177.6L354.26,181.66L405.01,180.7L455.75,179.09L506.5,176.44L557.25,178.83" style="fill:none;stroke:#000000" />
<path d="M100.51,188.99L151.26,181.64L202.01,177.33L252.76,175.21L303.51,176.07L354.26,184.42L405.01,184.66L455.75,183.47L506.5,179.77L557.25,189.26" style="fill:none;stroke:#FF0000" />
<path d="M100.51,184.52L151.26,177.03L202.01,174.1L252.76,174.35L303.51,176.01L354.26,188.08L405.01,189.37L455.75,189.37L506.5,186.16L557.25,202.1" style="fill:none;stroke:#0000FF" />
<path d="M100.51,180.81L151.26,173.85L202.01,172.26L252.76,174.77L303.51,176.81L354.26,192.1L405.01,194.75L455.75,196.35L506.5,193.51L557.25,214.48" style="fill:none;stroke:#228B22" />
<path d="M100.51,177.66L151.26,171.7L202.01,171.46L252.76,176.01L303.51,178.15L354.26,196.31L405.01,200.34L455.75,202.91L506.5,201.53L557.25,225.85" style="fill:none;stroke:#800080" />
<path d="M100.51,174.96L151.26,170.33L202.01,171.41L252.76,177.78L303.51,179.85L354.26,200.61L405.01,205.21L455.75,209L506.5,208.69L557.25,236.19" style="fill:none;stroke:#FFA500" />
<path d="M100.51,172.61L151.26,169.57L202.01,171.9L252.76,179.88L303.51,181.77L354.26,204.85L405.01,210.28L455.75,215.28L506.5,215.52L557.25,245.65" style="fill:none;stroke:#A52A2A" />
<path d="M100.51,170.57L151.26,169.31L202.01,172.96L252.76,182.22L303.51,183.84L354.26,208.45L405.01,215.31L455.75,221.13L506.5,222.53L557.25,254.35" style="fill:none;stroke:#7FFF00" />
<path d="M100.51,168.79L151.26,169.44L202.01,174.3L252.76,184.69L303.51,186.01L354.26,212.49L405.01,219.63L455.75,226.33L506.5,228.64L557.25,262.41" style="fill:none;stroke:#000080" />
<path d="M613.38,294.48L633.38,294.48" style="fill:none;stroke:#000000" />
<text x="563.36" y="-291.66" transform="scale(1, -1)"
	style="font-family:Helvetica;font-weight:normal;font-style:normal;font-size:12px">200 DWt</text>
<path d="M613.38,284.01L633.38,284.01" style="fill:none;stroke:#FF0000" />
<text x="563.36" y="-281.19" transform="scale(1, -1)"
	style="font-family:Helvetica;font-weight:normal;font-style:normal;font-size:12px">300 DWt</text>
<path d="M613.38,273.54L633.38,273.54" style="fill:none;stroke:#0000FF" />
<text x="563.36" y="-270.71" transform="scale(1, -1)"
	style="font-family:Helvetica;font-weight:normal;font-style:normal;font-size:12px">400 DWt</text>
<path d="M613.38,263.07L633.38,263.07" style="fill:none;stroke:#228B22" />
<text x="563.36" y="-260.24" transform="scale(1, -1)"
	style="font-family:Helvetica;font-weight:normal;font-style:normal;font-size:12px">500 DWt</text>
<path d="M613.38,252.6L633.38,252.6" style="fill:none;stroke:#800080" />
<text x="563.36" y="-249.77" transform="scale(1, -1)"
	style="font-family:Helvetica;font-weight:normal;font-style:normal;font-size:12px">600 DWt</text>
<path d="M613.38,242.13L633.38,242.13" style="fill:none;stroke:#FFA500" />
<text x="563.36" y="-239.3" transform="scale(1, -1)"
	style="font-family:Helvetica;font-weight:normal;font-style:normal;font-size:12px">700 DWt</text>
<path d="M613.38,231.66L633.38,231.66" style="fill:none;stroke:#A52A2A" />
<text x="563.36" y="-228.83" transform="scale(1, -1)"
	style="font-family:Helvetica;font-weight:normal;font-style:normal;font-size:12px">800 DWt</text>
<path d="M613.38,221.19L633.38,221.19" style="fill:none;stroke:#7FFF00" />
<text x="563.36" y="-218.36" transform="scale(1, -1)"
	style="font-family:Helvetica;font-weight:normal;font-style:normal;font-size:12px">900 DWt</text>
<path d="M613.38,210.72L633.38,210.72" style="fill:none;stroke:#000080" />
<text x="556.69" y="-207.89" transform="scale(1, -1)"
	style="font-family:Helvetica;font-weight:normal;font-style:normal;font-size:12px">1000 DWt</text>
</g>
</svg>
