<?xml version="1.0"?>
<!-- Generated by SVGo and Plotinum VG -->
<svg width="633.38pt" height="313.12pt" viewBox="0 0 633.38 313.12"
	xmlns="http://www.w3.org/2000/svg"
	xmlns:xlink="http://www.w3.org/1999/xlink">
<g transform="scale(1, -1) translate(0, -313.12)">
<text x="268.67" y="-303.4" transform="scale(1, -1)"
	style="font-family:Helvetica;font-weight:normal;font-style:normal;font-size:12px">Urakubo DWt Plot</text>
<text x="337.57" y="-3.6797" transform="scale(1, -1)"
	style="font-family:Helvetica;font-weight:normal;font-style:normal;font-size:12px">X</text>
<text x="46.984" y="-16.473" transform="scale(1, -1)"
	style="font-family:Helvetica;font-weight:normal;font-style:normal;font-size:10px">0</text>
<text x="297.95" y="-16.473" transform="scale(1, -1)"
	style="font-family:Helvetica;font-weight:normal;font-style:normal;font-size:10px">50</text>
<text x="548.91" y="-16.473" transform="scale(1, -1)"
	style="font-family:Helvetica;font-weight:normal;font-style:normal;font-size:10px">100</text>
<path d="M49.765,24.578L49.765,32.578" style="fill:none;stroke:#000000;stroke-width:0.5" />
<path d="M303.51,24.578L303.51,32.578" style="fill:none;stroke:#000000;stroke-width:0.5" />
<path d="M557.25,24.578L557.25,32.578" style="fill:none;stroke:#000000;stroke-width:0.5" />
<path d="M100.51,28.578L100.51,32.578" style="fill:none;stroke:#000000;stroke-width:0.5" />
<path d="M151.26,28.578L151.26,32.578" style="fill:none;stroke:#000000;stroke-width:0.5" />
<path d="M202.01,28.578L202.01,32.578" style="fill:none;stroke:#000000;stroke-width:0.5" />
<path d="M252.76,28.578L252.76,32.578" style="fill:none;stroke:#000000;stroke-width:0.5" />
<path d="M354.26,28.578L354.26,32.578" style="fill:none;stroke:#000000;stroke-width:0.5" />
<path d="M405.01,28.578L405.01,32.578" style="fill:none;stroke:#000000;stroke-width:0.5" />
<path d="M455.75,28.578L455.75,32.578" style="fill:none;stroke:#000000;stroke-width:0.5" />
<path d="M506.5,28.578L506.5,32.578" style="fill:none;stroke:#000000;stroke-width:0.5" />
<path d="M608,28.578L608,32.578" style="fill:none;stroke:#000000;stroke-width:0.5" />
<path d="M49.765,32.578L633.38,32.578" style="fill:none;stroke:#000000;stroke-width:0.5" />
<g transform="rotate(90)">
<text x="158.38" y="9.7266" transform="scale(1, -1)"
	style="font-family:Helvetica;font-weight:normal;font-style:normal;font-size:12px">DWt</text>
</g>
<text x="15.949" y="-74.901" transform="scale(1, -1)"
	style="font-family:Helvetica;font-weight:normal;font-style:normal;font-size:10px">-0.5</text>
<text x="19.279" y="-167.53" transform="scale(1, -1)"
	style="font-family:Helvetica;font-weight:normal;font-style:normal;font-size:10px">0.0</text>
<text x="19.279" y="-260.15" transform="scale(1, -1)"
	style="font-family:Helvetica;font-weight:normal;font-style:normal;font-size:10px">0.5</text>
<path d="M35.959,77.421L43.959,77.421" style="fill:none;stroke:#000000;stroke-width:0.5" />
<path d="M35.959,170.04L43.959,170.04" style="fill:none;stroke:#000000;stroke-width:0.5" />
<path d="M35.959,262.67L43.959,262.67" style="fill:none;stroke:#000000;stroke-width:0.5" />
<path d="M39.959,58.896L43.959,58.896" style="fill:none;stroke:#000000;stroke-width:0.5" />
<path d="M39.959,95.946L43.959,95.946" style="fill:none;stroke:#000000;stroke-width:0.5" />
<path d="M39.959,114.47L43.959,114.47" style="fill:none;stroke:#000000;stroke-width:0.5" />
<path d="M39.959,133L43.959,133" style="fill:none;stroke:#000000;stroke-width:0.5" />
<path d="M39.959,151.52L43.959,151.52" style="fill:none;stroke:#000000;stroke-width:0.5" />
<path d="M39.959,188.57L43.959,188.57" style="fill:none;stroke:#000000;stroke-width:0.5" />
<path d="M39.959,207.09L43.959,207.09" style="fill:none;stroke:#000000;stroke-width:0.5" />
<path d="M39.959,225.62L43.959,225.62" style="fill:none;stroke:#000000;stroke-width:0.5" />
<path d="M39.959,244.14L43.959,244.14" style="fill:none;stroke:#000000;stroke-width:0.5" />
<path d="M39.959,281.19L43.959,281.19" style="fill:none;stroke:#000000;stroke-width:0.5" />
<path d="M43.959,40.371L43.959,299.72" style="fill:none;stroke:#000000;stroke-width:0.5" />
<path d="M100.51,149.04L151.26,148.44L202.01,148.93L252.76,149.55L303.51,149.99L354.26,149.46L405.01,148.82L455.75,149.95L506.5,222.26L557.25,151.3" style="fill:none;stroke:#000000" />
<path d="M100.51,148.48L151.26,148.4L202.01,150.43L252.76,150.78L303.51,152.24L354.26,148.42L405.01,149.32L455.75,149.53L506.5,240.32L557.25,223.78" style="fill:none;stroke:#FF0000" />
<path d="M100.51,148.36L151.26,148.68L202.01,149.91L252.76,151.05L303.51,149.47L354.26,225.3L405.01,154.73L455.75,155.66L506.5,156.16L557.25,227.29" style="fill:none;stroke:#0000FF" />
<path d="M100.51,148.33L151.26,149.02L202.01,150.86L252.76,151.8L303.51,151.84L354.26,154.25L405.01,150.85L455.75,153.28L506.5,238.88L557.25,227.98" style="fill:none;stroke:#228B22" />
<path d="M100.51,148.29L151.26,149.46L202.01,151.98L252.76,152.99L303.51,153.29L354.26,151.36L405.01,154.3L455.75,156.33L506.5,241.85L557.25,247.67" style="fill:none;stroke:#800080" />
<path d="M100.51,148.32L151.26,150.06L202.01,151.59L252.76,153.1L303.51,150.88L354.26,152.9L405.01,154.31L455.75,238.48L506.5,227.09L557.25,253.32" style="fill:none;stroke:#FFA500" />
<path d="M100.51,148.48L151.26,149.57L202.01,151.77L252.76,150.77L303.51,154.79L354.26,155.89L405.01,154.73L455.75,225.02L506.5,251.45L557.25,243.57" style="fill:none;stroke:#A52A2A" />
<path d="M100.51,148.33L151.26,150.26L202.01,153L252.76,153.76L303.51,155.16L354.26,225.87L405.01,223.47L455.75,252.5L506.5,162.82L557.25,262.98" style="fill:none;stroke:#7FFF00" />
<path d="M100.51,148.51L151.26,150.75L202.01,153L252.76,155.29L303.51,155.93L354.26,156.34L405.01,158.24L455.75,231.77L506.5,226.11L557.25,277.54" style="fill:none;stroke:#000080" />
<path d="M613.38,294.48L633.38,294.48" style="fill:none;stroke:#000000" />
<text x="563.36" y="-291.66" transform="scale(1, -1)"
	style="font-family:Helvetica;font-weight:normal;font-style:normal;font-size:12px">200 DWt</text>
<path d="M613.38,284.01L633.38,284.01" style="fill:none;stroke:#FF0000" />
<text x="563.36" y="-281.19" transform="scale(1, -1)"
	style="font-family:Helvetica;font-weight:normal;font-style:normal;font-size:12px">300 DWt</text>
<path d="M613.38,273.54L633.38,273.54" style="fill:none;stroke:#0000FF" />
<text x="563.36" y="-270.71" transform="scale(1, -1)"
	style="font-family:Helvetica;font-weight:normal;font-style:normal;font-size:12px">400 DWt</text>
<path d="M613.38,263.07L633.38,263.07" style="fill:none;stroke:#228B22" />
<text x="563.36" y="-260.24" transform="scale(1, -1)"
	style="font-family:Helvetica;font-weight:normal;font-style:normal;font-size:12px">500 DWt</text>
<path d="M613.38,252.6L633.38,252.6" style="fill:none;stroke:#800080" />
<text x="563.36" y="-249.77" transform="scale(1, -1)"
	style="font-family:Helvetica;font-weight:normal;font-style:normal;font-size:12px">600 DWt</text>
<path d="M613.38,242.13L633.38,242.13" style="fill:none;stroke:#FFA500" />
<text x="563.36" y="-239.3" transform="scale(1, -1)"
	style="font-family:Helvetica;font-weight:normal;font-style:normal;font-size:12px">700 DWt</text>
<path d="M613.38,231.66L633.38,231.66" style="fill:none;stroke:#A52A2A" />
<text x="563.36" y="-228.83" transform="scale(1, -1)"
	style="font-family:Helvetica;font-weight:normal;font-style:normal;font-size:12px">800 DWt</text>
<path d="M613.38,221.19L633.38,221.19" style="fill:none;stroke:#7FFF00" />
<text x="563.36" y="-218.36" transform="scale(1, -1)"
	style="font-family:Helvetica;font-weight:normal;font-style:normal;font-size:12px">900 DWt</text>
<path d="M613.38,210.72L633.38,210.72" style="fill:none;stroke:#000080" />
<text x="556.69" y="-207.89" transform="scale(1, -1)"
	style="font-family:Helvetica;font-weight:normal;font-style:normal;font-size:12px">1000 DWt</text>
</g>
</svg>
