<?xml version="1.0"?>
<!-- Generated by SVGo and Plotinum VG -->
<svg width="617.25pt" height="316.5pt" viewBox="0 0 617.25 316.5"
	xmlns="http://www.w3.org/2000/svg"
	xmlns:xlink="http://www.w3.org/1999/xlink">
<g transform="scale(1, -1) translate(0, -316.5)">
<text x="241.93" y="-306.77" transform="scale(1, -1)"
	style="font-family:Helvetica;font-weight:normal;font-style:normal;font-size:12px">Urakubo Phase DWt Plot</text>
<text x="320.11" y="-3.6797" transform="scale(1, -1)"
	style="font-family:Helvetica;font-weight:normal;font-style:normal;font-size:12px">CHL</text>
<text x="45.319" y="-16.473" transform="scale(1, -1)"
	style="font-family:Helvetica;font-weight:normal;font-style:normal;font-size:10px">-1</text>
<text x="235.22" y="-16.473" transform="scale(1, -1)"
	style="font-family:Helvetica;font-weight:normal;font-style:normal;font-size:10px">0</text>
<text x="423.45" y="-16.473" transform="scale(1, -1)"
	style="font-family:Helvetica;font-weight:normal;font-style:normal;font-size:10px">1</text>
<text x="611.69" y="-16.473" transform="scale(1, -1)"
	style="font-family:Helvetica;font-weight:normal;font-style:normal;font-size:10px">2</text>
<path d="M49.765,24.578L49.765,32.578" style="fill:none;stroke:#000000;stroke-width:0.5" />
<path d="M238,24.578L238,32.578" style="fill:none;stroke:#000000;stroke-width:0.5" />
<path d="M426.23,24.578L426.23,32.578" style="fill:none;stroke:#000000;stroke-width:0.5" />
<path d="M614.47,24.578L614.47,32.578" style="fill:none;stroke:#000000;stroke-width:0.5" />
<path d="M87.412,28.578L87.412,32.578" style="fill:none;stroke:#000000;stroke-width:0.5" />
<path d="M125.06,28.578L125.06,32.578" style="fill:none;stroke:#000000;stroke-width:0.5" />
<path d="M162.71,28.578L162.71,32.578" style="fill:none;stroke:#000000;stroke-width:0.5" />
<path d="M200.35,28.578L200.35,32.578" style="fill:none;stroke:#000000;stroke-width:0.5" />
<path d="M275.65,28.578L275.65,32.578" style="fill:none;stroke:#000000;stroke-width:0.5" />
<path d="M313.29,28.578L313.29,32.578" style="fill:none;stroke:#000000;stroke-width:0.5" />
<path d="M350.94,28.578L350.94,32.578" style="fill:none;stroke:#000000;stroke-width:0.5" />
<path d="M388.59,28.578L388.59,32.578" style="fill:none;stroke:#000000;stroke-width:0.5" />
<path d="M463.88,28.578L463.88,32.578" style="fill:none;stroke:#000000;stroke-width:0.5" />
<path d="M501.53,28.578L501.53,32.578" style="fill:none;stroke:#000000;stroke-width:0.5" />
<path d="M539.18,28.578L539.18,32.578" style="fill:none;stroke:#000000;stroke-width:0.5" />
<path d="M576.82,28.578L576.82,32.578" style="fill:none;stroke:#000000;stroke-width:0.5" />
<path d="M49.765,32.578L614.47,32.578" style="fill:none;stroke:#000000;stroke-width:0.5" />
<g transform="rotate(90)">
<text x="158.5" y="9.7266" transform="scale(1, -1)"
	style="font-family:Helvetica;font-weight:normal;font-style:normal;font-size:12px">DWt</text>
</g>
<text x="15.949" y="-37.852" transform="scale(1, -1)"
	style="font-family:Helvetica;font-weight:normal;font-style:normal;font-size:10px">-0.5</text>
<text x="19.279" y="-167.64" transform="scale(1, -1)"
	style="font-family:Helvetica;font-weight:normal;font-style:normal;font-size:10px">0.0</text>
<text x="19.279" y="-297.43" transform="scale(1, -1)"
	style="font-family:Helvetica;font-weight:normal;font-style:normal;font-size:10px">0.5</text>
<path d="M35.959,40.371L43.959,40.371" style="fill:none;stroke:#000000;stroke-width:0.5" />
<path d="M35.959,170.16L43.959,170.16" style="fill:none;stroke:#000000;stroke-width:0.5" />
<path d="M35.959,299.95L43.959,299.95" style="fill:none;stroke:#000000;stroke-width:0.5" />
<path d="M39.959,66.329L43.959,66.329" style="fill:none;stroke:#000000;stroke-width:0.5" />
<path d="M39.959,92.288L43.959,92.288" style="fill:none;stroke:#000000;stroke-width:0.5" />
<path d="M39.959,118.25L43.959,118.25" style="fill:none;stroke:#000000;stroke-width:0.5" />
<path d="M39.959,144.2L43.959,144.2" style="fill:none;stroke:#000000;stroke-width:0.5" />
<path d="M39.959,196.12L43.959,196.12" style="fill:none;stroke:#000000;stroke-width:0.5" />
<path d="M39.959,222.08L43.959,222.08" style="fill:none;stroke:#000000;stroke-width:0.5" />
<path d="M39.959,248.04L43.959,248.04" style="fill:none;stroke:#000000;stroke-width:0.5" />
<path d="M39.959,274L43.959,274" style="fill:none;stroke:#000000;stroke-width:0.5" />
<path d="M43.959,40.371L43.959,299.95" style="fill:none;stroke:#000000;stroke-width:0.5" />
<path d="M241,268.6A3,3 0 1 1 235,268.6A3,3 0 1 1 241,268.6Z" style="fill:none;stroke:#000000;stroke-width:0.5" />
<path d="M64.529,268.36A3,3 0 1 1 58.529,268.36A3,3 0 1 1 64.529,268.36Z" style="fill:none;stroke:#FF0000;stroke-width:0.5" />
<path d="M99.823,274.58A3,3 0 1 1 93.823,274.58A3,3 0 1 1 99.823,274.58Z" style="fill:none;stroke:#0000FF;stroke-width:0.5" />
<path d="M417.47,226.46A3,3 0 1 1 411.47,226.46A3,3 0 1 1 417.47,226.46Z" style="fill:none;stroke:#228B22;stroke-width:0.5" />
<path d="M241,203.31A3,3 0 1 1 235,203.31A3,3 0 1 1 241,203.31Z" style="fill:none;stroke:#800080;stroke-width:0.5" />
<path d="M276.29,200.59A3,3 0 1 1 270.29,200.59A3,3 0 1 1 276.29,200.59Z" style="fill:none;stroke:#FFA500;stroke-width:0.5" />
<path d="M382.18,215.1A3,3 0 1 1 376.18,215.1A3,3 0 1 1 382.18,215.1Z" style="fill:none;stroke:#A52A2A;stroke-width:0.5" />
<path d="M205.71,195.7A3,3 0 1 1 199.71,195.7A3,3 0 1 1 205.71,195.7Z" style="fill:none;stroke:#7FFF00;stroke-width:0.5" />
<path d="M241,204.33A3,3 0 1 1 235,204.33A3,3 0 1 1 241,204.33Z" style="fill:none;stroke:#000080;stroke-width:0.5" />
<path d="M610.25,297.86A3,3 0 1 1 604.25,297.86A3,3 0 1 1 610.25,297.86Z" style="fill:none;stroke:#000000;stroke-width:0.5" />
<text x="452.51" y="-295.03" transform="scale(1, -1)"
	style="font-family:Helvetica;font-weight:normal;font-style:normal;font-size:12px">S:100-100 R:100-100 DWt</text>
<path d="M610.25,287.39A3,3 0 1 1 604.25,287.39A3,3 0 1 1 610.25,287.39Z" style="fill:none;stroke:#FF0000;stroke-width:0.5" />
<text x="465.85" y="-284.56" transform="scale(1, -1)"
	style="font-family:Helvetica;font-weight:normal;font-style:normal;font-size:12px">S:100-25 R:100-25 DWt</text>
<path d="M610.25,276.92A3,3 0 1 1 604.25,276.92A3,3 0 1 1 610.25,276.92Z" style="fill:none;stroke:#0000FF;stroke-width:0.5" />
<text x="465.85" y="-274.09" transform="scale(1, -1)"
	style="font-family:Helvetica;font-weight:normal;font-style:normal;font-size:12px">S:100-50 R:100-50 DWt</text>
<path d="M610.25,266.45A3,3 0 1 1 604.25,266.45A3,3 0 1 1 610.25,266.45Z" style="fill:none;stroke:#228B22;stroke-width:0.5" />
<text x="465.85" y="-263.62" transform="scale(1, -1)"
	style="font-family:Helvetica;font-weight:normal;font-style:normal;font-size:12px">S:25-100 R:25-100 DWt</text>
<path d="M610.25,255.98A3,3 0 1 1 604.25,255.98A3,3 0 1 1 610.25,255.98Z" style="fill:none;stroke:#800080;stroke-width:0.5" />
<text x="479.2" y="-253.15" transform="scale(1, -1)"
	style="font-family:Helvetica;font-weight:normal;font-style:normal;font-size:12px">S:25-25 R:25-25 DWt</text>
<path d="M610.25,245.5A3,3 0 1 1 604.25,245.5A3,3 0 1 1 610.25,245.5Z" style="fill:none;stroke:#FFA500;stroke-width:0.5" />
<text x="479.2" y="-242.68" transform="scale(1, -1)"
	style="font-family:Helvetica;font-weight:normal;font-style:normal;font-size:12px">S:25-50 R:25-50 DWt</text>
<path d="M610.25,235.03A3,3 0 1 1 604.25,235.03A3,3 0 1 1 610.25,235.03Z" style="fill:none;stroke:#A52A2A;stroke-width:0.5" />
<text x="465.85" y="-232.21" transform="scale(1, -1)"
	style="font-family:Helvetica;font-weight:normal;font-style:normal;font-size:12px">S:50-100 R:50-100 DWt</text>
<path d="M610.25,224.56A3,3 0 1 1 604.25,224.56A3,3 0 1 1 610.25,224.56Z" style="fill:none;stroke:#7FFF00;stroke-width:0.5" />
<text x="479.2" y="-221.74" transform="scale(1, -1)"
	style="font-family:Helvetica;font-weight:normal;font-style:normal;font-size:12px">S:50-25 R:50-25 DWt</text>
<path d="M610.25,214.09A3,3 0 1 1 604.25,214.09A3,3 0 1 1 610.25,214.09Z" style="fill:none;stroke:#000080;stroke-width:0.5" />
<text x="479.2" y="-211.27" transform="scale(1, -1)"
	style="font-family:Helvetica;font-weight:normal;font-style:normal;font-size:12px">S:50-50 R:50-50 DWt</text>
</g>
</svg>
