<?xml version="1.0"?>
<!-- Generated by SVGo and Plotinum VG -->
<svg width="628.12pt" height="310.5pt" viewBox="0 0 628.12 310.5"
	xmlns="http://www.w3.org/2000/svg"
	xmlns:xlink="http://www.w3.org/1999/xlink">
<g transform="scale(1, -1) translate(0, -310.5)">
<text x="266.05" y="-300.77" transform="scale(1, -1)"
	style="font-family:Helvetica;font-weight:normal;font-style:normal;font-size:12px">Urakubo DWt Plot</text>
<text x="327.99" y="-3.6797" transform="scale(1, -1)"
	style="font-family:Helvetica;font-weight:normal;font-style:normal;font-size:12px">X</text>
<text x="34.198" y="-16.473" transform="scale(1, -1)"
	style="font-family:Helvetica;font-weight:normal;font-style:normal;font-size:10px">-50</text>
<text x="329.21" y="-16.473" transform="scale(1, -1)"
	style="font-family:Helvetica;font-weight:normal;font-style:normal;font-size:10px">0</text>
<text x="617" y="-16.473" transform="scale(1, -1)"
	style="font-family:Helvetica;font-weight:normal;font-style:normal;font-size:10px">50</text>
<path d="M41.425,24.578L41.425,32.578" style="fill:none;stroke:#000000;stroke-width:0.5" />
<path d="M331.99,24.578L331.99,32.578" style="fill:none;stroke:#000000;stroke-width:0.5" />
<path d="M622.56,24.578L622.56,32.578" style="fill:none;stroke:#000000;stroke-width:0.5" />
<path d="M99.539,28.578L99.539,32.578" style="fill:none;stroke:#000000;stroke-width:0.5" />
<path d="M157.65,28.578L157.65,32.578" style="fill:none;stroke:#000000;stroke-width:0.5" />
<path d="M215.77,28.578L215.77,32.578" style="fill:none;stroke:#000000;stroke-width:0.5" />
<path d="M273.88,28.578L273.88,32.578" style="fill:none;stroke:#000000;stroke-width:0.5" />
<path d="M390.11,28.578L390.11,32.578" style="fill:none;stroke:#000000;stroke-width:0.5" />
<path d="M448.22,28.578L448.22,32.578" style="fill:none;stroke:#000000;stroke-width:0.5" />
<path d="M506.34,28.578L506.34,32.578" style="fill:none;stroke:#000000;stroke-width:0.5" />
<path d="M564.45,28.578L564.45,32.578" style="fill:none;stroke:#000000;stroke-width:0.5" />
<path d="M41.425,32.578L622.56,32.578" style="fill:none;stroke:#000000;stroke-width:0.5" />
<g transform="rotate(90)">
<text x="155.5" y="9.7266" transform="scale(1, -1)"
	style="font-family:Helvetica;font-weight:normal;font-style:normal;font-size:12px">DWt</text>
</g>
<text x="15.949" y="-37.852" transform="scale(1, -1)"
	style="font-family:Helvetica;font-weight:normal;font-style:normal;font-size:10px">-1</text>
<text x="19.279" y="-164.64" transform="scale(1, -1)"
	style="font-family:Helvetica;font-weight:normal;font-style:normal;font-size:10px">0</text>
<text x="19.279" y="-291.43" transform="scale(1, -1)"
	style="font-family:Helvetica;font-weight:normal;font-style:normal;font-size:10px">1</text>
<path d="M27.619,40.371L35.619,40.371" style="fill:none;stroke:#000000;stroke-width:0.5" />
<path d="M27.619,167.16L35.619,167.16" style="fill:none;stroke:#000000;stroke-width:0.5" />
<path d="M27.619,293.95L35.619,293.95" style="fill:none;stroke:#000000;stroke-width:0.5" />
<path d="M31.619,65.729L35.619,65.729" style="fill:none;stroke:#000000;stroke-width:0.5" />
<path d="M31.619,91.088L35.619,91.088" style="fill:none;stroke:#000000;stroke-width:0.5" />
<path d="M31.619,116.45L35.619,116.45" style="fill:none;stroke:#000000;stroke-width:0.5" />
<path d="M31.619,141.8L35.619,141.8" style="fill:none;stroke:#000000;stroke-width:0.5" />
<path d="M31.619,192.52L35.619,192.52" style="fill:none;stroke:#000000;stroke-width:0.5" />
<path d="M31.619,217.88L35.619,217.88" style="fill:none;stroke:#000000;stroke-width:0.5" />
<path d="M31.619,243.24L35.619,243.24" style="fill:none;stroke:#000000;stroke-width:0.5" />
<path d="M31.619,268.6L35.619,268.6" style="fill:none;stroke:#000000;stroke-width:0.5" />
<path d="M35.619,40.371L35.619,293.95" style="fill:none;stroke:#000000;stroke-width:0.5" />
<path d="M41.425,147.18L70.482,144.6L99.539,141.4L128.6,137.47L157.65,132.71L186.71,127.21L215.77,121.66L244.82,117.85L273.88,117.49L302.94,118.06L331.99,158.13L361.05,206.07L390.11,210.15L419.16,201.43L448.22,191.84L477.28,183.64L506.34,177.25L535.39,172.49L564.45,169.02L593.51,166.51L622.56,164.69" style="fill:none;stroke:#FF0000" />
<path d="M608.12,291.86L628.12,291.86" style="fill:none;stroke:#FF0000" />
<text x="581.46" y="-289.03" transform="scale(1, -1)"
	style="font-family:Helvetica;font-weight:normal;font-style:normal;font-size:12px">DWt</text>
</g>
</svg>
