<?xml version="1.0"?>
<!-- Generated by SVGo and Plotinum VG -->
<svg width="617.25pt" height="316.5pt" viewBox="0 0 617.25 316.5"
	xmlns="http://www.w3.org/2000/svg"
	xmlns:xlink="http://www.w3.org/1999/xlink">
<g transform="scale(1, -1) translate(0, -316.5)">
<text x="260.61" y="-306.77" transform="scale(1, -1)"
	style="font-family:Helvetica;font-weight:normal;font-style:normal;font-size:12px">Urakubo DWt Plot</text>
<text x="326.72" y="-3.6797" transform="scale(1, -1)"
	style="font-family:Helvetica;font-weight:normal;font-style:normal;font-size:12px">X</text>
<text x="42.538" y="-16.473" transform="scale(1, -1)"
	style="font-family:Helvetica;font-weight:normal;font-style:normal;font-size:10px">-50</text>
<text x="327.95" y="-16.473" transform="scale(1, -1)"
	style="font-family:Helvetica;font-weight:normal;font-style:normal;font-size:10px">0</text>
<text x="606.13" y="-16.473" transform="scale(1, -1)"
	style="font-family:Helvetica;font-weight:normal;font-style:normal;font-size:10px">50</text>
<path d="M49.765,24.578L49.765,32.578" style="fill:none;stroke:#000000;stroke-width:0.5" />
<path d="M330.73,24.578L330.73,32.578" style="fill:none;stroke:#000000;stroke-width:0.5" />
<path d="M611.69,24.578L611.69,32.578" style="fill:none;stroke:#000000;stroke-width:0.5" />
<path d="M105.96,28.578L105.96,32.578" style="fill:none;stroke:#000000;stroke-width:0.5" />
<path d="M162.15,28.578L162.15,32.578" style="fill:none;stroke:#000000;stroke-width:0.5" />
<path d="M218.34,28.578L218.34,32.578" style="fill:none;stroke:#000000;stroke-width:0.5" />
<path d="M274.53,28.578L274.53,32.578" style="fill:none;stroke:#000000;stroke-width:0.5" />
<path d="M386.92,28.578L386.92,32.578" style="fill:none;stroke:#000000;stroke-width:0.5" />
<path d="M443.11,28.578L443.11,32.578" style="fill:none;stroke:#000000;stroke-width:0.5" />
<path d="M499.3,28.578L499.3,32.578" style="fill:none;stroke:#000000;stroke-width:0.5" />
<path d="M555.5,28.578L555.5,32.578" style="fill:none;stroke:#000000;stroke-width:0.5" />
<path d="M49.765,32.578L611.69,32.578" style="fill:none;stroke:#000000;stroke-width:0.5" />
<g transform="rotate(90)">
<text x="158.5" y="9.7266" transform="scale(1, -1)"
	style="font-family:Helvetica;font-weight:normal;font-style:normal;font-size:12px">DWt</text>
</g>
<text x="15.949" y="-37.852" transform="scale(1, -1)"
	style="font-family:Helvetica;font-weight:normal;font-style:normal;font-size:10px">-0.5</text>
<text x="19.279" y="-167.64" transform="scale(1, -1)"
	style="font-family:Helvetica;font-weight:normal;font-style:normal;font-size:10px">0.0</text>
<text x="19.279" y="-297.43" transform="scale(1, -1)"
	style="font-family:Helvetica;font-weight:normal;font-style:normal;font-size:10px">0.5</text>
<path d="M35.959,40.371L43.959,40.371" style="fill:none;stroke:#000000;stroke-width:0.5" />
<path d="M35.959,170.16L43.959,170.16" style="fill:none;stroke:#000000;stroke-width:0.5" />
<path d="M35.959,299.95L43.959,299.95" style="fill:none;stroke:#000000;stroke-width:0.5" />
<path d="M39.959,66.329L43.959,66.329" style="fill:none;stroke:#000000;stroke-width:0.5" />
<path d="M39.959,92.288L43.959,92.288" style="fill:none;stroke:#000000;stroke-width:0.5" />
<path d="M39.959,118.25L43.959,118.25" style="fill:none;stroke:#000000;stroke-width:0.5" />
<path d="M39.959,144.2L43.959,144.2" style="fill:none;stroke:#000000;stroke-width:0.5" />
<path d="M39.959,196.12L43.959,196.12" style="fill:none;stroke:#000000;stroke-width:0.5" />
<path d="M39.959,222.08L43.959,222.08" style="fill:none;stroke:#000000;stroke-width:0.5" />
<path d="M39.959,248.04L43.959,248.04" style="fill:none;stroke:#000000;stroke-width:0.5" />
<path d="M39.959,274L43.959,274" style="fill:none;stroke:#000000;stroke-width:0.5" />
<path d="M43.959,40.371L43.959,299.95" style="fill:none;stroke:#000000;stroke-width:0.5" />
<path d="M49.765,154.16L77.861,152.28L105.96,150.06L134.05,147.5L162.15,144.71L190.25,142.03L218.34,140.07L246.44,139.56L274.53,140.32L302.63,140.04L330.73,166.8L358.82,193.04L386.92,196.2L415.02,191.84L443.11,186.81L471.21,182.1L499.3,178.03L527.4,174.7L555.5,172.1L583.59,170.1L611.69,168.6" style="fill:none;stroke:#FF0000" />
<path d="M597.25,297.86L617.25,297.86" style="fill:none;stroke:#FF0000" />
<text x="560.58" y="-295.03" transform="scale(1, -1)"
	style="font-family:Helvetica;font-weight:normal;font-style:normal;font-size:12px">0 DWt</text>
</g>
</svg>
