<?xml version="1.0"?>
<!-- Generated by SVGo and Plotinum VG -->
<svg width="365.62pt" height="393.38pt" viewBox="0 0 365.62 393.38"
	xmlns="http://www.w3.org/2000/svg"
	xmlns:xlink="http://www.w3.org/1999/xlink">
<g transform="scale(1, -1) translate(0, -393.38)">
<text x="117.57" y="-381.86" transform="scale(1, -1)"
	style="font-family:Helvetica;font-weight:normal;font-style:normal;font-size:12px">GPeSTN Test Cycle Plot</text>
<text x="194.31" y="-3.8789" transform="scale(1, -1)"
	style="font-family:Helvetica;font-weight:normal;font-style:normal;font-size:12px">Trial</text>
<text x="43.103" y="-15.599" transform="scale(1, -1)"
	style="font-family:Helvetica;font-weight:normal;font-style:normal;font-size:10px">0</text>
<text x="173.55" y="-15.599" transform="scale(1, -1)"
	style="font-family:Helvetica;font-weight:normal;font-style:normal;font-size:10px">50</text>
<text x="303.99" y="-15.599" transform="scale(1, -1)"
	style="font-family:Helvetica;font-weight:normal;font-style:normal;font-size:10px">100</text>
<path d="M45.884,25.198L45.884,33.198" style="fill:none;stroke:#000000;stroke-width:0.5" />
<path d="M179.11,25.198L179.11,33.198" style="fill:none;stroke:#000000;stroke-width:0.5" />
<path d="M312.33,25.198L312.33,33.198" style="fill:none;stroke:#000000;stroke-width:0.5" />
<path d="M72.529,29.198L72.529,33.198" style="fill:none;stroke:#000000;stroke-width:0.5" />
<path d="M99.174,29.198L99.174,33.198" style="fill:none;stroke:#000000;stroke-width:0.5" />
<path d="M125.82,29.198L125.82,33.198" style="fill:none;stroke:#000000;stroke-width:0.5" />
<path d="M152.46,29.198L152.46,33.198" style="fill:none;stroke:#000000;stroke-width:0.5" />
<path d="M205.75,29.198L205.75,33.198" style="fill:none;stroke:#000000;stroke-width:0.5" />
<path d="M232.4,29.198L232.4,33.198" style="fill:none;stroke:#000000;stroke-width:0.5" />
<path d="M259.04,29.198L259.04,33.198" style="fill:none;stroke:#000000;stroke-width:0.5" />
<path d="M285.69,29.198L285.69,33.198" style="fill:none;stroke:#000000;stroke-width:0.5" />
<path d="M338.98,29.198L338.98,33.198" style="fill:none;stroke:#000000;stroke-width:0.5" />
<path d="M365.62,29.198L365.62,33.198" style="fill:none;stroke:#000000;stroke-width:0.5" />
<path d="M45.884,33.198L365.62,33.198" style="fill:none;stroke:#000000;stroke-width:0.5" />
<g transform="rotate(90)">
<text x="186.2" y="11.52" transform="scale(1, -1)"
	style="font-family:Helvetica;font-weight:normal;font-style:normal;font-size:12px">ThalRT</text>
</g>
<text x="15.398" y="-37.062" transform="scale(1, -1)"
	style="font-family:Helvetica;font-weight:normal;font-style:normal;font-size:10px">0.0</text>
<text x="15.398" y="-202.72" transform="scale(1, -1)"
	style="font-family:Helvetica;font-weight:normal;font-style:normal;font-size:10px">0.5</text>
<text x="15.398" y="-368.38" transform="scale(1, -1)"
	style="font-family:Helvetica;font-weight:normal;font-style:normal;font-size:10px">1.0</text>
<path d="M32.078,41.761L40.078,41.761" style="fill:none;stroke:#000000;stroke-width:0.5" />
<path d="M32.078,207.42L40.078,207.42" style="fill:none;stroke:#000000;stroke-width:0.5" />
<path d="M32.078,373.08L40.078,373.08" style="fill:none;stroke:#000000;stroke-width:0.5" />
<path d="M36.078,74.893L40.078,74.893" style="fill:none;stroke:#000000;stroke-width:0.5" />
<path d="M36.078,108.02L40.078,108.02" style="fill:none;stroke:#000000;stroke-width:0.5" />
<path d="M36.078,141.16L40.078,141.16" style="fill:none;stroke:#000000;stroke-width:0.5" />
<path d="M36.078,174.29L40.078,174.29" style="fill:none;stroke:#000000;stroke-width:0.5" />
<path d="M36.078,240.55L40.078,240.55" style="fill:none;stroke:#000000;stroke-width:0.5" />
<path d="M36.078,273.68L40.078,273.68" style="fill:none;stroke:#000000;stroke-width:0.5" />
<path d="M36.078,306.81L40.078,306.81" style="fill:none;stroke:#000000;stroke-width:0.5" />
<path d="M36.078,339.95L40.078,339.95" style="fill:none;stroke:#000000;stroke-width:0.5" />
<path d="M40.078,38.448L40.078,373.08" style="fill:none;stroke:#000000;stroke-width:0.5" />
<path d="M45.884,38.448L48.548,38.448L51.213,38.448L53.877,38.448L56.542,38.448L59.206,38.448L61.871,38.448L64.535,38.448L67.2,38.448L69.864,38.448L72.529,38.448L75.193,38.448L77.858,38.448L80.522,38.448L83.187,38.448L85.851,38.448L88.516,38.448L91.18,38.448L93.845,38.448L96.509,38.448L99.174,38.448L101.84,38.448L104.5,38.448L107.17,38.448L109.83,260.43L112.5,227.3L115.16,38.448L117.83,38.448L120.49,38.448L123.15,38.448L125.82,38.448L128.48,38.448L131.15,38.448L133.81,204.11L136.48,204.11L139.14,194.17L141.81,187.54L144.47,38.448L147.14,38.448L149.8,38.448L152.46,38.448L155.13,38.448L157.79,38.448L160.46,38.448L163.12,180.91L165.79,180.91L168.45,177.6L171.12,177.6L173.78,214.05L176.44,38.448L179.11,38.448L181.77,38.448L184.44,38.448L187.1,38.448L189.77,38.448L192.43,167.66L195.1,167.66L197.76,164.35L200.43,167.66L203.09,180.91L205.75,217.36L208.42,38.448L211.08,38.448L213.75,38.448L216.41,38.448L219.08,38.448L221.74,161.03L224.41,161.03L227.07,154.41L229.73,161.03L232.4,167.66L235.06,190.85L237.73,227.3L240.39,38.448L243.06,38.448L245.72,38.448L248.39,38.448L251.05,151.1L253.72,151.1L256.38,151.1L259.04,157.72L261.71,164.35L264.37,174.29L267.04,200.79L269.7,296.87L272.37,38.448L275.03,38.448L277.7,38.448L280.36,147.78L283.03,147.78L285.69,147.78L288.35,154.41L291.02,157.72L293.68,164.35L296.35,174.29L299.01,194.17L301.68,38.448L304.34,38.448L307.01,38.448L309.67,144.47L312.33,144.47L315,144.47L317.66,151.1L320.33,157.72L322.99,157.72L325.66,164.35L328.32,177.6L330.99,190.85L333.65,38.448L336.32,38.448L338.98,144.47L341.64,144.47L344.31,144.47L346.97,151.1L349.64,154.41L352.3,157.72L354.97,164.35L357.63,174.29L360.3,187.54L362.96,233.92L365.62,38.448" style="fill:none;stroke:#0000FF" />
<path d="M45.884,41.761L48.548,41.761L51.213,41.761L53.877,41.761L56.542,41.761L59.206,41.761L61.871,41.761L64.535,41.761L67.2,41.761L69.864,41.761L72.529,41.761L75.193,74.893L77.858,74.893L80.522,74.893L83.187,74.893L85.851,74.893L88.516,74.893L91.18,74.893L93.845,74.893L96.509,74.893L99.174,74.893L101.84,74.893L104.5,108.02L107.17,108.02L109.83,108.02L112.5,108.02L115.16,108.02L117.83,108.02L120.49,108.02L123.15,108.02L125.82,108.02L128.48,108.02L131.15,108.02L133.81,141.16L136.48,141.16L139.14,141.16L141.81,141.16L144.47,141.16L147.14,141.16L149.8,141.16L152.46,141.16L155.13,141.16L157.79,141.16L160.46,141.16L163.12,174.29L165.79,174.29L168.45,174.29L171.12,174.29L173.78,174.29L176.44,174.29L179.11,174.29L181.77,174.29L184.44,174.29L187.1,174.29L189.77,174.29L192.43,207.42L195.1,207.42L197.76,207.42L200.43,207.42L203.09,207.42L205.75,207.42L208.42,207.42L211.08,207.42L213.75,207.42L216.41,207.42L219.08,207.42L221.74,240.55L224.41,240.55L227.07,240.55L229.73,240.55L232.4,240.55L235.06,240.55L237.73,240.55L240.39,240.55L243.06,240.55L245.72,240.55L248.39,240.55L251.05,273.68L253.72,273.68L256.38,273.68L259.04,273.68L261.71,273.68L264.37,273.68L267.04,273.68L269.7,273.68L272.37,273.68L275.03,273.68L277.7,273.68L280.36,306.81L283.03,306.81L285.69,306.81L288.35,306.81L291.02,306.81L293.68,306.81L296.35,306.81L299.01,306.81L301.68,306.81L304.34,306.81L307.01,306.81L309.67,339.95L312.33,339.95L315,339.95L317.66,339.95L320.33,339.95L322.99,339.95L325.66,339.95L328.32,339.95L330.99,339.95L333.65,339.95L336.32,339.95L338.98,356.51L341.64,356.51L344.31,356.51L346.97,356.51L349.64,356.51L352.3,356.51L354.97,356.51L357.63,356.51L360.3,356.51L362.96,356.51L365.62,356.51" style="fill:none;stroke:#D2B48C" />
<path d="M345.62,372.1L365.62,372.1" style="fill:none;stroke:#0000FF" />
<text x="303.17" y="-366.46" transform="scale(1, -1)"
	style="font-family:Helvetica;font-weight:normal;font-style:normal;font-size:12px">ThalRT</text>
<path d="M345.62,360.34L365.62,360.34" style="fill:none;stroke:#D2B48C" />
<text x="296.28" y="-354.7" transform="scale(1, -1)"
	style="font-family:Helvetica;font-weight:normal;font-style:normal;font-size:12px">ACCPos</text>
</g>
</svg>
