<?xml version="1.0"?>
<!-- Generated by SVGo and Plotinum VG -->
<svg width="975.38pt" height="340.12pt" viewBox="0 0 975.38 340.12"
	xmlns="http://www.w3.org/2000/svg"
	xmlns:xlink="http://www.w3.org/1999/xlink">
<g transform="scale(1, -1) translate(0, -340.12)">
<text x="415.98" y="-330.4" transform="scale(1, -1)"
	style="font-family:Liberation Sans;font-variant:normal;font-weight:normal;font-style:normal;font-size:12px">Kinase Equations Trial Plot</text>
<text x="495.9" y="-3.6797" transform="scale(1, -1)"
	style="font-family:Liberation Sans;font-variant:normal;font-weight:normal;font-style:normal;font-size:12px">Cycle</text>
<text x="43.654" y="-16.473" transform="scale(1, -1)"
	style="font-family:Liberation Sans;font-variant:normal;font-weight:normal;font-style:normal;font-size:10px">0</text>
<text x="270.91" y="-16.473" transform="scale(1, -1)"
	style="font-family:Liberation Sans;font-variant:normal;font-weight:normal;font-style:normal;font-size:10px">100</text>
<text x="503.73" y="-16.473" transform="scale(1, -1)"
	style="font-family:Liberation Sans;font-variant:normal;font-weight:normal;font-style:normal;font-size:10px">200</text>
<text x="736.54" y="-16.473" transform="scale(1, -1)"
	style="font-family:Liberation Sans;font-variant:normal;font-weight:normal;font-style:normal;font-size:10px">300</text>
<path d="M46.435,24.578L46.435,32.578" style="fill:none;stroke:#000000;stroke-width:0.5" />
<path d="M279.25,24.578L279.25,32.578" style="fill:none;stroke:#000000;stroke-width:0.5" />
<path d="M512.07,24.578L512.07,32.578" style="fill:none;stroke:#000000;stroke-width:0.5" />
<path d="M744.89,24.578L744.89,32.578" style="fill:none;stroke:#000000;stroke-width:0.5" />
<path d="M92.998,28.578L92.998,32.578" style="fill:none;stroke:#000000;stroke-width:0.5" />
<path d="M139.56,28.578L139.56,32.578" style="fill:none;stroke:#000000;stroke-width:0.5" />
<path d="M186.12,28.578L186.12,32.578" style="fill:none;stroke:#000000;stroke-width:0.5" />
<path d="M232.69,28.578L232.69,32.578" style="fill:none;stroke:#000000;stroke-width:0.5" />
<path d="M325.82,28.578L325.82,32.578" style="fill:none;stroke:#000000;stroke-width:0.5" />
<path d="M372.38,28.578L372.38,32.578" style="fill:none;stroke:#000000;stroke-width:0.5" />
<path d="M418.94,28.578L418.94,32.578" style="fill:none;stroke:#000000;stroke-width:0.5" />
<path d="M465.51,28.578L465.51,32.578" style="fill:none;stroke:#000000;stroke-width:0.5" />
<path d="M558.63,28.578L558.63,32.578" style="fill:none;stroke:#000000;stroke-width:0.5" />
<path d="M605.2,28.578L605.2,32.578" style="fill:none;stroke:#000000;stroke-width:0.5" />
<path d="M651.76,28.578L651.76,32.578" style="fill:none;stroke:#000000;stroke-width:0.5" />
<path d="M698.32,28.578L698.32,32.578" style="fill:none;stroke:#000000;stroke-width:0.5" />
<path d="M791.45,28.578L791.45,32.578" style="fill:none;stroke:#000000;stroke-width:0.5" />
<path d="M838.01,28.578L838.01,32.578" style="fill:none;stroke:#000000;stroke-width:0.5" />
<path d="M884.58,28.578L884.58,32.578" style="fill:none;stroke:#000000;stroke-width:0.5" />
<path d="M931.14,28.578L931.14,32.578" style="fill:none;stroke:#000000;stroke-width:0.5" />
<path d="M46.435,32.578L975.38,32.578" style="fill:none;stroke:#000000;stroke-width:0.5" />
<g transform="rotate(90)">
<text x="164.53" y="9.7266" transform="scale(1, -1)"
	style="font-family:Liberation Sans;font-variant:normal;font-weight:normal;font-style:normal;font-size:12px">SSpike</text>
</g>
<text x="15.949" y="-88.611" transform="scale(1, -1)"
	style="font-family:Liberation Sans;font-variant:normal;font-weight:normal;font-style:normal;font-size:10px">0.0</text>
<text x="15.949" y="-197.65" transform="scale(1, -1)"
	style="font-family:Liberation Sans;font-variant:normal;font-weight:normal;font-style:normal;font-size:10px">0.1</text>
<text x="15.949" y="-306.68" transform="scale(1, -1)"
	style="font-family:Liberation Sans;font-variant:normal;font-weight:normal;font-style:normal;font-size:10px">0.2</text>
<path d="M32.629,91.13L40.629,91.13" style="fill:none;stroke:#000000;stroke-width:0.5" />
<path d="M32.629,200.17L40.629,200.17" style="fill:none;stroke:#000000;stroke-width:0.5" />
<path d="M32.629,309.2L40.629,309.2" style="fill:none;stroke:#000000;stroke-width:0.5" />
<path d="M36.629,47.515L40.629,47.515" style="fill:none;stroke:#000000;stroke-width:0.5" />
<path d="M36.629,69.323L40.629,69.323" style="fill:none;stroke:#000000;stroke-width:0.5" />
<path d="M36.629,112.94L40.629,112.94" style="fill:none;stroke:#000000;stroke-width:0.5" />
<path d="M36.629,134.74L40.629,134.74" style="fill:none;stroke:#000000;stroke-width:0.5" />
<path d="M36.629,156.55L40.629,156.55" style="fill:none;stroke:#000000;stroke-width:0.5" />
<path d="M36.629,178.36L40.629,178.36" style="fill:none;stroke:#000000;stroke-width:0.5" />
<path d="M36.629,221.97L40.629,221.97" style="fill:none;stroke:#000000;stroke-width:0.5" />
<path d="M36.629,243.78L40.629,243.78" style="fill:none;stroke:#000000;stroke-width:0.5" />
<path d="M36.629,265.59L40.629,265.59" style="fill:none;stroke:#000000;stroke-width:0.5" />
<path d="M36.629,287.4L40.629,287.4" style="fill:none;stroke:#000000;stroke-width:0.5" />
<path d="M40.629,40.371L40.629,326.72" style="fill:none;stroke:#000000;stroke-width:0.5" />
<path d="M46.435,91.13L48.763,91.13L51.091,91.13L53.419,91.13L55.747,91.13L58.075,91.13L60.404,91.13L62.732,91.13L65.06,91.13L67.388,91.13L69.716,91.13L72.044,91.13L74.373,91.13L76.701,91.13L79.029,91.13L81.357,91.13L83.685,200.17L86.013,91.13L88.342,91.13L90.67,91.13L92.998,91.13L95.326,91.13L97.654,91.13L99.983,91.13L102.31,91.13L104.64,91.13L106.97,91.13L109.3,91.13L111.62,91.13L113.95,91.13L116.28,91.13L118.61,91.13L120.94,91.13L123.26,91.13L125.59,91.13L127.92,91.13L130.25,91.13L132.58,91.13L134.91,91.13L137.23,91.13L139.56,91.13L141.89,200.17L144.22,91.13L146.55,91.13L148.87,91.13L151.2,91.13L153.53,91.13L155.86,91.13L158.19,91.13L160.51,91.13L162.84,91.13L165.17,91.13L167.5,91.13L169.83,91.13L172.16,91.13L174.48,91.13L176.81,91.13L179.14,91.13L181.47,91.13L183.8,91.13L186.12,91.13L188.45,91.13L190.78,91.13L193.11,200.17L195.44,91.13L197.77,91.13L200.09,91.13L202.42,91.13L204.75,91.13L207.08,91.13L209.41,91.13L211.73,91.13L214.06,91.13L216.39,91.13L218.72,91.13L221.05,91.13L223.38,91.13L225.7,91.13L228.03,91.13L230.36,91.13L232.69,91.13L235.02,91.13L237.34,91.13L239.67,91.13L242,200.17L244.33,91.13L246.66,91.13L248.99,91.13L251.31,91.13L253.64,91.13L255.97,91.13L258.3,91.13L260.63,91.13L262.95,91.13L265.28,91.13L267.61,91.13L269.94,91.13L272.27,91.13L274.6,91.13L276.92,91.13L279.25,91.13L281.58,91.13L283.91,91.13L286.24,91.13L288.56,91.13L290.89,200.17L293.22,91.13L295.55,91.13L297.88,91.13L300.21,91.13L302.53,91.13L304.86,91.13L307.19,91.13L309.52,91.13L311.85,91.13L314.17,91.13L316.5,91.13L318.83,91.13L321.16,91.13L323.49,91.13L325.82,91.13L328.14,91.13L330.47,91.13L332.8,91.13L335.13,91.13L337.46,91.13L339.78,91.13L342.11,91.13L344.44,91.13L346.77,91.13L349.1,91.13L351.43,91.13L353.75,91.13L356.08,200.17L358.41,91.13L360.74,91.13L363.07,91.13L365.39,91.13L367.72,91.13L370.05,91.13L372.38,91.13L374.71,91.13L377.03,91.13L379.36,91.13L381.69,91.13L384.02,91.13L386.35,91.13L388.68,91.13L391,91.13L393.33,200.17L395.66,91.13L397.99,91.13L400.32,91.13L402.64,91.13L404.97,91.13L407.3,91.13L409.63,91.13L411.96,91.13L414.29,91.13L416.61,91.13L418.94,91.13L421.27,91.13L423.6,91.13L425.93,91.13L428.25,91.13L430.58,91.13L432.91,91.13L435.24,91.13L437.57,91.13L439.9,91.13L442.22,91.13L444.55,91.13L446.88,91.13L449.21,91.13L451.54,91.13L453.86,91.13L456.19,91.13L458.52,91.13L460.85,91.13L463.18,91.13L465.51,91.13L467.83,91.13L470.16,91.13L472.49,91.13L474.82,91.13L477.15,91.13L479.47,91.13L481.8,200.17L484.13,91.13L486.46,91.13L488.79,91.13L491.12,91.13L493.44,91.13L495.77,91.13L498.1,91.13L500.43,91.13L502.76,91.13L505.08,91.13L507.41,91.13L509.74,91.13L512.07,91.13L514.4,91.13L516.73,91.13L519.05,91.13L521.38,91.13L523.71,91.13L526.04,91.13L528.37,91.13L530.69,91.13L533.02,91.13L535.35,91.13L537.68,91.13L540.01,91.13L542.34,91.13L544.66,91.13L546.99,91.13L549.32,91.13L551.65,91.13L553.98,91.13L556.3,91.13L558.63,91.13L560.96,91.13L563.29,91.13L565.62,91.13L567.94,91.13L570.27,91.13L572.6,91.13L574.93,91.13L577.26,91.13L579.59,91.13L581.91,91.13L584.24,91.13L586.57,91.13L588.9,91.13L591.23,91.13L593.55,91.13L595.88,91.13L598.21,91.13L600.54,91.13L602.87,91.13L605.2,91.13L607.52,91.13L609.85,91.13L612.18,91.13L614.51,91.13L616.84,91.13L619.16,91.13L621.49,91.13L623.82,91.13L626.15,91.13L628.48,91.13L630.81,91.13L633.13,91.13L635.46,91.13L637.79,91.13L640.12,91.13L642.45,91.13L644.77,91.13L647.1,91.13L649.43,91.13L651.76,91.13L654.09,91.13L656.42,91.13L658.74,91.13L661.07,91.13L663.4,91.13L665.73,91.13L668.06,91.13L670.38,91.13L672.71,91.13L675.04,91.13L677.37,91.13L679.7,91.13L682.03,91.13L684.35,91.13L686.68,91.13L689.01,91.13L691.34,91.13L693.67,91.13L695.99,91.13L698.32,91.13L700.65,91.13L702.98,91.13L705.31,91.13L707.64,91.13L709.96,91.13L712.29,91.13L714.62,91.13L716.95,91.13L719.28,91.13L721.6,91.13L723.93,91.13L726.26,91.13L728.59,91.13L730.92,200.17L733.25,91.13L735.57,91.13L737.9,91.13L740.23,91.13L742.56,91.13L744.89,91.13L747.21,91.13L749.54,91.13L751.87,91.13L754.2,91.13L756.53,91.13L758.86,91.13L761.18,91.13L763.51,91.13L765.84,91.13L768.17,91.13L770.5,91.13L772.82,91.13L775.15,91.13L777.48,91.13L779.81,91.13L782.14,91.13L784.46,91.13L786.79,91.13L789.12,91.13L791.45,91.13L793.78,91.13L796.11,91.13L798.43,91.13L800.76,91.13L803.09,91.13L805.42,91.13L807.75,91.13L810.07,91.13L812.4,91.13L814.73,91.13L817.06,91.13L819.39,91.13L821.72,91.13L824.04,91.13L826.37,91.13L828.7,91.13L831.03,91.13L833.36,91.13L835.68,91.13L838.01,91.13L840.34,91.13L842.67,91.13L845,91.13L847.33,91.13L849.65,91.13L851.98,91.13L854.31,91.13L856.64,91.13L858.97,91.13L861.29,91.13L863.62,91.13L865.95,91.13L868.28,91.13L870.61,91.13L872.94,91.13L875.26,91.13L877.59,91.13L879.92,91.13L882.25,91.13L884.58,91.13L886.9,91.13L889.23,91.13L891.56,91.13L893.89,91.13L896.22,91.13L898.55,91.13L900.87,91.13L903.2,91.13L905.53,91.13L907.86,91.13L910.19,91.13L912.51,91.13L914.84,91.13L917.17,91.13L919.5,91.13L921.83,91.13L924.16,91.13L926.48,91.13L928.81,91.13L931.14,91.13L933.47,91.13L935.8,91.13L938.12,91.13L940.45,91.13L942.78,91.13L945.11,91.13L947.44,91.13L949.77,91.13L952.09,91.13L954.42,91.13L956.75,91.13L959.08,91.13L961.41,200.17L963.73,91.13L966.06,91.13L968.39,91.13L970.72,91.13L973.05,91.13L975.38,91.13" style="fill:none;stroke:#228B22" />
<path d="M46.435,91.13L48.763,91.13L51.091,91.13L53.419,91.13L55.747,91.13L58.075,91.13L60.404,91.13L62.732,91.13L65.06,91.13L67.388,91.13L69.716,91.13L72.044,91.13L74.373,91.13L76.701,91.13L79.029,91.13L81.357,91.13L83.685,91.13L86.013,91.13L88.342,91.13L90.67,200.17L92.998,91.13L95.326,91.13L97.654,91.13L99.983,91.13L102.31,91.13L104.64,91.13L106.97,91.13L109.3,91.13L111.62,91.13L113.95,91.13L116.28,91.13L118.61,91.13L120.94,91.13L123.26,91.13L125.59,91.13L127.92,91.13L130.25,91.13L132.58,91.13L134.91,91.13L137.23,91.13L139.56,91.13L141.89,91.13L144.22,91.13L146.55,91.13L148.87,200.17L151.2,91.13L153.53,91.13L155.86,91.13L158.19,91.13L160.51,91.13L162.84,91.13L165.17,91.13L167.5,91.13L169.83,91.13L172.16,200.17L174.48,91.13L176.81,91.13L179.14,91.13L181.47,91.13L183.8,91.13L186.12,91.13L188.45,91.13L190.78,91.13L193.11,91.13L195.44,91.13L197.77,91.13L200.09,91.13L202.42,91.13L204.75,91.13L207.08,91.13L209.41,91.13L211.73,91.13L214.06,91.13L216.39,91.13L218.72,91.13L221.05,200.17L223.38,91.13L225.7,91.13L228.03,91.13L230.36,91.13L232.69,91.13L235.02,91.13L237.34,91.13L239.67,91.13L242,91.13L244.33,91.13L246.66,91.13L248.99,91.13L251.31,200.17L253.64,91.13L255.97,91.13L258.3,91.13L260.63,91.13L262.95,91.13L265.28,91.13L267.61,91.13L269.94,91.13L272.27,91.13L274.6,91.13L276.92,91.13L279.25,91.13L281.58,91.13L283.91,200.17L286.24,91.13L288.56,91.13L290.89,91.13L293.22,91.13L295.55,91.13L297.88,91.13L300.21,91.13L302.53,91.13L304.86,91.13L307.19,91.13L309.52,91.13L311.85,91.13L314.17,91.13L316.5,91.13L318.83,91.13L321.16,91.13L323.49,91.13L325.82,91.13L328.14,200.17L330.47,91.13L332.8,91.13L335.13,91.13L337.46,91.13L339.78,91.13L342.11,91.13L344.44,91.13L346.77,91.13L349.1,91.13L351.43,91.13L353.75,91.13L356.08,91.13L358.41,91.13L360.74,91.13L363.07,91.13L365.39,91.13L367.72,91.13L370.05,91.13L372.38,200.17L374.71,91.13L377.03,91.13L379.36,91.13L381.69,91.13L384.02,91.13L386.35,91.13L388.68,91.13L391,91.13L393.33,91.13L395.66,91.13L397.99,91.13L400.32,91.13L402.64,91.13L404.97,91.13L407.3,91.13L409.63,91.13L411.96,91.13L414.29,91.13L416.61,91.13L418.94,91.13L421.27,91.13L423.6,91.13L425.93,91.13L428.25,91.13L430.58,91.13L432.91,91.13L435.24,91.13L437.57,91.13L439.9,91.13L442.22,91.13L444.55,91.13L446.88,91.13L449.21,91.13L451.54,91.13L453.86,91.13L456.19,91.13L458.52,91.13L460.85,91.13L463.18,91.13L465.51,91.13L467.83,91.13L470.16,91.13L472.49,91.13L474.82,91.13L477.15,91.13L479.47,91.13L481.8,91.13L484.13,91.13L486.46,91.13L488.79,91.13L491.12,91.13L493.44,91.13L495.77,91.13L498.1,91.13L500.43,200.17L502.76,91.13L505.08,91.13L507.41,91.13L509.74,91.13L512.07,91.13L514.4,91.13L516.73,91.13L519.05,91.13L521.38,91.13L523.71,91.13L526.04,91.13L528.37,91.13L530.69,91.13L533.02,91.13L535.35,91.13L537.68,91.13L540.01,91.13L542.34,91.13L544.66,91.13L546.99,91.13L549.32,91.13L551.65,91.13L553.98,91.13L556.3,91.13L558.63,91.13L560.96,91.13L563.29,91.13L565.62,91.13L567.94,91.13L570.27,91.13L572.6,91.13L574.93,91.13L577.26,91.13L579.59,91.13L581.91,91.13L584.24,91.13L586.57,91.13L588.9,91.13L591.23,91.13L593.55,91.13L595.88,91.13L598.21,91.13L600.54,91.13L602.87,91.13L605.2,91.13L607.52,91.13L609.85,91.13L612.18,91.13L614.51,91.13L616.84,91.13L619.16,91.13L621.49,91.13L623.82,91.13L626.15,91.13L628.48,91.13L630.81,91.13L633.13,91.13L635.46,91.13L637.79,91.13L640.12,91.13L642.45,91.13L644.77,91.13L647.1,91.13L649.43,91.13L651.76,91.13L654.09,91.13L656.42,91.13L658.74,91.13L661.07,91.13L663.4,91.13L665.73,91.13L668.06,91.13L670.38,91.13L672.71,91.13L675.04,91.13L677.37,91.13L679.7,91.13L682.03,91.13L684.35,91.13L686.68,91.13L689.01,91.13L691.34,200.17L693.67,91.13L695.99,91.13L698.32,91.13L700.65,91.13L702.98,91.13L705.31,91.13L707.64,91.13L709.96,91.13L712.29,91.13L714.62,91.13L716.95,91.13L719.28,91.13L721.6,91.13L723.93,91.13L726.26,91.13L728.59,91.13L730.92,91.13L733.25,91.13L735.57,91.13L737.9,91.13L740.23,91.13L742.56,91.13L744.89,91.13L747.21,91.13L749.54,91.13L751.87,91.13L754.2,91.13L756.53,91.13L758.86,91.13L761.18,91.13L763.51,91.13L765.84,91.13L768.17,91.13L770.5,91.13L772.82,91.13L775.15,91.13L777.48,91.13L779.81,91.13L782.14,91.13L784.46,91.13L786.79,91.13L789.12,91.13L791.45,91.13L793.78,91.13L796.11,91.13L798.43,91.13L800.76,91.13L803.09,91.13L805.42,91.13L807.75,91.13L810.07,91.13L812.4,91.13L814.73,91.13L817.06,91.13L819.39,91.13L821.72,91.13L824.04,91.13L826.37,91.13L828.7,91.13L831.03,91.13L833.36,91.13L835.68,91.13L838.01,91.13L840.34,91.13L842.67,91.13L845,91.13L847.33,91.13L849.65,91.13L851.98,91.13L854.31,91.13L856.64,91.13L858.97,91.13L861.29,91.13L863.62,91.13L865.95,91.13L868.28,91.13L870.61,91.13L872.94,91.13L875.26,91.13L877.59,91.13L879.92,91.13L882.25,91.13L884.58,91.13L886.9,91.13L889.23,91.13L891.56,91.13L893.89,91.13L896.22,91.13L898.55,91.13L900.87,91.13L903.2,91.13L905.53,91.13L907.86,91.13L910.19,91.13L912.51,91.13L914.84,91.13L917.17,91.13L919.5,91.13L921.83,91.13L924.16,91.13L926.48,91.13L928.81,91.13L931.14,91.13L933.47,91.13L935.8,200.17L938.12,91.13L940.45,91.13L942.78,91.13L945.11,91.13L947.44,91.13L949.77,91.13L952.09,91.13L954.42,91.13L956.75,91.13L959.08,91.13L961.41,91.13L963.73,91.13L966.06,91.13L968.39,91.13L970.72,91.13L973.05,91.13L975.38,91.13" style="fill:none;stroke:#800080" />
<path d="M46.435,91.13L48.763,91.13L51.091,91.13L53.419,91.13L55.747,91.13L58.075,91.13L60.404,91.13L62.732,91.13L65.06,91.13L67.388,91.13L69.716,91.13L72.044,91.13L74.373,91.13L76.701,91.13L79.029,91.13L81.357,91.13L83.685,91.13L86.013,91.13L88.342,91.13L90.67,93.556L92.998,95.435L95.326,96.88L97.654,97.978L99.983,98.8L102.31,99.404L104.64,99.832L106.97,100.12L109.3,100.31L111.62,100.4L113.95,100.43L116.28,100.41L118.61,100.34L120.94,100.24L123.26,100.12L125.59,99.984L127.92,99.83L130.25,99.668L132.58,99.498L134.91,99.324L137.23,99.147L139.56,98.969L141.89,101.09L144.22,102.69L146.55,103.88L148.87,110.43L151.2,115.44L153.53,119.23L155.86,122.05L158.19,124.09L160.51,125.52L162.84,126.46L165.17,127.01L167.5,127.27L169.83,127.29L172.16,133.43L174.48,138.01L176.81,141.35L179.14,143.7L181.47,145.27L183.8,146.23L186.12,146.7L188.45,146.79L190.78,146.58L193.11,154.7L195.44,160.72L197.77,165.06L200.09,168.08L202.42,170.05L204.75,171.19L207.08,171.68L209.41,171.66L211.73,171.24L214.06,170.52L216.39,169.55L218.72,168.41L221.05,175.42L223.38,180.46L225.7,183.95L228.03,186.21L230.36,187.49L232.69,188.01L235.02,187.94L237.34,187.39L239.67,186.48L242,195.32L244.33,201.69L246.66,206.1L248.99,208.97L251.31,223.78L253.64,234.66L255.97,242.43L258.3,247.73L260.63,251.09L262.95,252.91L265.28,253.52L267.61,253.18L269.94,252.1L272.27,250.46L274.6,248.38L276.92,245.98L279.25,243.33L281.58,240.5L283.91,247.51L286.24,252.19L288.56,255.04L290.89,271.93L293.22,284.2L295.55,292.81L297.88,298.51L300.21,301.92L302.53,303.53L304.86,303.72L307.19,302.81L309.52,301.03L311.85,298.6L314.17,295.67L316.5,292.36L318.83,288.77L321.16,284.98L323.49,281.06L325.82,277.05L328.14,283.78L330.47,288.07L332.8,290.43L335.13,291.28L337.46,290.93L339.78,289.67L342.11,287.69L344.44,285.16L346.77,282.22L349.1,278.97L351.43,275.49L353.75,271.86L356.08,279.34L358.41,284.24L360.74,287.09L363.07,288.33L365.39,288.32L367.72,287.32L370.05,285.56L372.38,295.69L374.71,302.57L377.03,306.87L379.36,309.16L381.69,309.84L384.02,309.29L386.35,307.76L388.68,305.49L391,302.65L393.33,312.92L395.66,319.83L397.99,324.08L400.32,326.22L402.64,326.72L404.97,325.93L407.3,324.14L409.63,321.58L411.96,318.43L414.29,314.84L416.61,310.91L418.94,306.76L421.27,302.44L423.6,298.01L425.93,293.52L428.25,289.01L430.58,284.5L432.91,280.02L435.24,275.57L437.57,271.19L439.9,266.87L442.22,262.62L444.55,258.44L446.88,254.35L449.21,250.35L451.54,246.42L453.86,242.59L456.19,238.84L458.52,235.18L460.85,231.6L463.18,228.11L465.51,224.7L467.83,221.37L470.16,218.13L472.49,214.96L474.82,211.87L477.15,208.86L479.47,205.92L481.8,207.19L484.13,207.6L486.46,207.33L488.79,206.55L491.12,205.36L493.44,203.86L495.77,202.12L498.1,200.22L500.43,205.04L502.76,208.23L505.08,210.14L507.41,211.03L509.74,211.12L512.07,210.6L514.4,209.59L516.73,208.21L519.05,206.55L521.38,204.68L523.71,202.65L526.04,200.51L528.37,198.3L530.69,196.03L533.02,193.74L535.35,191.44L537.68,189.15L540.01,186.87L542.34,184.61L544.66,182.38L546.99,180.19L549.32,178.03L551.65,175.91L553.98,173.84L556.3,171.81L558.63,169.82L560.96,167.87L563.29,165.97L565.62,164.12L567.94,162.3L570.27,160.53L572.6,158.81L574.93,157.12L577.26,155.47L579.59,153.87L581.91,152.3L584.24,150.78L586.57,149.29L588.9,147.84L591.23,146.42L593.55,145.04L595.88,143.69L598.21,142.38L600.54,141.1L602.87,139.85L605.2,138.63L607.52,137.44L609.85,136.29L612.18,135.16L614.51,134.06L616.84,132.98L619.16,131.94L621.49,130.92L623.82,91.13L626.15,91.13L628.48,91.13L630.81,91.13L633.13,91.13L635.46,91.13L637.79,91.13L640.12,91.13L642.45,91.13L644.77,91.13L647.1,91.13L649.43,91.13L651.76,91.13L654.09,91.13L656.42,91.13L658.74,91.13L661.07,91.13L663.4,91.13L665.73,91.13L668.06,91.13L670.38,91.13L672.71,91.13L675.04,91.13L677.37,91.13L679.7,91.13L682.03,91.13L684.35,91.13L686.68,91.13L689.01,91.13L691.34,91.752L693.67,92.234L695.99,92.604L698.32,92.886L700.65,93.096L702.98,93.251L705.31,93.361L707.64,93.436L709.96,93.482L712.29,93.507L714.62,93.514L716.95,93.508L719.28,93.491L721.6,93.467L723.93,93.435L726.26,93.4L728.59,93.36L730.92,95.64L733.25,97.396L735.57,98.734L737.9,99.74L740.23,100.48L742.56,101.01L744.89,101.38L747.21,101.61L749.54,101.74L751.87,101.79L754.2,101.77L756.53,101.71L758.86,101.6L761.18,101.47L763.51,101.32L765.84,101.14L768.17,100.96L770.5,100.77L772.82,100.57L775.15,100.36L777.48,100.16L779.81,99.956L782.14,99.753L784.46,99.551L786.79,99.351L789.12,99.155L791.45,98.961L793.78,98.771L796.11,98.584L798.43,98.402L800.76,98.223L803.09,98.048L805.42,97.877L807.75,97.71L810.07,97.546L812.4,97.387L814.73,97.231L817.06,97.079L819.39,96.931L821.72,96.786L824.04,96.645L826.37,96.508L828.7,96.373L831.03,96.242L833.36,96.115L835.68,95.99L838.01,95.869L840.34,95.75L842.67,95.635L845,95.522L847.33,95.413L849.65,95.306L851.98,95.201L854.31,95.099L856.64,95L858.97,94.904L861.29,94.809L863.62,94.717L865.95,94.628L868.28,94.54L870.61,94.455L872.94,94.372L875.26,94.291L877.59,94.212L879.92,94.135L882.25,94.06L884.58,93.986L886.9,93.915L889.23,93.845L891.56,93.777L893.89,93.711L896.22,93.647L898.55,93.584L900.87,93.522L903.2,93.463L905.53,93.404L907.86,93.348L910.19,93.292L912.51,93.238L914.84,93.185L917.17,93.134L919.5,93.084L921.83,93.035L924.16,92.987L926.48,92.941L928.81,92.896L931.14,92.852L933.47,92.809L935.8,93.111L938.12,93.338L940.45,93.503L942.78,93.621L945.11,93.7L947.44,93.749L949.77,93.773L952.09,93.78L954.42,93.771L956.75,93.752L959.08,93.723L961.41,96.034L963.73,97.812L966.06,99.166L968.39,100.18L970.72,100.93L973.05,101.46L975.38,101.83" style="fill:none;stroke:#FF0000" />
<path d="M46.435,91.13L48.763,91.13L51.091,91.13L53.419,91.13L55.747,91.13L58.075,91.13L60.404,91.13L62.732,91.13L65.06,91.13L67.388,91.13L69.716,91.13L72.044,91.13L74.373,91.13L76.701,91.13L79.029,91.13L81.357,91.13L83.685,91.13L86.013,91.13L88.342,91.13L90.67,91.191L92.998,91.297L95.326,91.437L97.654,91.6L99.983,91.78L102.31,91.971L104.64,92.167L106.97,92.366L109.3,92.565L111.62,92.761L113.95,92.952L116.28,93.139L118.61,93.319L120.94,93.492L123.26,93.658L125.59,93.816L127.92,93.966L130.25,94.109L132.58,94.243L134.91,94.37L137.23,94.49L139.56,94.602L141.89,94.764L144.22,94.962L146.55,95.185L148.87,95.566L151.2,96.063L153.53,96.642L155.86,97.277L158.19,97.948L160.51,98.637L162.84,99.332L165.17,100.02L167.5,100.71L169.83,101.37L172.16,102.17L174.48,103.07L176.81,104.02L179.14,105.02L181.47,106.02L183.8,107.03L186.12,108.02L188.45,108.99L190.78,109.93L193.11,111.05L195.44,112.29L197.77,113.61L200.09,114.97L202.42,116.35L204.75,117.72L207.08,119.07L209.41,120.38L211.73,121.65L214.06,122.88L216.39,124.04L218.72,125.15L221.05,126.41L223.38,127.76L225.7,129.16L228.03,130.59L230.36,132.01L232.69,133.41L235.02,134.78L237.34,136.09L239.67,137.35L242,138.8L244.33,140.37L246.66,142.02L248.99,143.69L251.31,145.69L253.64,147.92L255.97,150.28L258.3,152.72L260.63,155.17L262.95,157.62L265.28,160.02L267.61,162.34L269.94,164.59L272.27,166.74L274.6,168.78L276.92,170.71L279.25,172.52L281.58,174.22L283.91,176.05L286.24,177.96L288.56,179.88L290.89,182.19L293.22,184.74L295.55,187.44L297.88,190.21L300.21,193.01L302.53,195.77L304.86,198.47L307.19,201.08L309.52,203.58L311.85,205.95L314.17,208.19L316.5,210.3L318.83,212.26L321.16,214.08L323.49,215.75L325.82,217.29L328.14,218.95L330.47,220.68L332.8,222.42L335.13,224.14L337.46,225.81L339.78,227.41L342.11,228.91L344.44,230.32L346.77,231.62L349.1,232.8L351.43,233.87L353.75,234.82L356.08,235.93L358.41,237.14L360.74,238.39L363.07,239.64L365.39,240.85L367.72,242.02L370.05,243.1L372.38,244.42L374.71,245.87L377.03,247.4L379.36,248.94L381.69,250.46L384.02,251.93L386.35,253.33L388.68,254.63L391,255.84L393.33,257.26L395.66,258.83L397.99,260.46L400.32,262.1L402.64,263.72L404.97,265.27L407.3,266.74L409.63,268.12L411.96,269.37L414.29,270.51L416.61,271.52L418.94,272.4L421.27,273.15L423.6,273.77L425.93,274.27L428.25,274.64L430.58,274.88L432.91,275.01L435.24,275.02L437.57,274.93L439.9,274.73L442.22,274.42L444.55,274.02L446.88,273.53L449.21,272.95L451.54,272.29L453.86,271.55L456.19,270.73L458.52,269.84L460.85,268.88L463.18,267.87L465.51,266.79L467.83,265.65L470.16,264.46L472.49,263.22L474.82,261.94L477.15,260.61L479.47,259.25L481.8,257.94L484.13,256.69L486.46,255.45L488.79,254.23L491.12,253.01L493.44,251.78L495.77,250.54L498.1,249.28L500.43,248.17L502.76,247.18L505.08,246.25L507.41,245.37L509.74,244.51L512.07,243.66L514.4,242.81L516.73,241.95L519.05,241.06L521.38,240.15L523.71,239.22L526.04,238.25L528.37,237.25L530.69,236.22L533.02,235.16L535.35,234.06L537.68,232.94L540.01,231.79L542.34,230.61L544.66,229.4L546.99,228.17L549.32,226.92L551.65,225.64L553.98,224.35L556.3,223.04L558.63,221.71L560.96,220.36L563.29,219L565.62,217.63L567.94,216.24L570.27,214.85L572.6,213.45L574.93,212.04L577.26,210.63L579.59,209.21L581.91,207.79L584.24,206.36L586.57,204.93L588.9,203.51L591.23,202.08L593.55,200.65L595.88,199.23L598.21,197.81L600.54,196.39L602.87,194.98L605.2,193.57L607.52,192.17L609.85,190.77L612.18,189.38L614.51,188L616.84,186.62L619.16,185.25L621.49,183.89L623.82,91.13L626.15,91.13L628.48,91.13L630.81,91.13L633.13,91.13L635.46,91.13L637.79,91.13L640.12,91.13L642.45,91.13L644.77,91.13L647.1,91.13L649.43,91.13L651.76,91.13L654.09,91.13L656.42,91.13L658.74,91.13L661.07,91.13L663.4,91.13L665.73,91.13L668.06,91.13L670.38,91.13L672.71,91.13L675.04,91.13L677.37,91.13L679.7,91.13L682.03,91.13L684.35,91.13L686.68,91.13L689.01,91.13L691.34,91.146L693.67,91.173L695.99,91.209L698.32,91.251L700.65,91.297L702.98,91.346L705.31,91.396L707.64,91.447L709.96,91.498L712.29,91.548L714.62,91.597L716.95,91.645L719.28,91.691L721.6,91.736L723.93,91.778L726.26,91.819L728.59,91.857L730.92,91.952L733.25,92.088L735.57,92.254L737.9,92.441L740.23,92.642L742.56,92.851L744.89,93.065L747.21,93.278L749.54,93.49L751.87,93.697L754.2,93.899L756.53,94.095L758.86,94.282L761.18,94.462L763.51,94.633L765.84,94.796L768.17,94.95L770.5,95.095L772.82,95.232L775.15,95.361L777.48,95.481L779.81,95.592L782.14,95.696L784.46,95.793L786.79,95.882L789.12,95.964L791.45,96.039L793.78,96.107L796.11,96.169L798.43,96.225L800.76,96.275L803.09,96.319L805.42,96.358L807.75,96.392L810.07,96.421L812.4,96.445L814.73,96.464L817.06,96.48L819.39,96.491L821.72,96.498L824.04,96.502L826.37,96.502L828.7,96.499L831.03,96.493L833.36,96.483L835.68,96.471L838.01,96.456L840.34,96.438L842.67,96.418L845,96.396L847.33,96.371L849.65,96.344L851.98,96.316L854.31,96.285L856.64,96.253L858.97,96.22L861.29,96.184L863.62,96.148L865.95,96.11L868.28,96.07L870.61,96.03L872.94,95.989L875.26,95.946L877.59,95.903L879.92,95.859L882.25,95.814L884.58,95.768L886.9,95.722L889.23,95.675L891.56,95.627L893.89,95.579L896.22,95.531L898.55,95.482L900.87,95.433L903.2,95.384L905.53,95.335L907.86,95.285L910.19,95.235L912.51,95.185L914.84,95.135L917.17,95.085L919.5,95.035L921.83,94.985L924.16,94.935L926.48,94.885L928.81,94.836L931.14,94.786L933.47,94.737L935.8,94.696L938.12,94.662L940.45,94.633L942.78,94.608L945.11,94.585L947.44,94.564L949.77,94.544L952.09,94.525L954.42,94.506L956.75,94.487L959.08,94.468L961.41,94.508L963.73,94.59L966.06,94.705L968.39,94.841L970.72,94.994L973.05,95.155L975.38,95.322" style="fill:none;stroke:#0000FF" />
<path d="M46.435,91.13L48.763,91.13L51.091,91.13L53.419,91.13L55.747,91.13L58.075,91.13L60.404,91.13L62.732,91.13L65.06,91.13L67.388,91.13L69.716,91.13L72.044,91.13L74.373,91.13L76.701,91.13L79.029,91.13L81.357,91.13L83.685,91.13L86.013,91.13L88.342,91.13L90.67,91.191L92.998,91.297L95.326,91.437L97.654,91.6L99.983,91.78L102.31,91.971L104.64,92.167L106.97,92.366L109.3,92.565L111.62,92.761L113.95,92.952L116.28,93.139L118.61,93.319L120.94,93.492L123.26,93.658L125.59,93.816L127.92,93.966L130.25,94.109L132.58,94.243L134.91,94.37L137.23,94.49L139.56,94.602L141.89,94.764L144.22,94.962L146.55,95.185L148.87,95.566L151.2,96.063L153.53,96.642L155.86,97.277L158.19,97.948L160.51,98.637L162.84,99.332L165.17,100.02L167.5,100.71L169.83,101.37L172.16,102.17L174.48,103.07L176.81,104.02L179.14,105.02L181.47,106.02L183.8,107.03L186.12,108.02L188.45,108.99L190.78,109.93L193.11,111.05L195.44,112.29L197.77,113.61L200.09,114.97L202.42,116.35L204.75,117.72L207.08,119.07L209.41,120.38L211.73,121.65L214.06,122.88L216.39,124.04L218.72,125.15L221.05,126.41L223.38,127.76L225.7,129.16L228.03,130.59L230.36,132.01L232.69,133.41L235.02,134.78L237.34,136.09L239.67,137.35L242,138.8L244.33,140.37L246.66,142.02L248.99,143.69L251.31,145.69L253.64,147.92L255.97,150.28L258.3,152.72L260.63,155.17L262.95,157.62L265.28,160.02L267.61,162.34L269.94,164.59L272.27,166.74L274.6,168.78L276.92,170.71L279.25,172.52L281.58,174.22L283.91,176.05L286.24,177.96L288.56,179.88L290.89,182.19L293.22,184.74L295.55,187.44L297.88,190.21L300.21,193.01L302.53,195.77L304.86,198.47L307.19,201.08L309.52,203.58L311.85,205.95L314.17,208.19L316.5,210.3L318.83,212.26L321.16,214.08L323.49,215.75L325.82,217.29L328.14,218.95L330.47,220.68L332.8,222.42L335.13,224.14L337.46,225.81L339.78,227.41L342.11,228.91L344.44,230.32L346.77,231.62L349.1,232.8L351.43,233.87L353.75,234.82L356.08,235.93L358.41,237.14L360.74,238.39L363.07,239.64L365.39,240.85L367.72,242.02L370.05,243.1L372.38,244.42L374.71,245.87L377.03,247.4L379.36,248.94L381.69,250.46L384.02,251.93L386.35,253.33L388.68,254.63L391,255.84L393.33,257.26L395.66,258.83L397.99,260.46L400.32,262.1L402.64,263.72L404.97,265.27L407.3,266.74L409.63,268.12L411.96,269.37L414.29,270.51L416.61,271.52L418.94,272.4L421.27,273.15L423.6,273.77L425.93,274.27L428.25,274.64L430.58,274.88L432.91,275.01L435.24,275.02L437.57,275.02L439.9,275.02L442.22,275.02L444.55,275.02L446.88,275.02L449.21,275.02L451.54,275.02L453.86,275.02L456.19,275.02L458.52,275.02L460.85,275.02L463.18,275.02L465.51,275.02L467.83,275.02L470.16,275.02L472.49,275.02L474.82,275.02L477.15,275.02L479.47,275.02L481.8,275.02L484.13,275.02L486.46,275.02L488.79,275.02L491.12,275.02L493.44,275.02L495.77,275.02L498.1,275.02L500.43,275.02L502.76,275.02L505.08,275.02L507.41,275.02L509.74,275.02L512.07,275.02L514.4,275.02L516.73,275.02L519.05,275.02L521.38,275.02L523.71,275.02L526.04,275.02L528.37,275.02L530.69,275.02L533.02,275.02L535.35,275.02L537.68,275.02L540.01,275.02L542.34,275.02L544.66,275.02L546.99,275.02L549.32,275.02L551.65,275.02L553.98,275.02L556.3,275.02L558.63,275.02L560.96,275.02L563.29,275.02L565.62,275.02L567.94,275.02L570.27,275.02L572.6,275.02L574.93,275.02L577.26,275.02L579.59,275.02L581.91,275.02L584.24,275.02L586.57,275.02L588.9,275.02L591.23,275.02L593.55,275.02L595.88,275.02L598.21,275.02L600.54,275.02L602.87,275.02L605.2,275.02L607.52,275.02L609.85,275.02L612.18,275.02L614.51,275.02L616.84,275.02L619.16,275.02L621.49,275.02L623.82,91.13L626.15,91.13L628.48,91.13L630.81,91.13L633.13,91.13L635.46,91.13L637.79,91.13L640.12,91.13L642.45,91.13L644.77,91.13L647.1,91.13L649.43,91.13L651.76,91.13L654.09,91.13L656.42,91.13L658.74,91.13L661.07,91.13L663.4,91.13L665.73,91.13L668.06,91.13L670.38,91.13L672.71,91.13L675.04,91.13L677.37,91.13L679.7,91.13L682.03,91.13L684.35,91.13L686.68,91.13L689.01,91.13L691.34,91.146L693.67,91.173L695.99,91.209L698.32,91.251L700.65,91.297L702.98,91.346L705.31,91.396L707.64,91.447L709.96,91.498L712.29,91.548L714.62,91.597L716.95,91.645L719.28,91.691L721.6,91.736L723.93,91.778L726.26,91.819L728.59,91.857L730.92,91.952L733.25,92.088L735.57,92.254L737.9,92.441L740.23,92.642L742.56,92.851L744.89,93.065L747.21,93.278L749.54,93.49L751.87,93.697L754.2,93.899L756.53,94.095L758.86,94.282L761.18,94.462L763.51,94.633L765.84,94.796L768.17,94.95L770.5,95.095L772.82,95.232L775.15,95.361L777.48,95.481L779.81,95.592L782.14,95.696L784.46,95.793L786.79,95.882L789.12,95.964L791.45,96.039L793.78,96.107L796.11,96.169L798.43,96.225L800.76,96.275L803.09,96.319L805.42,96.358L807.75,96.392L810.07,96.421L812.4,96.445L814.73,96.464L817.06,96.48L819.39,96.491L821.72,96.498L824.04,96.502L826.37,96.502L828.7,96.502L831.03,96.502L833.36,96.502L835.68,96.502L838.01,96.502L840.34,96.502L842.67,96.502L845,96.502L847.33,96.502L849.65,96.502L851.98,96.502L854.31,96.502L856.64,96.502L858.97,96.502L861.29,96.502L863.62,96.502L865.95,96.502L868.28,96.502L870.61,96.502L872.94,96.502L875.26,96.502L877.59,96.502L879.92,96.502L882.25,96.502L884.58,96.502L886.9,96.502L889.23,96.502L891.56,96.502L893.89,96.502L896.22,96.502L898.55,96.502L900.87,96.502L903.2,96.502L905.53,96.502L907.86,96.502L910.19,96.502L912.51,96.502L914.84,96.502L917.17,96.502L919.5,96.502L921.83,96.502L924.16,96.502L926.48,96.502L928.81,96.502L931.14,96.502L933.47,96.502L935.8,96.502L938.12,96.502L940.45,96.502L942.78,96.502L945.11,96.502L947.44,96.502L949.77,96.502L952.09,96.502L954.42,96.502L956.75,96.502L959.08,96.502L961.41,96.502L963.73,96.502L966.06,96.502L968.39,96.502L970.72,96.502L973.05,96.502L975.38,96.502" style="fill:none;stroke:#228B22" />
<path d="M46.435,91.13L48.763,91.13L51.091,91.13L53.419,91.13L55.747,91.13L58.075,91.13L60.404,91.13L62.732,91.13L65.06,91.13L67.388,91.13L69.716,91.13L72.044,91.13L74.373,91.13L76.701,91.13L79.029,91.13L81.357,91.13L83.685,91.13L86.013,91.13L88.342,91.13L90.67,69.301L92.998,69.301L95.326,69.301L97.654,69.301L99.983,69.301L102.31,69.301L104.64,69.301L106.97,45.605L109.3,45.605L111.62,45.605L113.95,45.912L116.28,45.912L118.61,45.912L120.94,45.912L123.26,45.912L125.59,45.912L127.92,45.912L130.25,45.912L132.58,45.912L134.91,45.912L137.23,45.912L139.56,45.912L141.89,46.568L144.22,46.568L146.55,46.568L148.87,55.912L151.2,55.912L153.53,55.912L155.86,55.912L158.19,55.912L160.51,55.912L162.84,55.912L165.17,72.496L167.5,72.496L169.83,72.496L172.16,78.913L174.48,78.913L176.81,78.913L179.14,78.913L181.47,78.913L183.8,78.913L186.12,78.913L188.45,78.913L190.78,78.913L193.11,100.18L195.44,106.2L197.77,106.2L200.09,106.2L202.42,106.2L204.75,106.2L207.08,106.2L209.41,106.2L211.73,106.2L214.06,106.2L216.39,115.03L218.72,115.03L221.05,120.9L223.38,120.9L225.7,120.9L228.03,120.9L230.36,120.9L232.69,120.9L235.02,120.9L237.34,120.9L239.67,120.9L242,140.8L244.33,147.17L246.66,147.17L248.99,147.17L251.31,169.21L253.64,169.21L255.97,169.21L258.3,169.21L260.63,169.21L262.95,169.21L265.28,184.63L267.61,184.63L269.94,184.63L272.27,184.63L274.6,170.74L276.92,170.74L279.25,170.74L281.58,170.74L283.91,162.58L286.24,162.58L288.56,162.58L290.89,180.88L293.22,180.88L295.55,180.88L297.88,180.88L300.21,180.88L302.53,180.88L304.86,180.88L307.19,192.86L309.52,192.86L311.85,192.86L314.17,178.61L316.5,178.61L318.83,178.61L321.16,178.61L323.49,178.61L325.82,178.61L328.14,155.96L330.47,155.96L332.8,155.96L335.13,155.96L337.46,155.96L339.78,155.96L342.11,155.96L344.44,155.96L346.77,155.96L349.1,155.96L351.43,132.76L353.75,132.76L356.08,134.54L358.41,134.54L360.74,134.54L363.07,134.54L365.39,134.54L367.72,134.54L370.05,134.54L372.38,142.4L374.71,142.4L377.03,142.4L379.36,151.34L381.69,151.34L384.02,151.34L386.35,151.34L388.68,151.34L391,151.34L393.33,146.79L395.66,152.13L397.99,152.13L400.32,152.13L402.64,152.13L404.97,152.13L407.3,152.13L409.63,152.13L411.96,152.13L414.29,152.13L416.61,130.52L418.94,130.52L421.27,130.52L423.6,130.52L425.93,130.52L428.25,130.52L430.58,130.52L432.91,130.52L435.24,130.52L437.57,130.52L439.9,130.52L442.22,130.52L444.55,130.52L446.88,130.52L449.21,130.52L451.54,130.52L453.86,130.52L456.19,130.52L458.52,130.52L460.85,130.52L463.18,130.52L465.51,130.52L467.83,130.52L470.16,130.52L472.49,130.52L474.82,130.52L477.15,130.52L479.47,130.52L481.8,40.371L484.13,40.371L486.46,40.371L488.79,40.371L491.12,40.371L493.44,40.371L495.77,40.371L498.1,40.371L500.43,47.997L502.76,47.997L505.08,55.018L507.41,55.018L509.74,55.018L512.07,55.018L514.4,55.018L516.73,55.018L519.05,55.018L521.38,55.018L523.71,54.565L526.04,54.565L528.37,54.565L530.69,54.565L533.02,54.565L535.35,54.565L537.68,54.565L540.01,54.565L542.34,54.565L544.66,54.565L546.99,54.565L549.32,54.565L551.65,54.565L553.98,54.565L556.3,54.565L558.63,54.565L560.96,54.565L563.29,54.565L565.62,54.565L567.94,54.565L570.27,54.565L572.6,54.565L574.93,54.565L577.26,54.565L579.59,54.565L581.91,54.565L584.24,54.565L586.57,54.565L588.9,54.565L591.23,54.565L593.55,54.565L595.88,54.565L598.21,54.565L600.54,54.565L602.87,54.565L605.2,54.565L607.52,54.565L609.85,54.565L612.18,54.565L614.51,54.565L616.84,54.565L619.16,54.565L621.49,54.565L623.82,91.13L626.15,91.13L628.48,91.13L630.81,91.13L633.13,91.13L635.46,91.13L637.79,91.13L640.12,91.13L642.45,91.13L644.77,91.13L647.1,91.13L649.43,91.13L651.76,91.13L654.09,91.13L656.42,91.13L658.74,91.13L661.07,91.13L663.4,91.13L665.73,91.13L668.06,91.13L670.38,91.13L672.71,91.13L675.04,91.13L677.37,91.13L679.7,91.13L682.03,91.13L684.35,91.13L686.68,91.13L689.01,91.13L691.34,85.534L693.67,85.534L695.99,85.534L698.32,85.534L700.65,85.534L702.98,85.534L705.31,85.534L707.64,85.534L709.96,85.534L712.29,85.534L714.62,69.673L716.95,69.673L719.28,69.673L721.6,69.673L723.93,69.673L726.26,69.673L728.59,69.673L730.92,50.539L733.25,50.539L735.57,50.539L737.9,50.539L740.23,50.539L742.56,50.539L744.89,50.539L747.21,50.539L749.54,50.539L751.87,50.539L754.2,47.256L756.53,47.256L758.86,47.256L761.18,47.256L763.51,47.256L765.84,47.256L768.17,47.256L770.5,47.256L772.82,47.256L775.15,47.256L777.48,47.256L779.81,47.256L782.14,47.256L784.46,47.256L786.79,47.256L789.12,47.256L791.45,47.256L793.78,47.256L796.11,47.256L798.43,47.256L800.76,47.256L803.09,47.256L805.42,47.256L807.75,47.256L810.07,47.256L812.4,47.256L814.73,47.256L817.06,47.256L819.39,47.256L821.72,47.256L824.04,47.256L826.37,47.256L828.7,47.256L831.03,47.256L833.36,47.256L835.68,47.256L838.01,47.256L840.34,47.256L842.67,47.256L845,47.256L847.33,47.256L849.65,47.256L851.98,47.256L854.31,47.256L856.64,47.256L858.97,47.256L861.29,47.256L863.62,47.256L865.95,47.256L868.28,47.256L870.61,47.256L872.94,47.256L875.26,47.256L877.59,47.256L879.92,47.256L882.25,47.256L884.58,47.256L886.9,47.256L889.23,47.256L891.56,47.256L893.89,47.256L896.22,47.256L898.55,47.256L900.87,47.256L903.2,47.256L905.53,47.256L907.86,47.256L910.19,47.256L912.51,47.256L914.84,47.256L917.17,47.256L919.5,47.256L921.83,47.256L924.16,47.256L926.48,47.256L928.81,47.256L931.14,47.256L933.47,47.256L935.8,73.298L938.12,73.298L940.45,73.298L942.78,73.298L945.11,73.298L947.44,73.298L949.77,73.298L952.09,73.298L954.42,73.298L956.75,73.298L959.08,67.794L961.41,46.994L963.73,46.994L966.06,46.994L968.39,46.994L970.72,46.994L973.05,46.994L975.38,46.994" style="fill:none;stroke:#800080" />
<path d="M46.435,91.13L48.763,91.13L51.091,91.13L53.419,91.13L55.747,91.13L58.075,91.13L60.404,91.13L62.732,91.13L65.06,91.13L67.388,91.13L69.716,91.13L72.044,91.13L74.373,91.13L76.701,91.13L79.029,91.13L81.357,91.13L83.685,91.13L86.013,91.13L88.342,91.13L90.67,91.13L92.998,91.13L95.326,91.13L97.654,91.13L99.983,91.13L102.31,91.13L104.64,91.13L106.97,91.13L109.3,91.13L111.62,91.13L113.95,91.13L116.28,91.13L118.61,91.13L120.94,91.13L123.26,91.13L125.59,91.13L127.92,91.13L130.25,91.13L132.58,91.13L134.91,91.13L137.23,91.13L139.56,91.13L141.89,91.13L144.22,91.13L146.55,91.13L148.87,91.13L151.2,91.13L153.53,91.13L155.86,91.13L158.19,91.13L160.51,91.13L162.84,91.13L165.17,91.13L167.5,91.13L169.83,91.13L172.16,91.13L174.48,91.13L176.81,91.13L179.14,91.13L181.47,91.13L183.8,91.13L186.12,91.13L188.45,91.13L190.78,91.13L193.11,91.13L195.44,91.13L197.77,91.13L200.09,91.13L202.42,91.13L204.75,91.13L207.08,91.13L209.41,91.13L211.73,91.13L214.06,91.13L216.39,91.13L218.72,91.13L221.05,91.13L223.38,91.13L225.7,91.13L228.03,91.13L230.36,91.13L232.69,91.13L235.02,91.13L237.34,91.13L239.67,91.13L242,91.13L244.33,91.13L246.66,91.13L248.99,91.13L251.31,91.13L253.64,91.13L255.97,91.13L258.3,91.13L260.63,91.13L262.95,91.13L265.28,91.13L267.61,91.13L269.94,91.13L272.27,91.13L274.6,91.13L276.92,91.13L279.25,91.13L281.58,91.13L283.91,91.13L286.24,91.13L288.56,91.13L290.89,91.13L293.22,91.13L295.55,91.13L297.88,91.13L300.21,91.13L302.53,91.13L304.86,91.13L307.19,91.13L309.52,91.13L311.85,91.13L314.17,91.13L316.5,91.13L318.83,91.13L321.16,91.13L323.49,91.13L325.82,91.13L328.14,91.13L330.47,91.13L332.8,91.13L335.13,91.13L337.46,91.13L339.78,91.13L342.11,91.13L344.44,91.13L346.77,91.13L349.1,91.13L351.43,91.13L353.75,91.13L356.08,91.13L358.41,91.13L360.74,91.13L363.07,91.13L365.39,91.13L367.72,91.13L370.05,91.13L372.38,91.13L374.71,91.13L377.03,91.13L379.36,91.13L381.69,91.13L384.02,91.13L386.35,91.13L388.68,91.13L391,91.13L393.33,91.13L395.66,91.13L397.99,91.13L400.32,91.13L402.64,91.13L404.97,91.13L407.3,91.13L409.63,91.13L411.96,91.13L414.29,91.13L416.61,91.13L418.94,91.13L421.27,91.13L423.6,91.13L425.93,91.13L428.25,91.13L430.58,91.13L432.91,91.13L435.24,91.13L437.57,91.13L439.9,91.13L442.22,91.13L444.55,91.13L446.88,91.13L449.21,91.13L451.54,91.13L453.86,91.13L456.19,91.13L458.52,91.13L460.85,91.13L463.18,91.13L465.51,91.13L467.83,91.13L470.16,91.13L472.49,91.13L474.82,91.13L477.15,91.13L479.47,91.13L481.8,91.13L484.13,91.13L486.46,91.13L488.79,91.13L491.12,91.13L493.44,91.13L495.77,91.13L498.1,91.13L500.43,91.13L502.76,91.13L505.08,91.13L507.41,91.13L509.74,91.13L512.07,91.13L514.4,91.13L516.73,91.13L519.05,91.13L521.38,91.13L523.71,91.13L526.04,91.13L528.37,91.13L530.69,91.13L533.02,91.13L535.35,91.13L537.68,91.13L540.01,91.13L542.34,91.13L544.66,91.13L546.99,91.13L549.32,91.13L551.65,91.13L553.98,91.13L556.3,91.13L558.63,91.13L560.96,91.13L563.29,91.13L565.62,91.13L567.94,91.13L570.27,91.13L572.6,91.13L574.93,91.13L577.26,91.13L579.59,91.13L581.91,91.13L584.24,91.13L586.57,91.13L588.9,91.13L591.23,91.13L593.55,91.13L595.88,91.13L598.21,91.13L600.54,91.13L602.87,91.13L605.2,91.13L607.52,91.13L609.85,91.13L612.18,91.13L614.51,91.13L616.84,91.13L619.16,91.13L621.49,91.13L623.82,72.848L626.15,72.848L628.48,72.848L630.81,72.848L633.13,72.848L635.46,72.848L637.79,72.848L640.12,72.848L642.45,72.848L644.77,72.848L647.1,72.848L649.43,72.848L651.76,72.848L654.09,72.848L656.42,72.848L658.74,72.848L661.07,72.848L663.4,72.848L665.73,72.848L668.06,72.848L670.38,72.848L672.71,72.848L675.04,72.848L677.37,72.848L679.7,72.848L682.03,72.848L684.35,72.848L686.68,72.848L689.01,72.848L691.34,72.848L693.67,72.848L695.99,72.848L698.32,72.848L700.65,72.848L702.98,72.848L705.31,72.848L707.64,72.848L709.96,72.848L712.29,72.848L714.62,72.848L716.95,72.848L719.28,72.848L721.6,72.848L723.93,72.848L726.26,72.848L728.59,72.848L730.92,72.848L733.25,72.848L735.57,72.848L737.9,72.848L740.23,72.848L742.56,72.848L744.89,72.848L747.21,72.848L749.54,72.848L751.87,72.848L754.2,72.848L756.53,72.848L758.86,72.848L761.18,72.848L763.51,72.848L765.84,72.848L768.17,72.848L770.5,72.848L772.82,72.848L775.15,72.848L777.48,72.848L779.81,72.848L782.14,72.848L784.46,72.848L786.79,72.848L789.12,72.848L791.45,72.848L793.78,72.848L796.11,72.848L798.43,72.848L800.76,72.848L803.09,72.848L805.42,72.848L807.75,72.848L810.07,72.848L812.4,72.848L814.73,72.848L817.06,72.848L819.39,72.848L821.72,72.848L824.04,72.848L826.37,72.848L828.7,72.848L831.03,72.848L833.36,72.848L835.68,72.848L838.01,72.848L840.34,72.848L842.67,72.848L845,72.848L847.33,72.848L849.65,72.848L851.98,72.848L854.31,72.848L856.64,72.848L858.97,72.848L861.29,72.848L863.62,72.848L865.95,72.848L868.28,72.848L870.61,72.848L872.94,72.848L875.26,72.848L877.59,72.848L879.92,72.848L882.25,72.848L884.58,72.848L886.9,72.848L889.23,72.848L891.56,72.848L893.89,72.848L896.22,72.848L898.55,72.848L900.87,72.848L903.2,72.848L905.53,72.848L907.86,72.848L910.19,72.848L912.51,72.848L914.84,72.848L917.17,72.848L919.5,72.848L921.83,72.848L924.16,72.848L926.48,72.848L928.81,72.848L931.14,72.848L933.47,72.848L935.8,72.848L938.12,72.848L940.45,72.848L942.78,72.848L945.11,72.848L947.44,72.848L949.77,72.848L952.09,72.848L954.42,72.848L956.75,72.848L959.08,72.848L961.41,72.848L963.73,72.848L966.06,72.848L968.39,72.848L970.72,72.848L973.05,72.848L975.38,72.848" style="fill:none;stroke:#FFA500" />
<path d="M955.38,318.94L975.38,318.94" style="fill:none;stroke:#228B22" />
<text x="914.02" y="-316.11" transform="scale(1, -1)"
	style="font-family:Liberation Sans;font-variant:normal;font-weight:normal;font-style:normal;font-size:12px">SSpike</text>
<path d="M955.38,308.47L975.38,308.47" style="fill:none;stroke:#800080" />
<text x="913.36" y="-305.64" transform="scale(1, -1)"
	style="font-family:Liberation Sans;font-variant:normal;font-weight:normal;font-style:normal;font-size:12px">RSpike</text>
<path d="M955.38,298L975.38,298" style="fill:none;stroke:#FF0000" />
<text x="914.02" y="-295.17" transform="scale(1, -1)"
	style="font-family:Liberation Sans;font-variant:normal;font-weight:normal;font-style:normal;font-size:12px">X_CaP</text>
<path d="M955.38,287.53L975.38,287.53" style="fill:none;stroke:#0000FF" />
<text x="913.36" y="-284.7" transform="scale(1, -1)"
	style="font-family:Liberation Sans;font-variant:normal;font-weight:normal;font-style:normal;font-size:12px">X_CaD</text>
<path d="M955.38,277.06L975.38,277.06" style="fill:none;stroke:#228B22" />
<text x="890.69" y="-274.23" transform="scale(1, -1)"
	style="font-family:Liberation Sans;font-variant:normal;font-weight:normal;font-style:normal;font-size:12px">X_CaDMax</text>
<path d="M955.38,266.59L975.38,266.59" style="fill:none;stroke:#800080" />
<text x="906.71" y="-263.76" transform="scale(1, -1)"
	style="font-family:Liberation Sans;font-variant:normal;font-weight:normal;font-style:normal;font-size:12px">X_TDWt</text>
<path d="M955.38,256.12L975.38,256.12" style="fill:none;stroke:#FFA500" />
<text x="914.04" y="-253.29" transform="scale(1, -1)"
	style="font-family:Liberation Sans;font-variant:normal;font-weight:normal;font-style:normal;font-size:12px">X_DWt</text>
</g>
</svg>
