<?xml version="1.0"?>
<!-- Generated by SVGo and Plotinum VG -->
<svg width="503.25pt" height="463.88pt" viewBox="0 0 503.25 463.88"
	xmlns="http://www.w3.org/2000/svg"
	xmlns:xlink="http://www.w3.org/1999/xlink">
<g transform="scale(1, -1) translate(0, -463.88)">
<text x="170.24" y="-454.15" transform="scale(1, -1)"
	style="font-family:Liberation Sans;font-variant:normal;font-weight:normal;font-style:normal;font-size:12px">Object Recognition Epoch Plot</text>
<text x="257.83" y="-3.6797" transform="scale(1, -1)"
	style="font-family:Liberation Sans;font-variant:normal;font-weight:normal;font-style:normal;font-size:12px">Epoch</text>
<text x="43.654" y="-16.473" transform="scale(1, -1)"
	style="font-family:Liberation Sans;font-variant:normal;font-weight:normal;font-style:normal;font-size:10px">0</text>
<text x="247.47" y="-16.473" transform="scale(1, -1)"
	style="font-family:Liberation Sans;font-variant:normal;font-weight:normal;font-style:normal;font-size:10px">90</text>
<text x="451.29" y="-16.473" transform="scale(1, -1)"
	style="font-family:Liberation Sans;font-variant:normal;font-weight:normal;font-style:normal;font-size:10px">180</text>
<path d="M46.435,24.578L46.435,32.578" style="fill:none;stroke:#000000;stroke-width:0.5" />
<path d="M253.03,24.578L253.03,32.578" style="fill:none;stroke:#000000;stroke-width:0.5" />
<path d="M459.63,24.578L459.63,32.578" style="fill:none;stroke:#000000;stroke-width:0.5" />
<path d="M149.73,28.578L149.73,32.578" style="fill:none;stroke:#000000;stroke-width:0.5" />
<path d="M356.33,28.578L356.33,32.578" style="fill:none;stroke:#000000;stroke-width:0.5" />
<path d="M46.435,32.578L503.25,32.578" style="fill:none;stroke:#000000;stroke-width:0.5" />
<g transform="rotate(90)">
<text x="222.63" y="9.7266" transform="scale(1, -1)"
	style="font-family:Liberation Sans;font-variant:normal;font-weight:normal;font-style:normal;font-size:12px">CorSim</text>
</g>
<text x="15.949" y="-37.852" transform="scale(1, -1)"
	style="font-family:Liberation Sans;font-variant:normal;font-weight:normal;font-style:normal;font-size:10px">0.0</text>
<text x="15.949" y="-240.11" transform="scale(1, -1)"
	style="font-family:Liberation Sans;font-variant:normal;font-weight:normal;font-style:normal;font-size:10px">0.5</text>
<text x="15.949" y="-442.36" transform="scale(1, -1)"
	style="font-family:Liberation Sans;font-variant:normal;font-weight:normal;font-style:normal;font-size:10px">1.0</text>
<path d="M32.629,40.371L40.629,40.371" style="fill:none;stroke:#000000;stroke-width:0.5" />
<path d="M32.629,242.63L40.629,242.63" style="fill:none;stroke:#000000;stroke-width:0.5" />
<path d="M32.629,444.88L40.629,444.88" style="fill:none;stroke:#000000;stroke-width:0.5" />
<path d="M36.629,80.822L40.629,80.822" style="fill:none;stroke:#000000;stroke-width:0.5" />
<path d="M36.629,121.27L40.629,121.27" style="fill:none;stroke:#000000;stroke-width:0.5" />
<path d="M36.629,161.72L40.629,161.72" style="fill:none;stroke:#000000;stroke-width:0.5" />
<path d="M36.629,202.18L40.629,202.18" style="fill:none;stroke:#000000;stroke-width:0.5" />
<path d="M36.629,283.08L40.629,283.08" style="fill:none;stroke:#000000;stroke-width:0.5" />
<path d="M36.629,323.53L40.629,323.53" style="fill:none;stroke:#000000;stroke-width:0.5" />
<path d="M36.629,363.98L40.629,363.98" style="fill:none;stroke:#000000;stroke-width:0.5" />
<path d="M36.629,404.43L40.629,404.43" style="fill:none;stroke:#000000;stroke-width:0.5" />
<path d="M40.629,40.371L40.629,444.88" style="fill:none;stroke:#000000;stroke-width:0.5" />
<path d="M46.435,48.873L48.73,93.069L51.026,143.63L53.321,160.04L55.617,202.63L57.912,205.2L60.208,219.95L62.503,272.56L64.799,252.18L67.095,289.29L69.39,300.26L71.686,326.31L73.981,313.08L76.277,333.26L78.572,336.28L80.868,356.57L83.163,357.2L85.459,358.9L87.755,367.99L90.05,378.41L92.346,367.61L94.641,373.81L96.937,400.12L99.232,371.67L101.53,381.48L103.82,383.41L106.12,383.1L108.41,394.08L110.71,410.82L113.01,389.25L115.3,391.48L117.6,415.39L119.89,393.67L122.19,403.42L124.48,406.6L126.78,411.79L129.07,415.07L131.37,415.57L133.67,411.1L135.96,431.65L138.26,400.72L140.55,420.05L142.85,413.66L145.14,416.52L147.44,425.47L149.73,417.72L152.03,404.24L154.33,416.19L156.62,422.35L158.92,411.93L161.21,421.27L163.51,419.8L165.8,423.61L168.1,422.31L170.39,418.52L172.69,425.3L174.99,427.77L177.28,426.76L179.58,423.3L181.87,434.81L184.17,406.86L186.46,435.27L188.76,429.02L191.05,431.93L193.35,428.52L195.65,430.48L197.94,432.44L200.24,438.17L202.53,429.44L204.83,432.37L207.12,431.66L209.42,432.59L211.71,429.91L214.01,437.6L216.31,438.86L218.6,433.24L220.9,438.94L223.19,431.12L225.49,429.74L227.78,441.73L230.08,439.33L232.37,440.26L234.67,432.24L236.97,434.06L239.26,430.12L241.56,441.47L243.85,427.82L246.15,438.91L248.44,436.06L250.74,425.9L253.03,427.6L255.33,431.67L257.63,440.78L259.92,427.13L262.22,435.8L264.51,430.75L266.81,437.29L269.1,440.11L271.4,437.57L273.69,439.46L275.99,440.94L278.29,439.62L280.58,436.94L282.88,441.32L285.17,434.52L287.47,439.59L289.76,434.79L292.06,426.03L294.35,437.31L296.65,439.46L298.95,440.19L301.24,440.19L303.54,433.86L305.83,439.68L308.13,442.89L310.42,438.06L312.72,440.82L315.01,442.02L317.31,437.38L319.61,427.91L321.9,438.62L324.2,440.46L326.49,436.85L328.79,435.37L331.08,435.72L333.38,431.01L335.67,438.05L337.97,420.33L340.27,431.7L342.56,434.36L344.86,434.96L347.15,430.62L349.45,432.16L351.74,440.86L354.04,429.73L356.33,434.8L358.63,434.83L360.93,437.36L363.22,431.73L365.52,437.94L367.81,441.19L370.11,437.75L372.4,432.55L374.7,438.92L376.99,433.02L379.29,433.46L381.59,437.53L383.88,435.4L386.18,424.9L388.47,417.41L390.77,430.51L393.06,431.81L395.36,418.94L397.65,421.78L399.95,427.73L402.25,416.95L404.54,414.85L406.84,430.8L409.13,426.33L411.43,418.8L413.72,432.79L416.02,430.93L418.31,428.78L420.61,413.34L422.91,424.79L425.2,430.44L427.5,416.2L429.79,411.05L432.09,431.41L434.38,424.45L436.68,410.4L438.97,436.91L441.27,418.44L443.57,424.75L445.86,430.72L448.16,422.33L450.45,417.01L452.75,407.95L455.04,418.19L457.34,428.24L459.63,416.73L461.93,426.24L464.23,410.16L466.52,422.02L468.82,412.73L471.11,406.64L473.41,416.94L475.7,408.51L478,421.65L480.29,418.64L482.59,417.29L484.89,401.56L487.18,402.73L489.48,416.99L491.77,405.04L494.07,403.67L496.36,403.13L498.66,401.04L500.95,430.04L503.25,379.28" style="fill:none;stroke:#228B22" />
<path d="M46.435,422.76L48.73,359.56L51.026,308.99L53.321,308.99L55.617,271.07L57.912,271.07L60.208,258.43L62.503,220.51L64.799,223.67L67.095,192.06L69.39,185.74L71.686,141.5L73.981,157.3L76.277,138.34L78.572,132.02L80.868,125.7L83.163,116.22L85.459,113.06L87.755,103.58L90.05,97.256L92.346,113.06L94.641,109.9L96.937,78.294L99.232,109.9L101.53,97.256L103.82,103.58L106.12,97.256L108.41,78.294L110.71,71.974L113.01,90.935L115.3,90.935L117.6,65.653L119.89,94.095L122.19,81.454L124.48,78.294L126.78,71.974L129.07,75.134L131.37,68.813L133.67,68.813L135.96,49.852L138.26,84.615L140.55,62.493L142.85,71.974L145.14,65.653L147.44,68.813L149.73,62.493L152.03,84.615L154.33,68.813L156.62,59.333L158.92,75.134L161.21,65.653L163.51,65.653L165.8,59.333L168.1,59.333L170.39,65.653L172.69,56.172L174.99,53.012L177.28,62.493L179.58,62.493L181.87,49.852L184.17,75.134L186.46,49.852L188.76,53.012L191.05,53.012L193.35,53.012L195.65,53.012L197.94,53.012L200.24,46.692L202.53,56.172L204.83,53.012L207.12,56.172L209.42,49.852L211.71,53.012L214.01,46.692L216.31,49.852L218.6,53.012L220.9,46.692L223.19,56.172L225.49,59.333L227.78,43.531L230.08,43.531L232.37,43.531L234.67,53.012L236.97,49.852L239.26,53.012L241.56,40.371L243.85,56.172L246.15,46.692L248.44,53.012L250.74,59.333L253.03,59.333L255.33,53.012L257.63,43.531L259.92,56.172L262.22,46.692L264.51,56.172L266.81,46.692L269.1,43.531L271.4,46.692L273.69,46.692L275.99,43.531L278.29,43.531L280.58,49.852L282.88,43.531L285.17,49.852L287.47,43.531L289.76,56.172L292.06,59.333L294.35,46.692L296.65,40.371L298.95,46.692L301.24,43.531L303.54,56.172L305.83,46.692L308.13,40.371L310.42,46.692L312.72,43.531L315.01,43.531L317.31,43.531L319.61,53.012L321.9,46.692L324.2,43.531L326.49,46.692L328.79,49.852L331.08,46.692L333.38,53.012L335.67,46.692L337.97,65.653L340.27,46.692L342.56,56.172L344.86,49.852L347.15,56.172L349.45,46.692L351.74,43.531L354.04,59.333L356.33,49.852L358.63,49.852L360.93,46.692L363.22,53.012L365.52,46.692L367.81,40.371L370.11,43.531L372.4,49.852L374.7,46.692L376.99,49.852L379.29,46.692L381.59,43.531L383.88,49.852L386.18,59.333L388.47,59.333L390.77,49.852L393.06,53.012L395.36,59.333L397.65,59.333L399.95,59.333L402.25,71.974L404.54,68.813L406.84,49.852L409.13,53.012L411.43,59.333L413.72,53.012L416.02,53.012L418.31,56.172L420.61,68.813L422.91,53.012L425.2,56.172L427.5,59.333L429.79,71.974L432.09,49.852L434.38,59.333L436.68,75.134L438.97,43.531L441.27,68.813L443.57,56.172L445.86,56.172L448.16,62.493L450.45,65.653L452.75,78.294L455.04,71.974L457.34,53.012L459.63,65.653L461.93,49.852L464.23,75.134L466.52,56.172L468.82,65.653L471.11,78.294L473.41,65.653L475.7,84.615L478,65.653L480.29,62.493L482.59,71.974L484.89,87.775L487.18,84.615L489.48,62.493L491.77,84.615L494.07,81.454L496.36,75.134L498.66,84.615L500.95,56.172L503.25,106.74" style="fill:none;stroke:#FFA500" />
<path d="M46.435,394.32L48.73,327.95L51.026,271.07L53.321,255.27L55.617,211.02L57.912,211.02L60.208,185.74L62.503,144.66L64.799,169.94L67.095,125.7L69.39,116.22L71.686,106.74L73.981,122.54L76.277,109.9L78.572,109.9L80.868,87.775L83.163,100.42L85.459,94.095L87.755,87.775L90.05,84.615L92.346,81.454L94.641,84.615L96.937,62.493L99.232,78.294L101.53,84.615L103.82,75.134L106.12,78.294L108.41,75.134L110.71,53.012L113.01,68.813L115.3,71.974L117.6,56.172L119.89,71.974L122.19,62.493L124.48,62.493L126.78,59.333L129.07,59.333L131.37,56.172L133.67,62.493L135.96,46.692L138.26,65.653L140.55,49.852L142.85,53.012L145.14,62.493L147.44,43.531L149.73,56.172L152.03,65.653L154.33,56.172L156.62,49.852L158.92,56.172L161.21,49.852L163.51,46.692L165.8,46.692L168.1,53.012L170.39,59.333L172.69,53.012L174.99,49.852L177.28,46.692L179.58,53.012L181.87,43.531L184.17,62.493L186.46,43.531L188.76,46.692L191.05,46.692L193.35,49.852L195.65,46.692L197.94,43.531L200.24,43.531L202.53,49.852L204.83,46.692L207.12,46.692L209.42,49.852L211.71,53.012L214.01,43.531L216.31,40.371L218.6,43.531L220.9,40.371L223.19,49.852L225.49,46.692L227.78,40.371L230.08,43.531L232.37,43.531L234.67,49.852L236.97,49.852L239.26,53.012L241.56,40.371L243.85,49.852L246.15,40.371L248.44,40.371L250.74,46.692L253.03,46.692L255.33,46.692L257.63,40.371L259.92,49.852L262.22,46.692L264.51,46.692L266.81,43.531L269.1,40.371L271.4,43.531L273.69,43.531L275.99,40.371L278.29,43.531L280.58,43.531L282.88,40.371L285.17,40.371L287.47,43.531L289.76,43.531L292.06,49.852L294.35,43.531L296.65,40.371L298.95,40.371L301.24,43.531L303.54,43.531L305.83,40.371L308.13,40.371L310.42,43.531L312.72,40.371L315.01,40.371L317.31,43.531L319.61,53.012L321.9,43.531L324.2,40.371L326.49,43.531L328.79,43.531L331.08,46.692L333.38,43.531L335.67,40.371L337.97,49.852L340.27,46.692L342.56,40.371L344.86,43.531L347.15,46.692L349.45,43.531L351.74,40.371L354.04,46.692L356.33,43.531L358.63,43.531L360.93,43.531L363.22,43.531L365.52,40.371L367.81,40.371L370.11,43.531L372.4,40.371L374.7,40.371L376.99,46.692L379.29,40.371L381.59,43.531L383.88,43.531L386.18,46.692L388.47,49.852L390.77,46.692L393.06,40.371L395.36,53.012L397.65,46.692L399.95,46.692L402.25,46.692L404.54,56.172L406.84,46.692L409.13,46.692L411.43,53.012L413.72,43.531L416.02,43.531L418.31,40.371L420.61,49.852L422.91,49.852L425.2,43.531L427.5,53.012L429.79,59.333L432.09,43.531L434.38,49.852L436.68,53.012L438.97,43.531L441.27,56.172L443.57,46.692L445.86,46.692L448.16,46.692L450.45,56.172L452.75,56.172L455.04,40.371L457.34,43.531L459.63,49.852L461.93,49.852L464.23,56.172L466.52,53.012L468.82,53.012L471.11,53.012L473.41,46.692L475.7,53.012L478,46.692L480.29,53.012L482.59,49.852L484.89,53.012L487.18,59.333L489.48,49.852L491.77,49.852L494.07,59.333L496.36,53.012L498.66,53.012L500.95,43.531L503.25,68.813" style="fill:none;stroke:#7FFF00" />
<path d="M483.25,442.69L503.25,442.69" style="fill:none;stroke:#228B22" />
<text x="439.91" y="-439.86" transform="scale(1, -1)"
	style="font-family:Liberation Sans;font-variant:normal;font-weight:normal;font-style:normal;font-size:12px">CorSim</text>
<path d="M483.25,432.22L503.25,432.22" style="fill:none;stroke:#FFA500" />
<text x="446.58" y="-429.39" transform="scale(1, -1)"
	style="font-family:Liberation Sans;font-variant:normal;font-weight:normal;font-style:normal;font-size:12px">PctErr</text>
<path d="M483.25,421.75L503.25,421.75" style="fill:none;stroke:#7FFF00" />
<text x="439.91" y="-418.92" transform="scale(1, -1)"
	style="font-family:Liberation Sans;font-variant:normal;font-weight:normal;font-style:normal;font-size:12px">PctErr2</text>
</g>
</svg>
