<?xml version="1.0"?>
<!-- Generated by SVGo and Plotinum VG -->
<svg width="366.75pt" height="386.25pt" viewBox="0 0 366.75 386.25"
	xmlns="http://www.w3.org/2000/svg"
	xmlns:xlink="http://www.w3.org/1999/xlink">
<g transform="scale(1, -1) translate(0, -386.25)">
<text x="54.208" y="-376.52" transform="scale(1, -1)"
	style="font-family:Liberation Sans;font-variant:normal;font-weight:normal;font-style:normal;font-size:12px">Cluster Plot of: AnalyzeTrialLog HiddenCT_ActM</text>
<text x="196.2" y="-3.6797" transform="scale(1, -1)"
	style="font-family:Liberation Sans;font-variant:normal;font-weight:normal;font-style:normal;font-size:12px">X</text>
<text x="40.875" y="-16.473" transform="scale(1, -1)"
	style="font-family:Liberation Sans;font-variant:normal;font-weight:normal;font-style:normal;font-size:10px">0</text>
<text x="121.18" y="-16.473" transform="scale(1, -1)"
	style="font-family:Liberation Sans;font-variant:normal;font-weight:normal;font-style:normal;font-size:10px">10</text>
<text x="204.27" y="-16.473" transform="scale(1, -1)"
	style="font-family:Liberation Sans;font-variant:normal;font-weight:normal;font-style:normal;font-size:10px">20</text>
<text x="287.36" y="-16.473" transform="scale(1, -1)"
	style="font-family:Liberation Sans;font-variant:normal;font-weight:normal;font-style:normal;font-size:10px">30</text>
<path d="M43.656,24.578L43.656,32.578" style="fill:none;stroke:#000000;stroke-width:0.5" />
<path d="M126.74,24.578L126.74,32.578" style="fill:none;stroke:#000000;stroke-width:0.5" />
<path d="M209.83,24.578L209.83,32.578" style="fill:none;stroke:#000000;stroke-width:0.5" />
<path d="M292.92,24.578L292.92,32.578" style="fill:none;stroke:#000000;stroke-width:0.5" />
<path d="M60.274,28.578L60.274,32.578" style="fill:none;stroke:#000000;stroke-width:0.5" />
<path d="M76.891,28.578L76.891,32.578" style="fill:none;stroke:#000000;stroke-width:0.5" />
<path d="M93.509,28.578L93.509,32.578" style="fill:none;stroke:#000000;stroke-width:0.5" />
<path d="M110.13,28.578L110.13,32.578" style="fill:none;stroke:#000000;stroke-width:0.5" />
<path d="M143.36,28.578L143.36,32.578" style="fill:none;stroke:#000000;stroke-width:0.5" />
<path d="M159.98,28.578L159.98,32.578" style="fill:none;stroke:#000000;stroke-width:0.5" />
<path d="M176.6,28.578L176.6,32.578" style="fill:none;stroke:#000000;stroke-width:0.5" />
<path d="M193.21,28.578L193.21,32.578" style="fill:none;stroke:#000000;stroke-width:0.5" />
<path d="M226.45,28.578L226.45,32.578" style="fill:none;stroke:#000000;stroke-width:0.5" />
<path d="M243.07,28.578L243.07,32.578" style="fill:none;stroke:#000000;stroke-width:0.5" />
<path d="M259.68,28.578L259.68,32.578" style="fill:none;stroke:#000000;stroke-width:0.5" />
<path d="M276.3,28.578L276.3,32.578" style="fill:none;stroke:#000000;stroke-width:0.5" />
<path d="M309.54,28.578L309.54,32.578" style="fill:none;stroke:#000000;stroke-width:0.5" />
<path d="M326.15,28.578L326.15,32.578" style="fill:none;stroke:#000000;stroke-width:0.5" />
<path d="M342.77,28.578L342.77,32.578" style="fill:none;stroke:#000000;stroke-width:0.5" />
<path d="M43.656,32.578L356.75,32.578" style="fill:none;stroke:#000000;stroke-width:0.5" />
<g transform="rotate(90)">
<text x="198.36" y="9.7266" transform="scale(1, -1)"
	style="font-family:Liberation Sans;font-variant:normal;font-weight:normal;font-style:normal;font-size:12px">Y</text>
</g>
<text x="21.511" y="-37.852" transform="scale(1, -1)"
	style="font-family:Liberation Sans;font-variant:normal;font-weight:normal;font-style:normal;font-size:10px">0</text>
<text x="15.949" y="-144.08" transform="scale(1, -1)"
	style="font-family:Liberation Sans;font-variant:normal;font-weight:normal;font-style:normal;font-size:10px">10</text>
<text x="15.949" y="-250.3" transform="scale(1, -1)"
	style="font-family:Liberation Sans;font-variant:normal;font-weight:normal;font-style:normal;font-size:10px">20</text>
<text x="15.949" y="-356.53" transform="scale(1, -1)"
	style="font-family:Liberation Sans;font-variant:normal;font-weight:normal;font-style:normal;font-size:10px">30</text>
<path d="M29.851,40.371L37.851,40.371" style="fill:none;stroke:#000000;stroke-width:0.5" />
<path d="M29.851,146.6L37.851,146.6" style="fill:none;stroke:#000000;stroke-width:0.5" />
<path d="M29.851,252.82L37.851,252.82" style="fill:none;stroke:#000000;stroke-width:0.5" />
<path d="M29.851,359.05L37.851,359.05" style="fill:none;stroke:#000000;stroke-width:0.5" />
<path d="M33.851,61.616L37.851,61.616" style="fill:none;stroke:#000000;stroke-width:0.5" />
<path d="M33.851,82.861L37.851,82.861" style="fill:none;stroke:#000000;stroke-width:0.5" />
<path d="M33.851,104.11L37.851,104.11" style="fill:none;stroke:#000000;stroke-width:0.5" />
<path d="M33.851,125.35L37.851,125.35" style="fill:none;stroke:#000000;stroke-width:0.5" />
<path d="M33.851,167.84L37.851,167.84" style="fill:none;stroke:#000000;stroke-width:0.5" />
<path d="M33.851,189.09L37.851,189.09" style="fill:none;stroke:#000000;stroke-width:0.5" />
<path d="M33.851,210.33L37.851,210.33" style="fill:none;stroke:#000000;stroke-width:0.5" />
<path d="M33.851,231.58L37.851,231.58" style="fill:none;stroke:#000000;stroke-width:0.5" />
<path d="M33.851,274.07L37.851,274.07" style="fill:none;stroke:#000000;stroke-width:0.5" />
<path d="M33.851,295.31L37.851,295.31" style="fill:none;stroke:#000000;stroke-width:0.5" />
<path d="M33.851,316.56L37.851,316.56" style="fill:none;stroke:#000000;stroke-width:0.5" />
<path d="M33.851,337.8L37.851,337.8" style="fill:none;stroke:#000000;stroke-width:0.5" />
<path d="M37.851,40.371L37.851,364.36" style="fill:none;stroke:#000000;stroke-width:0.5" />
<path d="M43.656,283.8L43.656,283.8L43.656,231.12L112.26,231.12L112.26,181.53L147.65,181.53L147.65,131.49L182.96,131.49L182.96,95.143L217.18,95.143L217.18,78.214L251.35,78.214L251.35,68.255L285.02,68.255L285.02,58.96L316.94,58.96L316.94,50.994L340.28,50.994L340.28,45.682L356.75,45.682L356.75,45.682" style="fill:none;stroke:#000000" />
<path d="M340.28,45.682L340.28,56.305L356.75,56.305L356.75,56.305" style="fill:none;stroke:#000000" />
<path d="M340.28,56.305L340.28,50.994" style="fill:none;stroke:#000000" />
<path d="M316.94,50.994L316.94,66.927L340.28,66.927L340.28,66.927" style="fill:none;stroke:#000000" />
<path d="M316.94,66.927L316.94,58.96" style="fill:none;stroke:#000000" />
<path d="M285.02,58.96L285.02,77.55L316.94,77.55L316.94,77.55" style="fill:none;stroke:#000000" />
<path d="M285.02,77.55L285.02,68.255" style="fill:none;stroke:#000000" />
<path d="M251.35,68.255L251.35,88.172L285.02,88.172L285.02,88.172" style="fill:none;stroke:#000000" />
<path d="M251.35,88.172L251.35,78.214" style="fill:none;stroke:#000000" />
<path d="M217.18,78.214L217.18,112.07L251.35,112.07L251.35,104.11L283.88,104.11L283.88,98.795L310.14,98.795L310.14,98.795" style="fill:none;stroke:#000000" />
<path d="M283.88,98.795L283.88,109.42L310.14,109.42L310.14,109.42" style="fill:none;stroke:#000000" />
<path d="M283.88,109.42L283.88,104.11" style="fill:none;stroke:#000000" />
<path d="M251.35,104.11L251.35,120.04L283.88,120.04L283.88,120.04" style="fill:none;stroke:#000000" />
<path d="M251.35,120.04L251.35,112.07" style="fill:none;stroke:#000000" />
<path d="M217.18,112.07L217.18,95.143" style="fill:none;stroke:#000000" />
<path d="M182.96,95.143L182.96,167.84L217.18,167.84L217.18,143.94L250.63,143.94L250.63,135.97L280.91,135.97L280.91,130.66L308.32,130.66L308.32,130.66" style="fill:none;stroke:#000000" />
<path d="M280.91,130.66L280.91,141.28L308.32,141.28L308.32,141.28" style="fill:none;stroke:#000000" />
<path d="M280.91,141.28L280.91,135.97" style="fill:none;stroke:#000000" />
<path d="M250.63,135.97L250.63,151.91L280.91,151.91L280.91,151.91" style="fill:none;stroke:#000000" />
<path d="M250.63,151.91L250.63,143.94" style="fill:none;stroke:#000000" />
<path d="M217.18,143.94L217.18,191.74L250.63,191.74L250.63,178.46L279.98,178.46L279.98,167.84L309.55,167.84L309.55,162.53L338.32,162.53L338.32,162.53" style="fill:none;stroke:#000000" />
<path d="M309.55,162.53L309.55,173.15L338.32,173.15L338.32,173.15" style="fill:none;stroke:#000000" />
<path d="M309.55,173.15L309.55,167.84" style="fill:none;stroke:#000000" />
<path d="M279.98,167.84L279.98,189.09L309.55,189.09L309.55,183.77L332.87,183.77L332.87,183.77" style="fill:none;stroke:#000000" />
<path d="M309.55,183.77L309.55,194.4L332.87,194.4L332.87,194.4" style="fill:none;stroke:#000000" />
<path d="M309.55,194.4L309.55,189.09" style="fill:none;stroke:#000000" />
<path d="M279.98,189.09L279.98,178.46" style="fill:none;stroke:#000000" />
<path d="M250.63,178.46L250.63,205.02L279.98,205.02L279.98,205.02" style="fill:none;stroke:#000000" />
<path d="M250.63,205.02L250.63,191.74" style="fill:none;stroke:#000000" />
<path d="M217.18,191.74L217.18,167.84" style="fill:none;stroke:#000000" />
<path d="M182.96,167.84L182.96,131.49" style="fill:none;stroke:#000000" />
<path d="M147.65,131.49L147.65,231.58L182.96,231.58L182.96,220.95L216.74,220.95L216.74,215.64L244.59,215.64L244.59,215.64" style="fill:none;stroke:#000000" />
<path d="M216.74,215.64L216.74,226.26L244.59,226.26L244.59,226.26" style="fill:none;stroke:#000000" />
<path d="M216.74,226.26L216.74,220.95" style="fill:none;stroke:#000000" />
<path d="M182.96,220.95L182.96,242.2L216.74,242.2L216.74,236.89L235.78,236.89L235.78,236.89" style="fill:none;stroke:#000000" />
<path d="M216.74,236.89L216.74,247.51L235.78,247.51L235.78,247.51" style="fill:none;stroke:#000000" />
<path d="M216.74,247.51L216.74,242.2" style="fill:none;stroke:#000000" />
<path d="M182.96,242.2L182.96,231.58" style="fill:none;stroke:#000000" />
<path d="M147.65,231.58L147.65,181.53" style="fill:none;stroke:#000000" />
<path d="M112.26,181.53L112.26,280.71L147.65,280.71L147.65,271.41L180.12,271.41L180.12,263.44L205.04,263.44L205.04,258.13L220.11,258.13L220.11,258.13" style="fill:none;stroke:#000000" />
<path d="M205.04,258.13L205.04,268.75L220.11,268.75L220.11,268.75" style="fill:none;stroke:#000000" />
<path d="M205.04,268.75L205.04,263.44" style="fill:none;stroke:#000000" />
<path d="M180.12,263.44L180.12,279.38L205.04,279.38L205.04,279.38" style="fill:none;stroke:#000000" />
<path d="M180.12,279.38L180.12,271.41" style="fill:none;stroke:#000000" />
<path d="M147.65,271.41L147.65,290L180.12,290L180.12,290" style="fill:none;stroke:#000000" />
<path d="M147.65,290L147.65,280.71" style="fill:none;stroke:#000000" />
<path d="M112.26,280.71L112.26,231.12" style="fill:none;stroke:#000000" />
<path d="M43.656,231.12L43.656,336.47L112.26,336.47L112.26,316.56L146.68,316.56L146.68,305.93L172.4,305.93L172.4,300.62L197.32,300.62L197.32,300.62" style="fill:none;stroke:#000000" />
<path d="M172.4,300.62L172.4,311.24L197.32,311.24L197.32,311.24" style="fill:none;stroke:#000000" />
<path d="M172.4,311.24L172.4,305.93" style="fill:none;stroke:#000000" />
<path d="M146.68,305.93L146.68,327.18L172.4,327.18L172.4,321.87L190.66,321.87L190.66,321.87" style="fill:none;stroke:#000000" />
<path d="M172.4,321.87L172.4,332.49L190.66,332.49L190.66,332.49" style="fill:none;stroke:#000000" />
<path d="M172.4,332.49L172.4,327.18" style="fill:none;stroke:#000000" />
<path d="M146.68,327.18L146.68,316.56" style="fill:none;stroke:#000000" />
<path d="M112.26,316.56L112.26,356.39L146.68,356.39L146.68,348.42L166.7,348.42L166.7,343.11L182.87,343.11L182.87,343.11" style="fill:none;stroke:#000000" />
<path d="M166.7,343.11L166.7,353.73L182.87,353.73L182.87,353.73" style="fill:none;stroke:#000000" />
<path d="M166.7,353.73L166.7,348.42" style="fill:none;stroke:#000000" />
<path d="M146.68,348.42L146.68,364.36L166.7,364.36L166.7,364.36" style="fill:none;stroke:#000000" />
<path d="M146.68,364.36L146.68,356.39" style="fill:none;stroke:#000000" />
<path d="M112.26,356.39L112.26,336.47" style="fill:none;stroke:#000000" />
<path d="M43.656,336.47L43.656,283.8L43.656,283.8L43.656,283.8" style="fill:none;stroke:#000000" />
<text x="356.75" y="-46.771" transform="scale(1, -1)"
	style="font-family:Liberation Serif;font-variant:normal;font-weight:normal;font-style:normal;font-size:10px">21</text>
<text x="356.75" y="-57.394" transform="scale(1, -1)"
	style="font-family:Liberation Serif;font-variant:normal;font-weight:normal;font-style:normal;font-size:10px">13</text>
<text x="340.28" y="-68.016" transform="scale(1, -1)"
	style="font-family:Liberation Serif;font-variant:normal;font-weight:normal;font-style:normal;font-size:10px">15</text>
<text x="316.94" y="-78.639" transform="scale(1, -1)"
	style="font-family:Liberation Serif;font-variant:normal;font-weight:normal;font-style:normal;font-size:10px">17</text>
<text x="285.02" y="-89.261" transform="scale(1, -1)"
	style="font-family:Liberation Serif;font-variant:normal;font-weight:normal;font-style:normal;font-size:10px">16</text>
<text x="310.14" y="-99.884" transform="scale(1, -1)"
	style="font-family:Liberation Serif;font-variant:normal;font-weight:normal;font-style:normal;font-size:10px">24</text>
<text x="310.14" y="-110.51" transform="scale(1, -1)"
	style="font-family:Liberation Serif;font-variant:normal;font-weight:normal;font-style:normal;font-size:10px">0</text>
<text x="283.88" y="-121.13" transform="scale(1, -1)"
	style="font-family:Liberation Serif;font-variant:normal;font-weight:normal;font-style:normal;font-size:10px">6</text>
<text x="308.32" y="-131.75" transform="scale(1, -1)"
	style="font-family:Liberation Serif;font-variant:normal;font-weight:normal;font-style:normal;font-size:10px">8</text>
<text x="308.32" y="-142.37" transform="scale(1, -1)"
	style="font-family:Liberation Serif;font-variant:normal;font-weight:normal;font-style:normal;font-size:10px">7</text>
<text x="280.91" y="-153" transform="scale(1, -1)"
	style="font-family:Liberation Serif;font-variant:normal;font-weight:normal;font-style:normal;font-size:10px">2</text>
<text x="338.32" y="-163.62" transform="scale(1, -1)"
	style="font-family:Liberation Serif;font-variant:normal;font-weight:normal;font-style:normal;font-size:10px">5</text>
<text x="338.32" y="-174.24" transform="scale(1, -1)"
	style="font-family:Liberation Serif;font-variant:normal;font-weight:normal;font-style:normal;font-size:10px">1</text>
<text x="332.87" y="-184.86" transform="scale(1, -1)"
	style="font-family:Liberation Serif;font-variant:normal;font-weight:normal;font-style:normal;font-size:10px">9</text>
<text x="332.87" y="-195.49" transform="scale(1, -1)"
	style="font-family:Liberation Serif;font-variant:normal;font-weight:normal;font-style:normal;font-size:10px">3</text>
<text x="279.98" y="-206.11" transform="scale(1, -1)"
	style="font-family:Liberation Serif;font-variant:normal;font-weight:normal;font-style:normal;font-size:10px">4</text>
<text x="244.59" y="-216.73" transform="scale(1, -1)"
	style="font-family:Liberation Serif;font-variant:normal;font-weight:normal;font-style:normal;font-size:10px">18</text>
<text x="244.59" y="-227.35" transform="scale(1, -1)"
	style="font-family:Liberation Serif;font-variant:normal;font-weight:normal;font-style:normal;font-size:10px">10</text>
<text x="235.78" y="-237.98" transform="scale(1, -1)"
	style="font-family:Liberation Serif;font-variant:normal;font-weight:normal;font-style:normal;font-size:10px">19</text>
<text x="235.78" y="-248.6" transform="scale(1, -1)"
	style="font-family:Liberation Serif;font-variant:normal;font-weight:normal;font-style:normal;font-size:10px">11</text>
<text x="220.11" y="-259.22" transform="scale(1, -1)"
	style="font-family:Liberation Serif;font-variant:normal;font-weight:normal;font-style:normal;font-size:10px">20</text>
<text x="220.11" y="-269.84" transform="scale(1, -1)"
	style="font-family:Liberation Serif;font-variant:normal;font-weight:normal;font-style:normal;font-size:10px">12</text>
<text x="205.04" y="-280.47" transform="scale(1, -1)"
	style="font-family:Liberation Serif;font-variant:normal;font-weight:normal;font-style:normal;font-size:10px">14</text>
<text x="180.12" y="-291.09" transform="scale(1, -1)"
	style="font-family:Liberation Serif;font-variant:normal;font-weight:normal;font-style:normal;font-size:10px">22</text>
<text x="197.32" y="-301.71" transform="scale(1, -1)"
	style="font-family:Liberation Serif;font-variant:normal;font-weight:normal;font-style:normal;font-size:10px">29</text>
<text x="197.32" y="-312.33" transform="scale(1, -1)"
	style="font-family:Liberation Serif;font-variant:normal;font-weight:normal;font-style:normal;font-size:10px">27</text>
<text x="190.66" y="-322.96" transform="scale(1, -1)"
	style="font-family:Liberation Serif;font-variant:normal;font-weight:normal;font-style:normal;font-size:10px">28</text>
<text x="190.66" y="-333.58" transform="scale(1, -1)"
	style="font-family:Liberation Serif;font-variant:normal;font-weight:normal;font-style:normal;font-size:10px">25</text>
<text x="182.87" y="-344.2" transform="scale(1, -1)"
	style="font-family:Liberation Serif;font-variant:normal;font-weight:normal;font-style:normal;font-size:10px">30</text>
<text x="182.87" y="-354.82" transform="scale(1, -1)"
	style="font-family:Liberation Serif;font-variant:normal;font-weight:normal;font-style:normal;font-size:10px">26</text>
<text x="166.7" y="-365.45" transform="scale(1, -1)"
	style="font-family:Liberation Serif;font-variant:normal;font-weight:normal;font-style:normal;font-size:10px">23</text>
<path d="M346.75,365.07L366.75,365.07" style="fill:none;stroke:#000000" />
<text x="335.41" y="-362.24" transform="scale(1, -1)"
	style="font-family:Liberation Sans;font-variant:normal;font-weight:normal;font-style:normal;font-size:12px">Y</text>
</g>
</svg>
