<?xml version="1.0"?>
<!-- Generated by SVGo and Plotinum VG -->
<svg width="416.62pt" height="386.62pt" viewBox="0 0 416.62 386.62"
	xmlns="http://www.w3.org/2000/svg"
	xmlns:xlink="http://www.w3.org/1999/xlink">
<g transform="scale(1, -1) translate(0, -386.62)">
<text x="181.3" y="-376.9" transform="scale(1, -1)"
	style="font-family:Liberation Sans;font-variant:normal;font-weight:normal;font-style:normal;font-size:12px">HiddenCT</text>
<text x="214.02" y="-3.6797" transform="scale(1, -1)"
	style="font-family:Liberation Sans;font-variant:normal;font-weight:normal;font-style:normal;font-size:12px">Prjn0</text>
<text x="78.1" y="-16.473" transform="scale(1, -1)"
	style="font-family:Liberation Sans;font-variant:normal;font-weight:normal;font-style:normal;font-size:10px">-1.5</text>
<text x="227.79" y="-16.473" transform="scale(1, -1)"
	style="font-family:Liberation Sans;font-variant:normal;font-weight:normal;font-style:normal;font-size:10px">0.0</text>
<text x="375.81" y="-16.473" transform="scale(1, -1)"
	style="font-family:Liberation Sans;font-variant:normal;font-weight:normal;font-style:normal;font-size:10px">1.5</text>
<path d="M86.715,24.578L86.715,32.578" style="fill:none;stroke:#000000;stroke-width:0.5" />
<path d="M234.74,24.578L234.74,32.578" style="fill:none;stroke:#000000;stroke-width:0.5" />
<path d="M382.76,24.578L382.76,32.578" style="fill:none;stroke:#000000;stroke-width:0.5" />
<path d="M160.73,28.578L160.73,32.578" style="fill:none;stroke:#000000;stroke-width:0.5" />
<path d="M308.75,28.578L308.75,32.578" style="fill:none;stroke:#000000;stroke-width:0.5" />
<path d="M44.425,32.578L411.62,32.578" style="fill:none;stroke:#000000;stroke-width:0.5" />
<g transform="rotate(90)">
<text x="190.94" y="9.7266" transform="scale(1, -1)"
	style="font-family:Liberation Sans;font-variant:normal;font-weight:normal;font-style:normal;font-size:12px">Time</text>
</g>
<text x="15.949" y="-91.844" transform="scale(1, -1)"
	style="font-family:Liberation Sans;font-variant:normal;font-weight:normal;font-style:normal;font-size:10px">-1</text>
<text x="19.279" y="-173.18" transform="scale(1, -1)"
	style="font-family:Liberation Sans;font-variant:normal;font-weight:normal;font-style:normal;font-size:10px">0</text>
<text x="19.279" y="-254.51" transform="scale(1, -1)"
	style="font-family:Liberation Sans;font-variant:normal;font-weight:normal;font-style:normal;font-size:10px">1</text>
<text x="19.279" y="-335.84" transform="scale(1, -1)"
	style="font-family:Liberation Sans;font-variant:normal;font-weight:normal;font-style:normal;font-size:10px">2</text>
<path d="M27.619,94.364L35.619,94.364" style="fill:none;stroke:#000000;stroke-width:0.5" />
<path d="M27.619,175.7L35.619,175.7" style="fill:none;stroke:#000000;stroke-width:0.5" />
<path d="M27.619,257.03L35.619,257.03" style="fill:none;stroke:#000000;stroke-width:0.5" />
<path d="M27.619,338.36L35.619,338.36" style="fill:none;stroke:#000000;stroke-width:0.5" />
<path d="M31.619,45.564L35.619,45.564" style="fill:none;stroke:#000000;stroke-width:0.5" />
<path d="M31.619,61.831L35.619,61.831" style="fill:none;stroke:#000000;stroke-width:0.5" />
<path d="M31.619,78.097L35.619,78.097" style="fill:none;stroke:#000000;stroke-width:0.5" />
<path d="M31.619,110.63L35.619,110.63" style="fill:none;stroke:#000000;stroke-width:0.5" />
<path d="M31.619,126.9L35.619,126.9" style="fill:none;stroke:#000000;stroke-width:0.5" />
<path d="M31.619,143.16L35.619,143.16" style="fill:none;stroke:#000000;stroke-width:0.5" />
<path d="M31.619,159.43L35.619,159.43" style="fill:none;stroke:#000000;stroke-width:0.5" />
<path d="M31.619,191.96L35.619,191.96" style="fill:none;stroke:#000000;stroke-width:0.5" />
<path d="M31.619,208.23L35.619,208.23" style="fill:none;stroke:#000000;stroke-width:0.5" />
<path d="M31.619,224.5L35.619,224.5" style="fill:none;stroke:#000000;stroke-width:0.5" />
<path d="M31.619,240.76L35.619,240.76" style="fill:none;stroke:#000000;stroke-width:0.5" />
<path d="M31.619,273.3L35.619,273.3" style="fill:none;stroke:#000000;stroke-width:0.5" />
<path d="M31.619,289.56L35.619,289.56" style="fill:none;stroke:#000000;stroke-width:0.5" />
<path d="M31.619,305.83L35.619,305.83" style="fill:none;stroke:#000000;stroke-width:0.5" />
<path d="M31.619,322.09L35.619,322.09" style="fill:none;stroke:#000000;stroke-width:0.5" />
<path d="M31.619,354.63L35.619,354.63" style="fill:none;stroke:#000000;stroke-width:0.5" />
<path d="M35.619,43.371L35.619,364.73" style="fill:none;stroke:#000000;stroke-width:0.5" />
<path d="M265.79,170.89L343.26,117.28L297.32,86.386L400.52,84.552L371.59,70.933L411.62,79.366L261.35,136.5L244.17,167.45L254.19,169.79L313.26,93.605L341.87,164.56L272.9,107.55L104.58,106.63L342.57,364.73L79.57,71.176L364.64,340.33L195.8,151.49L283.43,304.98L253.44,115.44L316.99,125.01L94.935,99.642L382.91,323.91L220.11,43.371L172.68,212.11L396.94,267.37L106.52,143.83L95.568,261.15L109.66,252.43L44.425,212.17L72.888,252.26L98.814,249.63" style="fill:none;stroke:#FF0000" />
<path d="M268.79,170.89A3,3 0 1 1 262.79,170.89A3,3 0 1 1 268.79,170.89Z" style="fill:none;stroke:#FF0000;stroke-width:0.5" />
<path d="M346.26,117.28A3,3 0 1 1 340.26,117.28A3,3 0 1 1 346.26,117.28Z" style="fill:none;stroke:#FF0000;stroke-width:0.5" />
<path d="M300.32,86.386A3,3 0 1 1 294.32,86.386A3,3 0 1 1 300.32,86.386Z" style="fill:none;stroke:#FF0000;stroke-width:0.5" />
<path d="M403.52,84.552A3,3 0 1 1 397.52,84.552A3,3 0 1 1 403.52,84.552Z" style="fill:none;stroke:#FF0000;stroke-width:0.5" />
<path d="M374.59,70.933A3,3 0 1 1 368.59,70.933A3,3 0 1 1 374.59,70.933Z" style="fill:none;stroke:#FF0000;stroke-width:0.5" />
<path d="M414.62,79.366A3,3 0 1 1 408.62,79.366A3,3 0 1 1 414.62,79.366Z" style="fill:none;stroke:#FF0000;stroke-width:0.5" />
<path d="M264.35,136.5A3,3 0 1 1 258.35,136.5A3,3 0 1 1 264.35,136.5Z" style="fill:none;stroke:#FF0000;stroke-width:0.5" />
<path d="M247.17,167.45A3,3 0 1 1 241.17,167.45A3,3 0 1 1 247.17,167.45Z" style="fill:none;stroke:#FF0000;stroke-width:0.5" />
<path d="M257.19,169.79A3,3 0 1 1 251.19,169.79A3,3 0 1 1 257.19,169.79Z" style="fill:none;stroke:#FF0000;stroke-width:0.5" />
<path d="M316.26,93.605A3,3 0 1 1 310.26,93.605A3,3 0 1 1 316.26,93.605Z" style="fill:none;stroke:#FF0000;stroke-width:0.5" />
<path d="M344.87,164.56A3,3 0 1 1 338.87,164.56A3,3 0 1 1 344.87,164.56Z" style="fill:none;stroke:#FF0000;stroke-width:0.5" />
<path d="M275.9,107.55A3,3 0 1 1 269.9,107.55A3,3 0 1 1 275.9,107.55Z" style="fill:none;stroke:#FF0000;stroke-width:0.5" />
<path d="M107.58,106.63A3,3 0 1 1 101.58,106.63A3,3 0 1 1 107.58,106.63Z" style="fill:none;stroke:#FF0000;stroke-width:0.5" />
<path d="M345.57,364.73A3,3 0 1 1 339.57,364.73A3,3 0 1 1 345.57,364.73Z" style="fill:none;stroke:#FF0000;stroke-width:0.5" />
<path d="M82.57,71.176A3,3 0 1 1 76.57,71.176A3,3 0 1 1 82.57,71.176Z" style="fill:none;stroke:#FF0000;stroke-width:0.5" />
<path d="M367.64,340.33A3,3 0 1 1 361.64,340.33A3,3 0 1 1 367.64,340.33Z" style="fill:none;stroke:#FF0000;stroke-width:0.5" />
<path d="M198.8,151.49A3,3 0 1 1 192.8,151.49A3,3 0 1 1 198.8,151.49Z" style="fill:none;stroke:#FF0000;stroke-width:0.5" />
<path d="M286.43,304.98A3,3 0 1 1 280.43,304.98A3,3 0 1 1 286.43,304.98Z" style="fill:none;stroke:#FF0000;stroke-width:0.5" />
<path d="M256.44,115.44A3,3 0 1 1 250.44,115.44A3,3 0 1 1 256.44,115.44Z" style="fill:none;stroke:#FF0000;stroke-width:0.5" />
<path d="M319.99,125.01A3,3 0 1 1 313.99,125.01A3,3 0 1 1 319.99,125.01Z" style="fill:none;stroke:#FF0000;stroke-width:0.5" />
<path d="M97.935,99.642A3,3 0 1 1 91.935,99.642A3,3 0 1 1 97.935,99.642Z" style="fill:none;stroke:#FF0000;stroke-width:0.5" />
<path d="M385.91,323.91A3,3 0 1 1 379.91,323.91A3,3 0 1 1 385.91,323.91Z" style="fill:none;stroke:#FF0000;stroke-width:0.5" />
<path d="M223.11,43.371A3,3 0 1 1 217.11,43.371A3,3 0 1 1 223.11,43.371Z" style="fill:none;stroke:#FF0000;stroke-width:0.5" />
<path d="M175.68,212.11A3,3 0 1 1 169.68,212.11A3,3 0 1 1 175.68,212.11Z" style="fill:none;stroke:#FF0000;stroke-width:0.5" />
<path d="M399.94,267.37A3,3 0 1 1 393.94,267.37A3,3 0 1 1 399.94,267.37Z" style="fill:none;stroke:#FF0000;stroke-width:0.5" />
<path d="M109.52,143.83A3,3 0 1 1 103.52,143.83A3,3 0 1 1 109.52,143.83Z" style="fill:none;stroke:#FF0000;stroke-width:0.5" />
<path d="M98.568,261.15A3,3 0 1 1 92.568,261.15A3,3 0 1 1 98.568,261.15Z" style="fill:none;stroke:#FF0000;stroke-width:0.5" />
<path d="M112.66,252.43A3,3 0 1 1 106.66,252.43A3,3 0 1 1 112.66,252.43Z" style="fill:none;stroke:#FF0000;stroke-width:0.5" />
<path d="M47.425,212.17A3,3 0 1 1 41.425,212.17A3,3 0 1 1 47.425,212.17Z" style="fill:none;stroke:#FF0000;stroke-width:0.5" />
<path d="M75.888,252.26A3,3 0 1 1 69.888,252.26A3,3 0 1 1 75.888,252.26Z" style="fill:none;stroke:#FF0000;stroke-width:0.5" />
<path d="M101.81,249.63A3,3 0 1 1 95.814,249.63A3,3 0 1 1 101.81,249.63Z" style="fill:none;stroke:#FF0000;stroke-width:0.5" />
<text x="265.79" y="-171.98" transform="scale(1, -1)"
	style="font-family:Liberation Serif;font-variant:normal;font-weight:normal;font-style:normal;font-size:10px">3</text>
<text x="343.26" y="-118.37" transform="scale(1, -1)"
	style="font-family:Liberation Serif;font-variant:normal;font-weight:normal;font-style:normal;font-size:10px">4</text>
<text x="297.32" y="-87.475" transform="scale(1, -1)"
	style="font-family:Liberation Serif;font-variant:normal;font-weight:normal;font-style:normal;font-size:10px">5</text>
<text x="400.52" y="-85.641" transform="scale(1, -1)"
	style="font-family:Liberation Serif;font-variant:normal;font-weight:normal;font-style:normal;font-size:10px">6</text>
<text x="371.59" y="-72.022" transform="scale(1, -1)"
	style="font-family:Liberation Serif;font-variant:normal;font-weight:normal;font-style:normal;font-size:10px">7</text>
<text x="411.62" y="-80.455" transform="scale(1, -1)"
	style="font-family:Liberation Serif;font-variant:normal;font-weight:normal;font-style:normal;font-size:10px">8</text>
<text x="261.35" y="-137.59" transform="scale(1, -1)"
	style="font-family:Liberation Serif;font-variant:normal;font-weight:normal;font-style:normal;font-size:10px">9</text>
<text x="244.17" y="-168.53" transform="scale(1, -1)"
	style="font-family:Liberation Serif;font-variant:normal;font-weight:normal;font-style:normal;font-size:10px">10</text>
<text x="254.19" y="-170.88" transform="scale(1, -1)"
	style="font-family:Liberation Serif;font-variant:normal;font-weight:normal;font-style:normal;font-size:10px">11</text>
<text x="313.26" y="-94.694" transform="scale(1, -1)"
	style="font-family:Liberation Serif;font-variant:normal;font-weight:normal;font-style:normal;font-size:10px">12</text>
<text x="341.87" y="-165.65" transform="scale(1, -1)"
	style="font-family:Liberation Serif;font-variant:normal;font-weight:normal;font-style:normal;font-size:10px">13</text>
<text x="272.9" y="-108.64" transform="scale(1, -1)"
	style="font-family:Liberation Serif;font-variant:normal;font-weight:normal;font-style:normal;font-size:10px">14</text>
<text x="104.58" y="-107.72" transform="scale(1, -1)"
	style="font-family:Liberation Serif;font-variant:normal;font-weight:normal;font-style:normal;font-size:10px">15</text>
<text x="342.57" y="-365.82" transform="scale(1, -1)"
	style="font-family:Liberation Serif;font-variant:normal;font-weight:normal;font-style:normal;font-size:10px">16</text>
<text x="79.57" y="-72.265" transform="scale(1, -1)"
	style="font-family:Liberation Serif;font-variant:normal;font-weight:normal;font-style:normal;font-size:10px">17</text>
<text x="364.64" y="-341.42" transform="scale(1, -1)"
	style="font-family:Liberation Serif;font-variant:normal;font-weight:normal;font-style:normal;font-size:10px">18</text>
<text x="195.8" y="-152.58" transform="scale(1, -1)"
	style="font-family:Liberation Serif;font-variant:normal;font-weight:normal;font-style:normal;font-size:10px">19</text>
<text x="283.43" y="-306.07" transform="scale(1, -1)"
	style="font-family:Liberation Serif;font-variant:normal;font-weight:normal;font-style:normal;font-size:10px">20</text>
<text x="253.44" y="-116.53" transform="scale(1, -1)"
	style="font-family:Liberation Serif;font-variant:normal;font-weight:normal;font-style:normal;font-size:10px">21</text>
<text x="316.99" y="-126.1" transform="scale(1, -1)"
	style="font-family:Liberation Serif;font-variant:normal;font-weight:normal;font-style:normal;font-size:10px">22</text>
<text x="94.935" y="-100.73" transform="scale(1, -1)"
	style="font-family:Liberation Serif;font-variant:normal;font-weight:normal;font-style:normal;font-size:10px">23</text>
<text x="382.91" y="-325" transform="scale(1, -1)"
	style="font-family:Liberation Serif;font-variant:normal;font-weight:normal;font-style:normal;font-size:10px">24</text>
<text x="220.11" y="-44.46" transform="scale(1, -1)"
	style="font-family:Liberation Serif;font-variant:normal;font-weight:normal;font-style:normal;font-size:10px">25</text>
<text x="172.68" y="-213.2" transform="scale(1, -1)"
	style="font-family:Liberation Serif;font-variant:normal;font-weight:normal;font-style:normal;font-size:10px">26</text>
<text x="396.94" y="-268.45" transform="scale(1, -1)"
	style="font-family:Liberation Serif;font-variant:normal;font-weight:normal;font-style:normal;font-size:10px">27</text>
<text x="106.52" y="-144.92" transform="scale(1, -1)"
	style="font-family:Liberation Serif;font-variant:normal;font-weight:normal;font-style:normal;font-size:10px">28</text>
<text x="95.568" y="-262.24" transform="scale(1, -1)"
	style="font-family:Liberation Serif;font-variant:normal;font-weight:normal;font-style:normal;font-size:10px">29</text>
<text x="109.66" y="-253.52" transform="scale(1, -1)"
	style="font-family:Liberation Serif;font-variant:normal;font-weight:normal;font-style:normal;font-size:10px">30</text>
<text x="44.425" y="-213.26" transform="scale(1, -1)"
	style="font-family:Liberation Serif;font-variant:normal;font-weight:normal;font-style:normal;font-size:10px">0</text>
<text x="72.888" y="-253.35" transform="scale(1, -1)"
	style="font-family:Liberation Serif;font-variant:normal;font-weight:normal;font-style:normal;font-size:10px">1</text>
<text x="98.814" y="-250.71" transform="scale(1, -1)"
	style="font-family:Liberation Serif;font-variant:normal;font-weight:normal;font-style:normal;font-size:10px">2</text>
<path d="M396.62,365.44L416.62,365.44" style="fill:none;stroke:#FF0000" />
<text x="365.28" y="-362.61" transform="scale(1, -1)"
	style="font-family:Liberation Sans;font-variant:normal;font-weight:normal;font-style:normal;font-size:12px">Prjn1</text>
</g>
</svg>
