<?xml version="1.0"?>
<!-- Generated by SVGo and Plotinum VG -->
<svg width="366.75pt" height="386.25pt" viewBox="0 0 366.75 386.25"
	xmlns="http://www.w3.org/2000/svg"
	xmlns:xlink="http://www.w3.org/1999/xlink">
<g transform="scale(1, -1) translate(0, -386.25)">
<text x="54.208" y="-376.52" transform="scale(1, -1)"
	style="font-family:Liberation Sans;font-variant:normal;font-weight:normal;font-style:normal;font-size:12px">Cluster Plot of: AnalyzeTrialLog HiddenCT_ActM</text>
<text x="198.7" y="-3.6797" transform="scale(1, -1)"
	style="font-family:Liberation Sans;font-variant:normal;font-weight:normal;font-style:normal;font-size:12px">X</text>
<text x="40.875" y="-16.473" transform="scale(1, -1)"
	style="font-family:Liberation Sans;font-variant:normal;font-weight:normal;font-style:normal;font-size:10px">0</text>
<text x="180.68" y="-16.473" transform="scale(1, -1)"
	style="font-family:Liberation Sans;font-variant:normal;font-weight:normal;font-style:normal;font-size:10px">20</text>
<text x="323.27" y="-16.473" transform="scale(1, -1)"
	style="font-family:Liberation Sans;font-variant:normal;font-weight:normal;font-style:normal;font-size:10px">40</text>
<path d="M43.656,24.578L43.656,32.578" style="fill:none;stroke:#000000;stroke-width:0.5" />
<path d="M186.24,24.578L186.24,32.578" style="fill:none;stroke:#000000;stroke-width:0.5" />
<path d="M328.83,24.578L328.83,32.578" style="fill:none;stroke:#000000;stroke-width:0.5" />
<path d="M114.95,28.578L114.95,32.578" style="fill:none;stroke:#000000;stroke-width:0.5" />
<path d="M257.54,28.578L257.54,32.578" style="fill:none;stroke:#000000;stroke-width:0.5" />
<path d="M43.656,32.578L361.75,32.578" style="fill:none;stroke:#000000;stroke-width:0.5" />
<g transform="rotate(90)">
<text x="198.36" y="9.7266" transform="scale(1, -1)"
	style="font-family:Liberation Sans;font-variant:normal;font-weight:normal;font-style:normal;font-size:12px">Y</text>
</g>
<text x="21.511" y="-37.852" transform="scale(1, -1)"
	style="font-family:Liberation Sans;font-variant:normal;font-weight:normal;font-style:normal;font-size:10px">0</text>
<text x="15.949" y="-144.08" transform="scale(1, -1)"
	style="font-family:Liberation Sans;font-variant:normal;font-weight:normal;font-style:normal;font-size:10px">10</text>
<text x="15.949" y="-250.3" transform="scale(1, -1)"
	style="font-family:Liberation Sans;font-variant:normal;font-weight:normal;font-style:normal;font-size:10px">20</text>
<text x="15.949" y="-356.53" transform="scale(1, -1)"
	style="font-family:Liberation Sans;font-variant:normal;font-weight:normal;font-style:normal;font-size:10px">30</text>
<path d="M29.851,40.371L37.851,40.371" style="fill:none;stroke:#000000;stroke-width:0.5" />
<path d="M29.851,146.6L37.851,146.6" style="fill:none;stroke:#000000;stroke-width:0.5" />
<path d="M29.851,252.82L37.851,252.82" style="fill:none;stroke:#000000;stroke-width:0.5" />
<path d="M29.851,359.05L37.851,359.05" style="fill:none;stroke:#000000;stroke-width:0.5" />
<path d="M33.851,61.616L37.851,61.616" style="fill:none;stroke:#000000;stroke-width:0.5" />
<path d="M33.851,82.861L37.851,82.861" style="fill:none;stroke:#000000;stroke-width:0.5" />
<path d="M33.851,104.11L37.851,104.11" style="fill:none;stroke:#000000;stroke-width:0.5" />
<path d="M33.851,125.35L37.851,125.35" style="fill:none;stroke:#000000;stroke-width:0.5" />
<path d="M33.851,167.84L37.851,167.84" style="fill:none;stroke:#000000;stroke-width:0.5" />
<path d="M33.851,189.09L37.851,189.09" style="fill:none;stroke:#000000;stroke-width:0.5" />
<path d="M33.851,210.33L37.851,210.33" style="fill:none;stroke:#000000;stroke-width:0.5" />
<path d="M33.851,231.58L37.851,231.58" style="fill:none;stroke:#000000;stroke-width:0.5" />
<path d="M33.851,274.07L37.851,274.07" style="fill:none;stroke:#000000;stroke-width:0.5" />
<path d="M33.851,295.31L37.851,295.31" style="fill:none;stroke:#000000;stroke-width:0.5" />
<path d="M33.851,316.56L37.851,316.56" style="fill:none;stroke:#000000;stroke-width:0.5" />
<path d="M33.851,337.8L37.851,337.8" style="fill:none;stroke:#000000;stroke-width:0.5" />
<path d="M37.851,40.371L37.851,364.36" style="fill:none;stroke:#000000;stroke-width:0.5" />
<path d="M43.656,219.67L43.656,219.67L43.656,127.67L116.82,127.67L116.82,100.79L154.84,100.79L154.84,76.222L191.66,76.222L191.66,58.96L228.05,58.96L228.05,50.994L260.75,50.994L260.75,45.682L283.52,45.682L283.52,45.682" style="fill:none;stroke:#000000" />
<path d="M260.75,45.682L260.75,56.305L283.52,56.305L283.52,56.305" style="fill:none;stroke:#000000" />
<path d="M260.75,56.305L260.75,50.994" style="fill:none;stroke:#000000" />
<path d="M228.05,50.994L228.05,66.927L260.75,66.927L260.75,66.927" style="fill:none;stroke:#000000" />
<path d="M228.05,66.927L228.05,58.96" style="fill:none;stroke:#000000" />
<path d="M191.66,58.96L191.66,93.484L228.05,93.484L228.05,82.861L259.44,82.861L259.44,77.55L290.57,77.55L290.57,77.55" style="fill:none;stroke:#000000" />
<path d="M259.44,77.55L259.44,88.172L290.57,88.172L290.57,88.172" style="fill:none;stroke:#000000" />
<path d="M259.44,88.172L259.44,82.861" style="fill:none;stroke:#000000" />
<path d="M228.05,82.861L228.05,104.11L259.44,104.11L259.44,98.795L284.38,98.795L284.38,98.795" style="fill:none;stroke:#000000" />
<path d="M259.44,98.795L259.44,109.42L284.38,109.42L284.38,109.42" style="fill:none;stroke:#000000" />
<path d="M259.44,109.42L259.44,104.11" style="fill:none;stroke:#000000" />
<path d="M228.05,104.11L228.05,93.484" style="fill:none;stroke:#000000" />
<path d="M191.66,93.484L191.66,76.222" style="fill:none;stroke:#000000" />
<path d="M154.84,76.222L154.84,125.35L191.66,125.35L191.66,120.04L225.25,120.04L225.25,120.04" style="fill:none;stroke:#000000" />
<path d="M191.66,120.04L191.66,130.66L225.25,130.66L225.25,130.66" style="fill:none;stroke:#000000" />
<path d="M191.66,130.66L191.66,125.35" style="fill:none;stroke:#000000" />
<path d="M154.84,125.35L154.84,100.79" style="fill:none;stroke:#000000" />
<path d="M116.82,100.79L116.82,154.56L154.84,154.56L154.84,146.6L185.13,146.6L185.13,141.28L211.48,141.28L211.48,141.28" style="fill:none;stroke:#000000" />
<path d="M185.13,141.28L185.13,151.91L211.48,151.91L211.48,151.91" style="fill:none;stroke:#000000" />
<path d="M185.13,151.91L185.13,146.6" style="fill:none;stroke:#000000" />
<path d="M154.84,146.6L154.84,162.53L185.13,162.53L185.13,162.53" style="fill:none;stroke:#000000" />
<path d="M154.84,162.53L154.84,154.56" style="fill:none;stroke:#000000" />
<path d="M116.82,154.56L116.82,127.67" style="fill:none;stroke:#000000" />
<path d="M43.656,127.67L43.656,311.66L116.82,311.66L116.82,274.9L154.68,274.9L154.68,237.88L192.6,237.88L192.6,214.98L229.52,214.98L229.52,198.38L266.05,198.38L266.05,186.43L300.09,186.43L300.09,178.46L331.16,178.46L331.16,173.15L361.75,173.15L361.75,173.15" style="fill:none;stroke:#000000" />
<path d="M331.16,173.15L331.16,183.77L361.75,183.77L361.75,183.77" style="fill:none;stroke:#000000" />
<path d="M331.16,183.77L331.16,178.46" style="fill:none;stroke:#000000" />
<path d="M300.09,178.46L300.09,194.4L331.16,194.4L331.16,194.4" style="fill:none;stroke:#000000" />
<path d="M300.09,194.4L300.09,186.43" style="fill:none;stroke:#000000" />
<path d="M266.05,186.43L266.05,210.33L300.09,210.33L300.09,205.02L329.75,205.02L329.75,205.02" style="fill:none;stroke:#000000" />
<path d="M300.09,205.02L300.09,215.64L329.75,215.64L329.75,215.64" style="fill:none;stroke:#000000" />
<path d="M300.09,215.64L300.09,210.33" style="fill:none;stroke:#000000" />
<path d="M266.05,210.33L266.05,198.38" style="fill:none;stroke:#000000" />
<path d="M229.52,198.38L229.52,231.58L266.05,231.58L266.05,226.26L299.98,226.26L299.98,226.26" style="fill:none;stroke:#000000" />
<path d="M266.05,226.26L266.05,236.89L299.98,236.89L299.98,236.89" style="fill:none;stroke:#000000" />
<path d="M266.05,236.89L266.05,231.58" style="fill:none;stroke:#000000" />
<path d="M229.52,231.58L229.52,214.98" style="fill:none;stroke:#000000" />
<path d="M192.6,214.98L192.6,260.79L229.52,260.79L229.52,252.82L265.55,252.82L265.55,247.51L296.69,247.51L296.69,247.51" style="fill:none;stroke:#000000" />
<path d="M265.55,247.51L265.55,258.13L296.69,258.13L296.69,258.13" style="fill:none;stroke:#000000" />
<path d="M265.55,258.13L265.55,252.82" style="fill:none;stroke:#000000" />
<path d="M229.52,252.82L229.52,268.75L265.55,268.75L265.55,268.75" style="fill:none;stroke:#000000" />
<path d="M229.52,268.75L229.52,260.79" style="fill:none;stroke:#000000" />
<path d="M192.6,260.79L192.6,237.88" style="fill:none;stroke:#000000" />
<path d="M154.68,237.88L154.68,311.91L192.6,311.91L192.6,301.95L225.59,301.95L225.59,292.66L256.63,292.66L256.63,284.69L284.68,284.69L284.68,279.38L311.97,279.38L311.97,279.38" style="fill:none;stroke:#000000" />
<path d="M284.68,279.38L284.68,290L311.97,290L311.97,290" style="fill:none;stroke:#000000" />
<path d="M284.68,290L284.68,284.69" style="fill:none;stroke:#000000" />
<path d="M256.63,284.69L256.63,300.62L284.68,300.62L284.68,300.62" style="fill:none;stroke:#000000" />
<path d="M256.63,300.62L256.63,292.66" style="fill:none;stroke:#000000" />
<path d="M225.59,292.66L225.59,311.24L256.63,311.24L256.63,311.24" style="fill:none;stroke:#000000" />
<path d="M225.59,311.24L225.59,301.95" style="fill:none;stroke:#000000" />
<path d="M192.6,301.95L192.6,321.87L225.59,321.87L225.59,321.87" style="fill:none;stroke:#000000" />
<path d="M192.6,321.87L192.6,311.91" style="fill:none;stroke:#000000" />
<path d="M154.68,311.91L154.68,274.9" style="fill:none;stroke:#000000" />
<path d="M116.82,274.9L116.82,348.42L154.68,348.42L154.68,337.8L191.42,337.8L191.42,332.49L226.43,332.49L226.43,332.49" style="fill:none;stroke:#000000" />
<path d="M191.42,332.49L191.42,343.11L226.43,343.11L226.43,343.11" style="fill:none;stroke:#000000" />
<path d="M191.42,343.11L191.42,337.8" style="fill:none;stroke:#000000" />
<path d="M154.68,337.8L154.68,359.05L191.42,359.05L191.42,353.73L214.07,353.73L214.07,353.73" style="fill:none;stroke:#000000" />
<path d="M191.42,353.73L191.42,364.36L214.07,364.36L214.07,364.36" style="fill:none;stroke:#000000" />
<path d="M191.42,364.36L191.42,359.05" style="fill:none;stroke:#000000" />
<path d="M154.68,359.05L154.68,348.42" style="fill:none;stroke:#000000" />
<path d="M116.82,348.42L116.82,311.66" style="fill:none;stroke:#000000" />
<path d="M43.656,311.66L43.656,219.67L43.656,219.67L43.656,219.67" style="fill:none;stroke:#000000" />
<text x="283.52" y="-46.771" transform="scale(1, -1)"
	style="font-family:Liberation Serif;font-variant:normal;font-weight:normal;font-style:normal;font-size:10px">20</text>
<text x="283.52" y="-57.394" transform="scale(1, -1)"
	style="font-family:Liberation Serif;font-variant:normal;font-weight:normal;font-style:normal;font-size:10px">12</text>
<text x="260.75" y="-68.016" transform="scale(1, -1)"
	style="font-family:Liberation Serif;font-variant:normal;font-weight:normal;font-style:normal;font-size:10px">14</text>
<text x="290.57" y="-78.639" transform="scale(1, -1)"
	style="font-family:Liberation Serif;font-variant:normal;font-weight:normal;font-style:normal;font-size:10px">28</text>
<text x="290.57" y="-89.261" transform="scale(1, -1)"
	style="font-family:Liberation Serif;font-variant:normal;font-weight:normal;font-style:normal;font-size:10px">25</text>
<text x="284.38" y="-99.884" transform="scale(1, -1)"
	style="font-family:Liberation Serif;font-variant:normal;font-weight:normal;font-style:normal;font-size:10px">29</text>
<text x="284.38" y="-110.51" transform="scale(1, -1)"
	style="font-family:Liberation Serif;font-variant:normal;font-weight:normal;font-style:normal;font-size:10px">27</text>
<text x="225.25" y="-121.13" transform="scale(1, -1)"
	style="font-family:Liberation Serif;font-variant:normal;font-weight:normal;font-style:normal;font-size:10px">22</text>
<text x="225.25" y="-131.75" transform="scale(1, -1)"
	style="font-family:Liberation Serif;font-variant:normal;font-weight:normal;font-style:normal;font-size:10px">16</text>
<text x="211.48" y="-142.37" transform="scale(1, -1)"
	style="font-family:Liberation Serif;font-variant:normal;font-weight:normal;font-style:normal;font-size:10px">30</text>
<text x="211.48" y="-153" transform="scale(1, -1)"
	style="font-family:Liberation Serif;font-variant:normal;font-weight:normal;font-style:normal;font-size:10px">26</text>
<text x="185.13" y="-163.62" transform="scale(1, -1)"
	style="font-family:Liberation Serif;font-variant:normal;font-weight:normal;font-style:normal;font-size:10px">23</text>
<text x="361.75" y="-174.24" transform="scale(1, -1)"
	style="font-family:Liberation Serif;font-variant:normal;font-weight:normal;font-style:normal;font-size:10px">3</text>
<text x="361.75" y="-184.86" transform="scale(1, -1)"
	style="font-family:Liberation Serif;font-variant:normal;font-weight:normal;font-style:normal;font-size:10px">1</text>
<text x="331.16" y="-195.49" transform="scale(1, -1)"
	style="font-family:Liberation Serif;font-variant:normal;font-weight:normal;font-style:normal;font-size:10px">9</text>
<text x="329.75" y="-206.11" transform="scale(1, -1)"
	style="font-family:Liberation Serif;font-variant:normal;font-weight:normal;font-style:normal;font-size:10px">5</text>
<text x="329.75" y="-216.73" transform="scale(1, -1)"
	style="font-family:Liberation Serif;font-variant:normal;font-weight:normal;font-style:normal;font-size:10px">4</text>
<text x="299.98" y="-227.35" transform="scale(1, -1)"
	style="font-family:Liberation Serif;font-variant:normal;font-weight:normal;font-style:normal;font-size:10px">6</text>
<text x="299.98" y="-237.98" transform="scale(1, -1)"
	style="font-family:Liberation Serif;font-variant:normal;font-weight:normal;font-style:normal;font-size:10px">2</text>
<text x="296.69" y="-248.6" transform="scale(1, -1)"
	style="font-family:Liberation Serif;font-variant:normal;font-weight:normal;font-style:normal;font-size:10px">18</text>
<text x="296.69" y="-259.22" transform="scale(1, -1)"
	style="font-family:Liberation Serif;font-variant:normal;font-weight:normal;font-style:normal;font-size:10px">10</text>
<text x="265.55" y="-269.84" transform="scale(1, -1)"
	style="font-family:Liberation Serif;font-variant:normal;font-weight:normal;font-style:normal;font-size:10px">8</text>
<text x="311.97" y="-280.47" transform="scale(1, -1)"
	style="font-family:Liberation Serif;font-variant:normal;font-weight:normal;font-style:normal;font-size:10px">21</text>
<text x="311.97" y="-291.09" transform="scale(1, -1)"
	style="font-family:Liberation Serif;font-variant:normal;font-weight:normal;font-style:normal;font-size:10px">15</text>
<text x="284.68" y="-301.71" transform="scale(1, -1)"
	style="font-family:Liberation Serif;font-variant:normal;font-weight:normal;font-style:normal;font-size:10px">13</text>
<text x="256.63" y="-312.33" transform="scale(1, -1)"
	style="font-family:Liberation Serif;font-variant:normal;font-weight:normal;font-style:normal;font-size:10px">17</text>
<text x="225.59" y="-322.96" transform="scale(1, -1)"
	style="font-family:Liberation Serif;font-variant:normal;font-weight:normal;font-style:normal;font-size:10px">24</text>
<text x="226.43" y="-333.58" transform="scale(1, -1)"
	style="font-family:Liberation Serif;font-variant:normal;font-weight:normal;font-style:normal;font-size:10px">7</text>
<text x="226.43" y="-344.2" transform="scale(1, -1)"
	style="font-family:Liberation Serif;font-variant:normal;font-weight:normal;font-style:normal;font-size:10px">0</text>
<text x="214.07" y="-354.82" transform="scale(1, -1)"
	style="font-family:Liberation Serif;font-variant:normal;font-weight:normal;font-style:normal;font-size:10px">19</text>
<text x="214.07" y="-365.45" transform="scale(1, -1)"
	style="font-family:Liberation Serif;font-variant:normal;font-weight:normal;font-style:normal;font-size:10px">11</text>
<path d="M346.75,365.07L366.75,365.07" style="fill:none;stroke:#000000" />
<text x="335.41" y="-362.24" transform="scale(1, -1)"
	style="font-family:Liberation Sans;font-variant:normal;font-weight:normal;font-style:normal;font-size:12px">Y</text>
</g>
</svg>
