<?xml version="1.0"?>
<!-- Generated by SVGo and Plotinum VG -->
<svg width="498.38pt" height="490.12pt" viewBox="0 0 498.38 490.12"
	xmlns="http://www.w3.org/2000/svg"
	xmlns:xlink="http://www.w3.org/1999/xlink">
<g transform="scale(1, -1) translate(0, -490.12)">
<text x="168.59" y="-480.4" transform="scale(1, -1)"
	style="font-family:Liberation Sans;font-variant:normal;font-weight:normal;font-style:normal;font-size:12px">Axon Inhibition Test Cycle Plot</text>
<text x="253.23" y="-3.6797" transform="scale(1, -1)"
	style="font-family:Liberation Sans;font-variant:normal;font-weight:normal;font-style:normal;font-size:12px">Cycle</text>
<text x="43.654" y="-16.473" transform="scale(1, -1)"
	style="font-family:Liberation Sans;font-variant:normal;font-weight:normal;font-style:normal;font-size:10px">0</text>
<text x="259.89" y="-16.473" transform="scale(1, -1)"
	style="font-family:Liberation Sans;font-variant:normal;font-weight:normal;font-style:normal;font-size:10px">100</text>
<text x="481.69" y="-16.473" transform="scale(1, -1)"
	style="font-family:Liberation Sans;font-variant:normal;font-weight:normal;font-style:normal;font-size:10px">200</text>
<path d="M46.435,24.578L46.435,32.578" style="fill:none;stroke:#000000;stroke-width:0.5" />
<path d="M268.23,24.578L268.23,32.578" style="fill:none;stroke:#000000;stroke-width:0.5" />
<path d="M490.03,24.578L490.03,32.578" style="fill:none;stroke:#000000;stroke-width:0.5" />
<path d="M90.794,28.578L90.794,32.578" style="fill:none;stroke:#000000;stroke-width:0.5" />
<path d="M135.15,28.578L135.15,32.578" style="fill:none;stroke:#000000;stroke-width:0.5" />
<path d="M179.51,28.578L179.51,32.578" style="fill:none;stroke:#000000;stroke-width:0.5" />
<path d="M223.87,28.578L223.87,32.578" style="fill:none;stroke:#000000;stroke-width:0.5" />
<path d="M312.59,28.578L312.59,32.578" style="fill:none;stroke:#000000;stroke-width:0.5" />
<path d="M356.95,28.578L356.95,32.578" style="fill:none;stroke:#000000;stroke-width:0.5" />
<path d="M401.31,28.578L401.31,32.578" style="fill:none;stroke:#000000;stroke-width:0.5" />
<path d="M445.67,28.578L445.67,32.578" style="fill:none;stroke:#000000;stroke-width:0.5" />
<path d="M46.435,32.578L490.03,32.578" style="fill:none;stroke:#000000;stroke-width:0.5" />
<g transform="rotate(90)">
<text x="216.3" y="9.7266" transform="scale(1, -1)"
	style="font-family:Liberation Sans;font-variant:normal;font-weight:normal;font-style:normal;font-size:12px">Layer1_Act.Avg</text>
</g>
<text x="15.949" y="-37.852" transform="scale(1, -1)"
	style="font-family:Liberation Sans;font-variant:normal;font-weight:normal;font-style:normal;font-size:10px">0.0</text>
<text x="15.949" y="-226.48" transform="scale(1, -1)"
	style="font-family:Liberation Sans;font-variant:normal;font-weight:normal;font-style:normal;font-size:10px">0.3</text>
<text x="15.949" y="-415.11" transform="scale(1, -1)"
	style="font-family:Liberation Sans;font-variant:normal;font-weight:normal;font-style:normal;font-size:10px">0.6</text>
<path d="M32.629,40.371L40.629,40.371" style="fill:none;stroke:#000000;stroke-width:0.5" />
<path d="M32.629,229L40.629,229" style="fill:none;stroke:#000000;stroke-width:0.5" />
<path d="M32.629,417.63L40.629,417.63" style="fill:none;stroke:#000000;stroke-width:0.5" />
<path d="M36.629,103.25L40.629,103.25" style="fill:none;stroke:#000000;stroke-width:0.5" />
<path d="M36.629,166.12L40.629,166.12" style="fill:none;stroke:#000000;stroke-width:0.5" />
<path d="M36.629,291.88L40.629,291.88" style="fill:none;stroke:#000000;stroke-width:0.5" />
<path d="M36.629,354.75L40.629,354.75" style="fill:none;stroke:#000000;stroke-width:0.5" />
<path d="M40.629,40.371L40.629,476.72" style="fill:none;stroke:#000000;stroke-width:0.5" />
<path d="M46.435,40.371L48.653,80.133L50.871,79.362L53.089,78.419L55.307,77.381L57.525,76.295L59.743,75.193L61.961,74.094L64.178,73.009L66.396,71.947L68.614,70.911L70.832,69.903L73.05,68.926L75.268,67.978L77.486,67.061L79.704,66.173L81.922,65.314L84.14,64.484L86.358,63.68L88.576,62.904L90.794,62.153L93.012,61.427L95.23,60.725L97.448,60.047L99.666,59.391L101.88,58.757L104.1,58.144L106.32,57.57L108.54,57.096L110.76,56.708L112.97,56.38L115.19,56.108L117.41,55.874L119.63,55.667L121.85,55.479L124.06,55.305L126.28,55.142L128.5,54.987L130.72,54.84L132.94,54.699L135.15,54.564L137.37,54.482L139.59,54.435L141.81,54.508L144.03,54.66L146.24,54.907L148.46,55.233L150.68,55.625L152.9,56.077L155.12,56.561L157.33,57.058L159.55,57.577L161.77,58.105L163.99,58.63L166.21,59.149L168.42,59.658L170.64,60.153L172.86,60.635L175.08,61.104L177.3,61.559L179.51,61.999L181.73,62.426L183.95,62.853L186.17,63.306L188.39,63.789L190.6,64.285L192.82,64.783L195.04,65.277L197.26,65.763L199.48,66.237L201.69,66.698L203.91,67.146L206.13,67.578L208.35,67.995L210.57,68.397L212.78,68.784L215,69.155L217.22,69.512L219.44,69.852L221.66,70.178L223.87,70.489L226.09,70.786L228.31,71.082L230.53,71.379L232.75,71.671L234.96,71.957L237.18,72.235L239.4,72.505L241.62,72.767L243.84,73.02L246.05,73.265L248.27,73.502L250.49,73.732L252.71,73.953L254.93,74.166L257.14,74.369L259.36,74.562L261.58,74.746L263.8,74.922L266.02,75.089L268.23,75.26L270.45,75.443L272.67,75.636L274.89,75.836L277.11,76.056L279.32,76.285L281.54,76.518L283.76,76.751L285.98,76.98L288.2,77.205L290.41,77.423L292.63,77.633L294.85,77.835L297.07,78.03L299.29,78.214L301.5,78.388L303.72,78.548L305.94,78.696L308.16,78.833L310.38,78.959L312.59,79.076L314.81,79.187L317.03,79.315L319.25,79.46L321.47,79.611L323.68,79.765L325.9,79.918L328.12,80.069L330.34,80.216L332.56,80.36L334.77,80.499L336.99,80.634L339.21,80.764L341.43,80.888L343.65,81.006L345.86,81.118L348.08,81.224L350.3,81.327L352.52,81.427L354.74,81.532L356.95,81.643L359.17,81.772L361.39,81.917L363.61,82.069L365.83,82.225L368.04,82.38L370.26,82.533L372.48,82.684L374.7,82.83L376.92,82.973L379.13,83.109L381.35,83.238L383.57,83.359L385.79,83.47L388.01,83.573L390.22,83.666L392.44,83.751L394.66,83.829L396.88,83.896L399.1,83.975L401.31,84.059L403.53,84.143L405.75,84.226L407.97,84.305L410.19,84.382L412.4,84.456L414.62,84.525L416.84,84.589L419.06,84.649L421.28,84.703L423.49,84.754L425.71,84.798L427.93,84.836L430.15,84.869L432.36,84.896L434.58,84.92L436.8,84.939L439.02,84.954L441.24,84.965L443.45,84.971L445.67,84.971L447.89,84.965L450.11,84.953L452.33,84.936L454.54,84.915L456.76,84.891L458.98,84.865L461.2,84.837L463.42,84.809L465.63,84.781L467.85,84.753L470.07,84.726L472.29,84.699L474.51,84.677L476.72,84.658L478.94,84.641L481.16,84.623L483.38,84.612L485.6,84.603L487.81,84.596L490.03,84.588" style="fill:none;stroke:#228B22" />
<path d="M46.435,40.371L48.653,311.93L50.871,372.26L53.089,418.69L55.307,376.79L57.525,353.55L59.743,309.82L61.961,332.07L64.178,384.52L66.396,456.81L68.614,476.72L70.832,455.61L73.05,408.8L75.268,377.21L77.486,350.31L79.704,346.78L81.922,370.46L84.14,339.31L86.358,338.55L88.576,284.78L90.794,290.76L93.012,281.26L95.23,289.61L97.448,321.64L99.666,364.25L101.88,350.36L104.1,360.19L106.32,368.92L108.54,362.69L110.76,365.71L112.97,372.65L115.19,379.33L117.41,378.7L119.63,344.87L121.85,323.25L124.06,299.85L126.28,305.54L128.5,309.02L130.72,259.93L132.94,286.43L135.15,344.58L137.37,367.95L139.59,368.87L141.81,372.18L144.03,367.14L146.24,427.39L148.46,386.28L150.68,390.18L152.9,376.24L155.12,348.72L157.33,343.97L159.55,289.31L161.77,302.75L163.99,308.56L166.21,312.54L168.42,314.38L170.64,316.89L172.86,292.46L175.08,283.09L177.3,260.55L179.51,306.85L181.73,332.33L183.95,322.33L186.17,470.62L188.39,456.56L190.6,418.6L192.82,371.61L195.04,338.08L197.26,284.75L199.48,299.75L201.69,278.61L203.91,364.56L206.13,386.65L208.35,324.7L210.57,299.07L212.78,262.09L215,294.36L217.22,320.09L219.44,323.37L221.66,382.68L223.87,386.58L226.09,422.67L228.31,400.05L230.53,342.74L232.75,316L234.96,357.61L237.18,333.39L239.4,339.32L241.62,338.66L243.84,338.28L246.05,311.69L248.27,287.77L250.49,248.97L252.71,286.88L254.93,273.31L257.14,344.25L259.36,325.8L261.58,354.89L263.8,351.84L266.02,352.15L268.23,317.98L270.45,370.35L272.67,385.57L274.89,442.2L277.11,416.32L279.32,391.3L281.54,382.86L283.76,376.31L285.98,344.23L288.2,316.1L290.41,266.45L292.63,302.27L294.85,311.59L297.07,262.29L299.29,221.08L301.5,306.03L303.72,333.19L305.94,389.38L308.16,366.74L310.38,371.8L312.59,319.1L314.81,352.16L317.03,322.41L319.25,321.09L321.47,331.48L323.68,340.69L325.9,346.69L328.12,344.02L330.34,315.79L332.56,345.15L334.77,336.75L336.99,372L339.21,381.03L341.43,425.88L343.65,400.66L345.86,427.43L348.08,379.22L350.3,350.25L352.52,322.17L354.74,310.55L356.95,316.03L359.17,373.22L361.39,415.18L363.61,436.37L365.83,394.74L368.04,332.58L370.26,332.5L372.48,280.42L374.7,286.91L376.92,268.22L379.13,226.44L381.35,358.77L383.57,329.31L385.79,331.54L388.01,328.75L390.22,323.44L392.44,320.49L394.66,333.19L396.88,308L399.1,369.29L401.31,406.78L403.53,436.11L405.75,407.94L407.97,397.6L410.19,335.17L412.4,335.41L414.62,308.29L416.84,311.95L419.06,263.2L421.28,280.95L423.49,341.7L425.71,361.07L427.93,341.4L430.15,356.6L432.36,337.47L434.58,360.89L436.8,324.19L439.02,331.82L441.24,346.45L443.45,347.33L445.67,340.25L447.89,390.76L450.11,328.86L452.33,335.86L454.54,367.17L456.76,309.01L458.98,267.43L461.2,278.9L463.42,268.07L465.63,269.57L467.85,274.9L470.07,423.63L472.29,408.4L474.51,398.83L476.72,353.78L478.94,356.33L481.16,352.79L483.38,397.6L485.6,381.01L487.81,393.4L490.03,338.14" style="fill:none;stroke:#FF00FF" />
<path d="M46.435,40.371L48.653,327.83L50.871,394.06L53.089,437.59L55.307,397.11L57.525,369.73L59.743,316.18L61.961,324.7L64.178,384.42L66.396,411.04L68.614,397.5L70.832,357.67L73.05,321.74L75.268,295.84L77.486,274.98L79.704,284.44L81.922,320.03L84.14,298.16L86.358,306.51L88.576,259.71L90.794,273.55L93.012,270.57L95.23,285.15L97.448,323.09L99.666,371.07L101.88,347.6L104.1,355.08L106.32,355.82L108.54,328.41L110.76,304.71L112.97,307.6L115.19,310.68L117.41,313.57L119.63,289.36L121.85,270.38L124.06,256.77L126.28,272.14L128.5,284.06L130.72,241.45L132.94,275.87L135.15,341.4L137.37,370.16L139.59,362.66L141.81,370.75L144.03,344.97L146.24,399.92L148.46,337.86L150.68,337.02L152.9,312.2L155.12,287.36L157.33,293.63L159.55,248.5L161.77,266.1L163.99,282.12L166.21,295.13L168.42,305L170.64,314.87L172.86,296.67L175.08,287.39L177.3,264.63L179.51,299.84L181.73,326.17L183.95,322.53L186.17,455.84L188.39,414.45L190.6,349.24L192.82,297.57L195.04,275.67L197.26,234.19L199.48,255.81L201.69,246.06L203.91,344.34L206.13,375.32L208.35,319.62L210.57,301.14L212.78,270.75L215,304.88L217.22,318.47L219.44,322.25L221.66,383.03L223.87,392.59L226.09,421.69L228.31,384.43L230.53,326.66L232.75,281.88L234.96,321.89L237.18,300.36L239.4,309.89L241.62,319.17L243.84,328.09L246.05,309.53L248.27,293.48L250.49,255.43L252.71,302.15L254.93,288.83L257.14,349.14L259.36,336.37L261.58,365.77L263.8,368.39L266.02,361.76L268.23,327.15L270.45,368.66L272.67,344.81L274.89,378.41L277.11,348.96L279.32,321.62L281.54,326.43L283.76,332.75L285.98,312.09L288.2,294.79L290.41,254.64L292.63,301.03L294.85,318.86L297.07,275.96L299.29,241.25L301.5,335.18L303.72,361.91L305.94,412.1L308.16,380.76L310.38,384.94L312.59,330.42L314.81,345.56L317.03,303.48L319.25,265.97L321.47,280.89L323.68,295.17L325.9,306.22L328.12,315.24L330.34,297.15L332.56,337.14L334.77,337.3L336.99,381.17L339.21,397.08L341.43,448.83L343.65,427.95L345.86,453.71L348.08,390.65L350.3,361.17L352.52,314.04L354.74,297.1L356.95,285.89L359.17,328.32L361.39,362.25L363.61,388.06L365.83,356.51L368.04,304.41L370.26,315.73L372.48,272.94L374.7,289.37L376.92,278.97L379.13,244.34L381.35,387.02L383.57,362.2L385.79,363.16L388.01,359.03L390.22,340.71L392.44,337.61L394.66,350.98L396.88,305.97L399.1,350.2L401.31,357.68L403.53,384.46L405.75,352.83L407.97,354.01L410.19,302.22L412.4,314.29L414.62,297.43L416.84,311.07L419.06,270.15L421.28,296.7L423.49,365.97L425.71,391.6L427.93,376.74L430.15,391.58L432.36,351.61L434.58,381.86L436.8,330.95L439.02,339.03L441.24,349.02L443.45,331.91L445.67,313.95L447.89,374.97L450.11,320.15L452.33,330.1L454.54,364.84L456.76,313.78L458.98,273.24L461.2,293.57L463.42,290.3L465.63,292.78L467.85,305.17L470.07,451.06L472.29,433.08L474.51,427.9L476.72,374.16L478.94,356.82L481.16,360.69L483.38,394.61L485.6,364.82L487.81,366.36L490.03,312.81" style="fill:none;stroke:#D2B48C" />
<path d="M478.38,468.94L498.38,468.94" style="fill:none;stroke:#228B22" />
<text x="390.54" y="-466.11" transform="scale(1, -1)"
	style="font-family:Liberation Sans;font-variant:normal;font-weight:normal;font-style:normal;font-size:12px">Layer1_Act.Avg</text>
<path d="M478.38,458.47L498.38,458.47" style="fill:none;stroke:#FF00FF" />
<text x="411.67" y="-455.64" transform="scale(1, -1)"
	style="font-family:Liberation Sans;font-variant:normal;font-weight:normal;font-style:normal;font-size:12px">Layer1_SGi</text>
<path d="M478.38,448L498.38,448" style="fill:none;stroke:#D2B48C" />
<text x="410.34" y="-445.17" transform="scale(1, -1)"
	style="font-family:Liberation Sans;font-variant:normal;font-weight:normal;font-style:normal;font-size:12px">Layer1_OGi</text>
</g>
</svg>
