<?xml version="1.0"?>
<!-- Generated by SVGo and Plotinum VG -->
<svg width="498.38pt" height="490.12pt" viewBox="0 0 498.38 490.12"
	xmlns="http://www.w3.org/2000/svg"
	xmlns:xlink="http://www.w3.org/1999/xlink">
<g transform="scale(1, -1) translate(0, -490.12)">
<text x="163.58" y="-480.4" transform="scale(1, -1)"
	style="font-family:Liberation Sans;font-variant:normal;font-weight:normal;font-style:normal;font-size:12px">Leabra Inhibition Test Cycle Plot</text>
<text x="256.01" y="-3.6797" transform="scale(1, -1)"
	style="font-family:Liberation Sans;font-variant:normal;font-weight:normal;font-style:normal;font-size:12px">Cycle</text>
<text x="49.215" y="-16.473" transform="scale(1, -1)"
	style="font-family:Liberation Sans;font-variant:normal;font-weight:normal;font-style:normal;font-size:10px">0</text>
<text x="262.67" y="-16.473" transform="scale(1, -1)"
	style="font-family:Liberation Sans;font-variant:normal;font-weight:normal;font-style:normal;font-size:10px">100</text>
<text x="481.69" y="-16.473" transform="scale(1, -1)"
	style="font-family:Liberation Sans;font-variant:normal;font-weight:normal;font-style:normal;font-size:10px">200</text>
<path d="M51.996,24.578L51.996,32.578" style="fill:none;stroke:#000000;stroke-width:0.5" />
<path d="M271.01,24.578L271.01,32.578" style="fill:none;stroke:#000000;stroke-width:0.5" />
<path d="M490.03,24.578L490.03,32.578" style="fill:none;stroke:#000000;stroke-width:0.5" />
<path d="M95.8,28.578L95.8,32.578" style="fill:none;stroke:#000000;stroke-width:0.5" />
<path d="M139.6,28.578L139.6,32.578" style="fill:none;stroke:#000000;stroke-width:0.5" />
<path d="M183.41,28.578L183.41,32.578" style="fill:none;stroke:#000000;stroke-width:0.5" />
<path d="M227.21,28.578L227.21,32.578" style="fill:none;stroke:#000000;stroke-width:0.5" />
<path d="M314.82,28.578L314.82,32.578" style="fill:none;stroke:#000000;stroke-width:0.5" />
<path d="M358.62,28.578L358.62,32.578" style="fill:none;stroke:#000000;stroke-width:0.5" />
<path d="M402.43,28.578L402.43,32.578" style="fill:none;stroke:#000000;stroke-width:0.5" />
<path d="M446.23,28.578L446.23,32.578" style="fill:none;stroke:#000000;stroke-width:0.5" />
<path d="M51.996,32.578L490.03,32.578" style="fill:none;stroke:#000000;stroke-width:0.5" />
<g transform="rotate(90)">
<text x="216.3" y="9.7266" transform="scale(1, -1)"
	style="font-family:Liberation Sans;font-variant:normal;font-weight:normal;font-style:normal;font-size:12px">Layer1_Act.Avg</text>
</g>
<text x="15.949" y="-37.852" transform="scale(1, -1)"
	style="font-family:Liberation Sans;font-variant:normal;font-weight:normal;font-style:normal;font-size:10px">0.00</text>
<text x="15.949" y="-177.99" transform="scale(1, -1)"
	style="font-family:Liberation Sans;font-variant:normal;font-weight:normal;font-style:normal;font-size:10px">0.25</text>
<text x="15.949" y="-318.13" transform="scale(1, -1)"
	style="font-family:Liberation Sans;font-variant:normal;font-weight:normal;font-style:normal;font-size:10px">0.50</text>
<text x="15.949" y="-458.27" transform="scale(1, -1)"
	style="font-family:Liberation Sans;font-variant:normal;font-weight:normal;font-style:normal;font-size:10px">0.75</text>
<path d="M38.19,40.371L46.19,40.371" style="fill:none;stroke:#000000;stroke-width:0.5" />
<path d="M38.19,180.51L46.19,180.51" style="fill:none;stroke:#000000;stroke-width:0.5" />
<path d="M38.19,320.65L46.19,320.65" style="fill:none;stroke:#000000;stroke-width:0.5" />
<path d="M38.19,460.79L46.19,460.79" style="fill:none;stroke:#000000;stroke-width:0.5" />
<path d="M42.19,68.399L46.19,68.399" style="fill:none;stroke:#000000;stroke-width:0.5" />
<path d="M42.19,96.426L46.19,96.426" style="fill:none;stroke:#000000;stroke-width:0.5" />
<path d="M42.19,124.45L46.19,124.45" style="fill:none;stroke:#000000;stroke-width:0.5" />
<path d="M42.19,152.48L46.19,152.48" style="fill:none;stroke:#000000;stroke-width:0.5" />
<path d="M42.19,208.54L46.19,208.54" style="fill:none;stroke:#000000;stroke-width:0.5" />
<path d="M42.19,236.56L46.19,236.56" style="fill:none;stroke:#000000;stroke-width:0.5" />
<path d="M42.19,264.59L46.19,264.59" style="fill:none;stroke:#000000;stroke-width:0.5" />
<path d="M42.19,292.62L46.19,292.62" style="fill:none;stroke:#000000;stroke-width:0.5" />
<path d="M42.19,348.68L46.19,348.68" style="fill:none;stroke:#000000;stroke-width:0.5" />
<path d="M42.19,376.7L46.19,376.7" style="fill:none;stroke:#000000;stroke-width:0.5" />
<path d="M42.19,404.73L46.19,404.73" style="fill:none;stroke:#000000;stroke-width:0.5" />
<path d="M42.19,432.76L46.19,432.76" style="fill:none;stroke:#000000;stroke-width:0.5" />
<path d="M46.19,40.371L46.19,476.72" style="fill:none;stroke:#000000;stroke-width:0.5" />
<path d="M51.996,40.371L54.186,40.371L56.376,40.371L58.567,40.371L60.757,40.371L62.947,40.371L65.137,40.371L67.327,40.371L69.518,40.371L71.708,40.371L73.898,40.371L76.088,40.371L78.278,40.371L80.468,40.371L82.659,40.371L84.849,40.371L87.039,40.371L89.229,40.371L91.419,40.371L93.61,40.371L95.8,40.371L97.99,40.371L100.18,40.371L102.37,40.371L104.56,40.371L106.75,40.371L108.94,40.435L111.13,40.601L113.32,40.94L115.51,41.61L117.7,42.662L119.89,43.966L122.08,45.589L124.27,47.583L126.46,49.995L128.65,52.882L130.84,56.099L133.03,59.506L135.22,63.081L137.41,66.72L139.6,70.402L141.79,74.09L143.98,77.756L146.17,81.381L148.36,84.938L150.55,88.442L152.74,91.869L154.93,95.203L157.12,98.437L159.32,101.56L161.51,104.58L163.7,107.49L165.89,110.29L168.08,112.95L170.27,115.47L172.46,117.84L174.65,120.03L176.84,122.05L179.03,123.89L181.22,125.55L183.41,127.02L185.6,128.31L187.79,129.43L189.98,130.37L192.17,131.15L194.36,131.78L196.55,132.27L198.74,132.62L200.93,132.84L203.12,132.95L205.31,132.96L207.5,132.87L209.69,132.69L211.88,132.43L214.07,132.1L216.26,131.7L218.45,131.23L220.64,130.72L222.83,130.15L225.02,129.54L227.21,128.89L229.4,128.2L231.59,127.48L233.78,126.73L235.97,125.96L238.16,125.16L240.35,124.33L242.54,123.5L244.73,122.64L246.92,121.77L249.11,120.89L251.3,120.01L253.49,119.11L255.68,118.21L257.87,117.31L260.06,116.41L262.25,115.5L264.44,114.59L266.63,113.69L268.82,112.79L271.01,111.89L273.2,111L275.39,110.11L277.58,109.23L279.78,108.35L281.97,107.48L284.16,106.61L286.35,105.75L288.54,104.91L290.73,104.07L292.92,103.23L295.11,102.41L297.3,101.6L299.49,100.79L301.68,100L303.87,99.216L306.06,98.443L308.25,97.681L310.44,96.928L312.63,96.185L314.82,95.453L317.01,94.731L319.2,94.021L321.39,93.322L323.58,92.635L325.77,91.957L327.96,91.289L330.15,90.631L332.34,89.983L334.53,89.347L336.72,88.736L338.91,88.144L341.1,87.569L343.29,87.007L345.48,86.457L347.67,85.917L349.86,85.386L352.05,84.878L354.24,84.387L356.43,83.909L358.62,83.442L360.81,82.985L363,82.537L365.19,82.097L367.38,81.664L369.57,81.266L371.76,80.891L373.95,80.534L376.14,80.189L378.33,79.852L380.52,79.525L382.71,79.205L384.9,78.891L387.09,78.583L389.28,78.295L391.47,78.021L393.66,77.771L395.85,77.536L398.05,77.312L400.24,77.11L402.43,76.924L404.62,76.771L406.81,76.641L409,76.564L411.19,76.522L413.38,76.5L415.57,76.491L417.76,76.487L419.95,76.486L422.14,76.485L424.33,76.484L426.52,76.481L428.71,76.499L430.9,76.551L433.09,76.623L435.28,76.716L437.47,76.821L439.66,76.931L441.85,77.053L444.04,77.181L446.23,77.314L448.42,77.448L450.61,77.58L452.8,77.717L454.99,77.867L457.18,78.029L459.37,78.206L461.56,78.39L463.75,78.575L465.94,78.759L468.13,78.947L470.32,79.142L472.51,79.338L474.7,79.533L476.89,79.724L479.08,79.911L481.27,80.092L483.46,80.265L485.65,80.432L487.84,80.592L490.03,80.745" style="fill:none;stroke:#228B22" />
<path d="M51.996,40.371L54.186,40.371L56.376,40.371L58.567,40.371L60.757,85.215L62.947,57.188L65.137,62.793L67.327,40.371L69.518,40.371L71.708,40.371L73.898,40.371L76.088,79.61L78.278,45.977L80.468,57.188L82.659,40.371L84.849,57.188L87.039,45.977L89.229,40.371L91.419,74.004L93.61,45.977L95.8,45.977L97.99,57.188L100.18,40.371L102.37,40.371L104.56,51.582L106.75,74.004L108.94,51.582L111.13,45.977L113.32,45.977L115.51,51.582L117.7,45.977L119.89,40.371L122.08,62.793L124.27,51.582L126.46,51.582L128.65,51.582L130.84,51.582L133.03,45.977L135.22,45.977L137.41,62.793L139.6,45.977L141.79,45.977L143.98,51.582L146.17,45.977L148.36,51.582L150.55,45.977L152.74,62.793L154.93,51.582L157.12,51.582L159.32,45.977L161.51,45.977L163.7,45.977L165.89,51.582L168.08,62.793L170.27,45.977L172.46,40.371L174.65,51.582L176.84,57.188L179.03,51.582L181.22,45.977L183.41,57.188L185.6,51.582L187.79,45.977L189.98,40.371L192.17,45.977L194.36,57.188L196.55,51.582L198.74,51.582L200.93,57.188L203.12,57.188L205.31,40.371L207.5,40.371L209.69,51.582L211.88,45.977L214.07,57.188L216.26,51.582L218.45,57.188L220.64,45.977L222.83,45.977L225.02,40.371L227.21,51.582L229.4,51.582L231.59,57.188L233.78,51.582L235.97,51.582L238.16,51.582L240.35,40.371L242.54,51.582L244.73,45.977L246.92,45.977L249.11,51.582L251.3,45.977L253.49,68.399L255.68,51.582L257.87,40.371L260.06,45.977L262.25,51.582L264.44,45.977L266.63,57.188L268.82,45.977L271.01,51.582L273.2,51.582L275.39,45.977L277.58,40.371L279.78,51.582L281.97,62.793L284.16,51.582L286.35,45.977L288.54,45.977L290.73,57.188L292.92,45.977L295.11,40.371L297.3,51.582L299.49,45.977L301.68,57.188L303.87,51.582L306.06,51.582L308.25,51.582L310.44,45.977L312.63,45.977L314.82,51.582L317.01,45.977L319.2,57.188L321.39,51.582L323.58,45.977L325.77,51.582L327.96,40.371L330.15,45.977L332.34,57.188L334.53,51.582L336.72,51.582L338.91,51.582L341.1,57.188L343.29,45.977L345.48,40.371L347.67,45.977L349.86,51.582L352.05,51.582L354.24,51.582L356.43,45.977L358.62,51.582L360.81,57.188L363,51.582L365.19,40.371L367.38,45.977L369.57,57.188L371.76,57.188L373.95,45.977L376.14,45.977L378.33,45.977L380.52,45.977L382.71,40.371L384.9,57.188L387.09,57.188L389.28,57.188L391.47,51.582L393.66,51.582L395.85,45.977L398.05,40.371L400.24,45.977L402.43,45.977L404.62,45.977L406.81,57.188L409,51.582L411.19,57.188L413.38,57.188L415.57,45.977L417.76,40.371L419.95,51.582L422.14,45.977L424.33,51.582L426.52,45.977L428.71,57.188L430.9,45.977L433.09,40.371L435.28,51.582L437.47,57.188L439.66,57.188L441.85,51.582L444.04,45.977L446.23,45.977L448.42,51.582L450.61,45.977L452.8,40.371L454.99,45.977L457.18,51.582L459.37,68.399L461.56,45.977L463.75,51.582L465.94,51.582L468.13,45.977L470.32,40.371L472.51,45.977L474.7,51.582L476.89,51.582L479.08,57.188L481.27,51.582L483.46,51.582L485.65,40.371L487.84,45.977L490.03,51.582" style="fill:none;stroke:#FF00FF" />
<path d="M51.996,40.371L54.186,40.371L56.376,40.371L58.567,40.371L60.757,40.371L62.947,40.371L65.137,40.371L67.327,40.371L69.518,40.371L71.708,40.371L73.898,40.371L76.088,40.371L78.278,40.371L80.468,40.371L82.659,45.977L84.849,85.215L87.039,118.85L89.229,85.215L91.419,141.27L93.61,90.821L95.8,62.793L97.99,57.188L100.18,85.215L102.37,85.215L104.56,57.188L106.75,45.977L108.94,51.582L111.13,51.582L113.32,74.004L115.51,90.821L117.7,79.61L119.89,45.977L122.08,79.61L124.27,90.821L126.46,96.426L128.65,102.03L130.84,62.793L133.03,45.977L135.22,79.61L137.41,51.582L139.6,68.399L141.79,51.582L143.98,62.793L146.17,79.61L148.36,51.582L150.55,57.188L152.74,40.371L154.93,45.977L157.12,51.582L159.32,45.977L161.51,40.371L163.7,45.977L165.89,40.371L168.08,40.371L170.27,40.371L172.46,40.371L174.65,45.977L176.84,40.371L179.03,40.371L181.22,40.371L183.41,45.977L185.6,40.371L187.79,40.371L189.98,40.371L192.17,40.371L194.36,40.371L196.55,40.371L198.74,40.371L200.93,40.371L203.12,40.371L205.31,40.371L207.5,40.371L209.69,40.371L211.88,40.371L214.07,40.371L216.26,40.371L218.45,40.371L220.64,40.371L222.83,40.371L225.02,40.371L227.21,40.371L229.4,40.371L231.59,40.371L233.78,40.371L235.97,40.371L238.16,40.371L240.35,40.371L242.54,40.371L244.73,40.371L246.92,40.371L249.11,40.371L251.3,40.371L253.49,40.371L255.68,40.371L257.87,40.371L260.06,40.371L262.25,40.371L264.44,40.371L266.63,40.371L268.82,40.371L271.01,40.371L273.2,40.371L275.39,40.371L277.58,40.371L279.78,40.371L281.97,40.371L284.16,40.371L286.35,40.371L288.54,40.371L290.73,40.371L292.92,40.371L295.11,40.371L297.3,40.371L299.49,45.977L301.68,40.371L303.87,40.371L306.06,40.371L308.25,40.371L310.44,45.977L312.63,40.371L314.82,40.371L317.01,40.371L319.2,40.371L321.39,40.371L323.58,40.371L325.77,45.977L327.96,45.977L330.15,40.371L332.34,40.371L334.53,40.371L336.72,45.977L338.91,40.371L341.1,40.371L343.29,40.371L345.48,45.977L347.67,40.371L349.86,45.977L352.05,51.582L354.24,45.977L356.43,40.371L358.62,45.977L360.81,40.371L363,57.188L365.19,40.371L367.38,40.371L369.57,57.188L371.76,40.371L373.95,51.582L376.14,45.977L378.33,45.977L380.52,40.371L382.71,45.977L384.9,40.371L387.09,45.977L389.28,57.188L391.47,40.371L393.66,45.977L395.85,51.582L398.05,45.977L400.24,51.582L402.43,45.977L404.62,57.188L406.81,45.977L409,62.793L411.19,40.371L413.38,40.371L415.57,45.977L417.76,40.371L419.95,40.371L422.14,45.977L424.33,40.371L426.52,45.977L428.71,62.793L430.9,57.188L433.09,45.977L435.28,51.582L437.47,45.977L439.66,40.371L441.85,51.582L444.04,40.371L446.23,51.582L448.42,51.582L450.61,40.371L452.8,45.977L454.99,62.793L457.18,51.582L459.37,51.582L461.56,40.371L463.75,40.371L465.94,45.977L468.13,45.977L470.32,45.977L472.51,40.371L474.7,45.977L476.89,51.582L479.08,40.371L481.27,51.582L483.46,45.977L485.65,51.582L487.84,40.371L490.03,45.977" style="fill:none;stroke:#D2B48C" />
<path d="M51.996,40.371L54.186,40.371L56.376,40.371L58.567,40.371L60.757,40.371L62.947,40.371L65.137,173.22L67.327,206.27L69.518,257.86L71.708,204.58L73.898,161.91L76.088,127.73L78.278,100.35L80.468,245.86L82.659,219.41L84.849,246.09L87.039,197.33L89.229,230.92L91.419,209.74L93.61,169.01L95.8,281.11L97.99,247.47L100.18,221.55L102.37,249.8L104.56,201.51L106.75,161.93L108.94,183.09L111.13,326.86L113.32,394.68L115.51,476.27L117.7,476.72L119.89,472.41L122.08,456.54L124.27,398.65L126.46,450.57L128.65,424.96L130.84,394.43L133.03,365.75L135.22,363.18L137.41,339.29L139.6,329L141.79,423.41L143.98,421.08L146.17,378.13L148.36,386.49L150.55,365.88L152.74,369.6L154.93,353.26L157.12,418.18L159.32,408.97L161.51,409.99L163.7,369.01L165.89,340.23L168.08,334.76L170.27,326.13L172.46,368.21L174.65,335.66L176.84,280.45L179.03,282.7L181.22,303.9L183.41,297.89L185.6,268.06L187.79,291.44L189.98,287.92L192.17,260.28L194.36,214.3L196.55,200.62L198.74,238.84L200.93,244.36L203.12,247.6L205.31,275.39L207.5,299.61L209.69,246.74L211.88,203.61L214.07,215.76L216.26,203.02L218.45,239.32L220.64,243.9L222.83,273.59L225.02,250.7L227.21,230.77L229.4,190.95L231.59,205.73L233.78,219.41L235.97,252.66L238.16,255.77L240.35,259.28L242.54,262.84L244.73,217.56L246.92,228.61L249.11,213.39L251.3,201.91L253.49,215.25L255.68,201.64L257.87,286.52L260.06,286.41L262.25,237.29L264.44,220.59L266.63,230.9L268.82,216.71L271.01,252.3L273.2,232.46L275.39,241.17L277.58,249.56L279.78,231.21L281.97,192.66L284.16,208.51L286.35,270.11L288.54,272L290.73,249.06L292.92,231.79L295.11,266.34L297.3,245.84L299.49,205.17L301.68,219.96L303.87,208.52L306.06,245.53L308.25,251.16L310.44,257.57L312.63,264.85L314.82,244.31L317.01,228.13L319.2,239.25L321.39,224.95L323.58,259.69L325.77,263.57L327.96,244.99L330.15,254.02L332.34,212.29L334.53,201.82L336.72,241.4L338.91,252.11L341.1,258.46L343.29,263.6L345.48,292.14L347.67,269.64L349.86,225.68L352.05,214.14L354.24,228.62L356.43,241.26L358.62,249.75L360.81,232.85L363,243.8L365.19,279.67L367.38,281.68L369.57,235.5L371.76,223.4L373.95,259.68L376.14,289.71L378.33,265.13L380.52,247.22L382.71,232.64L384.9,220.34L387.09,186.08L389.28,230.11L391.47,268.91L393.66,296.18L395.85,294.63L398.05,296.23L400.24,273.41L402.43,229.63L404.62,217.92L406.81,209.95L409,202.71L411.19,244.51L413.38,251.12L415.57,283.11L417.76,310.58L419.95,284.07L422.14,238.52L424.33,249.69L426.52,235.29L428.71,247.22L430.9,233.6L433.09,269.81L435.28,250.97L437.47,211.84L439.66,227.54L441.85,268.21L444.04,299.41L446.23,302.85L448.42,277.17L450.61,257.96L452.8,270.36L454.99,256.41L457.18,217.6L459.37,213.68L461.56,229.29L463.75,312.53L465.94,284.33L468.13,302.02L470.32,308.19L472.51,287.08L474.7,240.89L476.89,228.06L479.08,246.96L481.27,265.25L483.46,294.65L485.65,296.09L487.84,308.62L490.03,277.07" style="fill:none;stroke:#A52A2A" />
<path d="M51.996,40.371L54.186,40.371L56.376,40.371L58.567,40.371L60.757,40.371L62.947,40.371L65.137,40.371L67.327,40.371L69.518,40.371L71.708,40.371L73.898,40.371L76.088,40.371L78.278,40.371L80.468,40.371L82.659,40.371L84.849,40.371L87.039,40.371L89.229,40.371L91.419,40.371L93.61,40.371L95.8,40.371L97.99,40.371L100.18,40.371L102.37,40.371L104.56,40.371L106.75,40.371L108.94,40.371L111.13,40.417L113.32,40.548L115.51,40.828L117.7,41.387L119.89,42.298L122.08,43.489L124.27,44.989L126.46,46.842L128.65,49.094L130.84,51.8L133.03,54.871L135.22,58.182L137.41,61.682L139.6,65.281L141.79,68.939L143.98,72.618L146.17,76.288L148.36,79.926L150.55,83.506L152.74,87.031L154.93,90.487L157.12,93.856L159.32,97.128L161.51,100.3L163.7,103.36L165.89,106.31L168.08,109.15L170.27,111.86L172.46,114.44L174.65,116.87L176.84,119.13L179.03,121.22L181.22,123.13L183.41,124.86L185.6,126.4L187.79,127.77L189.98,128.95L192.17,129.96L194.36,130.81L196.55,131.5L198.74,132.05L200.93,132.45L203.12,132.73L205.31,132.89L207.5,132.94L209.69,132.89L211.88,132.74L214.07,132.52L216.26,132.22L218.45,131.85L220.64,131.41L222.83,130.92L225.02,130.37L227.21,129.78L229.4,129.15L231.59,128.47L233.78,127.77L235.97,127.03L238.16,126.26L240.35,125.47L242.54,124.66L244.73,123.83L246.92,122.98L249.11,122.12L251.3,121.24L253.49,120.36L255.68,119.47L257.87,118.57L260.06,117.67L262.25,116.77L264.44,115.86L266.63,114.96L268.82,114.05L271.01,113.15L273.2,112.25L275.39,111.36L277.58,110.47L279.78,109.58L281.97,108.7L284.16,107.83L286.35,106.96L288.54,106.1L290.73,105.25L292.92,104.4L295.11,103.57L297.3,102.74L299.49,101.93L301.68,101.12L303.87,100.32L306.06,99.531L308.25,98.754L310.44,97.987L312.63,97.231L314.82,96.484L317.01,95.747L319.2,95.022L321.39,94.307L323.58,93.604L325.77,92.911L327.96,92.23L330.15,91.557L332.34,90.896L334.53,90.244L336.72,89.603L338.91,88.983L341.1,88.384L343.29,87.802L345.48,87.234L347.67,86.679L349.86,86.135L352.05,85.6L354.24,85.084L356.43,84.586L358.62,84.102L360.81,83.631L363,83.169L365.19,82.718L367.38,82.274L369.57,81.838L371.76,81.429L373.95,81.045L376.14,80.68L378.33,80.329L380.52,79.989L382.71,79.657L384.9,79.334L387.09,79.018L389.28,78.708L391.47,78.413L393.66,78.133L395.85,77.874L398.05,77.633L400.24,77.404L402.43,77.194L404.62,77.001L406.81,76.837L409,76.697L411.19,76.602L413.38,76.545L415.57,76.513L417.76,76.497L419.95,76.49L422.14,76.487L424.33,76.486L426.52,76.484L428.71,76.482L430.9,76.494L433.09,76.535L435.28,76.598L437.47,76.683L439.66,76.781L441.85,76.888L444.04,77.006L446.23,77.131L448.42,77.262L450.61,77.394L452.8,77.527L454.99,77.663L457.18,77.808L459.37,77.966L461.56,78.138L463.75,78.318L465.94,78.502L468.13,78.685L470.32,78.872L472.51,79.065L474.7,79.26L476.89,79.455L479.08,79.647L481.27,79.836L483.46,80.019L485.65,80.195L487.84,80.364L490.03,80.527" style="fill:none;stroke:#7FFF00" />
<path d="M51.996,40.371L54.186,40.371L56.376,40.371L58.567,40.371L60.757,40.371L62.947,40.371L65.137,40.371L67.327,40.371L69.518,40.371L71.708,40.371L73.898,40.371L76.088,40.371L78.278,40.371L80.468,40.371L82.659,40.371L84.849,40.371L87.039,40.371L89.229,40.371L91.419,40.371L93.61,40.371L95.8,40.371L97.99,40.371L100.18,40.371L102.37,45.977L104.56,79.61L106.75,135.67L108.94,197.33L111.13,118.85L113.32,85.215L115.51,102.03L117.7,74.004L119.89,74.004L122.08,51.582L124.27,40.371L126.46,40.371L128.65,62.793L130.84,62.793L133.03,74.004L135.22,107.64L137.41,102.03L139.6,51.582L141.79,74.004L143.98,74.004L146.17,68.399L148.36,74.004L150.55,79.61L152.74,62.793L154.93,74.004L157.12,51.582L159.32,57.188L161.51,79.61L163.7,45.977L165.89,45.977L168.08,51.582L170.27,45.977L172.46,45.977L174.65,40.371L176.84,40.371L179.03,40.371L181.22,40.371L183.41,40.371L185.6,40.371L187.79,40.371L189.98,40.371L192.17,40.371L194.36,40.371L196.55,40.371L198.74,40.371L200.93,40.371L203.12,40.371L205.31,40.371L207.5,40.371L209.69,40.371L211.88,40.371L214.07,40.371L216.26,40.371L218.45,40.371L220.64,40.371L222.83,40.371L225.02,40.371L227.21,40.371L229.4,40.371L231.59,40.371L233.78,40.371L235.97,40.371L238.16,40.371L240.35,40.371L242.54,40.371L244.73,40.371L246.92,40.371L249.11,40.371L251.3,40.371L253.49,40.371L255.68,40.371L257.87,40.371L260.06,40.371L262.25,40.371L264.44,40.371L266.63,40.371L268.82,40.371L271.01,40.371L273.2,40.371L275.39,40.371L277.58,40.371L279.78,40.371L281.97,40.371L284.16,40.371L286.35,40.371L288.54,40.371L290.73,40.371L292.92,40.371L295.11,40.371L297.3,40.371L299.49,40.371L301.68,40.371L303.87,40.371L306.06,40.371L308.25,40.371L310.44,40.371L312.63,40.371L314.82,40.371L317.01,40.371L319.2,40.371L321.39,40.371L323.58,40.371L325.77,40.371L327.96,40.371L330.15,40.371L332.34,40.371L334.53,40.371L336.72,40.371L338.91,40.371L341.1,40.371L343.29,40.371L345.48,40.371L347.67,40.371L349.86,40.371L352.05,40.371L354.24,40.371L356.43,40.371L358.62,40.371L360.81,40.371L363,40.371L365.19,40.371L367.38,40.371L369.57,40.371L371.76,40.371L373.95,40.371L376.14,40.371L378.33,40.371L380.52,40.371L382.71,40.371L384.9,40.371L387.09,40.371L389.28,40.371L391.47,40.371L393.66,40.371L395.85,40.371L398.05,40.371L400.24,40.371L402.43,40.371L404.62,40.371L406.81,40.371L409,40.371L411.19,40.371L413.38,40.371L415.57,40.371L417.76,40.371L419.95,40.371L422.14,40.371L424.33,40.371L426.52,40.371L428.71,40.371L430.9,40.371L433.09,40.371L435.28,45.977L437.47,40.371L439.66,45.977L441.85,40.371L444.04,40.371L446.23,45.977L448.42,45.977L450.61,40.371L452.8,45.977L454.99,40.371L457.18,40.371L459.37,40.371L461.56,57.188L463.75,45.977L465.94,45.977L468.13,40.371L470.32,40.371L472.51,45.977L474.7,51.582L476.89,40.371L479.08,40.371L481.27,51.582L483.46,62.793L485.65,57.188L487.84,40.371L490.03,40.371" style="fill:none;stroke:#FFA500" />
<path d="M478.38,468.94L498.38,468.94" style="fill:none;stroke:#228B22" />
<text x="390.54" y="-466.11" transform="scale(1, -1)"
	style="font-family:Liberation Sans;font-variant:normal;font-weight:normal;font-style:normal;font-size:12px">Layer1_Act.Avg</text>
<path d="M478.38,458.47L498.38,458.47" style="fill:none;stroke:#FF00FF" />
<text x="395.66" y="-455.64" transform="scale(1, -1)"
	style="font-family:Liberation Sans;font-variant:normal;font-weight:normal;font-style:normal;font-size:12px">Layer0_Spikes</text>
<path d="M478.38,448L498.38,448" style="fill:none;stroke:#D2B48C" />
<text x="395.66" y="-445.17" transform="scale(1, -1)"
	style="font-family:Liberation Sans;font-variant:normal;font-weight:normal;font-style:normal;font-size:12px">Layer1_Spikes</text>
<path d="M478.38,437.53L498.38,437.53" style="fill:none;stroke:#A52A2A" />
<text x="405.02" y="-434.7" transform="scale(1, -1)"
	style="font-family:Liberation Sans;font-variant:normal;font-weight:normal;font-style:normal;font-size:12px">Layer1_OFFi</text>
<path d="M478.38,427.06L498.38,427.06" style="fill:none;stroke:#7FFF00" />
<text x="404.34" y="-424.23" transform="scale(1, -1)"
	style="font-family:Liberation Sans;font-variant:normal;font-weight:normal;font-style:normal;font-size:12px">Layer1_OFBi</text>
<path d="M478.38,416.59L498.38,416.59" style="fill:none;stroke:#FFA500" />
<text x="395.66" y="-413.76" transform="scale(1, -1)"
	style="font-family:Liberation Sans;font-variant:normal;font-weight:normal;font-style:normal;font-size:12px">Layer2_Spikes</text>
</g>
</svg>
