<?xml version="1.0"?>
<!-- Generated by SVGo and Plotinum VG -->
<svg width="633.38pt" height="313.12pt" viewBox="0 0 633.38 313.12"
	xmlns="http://www.w3.org/2000/svg"
	xmlns:xlink="http://www.w3.org/1999/xlink">
<g transform="scale(1, -1) translate(0, -313.12)">
<text x="268.67" y="-303.4" transform="scale(1, -1)"
	style="font-family:Helvetica;font-weight:normal;font-style:normal;font-size:12px">Urakubo DWt Plot</text>
<text x="337.57" y="-3.6797" transform="scale(1, -1)"
	style="font-family:Helvetica;font-weight:normal;font-style:normal;font-size:12px">X</text>
<text x="46.984" y="-16.473" transform="scale(1, -1)"
	style="font-family:Helvetica;font-weight:normal;font-style:normal;font-size:10px">0</text>
<text x="297.95" y="-16.473" transform="scale(1, -1)"
	style="font-family:Helvetica;font-weight:normal;font-style:normal;font-size:10px">50</text>
<text x="548.91" y="-16.473" transform="scale(1, -1)"
	style="font-family:Helvetica;font-weight:normal;font-style:normal;font-size:10px">100</text>
<path d="M49.765,24.578L49.765,32.578" style="fill:none;stroke:#000000;stroke-width:0.5" />
<path d="M303.51,24.578L303.51,32.578" style="fill:none;stroke:#000000;stroke-width:0.5" />
<path d="M557.25,24.578L557.25,32.578" style="fill:none;stroke:#000000;stroke-width:0.5" />
<path d="M100.51,28.578L100.51,32.578" style="fill:none;stroke:#000000;stroke-width:0.5" />
<path d="M151.26,28.578L151.26,32.578" style="fill:none;stroke:#000000;stroke-width:0.5" />
<path d="M202.01,28.578L202.01,32.578" style="fill:none;stroke:#000000;stroke-width:0.5" />
<path d="M252.76,28.578L252.76,32.578" style="fill:none;stroke:#000000;stroke-width:0.5" />
<path d="M354.26,28.578L354.26,32.578" style="fill:none;stroke:#000000;stroke-width:0.5" />
<path d="M405.01,28.578L405.01,32.578" style="fill:none;stroke:#000000;stroke-width:0.5" />
<path d="M455.75,28.578L455.75,32.578" style="fill:none;stroke:#000000;stroke-width:0.5" />
<path d="M506.5,28.578L506.5,32.578" style="fill:none;stroke:#000000;stroke-width:0.5" />
<path d="M608,28.578L608,32.578" style="fill:none;stroke:#000000;stroke-width:0.5" />
<path d="M49.765,32.578L633.38,32.578" style="fill:none;stroke:#000000;stroke-width:0.5" />
<g transform="rotate(90)">
<text x="156.81" y="9.7266" transform="scale(1, -1)"
	style="font-family:Helvetica;font-weight:normal;font-style:normal;font-size:12px">DWt</text>
</g>
<text x="15.949" y="-74.453" transform="scale(1, -1)"
	style="font-family:Helvetica;font-weight:normal;font-style:normal;font-size:10px">-0.2</text>
<text x="15.949" y="-147.65" transform="scale(1, -1)"
	style="font-family:Helvetica;font-weight:normal;font-style:normal;font-size:10px">-0.1</text>
<text x="19.279" y="-220.86" transform="scale(1, -1)"
	style="font-family:Helvetica;font-weight:normal;font-style:normal;font-size:10px">0.0</text>
<text x="19.279" y="-294.06" transform="scale(1, -1)"
	style="font-family:Helvetica;font-weight:normal;font-style:normal;font-size:10px">0.1</text>
<path d="M35.959,76.972L43.959,76.972" style="fill:none;stroke:#000000;stroke-width:0.5" />
<path d="M35.959,150.17L43.959,150.17" style="fill:none;stroke:#000000;stroke-width:0.5" />
<path d="M35.959,223.38L43.959,223.38" style="fill:none;stroke:#000000;stroke-width:0.5" />
<path d="M35.959,296.58L43.959,296.58" style="fill:none;stroke:#000000;stroke-width:0.5" />
<path d="M39.959,47.691L43.959,47.691" style="fill:none;stroke:#000000;stroke-width:0.5" />
<path d="M39.959,62.332L43.959,62.332" style="fill:none;stroke:#000000;stroke-width:0.5" />
<path d="M39.959,91.613L43.959,91.613" style="fill:none;stroke:#000000;stroke-width:0.5" />
<path d="M39.959,106.25L43.959,106.25" style="fill:none;stroke:#000000;stroke-width:0.5" />
<path d="M39.959,120.89L43.959,120.89" style="fill:none;stroke:#000000;stroke-width:0.5" />
<path d="M39.959,135.53L43.959,135.53" style="fill:none;stroke:#000000;stroke-width:0.5" />
<path d="M39.959,164.81L43.959,164.81" style="fill:none;stroke:#000000;stroke-width:0.5" />
<path d="M39.959,179.46L43.959,179.46" style="fill:none;stroke:#000000;stroke-width:0.5" />
<path d="M39.959,194.1L43.959,194.1" style="fill:none;stroke:#000000;stroke-width:0.5" />
<path d="M39.959,208.74L43.959,208.74" style="fill:none;stroke:#000000;stroke-width:0.5" />
<path d="M39.959,238.02L43.959,238.02" style="fill:none;stroke:#000000;stroke-width:0.5" />
<path d="M39.959,252.66L43.959,252.66" style="fill:none;stroke:#000000;stroke-width:0.5" />
<path d="M39.959,267.3L43.959,267.3" style="fill:none;stroke:#000000;stroke-width:0.5" />
<path d="M39.959,281.94L43.959,281.94" style="fill:none;stroke:#000000;stroke-width:0.5" />
<path d="M43.959,40.371L43.959,296.58" style="fill:none;stroke:#000000;stroke-width:0.5" />
<path d="M100.51,141.58L151.26,139.39L202.01,138.13L252.76,138.83L303.51,140.93L354.26,148.08L405.01,147.59L455.75,146.1L506.5,142.11L557.25,146.36" style="fill:none;stroke:#000000" />
<path d="M100.51,139.87L151.26,137.95L202.01,137.95L252.76,140.66L303.51,143.21L354.26,152.56L405.01,153.09L455.75,152.26L506.5,149.04L557.25,156.93" style="fill:none;stroke:#FF0000" />
<path d="M100.51,138.71L151.26,137.63L202.01,138.77L252.76,143.05L303.51,145.61L354.26,156.55L405.01,157.68L455.75,157.75L506.5,155.37L557.25,166.72" style="fill:none;stroke:#0000FF" />
<path d="M100.51,137.94L151.26,138.01L202.01,140.09L252.76,145.58L303.51,147.98L354.26,160.22L405.01,162.19L455.75,163.29L506.5,161.26L557.25,175.97" style="fill:none;stroke:#228B22" />
<path d="M100.51,137.45L151.26,138.84L202.01,141.82L252.76,148.1L303.51,150.25L354.26,163.7L405.01,166.54L455.75,168.27L506.5,167.23L557.25,184.92" style="fill:none;stroke:#800080" />
<path d="M100.51,137.19L151.26,139.96L202.01,143.64L252.76,150.53L303.51,152.41L354.26,167.07L405.01,170.27L455.75,172.86L506.5,172.53L557.25,193.68" style="fill:none;stroke:#FFA500" />
<path d="M100.51,137.11L151.26,141.25L202.01,145.49L252.76,152.86L303.51,154.47L354.26,170.31L405.01,174.13L455.75,177.65L506.5,177.7L557.25,202.31" style="fill:none;stroke:#A52A2A" />
<path d="M100.51,137.18L151.26,142.64L202.01,147.46L252.76,155.09L303.51,156.43L354.26,173.09L405.01,178.01L455.75,182.26L506.5,183.2L557.25,210.83" style="fill:none;stroke:#7FFF00" />
<path d="M100.51,137.37L151.26,144.09L202.01,149.33L252.76,157.22L303.51,158.31L354.26,176.18L405.01,181.43L455.75,186.51L506.5,188.23L557.25,219.38" style="fill:none;stroke:#000080" />
<path d="M613.38,294.48L633.38,294.48" style="fill:none;stroke:#000000" />
<text x="563.36" y="-291.66" transform="scale(1, -1)"
	style="font-family:Helvetica;font-weight:normal;font-style:normal;font-size:12px">200 DWt</text>
<path d="M613.38,284.01L633.38,284.01" style="fill:none;stroke:#FF0000" />
<text x="563.36" y="-281.19" transform="scale(1, -1)"
	style="font-family:Helvetica;font-weight:normal;font-style:normal;font-size:12px">300 DWt</text>
<path d="M613.38,273.54L633.38,273.54" style="fill:none;stroke:#0000FF" />
<text x="563.36" y="-270.71" transform="scale(1, -1)"
	style="font-family:Helvetica;font-weight:normal;font-style:normal;font-size:12px">400 DWt</text>
<path d="M613.38,263.07L633.38,263.07" style="fill:none;stroke:#228B22" />
<text x="563.36" y="-260.24" transform="scale(1, -1)"
	style="font-family:Helvetica;font-weight:normal;font-style:normal;font-size:12px">500 DWt</text>
<path d="M613.38,252.6L633.38,252.6" style="fill:none;stroke:#800080" />
<text x="563.36" y="-249.77" transform="scale(1, -1)"
	style="font-family:Helvetica;font-weight:normal;font-style:normal;font-size:12px">600 DWt</text>
<path d="M613.38,242.13L633.38,242.13" style="fill:none;stroke:#FFA500" />
<text x="563.36" y="-239.3" transform="scale(1, -1)"
	style="font-family:Helvetica;font-weight:normal;font-style:normal;font-size:12px">700 DWt</text>
<path d="M613.38,231.66L633.38,231.66" style="fill:none;stroke:#A52A2A" />
<text x="563.36" y="-228.83" transform="scale(1, -1)"
	style="font-family:Helvetica;font-weight:normal;font-style:normal;font-size:12px">800 DWt</text>
<path d="M613.38,221.19L633.38,221.19" style="fill:none;stroke:#7FFF00" />
<text x="563.36" y="-218.36" transform="scale(1, -1)"
	style="font-family:Helvetica;font-weight:normal;font-style:normal;font-size:12px">900 DWt</text>
<path d="M613.38,210.72L633.38,210.72" style="fill:none;stroke:#000080" />
<text x="556.69" y="-207.89" transform="scale(1, -1)"
	style="font-family:Helvetica;font-weight:normal;font-style:normal;font-size:12px">1000 DWt</text>
</g>
</svg>
