<?xml version="1.0"?>
<!-- Generated by SVGo and Plotinum VG -->
<svg width="633.38pt" height="313.12pt" viewBox="0 0 633.38 313.12"
	xmlns="http://www.w3.org/2000/svg"
	xmlns:xlink="http://www.w3.org/1999/xlink">
<g transform="scale(1, -1) translate(0, -313.12)">
<text x="268.67" y="-303.4" transform="scale(1, -1)"
	style="font-family:Helvetica;font-weight:normal;font-style:normal;font-size:12px">Urakubo DWt Plot</text>
<text x="336.18" y="-3.6797" transform="scale(1, -1)"
	style="font-family:Helvetica;font-weight:normal;font-style:normal;font-size:12px">X</text>
<text x="45.319" y="-16.473" transform="scale(1, -1)"
	style="font-family:Helvetica;font-weight:normal;font-style:normal;font-size:10px">-5</text>
<text x="337.4" y="-16.473" transform="scale(1, -1)"
	style="font-family:Helvetica;font-weight:normal;font-style:normal;font-size:10px">0</text>
<text x="627.81" y="-16.473" transform="scale(1, -1)"
	style="font-family:Helvetica;font-weight:normal;font-style:normal;font-size:10px">5</text>
<path d="M49.765,24.578L49.765,32.578" style="fill:none;stroke:#000000;stroke-width:0.5" />
<path d="M340.18,24.578L340.18,32.578" style="fill:none;stroke:#000000;stroke-width:0.5" />
<path d="M630.59,24.578L630.59,32.578" style="fill:none;stroke:#000000;stroke-width:0.5" />
<path d="M107.85,28.578L107.85,32.578" style="fill:none;stroke:#000000;stroke-width:0.5" />
<path d="M165.93,28.578L165.93,32.578" style="fill:none;stroke:#000000;stroke-width:0.5" />
<path d="M224.01,28.578L224.01,32.578" style="fill:none;stroke:#000000;stroke-width:0.5" />
<path d="M282.1,28.578L282.1,32.578" style="fill:none;stroke:#000000;stroke-width:0.5" />
<path d="M398.26,28.578L398.26,32.578" style="fill:none;stroke:#000000;stroke-width:0.5" />
<path d="M456.35,28.578L456.35,32.578" style="fill:none;stroke:#000000;stroke-width:0.5" />
<path d="M514.43,28.578L514.43,32.578" style="fill:none;stroke:#000000;stroke-width:0.5" />
<path d="M572.51,28.578L572.51,32.578" style="fill:none;stroke:#000000;stroke-width:0.5" />
<path d="M49.765,32.578L630.59,32.578" style="fill:none;stroke:#000000;stroke-width:0.5" />
<g transform="rotate(90)">
<text x="156.81" y="9.7266" transform="scale(1, -1)"
	style="font-family:Helvetica;font-weight:normal;font-style:normal;font-size:12px">DWt</text>
</g>
<text x="15.949" y="-37.852" transform="scale(1, -1)"
	style="font-family:Helvetica;font-weight:normal;font-style:normal;font-size:10px">-0.3</text>
<text x="19.279" y="-165.96" transform="scale(1, -1)"
	style="font-family:Helvetica;font-weight:normal;font-style:normal;font-size:10px">0.0</text>
<text x="19.279" y="-294.06" transform="scale(1, -1)"
	style="font-family:Helvetica;font-weight:normal;font-style:normal;font-size:10px">0.3</text>
<path d="M35.959,40.371L43.959,40.371" style="fill:none;stroke:#000000;stroke-width:0.5" />
<path d="M35.959,168.48L43.959,168.48" style="fill:none;stroke:#000000;stroke-width:0.5" />
<path d="M35.959,296.58L43.959,296.58" style="fill:none;stroke:#000000;stroke-width:0.5" />
<path d="M39.959,83.072L43.959,83.072" style="fill:none;stroke:#000000;stroke-width:0.5" />
<path d="M39.959,125.77L43.959,125.77" style="fill:none;stroke:#000000;stroke-width:0.5" />
<path d="M39.959,211.18L43.959,211.18" style="fill:none;stroke:#000000;stroke-width:0.5" />
<path d="M39.959,253.88L43.959,253.88" style="fill:none;stroke:#000000;stroke-width:0.5" />
<path d="M43.959,40.371L43.959,296.58" style="fill:none;stroke:#000000;stroke-width:0.5" />
<path d="M49.765,88.611L107.85,65.67L165.93,126.17L224.01,126.5L282.1,129.32L340.18,135.67L398.26,145.74L456.35,157.88L514.43,172.78L572.51,185.74L630.59,187.95" style="fill:none;stroke:#FF0000" />
<path d="M613.38,294.48L633.38,294.48" style="fill:none;stroke:#FF0000" />
<text x="570.03" y="-291.66" transform="scale(1, -1)"
	style="font-family:Helvetica;font-weight:normal;font-style:normal;font-size:12px">50 DWt</text>
</g>
</svg>
