<?xml version="1.0"?>
<!-- Generated by SVGo and Plotinum VG -->
<svg width="633.38pt" height="313.12pt" viewBox="0 0 633.38 313.12"
	xmlns="http://www.w3.org/2000/svg"
	xmlns:xlink="http://www.w3.org/1999/xlink">
<g transform="scale(1, -1) translate(0, -313.12)">
<text x="249.99" y="-303.4" transform="scale(1, -1)"
	style="font-family:Helvetica;font-weight:normal;font-style:normal;font-size:12px">Urakubo Phase DWt Plot</text>
<text x="324.01" y="-3.6797" transform="scale(1, -1)"
	style="font-family:Helvetica;font-weight:normal;font-style:normal;font-size:12px">CHL</text>
<text x="36.979" y="-16.473" transform="scale(1, -1)"
	style="font-family:Helvetica;font-weight:normal;font-style:normal;font-size:10px">-1</text>
<text x="235.03" y="-16.473" transform="scale(1, -1)"
	style="font-family:Helvetica;font-weight:normal;font-style:normal;font-size:10px">0</text>
<text x="431.42" y="-16.473" transform="scale(1, -1)"
	style="font-family:Helvetica;font-weight:normal;font-style:normal;font-size:10px">1</text>
<text x="627.81" y="-16.473" transform="scale(1, -1)"
	style="font-family:Helvetica;font-weight:normal;font-style:normal;font-size:10px">2</text>
<path d="M41.425,24.578L41.425,32.578" style="fill:none;stroke:#000000;stroke-width:0.5" />
<path d="M237.81,24.578L237.81,32.578" style="fill:none;stroke:#000000;stroke-width:0.5" />
<path d="M434.2,24.578L434.2,32.578" style="fill:none;stroke:#000000;stroke-width:0.5" />
<path d="M630.59,24.578L630.59,32.578" style="fill:none;stroke:#000000;stroke-width:0.5" />
<path d="M80.703,28.578L80.703,32.578" style="fill:none;stroke:#000000;stroke-width:0.5" />
<path d="M119.98,28.578L119.98,32.578" style="fill:none;stroke:#000000;stroke-width:0.5" />
<path d="M159.26,28.578L159.26,32.578" style="fill:none;stroke:#000000;stroke-width:0.5" />
<path d="M198.54,28.578L198.54,32.578" style="fill:none;stroke:#000000;stroke-width:0.5" />
<path d="M277.09,28.578L277.09,32.578" style="fill:none;stroke:#000000;stroke-width:0.5" />
<path d="M316.37,28.578L316.37,32.578" style="fill:none;stroke:#000000;stroke-width:0.5" />
<path d="M355.65,28.578L355.65,32.578" style="fill:none;stroke:#000000;stroke-width:0.5" />
<path d="M394.93,28.578L394.93,32.578" style="fill:none;stroke:#000000;stroke-width:0.5" />
<path d="M473.48,28.578L473.48,32.578" style="fill:none;stroke:#000000;stroke-width:0.5" />
<path d="M512.76,28.578L512.76,32.578" style="fill:none;stroke:#000000;stroke-width:0.5" />
<path d="M552.04,28.578L552.04,32.578" style="fill:none;stroke:#000000;stroke-width:0.5" />
<path d="M591.32,28.578L591.32,32.578" style="fill:none;stroke:#000000;stroke-width:0.5" />
<path d="M41.425,32.578L630.59,32.578" style="fill:none;stroke:#000000;stroke-width:0.5" />
<g transform="rotate(90)">
<text x="156.81" y="9.7266" transform="scale(1, -1)"
	style="font-family:Helvetica;font-weight:normal;font-style:normal;font-size:12px">DWt</text>
</g>
<text x="15.949" y="-37.852" transform="scale(1, -1)"
	style="font-family:Helvetica;font-weight:normal;font-style:normal;font-size:10px">-1</text>
<text x="19.279" y="-165.96" transform="scale(1, -1)"
	style="font-family:Helvetica;font-weight:normal;font-style:normal;font-size:10px">0</text>
<text x="19.279" y="-294.06" transform="scale(1, -1)"
	style="font-family:Helvetica;font-weight:normal;font-style:normal;font-size:10px">1</text>
<path d="M27.619,40.371L35.619,40.371" style="fill:none;stroke:#000000;stroke-width:0.5" />
<path d="M27.619,168.48L35.619,168.48" style="fill:none;stroke:#000000;stroke-width:0.5" />
<path d="M27.619,296.58L35.619,296.58" style="fill:none;stroke:#000000;stroke-width:0.5" />
<path d="M31.619,65.992L35.619,65.992" style="fill:none;stroke:#000000;stroke-width:0.5" />
<path d="M31.619,91.613L35.619,91.613" style="fill:none;stroke:#000000;stroke-width:0.5" />
<path d="M31.619,117.23L35.619,117.23" style="fill:none;stroke:#000000;stroke-width:0.5" />
<path d="M31.619,142.85L35.619,142.85" style="fill:none;stroke:#000000;stroke-width:0.5" />
<path d="M31.619,194.1L35.619,194.1" style="fill:none;stroke:#000000;stroke-width:0.5" />
<path d="M31.619,219.72L35.619,219.72" style="fill:none;stroke:#000000;stroke-width:0.5" />
<path d="M31.619,245.34L35.619,245.34" style="fill:none;stroke:#000000;stroke-width:0.5" />
<path d="M31.619,270.96L35.619,270.96" style="fill:none;stroke:#000000;stroke-width:0.5" />
<path d="M35.619,40.371L35.619,296.58" style="fill:none;stroke:#000000;stroke-width:0.5" />
<path d="M240.81,251.98A3,3 0 1 1 234.81,251.98A3,3 0 1 1 240.81,251.98Z" style="fill:none;stroke:#000000;stroke-width:0.5" />
<path d="M56.699,242.14A3,3 0 1 1 50.699,242.14A3,3 0 1 1 56.699,242.14Z" style="fill:none;stroke:#FF0000;stroke-width:0.5" />
<path d="M93.522,239.15A3,3 0 1 1 87.522,239.15A3,3 0 1 1 93.522,239.15Z" style="fill:none;stroke:#0000FF;stroke-width:0.5" />
<path d="M424.93,229.92A3,3 0 1 1 418.93,229.92A3,3 0 1 1 424.93,229.92Z" style="fill:none;stroke:#228B22;stroke-width:0.5" />
<path d="M240.81,162.92A3,3 0 1 1 234.81,162.92A3,3 0 1 1 240.81,162.92Z" style="fill:none;stroke:#800080;stroke-width:0.5" />
<path d="M277.64,166.18A3,3 0 1 1 271.64,166.18A3,3 0 1 1 277.64,166.18Z" style="fill:none;stroke:#FFA500;stroke-width:0.5" />
<path d="M388.11,249.74A3,3 0 1 1 382.11,249.74A3,3 0 1 1 388.11,249.74Z" style="fill:none;stroke:#A52A2A;stroke-width:0.5" />
<path d="M203.99,166.91A3,3 0 1 1 197.99,166.91A3,3 0 1 1 203.99,166.91Z" style="fill:none;stroke:#7FFF00;stroke-width:0.5" />
<path d="M240.81,168.49A3,3 0 1 1 234.81,168.49A3,3 0 1 1 240.81,168.49Z" style="fill:none;stroke:#000080;stroke-width:0.5" />
<path d="M626.38,294.48A3,3 0 1 1 620.38,294.48A3,3 0 1 1 626.38,294.48Z" style="fill:none;stroke:#000000;stroke-width:0.5" />
<text x="468.63" y="-291.66" transform="scale(1, -1)"
	style="font-family:Helvetica;font-weight:normal;font-style:normal;font-size:12px">S:100-100 R:100-100 DWt</text>
<path d="M626.38,284.01A3,3 0 1 1 620.38,284.01A3,3 0 1 1 626.38,284.01Z" style="fill:none;stroke:#FF0000;stroke-width:0.5" />
<text x="481.98" y="-281.19" transform="scale(1, -1)"
	style="font-family:Helvetica;font-weight:normal;font-style:normal;font-size:12px">S:100-25 R:100-25 DWt</text>
<path d="M626.38,273.54A3,3 0 1 1 620.38,273.54A3,3 0 1 1 626.38,273.54Z" style="fill:none;stroke:#0000FF;stroke-width:0.5" />
<text x="481.98" y="-270.71" transform="scale(1, -1)"
	style="font-family:Helvetica;font-weight:normal;font-style:normal;font-size:12px">S:100-50 R:100-50 DWt</text>
<path d="M626.38,263.07A3,3 0 1 1 620.38,263.07A3,3 0 1 1 626.38,263.07Z" style="fill:none;stroke:#228B22;stroke-width:0.5" />
<text x="481.98" y="-260.24" transform="scale(1, -1)"
	style="font-family:Helvetica;font-weight:normal;font-style:normal;font-size:12px">S:25-100 R:25-100 DWt</text>
<path d="M626.38,252.6A3,3 0 1 1 620.38,252.6A3,3 0 1 1 626.38,252.6Z" style="fill:none;stroke:#800080;stroke-width:0.5" />
<text x="495.33" y="-249.77" transform="scale(1, -1)"
	style="font-family:Helvetica;font-weight:normal;font-style:normal;font-size:12px">S:25-25 R:25-25 DWt</text>
<path d="M626.38,242.13A3,3 0 1 1 620.38,242.13A3,3 0 1 1 626.38,242.13Z" style="fill:none;stroke:#FFA500;stroke-width:0.5" />
<text x="495.33" y="-239.3" transform="scale(1, -1)"
	style="font-family:Helvetica;font-weight:normal;font-style:normal;font-size:12px">S:25-50 R:25-50 DWt</text>
<path d="M626.38,231.66A3,3 0 1 1 620.38,231.66A3,3 0 1 1 626.38,231.66Z" style="fill:none;stroke:#A52A2A;stroke-width:0.5" />
<text x="481.98" y="-228.83" transform="scale(1, -1)"
	style="font-family:Helvetica;font-weight:normal;font-style:normal;font-size:12px">S:50-100 R:50-100 DWt</text>
<path d="M626.38,221.19A3,3 0 1 1 620.38,221.19A3,3 0 1 1 626.38,221.19Z" style="fill:none;stroke:#7FFF00;stroke-width:0.5" />
<text x="495.33" y="-218.36" transform="scale(1, -1)"
	style="font-family:Helvetica;font-weight:normal;font-style:normal;font-size:12px">S:50-25 R:50-25 DWt</text>
<path d="M626.38,210.72A3,3 0 1 1 620.38,210.72A3,3 0 1 1 626.38,210.72Z" style="fill:none;stroke:#000080;stroke-width:0.5" />
<text x="495.33" y="-207.89" transform="scale(1, -1)"
	style="font-family:Helvetica;font-weight:normal;font-style:normal;font-size:12px">S:50-50 R:50-50 DWt</text>
</g>
</svg>
