<?xml version="1.0"?>
<!-- Generated by SVGo and Plotinum VG -->
<svg width="633.38pt" height="313.12pt" viewBox="0 0 633.38 313.12"
	xmlns="http://www.w3.org/2000/svg"
	xmlns:xlink="http://www.w3.org/1999/xlink">
<g transform="scale(1, -1) translate(0, -313.12)">
<text x="249.99" y="-303.4" transform="scale(1, -1)"
	style="font-family:Helvetica;font-weight:normal;font-style:normal;font-size:12px">Urakubo Phase DWt Plot</text>
<text x="328.18" y="-3.6797" transform="scale(1, -1)"
	style="font-family:Helvetica;font-weight:normal;font-style:normal;font-size:12px">CHL</text>
<text x="45.319" y="-16.473" transform="scale(1, -1)"
	style="font-family:Helvetica;font-weight:normal;font-style:normal;font-size:10px">-1</text>
<text x="240.59" y="-16.473" transform="scale(1, -1)"
	style="font-family:Helvetica;font-weight:normal;font-style:normal;font-size:10px">0</text>
<text x="434.2" y="-16.473" transform="scale(1, -1)"
	style="font-family:Helvetica;font-weight:normal;font-style:normal;font-size:10px">1</text>
<text x="627.81" y="-16.473" transform="scale(1, -1)"
	style="font-family:Helvetica;font-weight:normal;font-style:normal;font-size:10px">2</text>
<path d="M49.765,24.578L49.765,32.578" style="fill:none;stroke:#000000;stroke-width:0.5" />
<path d="M243.37,24.578L243.37,32.578" style="fill:none;stroke:#000000;stroke-width:0.5" />
<path d="M436.98,24.578L436.98,32.578" style="fill:none;stroke:#000000;stroke-width:0.5" />
<path d="M630.59,24.578L630.59,32.578" style="fill:none;stroke:#000000;stroke-width:0.5" />
<path d="M88.487,28.578L88.487,32.578" style="fill:none;stroke:#000000;stroke-width:0.5" />
<path d="M127.21,28.578L127.21,32.578" style="fill:none;stroke:#000000;stroke-width:0.5" />
<path d="M165.93,28.578L165.93,32.578" style="fill:none;stroke:#000000;stroke-width:0.5" />
<path d="M204.65,28.578L204.65,32.578" style="fill:none;stroke:#000000;stroke-width:0.5" />
<path d="M282.1,28.578L282.1,32.578" style="fill:none;stroke:#000000;stroke-width:0.5" />
<path d="M320.82,28.578L320.82,32.578" style="fill:none;stroke:#000000;stroke-width:0.5" />
<path d="M359.54,28.578L359.54,32.578" style="fill:none;stroke:#000000;stroke-width:0.5" />
<path d="M398.26,28.578L398.26,32.578" style="fill:none;stroke:#000000;stroke-width:0.5" />
<path d="M475.71,28.578L475.71,32.578" style="fill:none;stroke:#000000;stroke-width:0.5" />
<path d="M514.43,28.578L514.43,32.578" style="fill:none;stroke:#000000;stroke-width:0.5" />
<path d="M553.15,28.578L553.15,32.578" style="fill:none;stroke:#000000;stroke-width:0.5" />
<path d="M591.87,28.578L591.87,32.578" style="fill:none;stroke:#000000;stroke-width:0.5" />
<path d="M49.765,32.578L630.59,32.578" style="fill:none;stroke:#000000;stroke-width:0.5" />
<g transform="rotate(90)">
<text x="158.38" y="9.7266" transform="scale(1, -1)"
	style="font-family:Helvetica;font-weight:normal;font-style:normal;font-size:12px">DWt</text>
</g>
<text x="15.949" y="-74.901" transform="scale(1, -1)"
	style="font-family:Helvetica;font-weight:normal;font-style:normal;font-size:10px">-0.5</text>
<text x="19.279" y="-167.53" transform="scale(1, -1)"
	style="font-family:Helvetica;font-weight:normal;font-style:normal;font-size:10px">0.0</text>
<text x="19.279" y="-260.15" transform="scale(1, -1)"
	style="font-family:Helvetica;font-weight:normal;font-style:normal;font-size:10px">0.5</text>
<path d="M35.959,77.421L43.959,77.421" style="fill:none;stroke:#000000;stroke-width:0.5" />
<path d="M35.959,170.04L43.959,170.04" style="fill:none;stroke:#000000;stroke-width:0.5" />
<path d="M35.959,262.67L43.959,262.67" style="fill:none;stroke:#000000;stroke-width:0.5" />
<path d="M39.959,58.896L43.959,58.896" style="fill:none;stroke:#000000;stroke-width:0.5" />
<path d="M39.959,95.946L43.959,95.946" style="fill:none;stroke:#000000;stroke-width:0.5" />
<path d="M39.959,114.47L43.959,114.47" style="fill:none;stroke:#000000;stroke-width:0.5" />
<path d="M39.959,133L43.959,133" style="fill:none;stroke:#000000;stroke-width:0.5" />
<path d="M39.959,151.52L43.959,151.52" style="fill:none;stroke:#000000;stroke-width:0.5" />
<path d="M39.959,188.57L43.959,188.57" style="fill:none;stroke:#000000;stroke-width:0.5" />
<path d="M39.959,207.09L43.959,207.09" style="fill:none;stroke:#000000;stroke-width:0.5" />
<path d="M39.959,225.62L43.959,225.62" style="fill:none;stroke:#000000;stroke-width:0.5" />
<path d="M39.959,244.14L43.959,244.14" style="fill:none;stroke:#000000;stroke-width:0.5" />
<path d="M39.959,281.19L43.959,281.19" style="fill:none;stroke:#000000;stroke-width:0.5" />
<path d="M43.959,40.371L43.959,299.72" style="fill:none;stroke:#000000;stroke-width:0.5" />
<path d="M246.37,271.27A3,3 0 1 1 240.37,271.27A3,3 0 1 1 246.37,271.27Z" style="fill:none;stroke:#000000;stroke-width:0.5" />
<path d="M64.865,244.4A3,3 0 1 1 58.865,244.4A3,3 0 1 1 64.865,244.4Z" style="fill:none;stroke:#FF0000;stroke-width:0.5" />
<path d="M101.17,232.06A3,3 0 1 1 95.167,232.06A3,3 0 1 1 101.17,232.06Z" style="fill:none;stroke:#0000FF;stroke-width:0.5" />
<path d="M427.88,205.11A3,3 0 1 1 421.88,205.11A3,3 0 1 1 427.88,205.11Z" style="fill:none;stroke:#228B22;stroke-width:0.5" />
<path d="M246.37,163.71A3,3 0 1 1 240.37,163.71A3,3 0 1 1 246.37,163.71Z" style="fill:none;stroke:#800080;stroke-width:0.5" />
<path d="M282.68,169.46A3,3 0 1 1 276.68,169.46A3,3 0 1 1 282.68,169.46Z" style="fill:none;stroke:#FFA500;stroke-width:0.5" />
<path d="M391.58,189.7A3,3 0 1 1 385.58,189.7A3,3 0 1 1 391.58,189.7Z" style="fill:none;stroke:#A52A2A;stroke-width:0.5" />
<path d="M210.07,163.3A3,3 0 1 1 204.07,163.3A3,3 0 1 1 210.07,163.3Z" style="fill:none;stroke:#7FFF00;stroke-width:0.5" />
<path d="M246.37,176.15A3,3 0 1 1 240.37,176.15A3,3 0 1 1 246.37,176.15Z" style="fill:none;stroke:#000080;stroke-width:0.5" />
<path d="M626.38,294.48A3,3 0 1 1 620.38,294.48A3,3 0 1 1 626.38,294.48Z" style="fill:none;stroke:#000000;stroke-width:0.5" />
<text x="468.63" y="-291.66" transform="scale(1, -1)"
	style="font-family:Helvetica;font-weight:normal;font-style:normal;font-size:12px">S:100-100 R:100-100 DWt</text>
<path d="M626.38,284.01A3,3 0 1 1 620.38,284.01A3,3 0 1 1 626.38,284.01Z" style="fill:none;stroke:#FF0000;stroke-width:0.5" />
<text x="481.98" y="-281.19" transform="scale(1, -1)"
	style="font-family:Helvetica;font-weight:normal;font-style:normal;font-size:12px">S:100-25 R:100-25 DWt</text>
<path d="M626.38,273.54A3,3 0 1 1 620.38,273.54A3,3 0 1 1 626.38,273.54Z" style="fill:none;stroke:#0000FF;stroke-width:0.5" />
<text x="481.98" y="-270.71" transform="scale(1, -1)"
	style="font-family:Helvetica;font-weight:normal;font-style:normal;font-size:12px">S:100-50 R:100-50 DWt</text>
<path d="M626.38,263.07A3,3 0 1 1 620.38,263.07A3,3 0 1 1 626.38,263.07Z" style="fill:none;stroke:#228B22;stroke-width:0.5" />
<text x="481.98" y="-260.24" transform="scale(1, -1)"
	style="font-family:Helvetica;font-weight:normal;font-style:normal;font-size:12px">S:25-100 R:25-100 DWt</text>
<path d="M626.38,252.6A3,3 0 1 1 620.38,252.6A3,3 0 1 1 626.38,252.6Z" style="fill:none;stroke:#800080;stroke-width:0.5" />
<text x="495.33" y="-249.77" transform="scale(1, -1)"
	style="font-family:Helvetica;font-weight:normal;font-style:normal;font-size:12px">S:25-25 R:25-25 DWt</text>
<path d="M626.38,242.13A3,3 0 1 1 620.38,242.13A3,3 0 1 1 626.38,242.13Z" style="fill:none;stroke:#FFA500;stroke-width:0.5" />
<text x="495.33" y="-239.3" transform="scale(1, -1)"
	style="font-family:Helvetica;font-weight:normal;font-style:normal;font-size:12px">S:25-50 R:25-50 DWt</text>
<path d="M626.38,231.66A3,3 0 1 1 620.38,231.66A3,3 0 1 1 626.38,231.66Z" style="fill:none;stroke:#A52A2A;stroke-width:0.5" />
<text x="481.98" y="-228.83" transform="scale(1, -1)"
	style="font-family:Helvetica;font-weight:normal;font-style:normal;font-size:12px">S:50-100 R:50-100 DWt</text>
<path d="M626.38,221.19A3,3 0 1 1 620.38,221.19A3,3 0 1 1 626.38,221.19Z" style="fill:none;stroke:#7FFF00;stroke-width:0.5" />
<text x="495.33" y="-218.36" transform="scale(1, -1)"
	style="font-family:Helvetica;font-weight:normal;font-style:normal;font-size:12px">S:50-25 R:50-25 DWt</text>
<path d="M626.38,210.72A3,3 0 1 1 620.38,210.72A3,3 0 1 1 626.38,210.72Z" style="fill:none;stroke:#000080;stroke-width:0.5" />
<text x="495.33" y="-207.89" transform="scale(1, -1)"
	style="font-family:Helvetica;font-weight:normal;font-style:normal;font-size:12px">S:50-50 R:50-50 DWt</text>
</g>
</svg>
