<svg
  viewBox="0 0 0 0"
  xmlns:xlink="http://www.w3.org/1999/xlink"
  xmlns="http://www.w3.org/2000/svg">
  <g
    id="group-0">
    <g
      id="group-0">
      <rect
        id="rect-0"
        style="fill:#FAF8FD;"
        x="0"
        y="0"
        width="1366"
        height="1091" />
      <g
        id="group-1">
        <text
          id="text-0"
          style="direction:ltr;highlight-color:#FFE17B;x:357;y:65.203125;stroke:none;font-size:16.2px;text-decoration:none;select-color:#D8E2FF;fill:#191B22;"
          x="357"
          y="65.203125">Patch DA for Sequence</text>
      </g>
      <g
        id="group-2">
        <text
          id="text-0"
          style="text-decoration:none;direction:ltr;select-color:#D8E2FF;y:1076.5156;stroke:none;fill:#191B22;font-size:16.2px;highlight-color:#FFE17B;x:733;"
          x="733"
          y="1076.5156">Trial</text>
      </g>
      <g
        id="group-3">
        <text
          id="text-0"
          style="highlight-color:#FFE17B;x:272.73724;y:1005.7656;stroke:none;fill:#191B22;font-size:16.2px;text-decoration:none;direction:ltr;select-color:#D8E2FF;"
          x="272.73724"
          y="1005.7656">0</text>
      </g>
      <g
        id="group-4">
        <text
          id="text-0"
          style="font-size:16.2px;text-decoration:none;direction:ltr;select-color:#D8E2FF;highlight-color:#FFE17B;x:605.5791;stroke:none;fill:#191B22;y:1005.7656;"
          x="605.5791"
          y="1005.7656">1</text>
      </g>
      <g
        id="group-5">
        <text
          id="text-0"
          style="stroke:none;direction:ltr;select-color:#D8E2FF;x:938.4209;fill:#191B22;font-size:16.2px;text-decoration:none;highlight-color:#FFE17B;y:1005.7656;"
          x="938.4209"
          y="1005.7656">2</text>
      </g>
      <g
        id="group-6">
        <text
          id="text-0"
          style="select-color:#D8E2FF;highlight-color:#FFE17B;x:1271.2628;stroke:none;font-size:16.2px;text-decoration:none;y:1005.7656;fill:#191B22;direction:ltr;"
          x="1271.2628"
          y="1005.7656">3</text>
      </g>
      <path
        id="path-7"
        style="stroke:#191B22;stroke-width:1pt;fill:#000000;"
        d="M284.7372 961V916" />
      <path
        id="path-8"
        style="stroke:#191B22;stroke-width:1pt;fill:#000000;"
        d="M617.5791 961V916" />
      <path
        id="path-9"
        style="stroke:#191B22;stroke-width:1pt;fill:#000000;"
        d="M950.4209 961V916" />
      <path
        id="path-10"
        style="stroke-width:1pt;fill:#000000;stroke:#191B22;"
        d="M1283.263 961V916" />
      <path
        id="path-11"
        style="stroke:#191B22;stroke-width:1pt;fill:#000000;"
        d="M218.1689 938.5V916" />
      <path
        id="path-12"
        style="stroke:#191B22;stroke-width:1pt;fill:#000000;"
        d="M351.3056 938.5V916" />
      <path
        id="path-13"
        style="stroke:#191B22;stroke-width:1pt;fill:#000000;"
        d="M417.874 938.5V916" />
      <path
        id="path-14"
        style="stroke:#191B22;stroke-width:1pt;fill:#000000;"
        d="M484.4424 938.5V916" />
      <path
        id="path-15"
        style="stroke:#191B22;stroke-width:1pt;fill:#000000;"
        d="M551.0107 938.5V916" />
      <path
        id="path-16"
        style="stroke:#191B22;stroke-width:1pt;fill:#000000;"
        d="M684.1475 938.5V916" />
      <path
        id="path-17"
        style="fill:#000000;stroke:#191B22;stroke-width:1pt;"
        d="M750.7158 938.5V916" />
      <path
        id="path-18"
        style="fill:#000000;stroke:#191B22;stroke-width:1pt;"
        d="M817.2842 938.5V916" />
      <path
        id="path-19"
        style="stroke:#191B22;stroke-width:1pt;fill:#000000;"
        d="M883.8525 938.5V916" />
      <path
        id="path-20"
        style="stroke:#191B22;stroke-width:1pt;fill:#000000;"
        d="M1016.989 938.5V916" />
      <path
        id="path-21"
        style="stroke:#191B22;stroke-width:1pt;fill:#000000;"
        d="M1083.558 938.5V916" />
      <path
        id="path-22"
        style="stroke:#191B22;stroke-width:1pt;fill:#000000;"
        d="M1150.126 938.5V916" />
      <path
        id="path-23"
        style="stroke:#191B22;stroke-width:1pt;fill:#000000;"
        d="M1216.694 938.5V916" />
      <path
        id="path-24"
        style="stroke:#191B22;stroke-width:1pt;fill:#000000;"
        d="M1349.831 938.5V916" />
      <path
        id="path-25"
        style="stroke:#191B22;stroke-width:1pt;fill:#000000;"
        d="M206 916H1362" />
      <g
        id="group-26">
        <text
          id="text-0"
          style="x:0;y:660.5156;stroke:#191B22;stroke-width:1pt;text-decoration:none;direction:ltr;fill:#191B22;font-size:16.2px;select-color:#D8E2FF;highlight-color:#FFE17B;"
          transform="matrix(-4.371139e-08,-1,1,-4.371139e-08,-606,606)"
          x="0"
          y="660.5156">Patch D2</text>
      </g>
      <g
        id="group-27">
        <text
          id="text-0"
          style="select-color:#D8E2FF;stroke:#191B22;fill:#191B22;text-decoration:none;highlight-color:#FFE17B;x:72;y:860.99725;stroke-width:1pt;font-size:16.2px;direction:ltr;"
          x="72"
          y="860.99725">0.00</text>
      </g>
      <g
        id="group-28">
        <text
          id="text-0"
          style="stroke-width:1pt;fill:#191B22;font-size:16.2px;direction:ltr;select-color:#D8E2FF;x:72;y:688.1627;stroke:#191B22;text-decoration:none;highlight-color:#FFE17B;"
          x="72"
          y="688.1627">0.25</text>
      </g>
      <g
        id="group-29">
        <text
          id="text-0"
          style="direction:ltr;highlight-color:#FFE17B;fill:#191B22;font-size:16.2px;text-decoration:none;select-color:#D8E2FF;x:72;y:515.3281;stroke:#191B22;stroke-width:1pt;"
          x="72"
          y="515.3281">0.50</text>
      </g>
      <g
        id="group-30">
        <text
          id="text-0"
          style="stroke:#191B22;stroke-width:1pt;font-size:16.2px;text-decoration:none;direction:ltr;x:72;y:342.49356;fill:#191B22;select-color:#D8E2FF;highlight-color:#FFE17B;"
          x="72"
          y="342.49356">0.75</text>
      </g>
      <g
        id="group-31">
        <text
          id="text-0"
          style="stroke-width:1pt;font-size:16.2px;text-decoration:none;direction:ltr;select-color:#D8E2FF;highlight-color:#FFE17B;y:169.65903;stroke:#191B22;fill:#191B22;x:72;"
          x="72"
          y="169.65903">1.00</text>
      </g>
      <path
        id="path-32"
        style="stroke:#191B22;stroke-width:1pt;fill:#000000;"
        d="M157 844.6691H202" />
      <path
        id="path-33"
        style="stroke-width:1pt;fill:#000000;stroke:#191B22;"
        d="M157 671.8346H202" />
      <path
        id="path-34"
        style="stroke:#191B22;stroke-width:1pt;fill:#000000;"
        d="M157 499H202" />
      <path
        id="path-35"
        style="stroke-width:1pt;fill:#000000;stroke:#191B22;"
        d="M157 326.1654H202" />
      <path
        id="path-36"
        style="stroke:#191B22;stroke-width:1pt;fill:#000000;"
        d="M157 153.3309H202" />
      <path
        id="path-37"
        style="fill:#000000;stroke:#191B22;stroke-width:1pt;"
        d="M179.5 913.803H202" />
      <path
        id="path-38"
        style="stroke:#191B22;stroke-width:1pt;fill:#000000;"
        d="M179.5 879.236H202" />
      <path
        id="path-39"
        style="stroke:#191B22;stroke-width:1pt;fill:#000000;"
        d="M179.5 810.1022H202" />
      <path
        id="path-40"
        style="stroke:#191B22;stroke-width:1pt;fill:#000000;"
        d="M179.5 775.5353H202" />
      <path
        id="path-41"
        style="stroke:#191B22;stroke-width:1pt;fill:#000000;"
        d="M179.5 740.9684H202" />
      <path
        id="path-42"
        style="stroke-width:1pt;fill:#000000;stroke:#191B22;"
        d="M179.5 706.4014H202" />
      <path
        id="path-43"
        style="stroke-width:1pt;fill:#000000;stroke:#191B22;"
        d="M179.5 637.2676H202" />
      <path
        id="path-44"
        style="stroke-width:1pt;fill:#000000;stroke:#191B22;"
        d="M179.5 602.7007H202" />
      <path
        id="path-45"
        style="fill:#000000;stroke:#191B22;stroke-width:1pt;"
        d="M179.5 568.1339H202" />
      <path
        id="path-46"
        style="stroke:#191B22;stroke-width:1pt;fill:#000000;"
        d="M179.5 533.5669H202" />
      <path
        id="path-47"
        style="stroke:#191B22;stroke-width:1pt;fill:#000000;"
        d="M179.5 464.4331H202" />
      <path
        id="path-48"
        style="stroke:#191B22;stroke-width:1pt;fill:#000000;"
        d="M179.5 429.8662H202" />
      <path
        id="path-49"
        style="fill:#000000;stroke:#191B22;stroke-width:1pt;"
        d="M179.5 395.2993H202" />
      <path
        id="path-50"
        style="stroke:#191B22;stroke-width:1pt;fill:#000000;"
        d="M179.5 360.7324H202" />
      <path
        id="path-51"
        style="stroke:#191B22;stroke-width:1pt;fill:#000000;"
        d="M179.5 291.5985H202" />
      <path
        id="path-52"
        style="stroke:#191B22;stroke-width:1pt;fill:#000000;"
        d="M179.5 257.0316H202" />
      <path
        id="path-53"
        style="stroke:#191B22;stroke-width:1pt;fill:#000000;"
        d="M179.5 222.4647H202" />
      <path
        id="path-54"
        style="stroke:#191B22;stroke-width:1pt;fill:#000000;"
        d="M179.5 187.8978H202" />
      <path
        id="path-55"
        style="stroke:#191B22;stroke-width:1pt;fill:#000000;"
        d="M179.5 118.764H202" />
      <path
        id="path-56"
        style="stroke-width:1pt;fill:#000000;stroke:#191B22;"
        d="M179.5 84.19704H202" />
      <path
        id="path-57"
        style="stroke:#191B22;stroke-width:1pt;fill:#000000;"
        d="M202 84V914" />
      <g
        id="group-58">
        <path
          id="path-0"
          style="stroke:#0000FF;stroke-width:1pt;fill:none;"
          d="M284.7372 844.6691L617.5791 153.3309H950.4209L1283.263 844.6691" />
        <path
          id="path-1"
          style="stroke-width:1pt;fill:#0000FF;stroke:#0000FF;"
          d="M301.6122 844.686C301.6077 853.9433 293.9864 861.5571 284.729 861.5526C275.4716 861.548 267.8577 853.9266 267.8622 844.6693C267.8622 835.412 275.4799 827.7942 284.7372 827.7942C293.9946 827.7942 301.6122 835.4119 301.6122 844.6692z" />
        <path
          id="path-2"
          style="fill:#0000FF;stroke:#0000FF;stroke-width:1pt;"
          d="M634.4541 153.3477C634.4496 162.6051 626.8282 170.2188 617.5709 170.2143C608.3135 170.2098 600.6996 162.5884 600.7041 153.3311C600.7041 144.0737 608.3218 136.456 617.5791 136.456C626.8364 136.456 634.4541 144.0736 634.4541 153.331z" />
        <path
          id="path-3"
          style="stroke:#0000FF;stroke-width:1pt;fill:#0000FF;"
          d="M967.2959 153.3477C967.2914 162.6051 959.67 170.2188 950.4127 170.2143C941.1553 170.2098 933.5414 162.5884 933.5459 153.3311C933.5459 144.0737 941.1636 136.456 950.4209 136.456C959.6782 136.456 967.2959 144.0736 967.2959 153.331z" />
        <path
          id="path-4"
          style="fill:#0000FF;stroke:#0000FF;stroke-width:1pt;"
          d="M1300.138 844.686C1300.133 853.9433 1292.512 861.5571 1283.255 861.5526C1273.997 861.548 1266.383 853.9266 1266.388 844.6693C1266.388 835.412 1274.005 827.7942 1283.263 827.7942C1292.52 827.7942 1300.138 835.4119 1300.138 844.6692z" />
        <path
          id="path-5"
          style="stroke:#0000FF;stroke-width:1pt;fill:none;"
          d="M284.7372 844.6691L617.5791 153.3309H950.4209L1283.263 844.6691" />
        <path
          id="path-6"
          style="stroke:#0000FF;stroke-width:1pt;fill:#0000FF;"
          d="M301.6122 844.686C301.6077 853.9433 293.9864 861.5571 284.729 861.5526C275.4716 861.548 267.8577 853.9266 267.8622 844.6693C267.8622 835.412 275.4799 827.7942 284.7372 827.7942C293.9946 827.7942 301.6122 835.4119 301.6122 844.6692z" />
        <path
          id="path-7"
          style="stroke:#0000FF;stroke-width:1pt;fill:#0000FF;"
          d="M634.4541 153.3477C634.4496 162.6051 626.8282 170.2188 617.5709 170.2143C608.3135 170.2098 600.6996 162.5884 600.7041 153.3311C600.7041 144.0737 608.3218 136.456 617.5791 136.456C626.8364 136.456 634.4541 144.0736 634.4541 153.331z" />
        <path
          id="path-8"
          style="stroke:#0000FF;stroke-width:1pt;fill:#0000FF;"
          d="M967.2959 153.3477C967.2914 162.6051 959.67 170.2188 950.4127 170.2143C941.1553 170.2098 933.5414 162.5884 933.5459 153.3311C933.5459 144.0737 941.1636 136.456 950.4209 136.456C959.6782 136.456 967.2959 144.0736 967.2959 153.331z" />
        <path
          id="path-9"
          style="stroke:#0000FF;stroke-width:1pt;fill:#0000FF;"
          d="M1300.138 844.686C1300.133 853.9433 1292.512 861.5571 1283.255 861.5526C1273.997 861.548 1266.383 853.9266 1266.388 844.6693C1266.388 835.412 1274.005 827.7942 1283.263 827.7942C1292.52 827.7942 1300.138 835.4119 1300.138 844.6692z" />
        <path
          id="path-10"
          style="stroke:#4CB73D;stroke-width:1pt;fill:none;"
          d="M284.7372 579.8949L617.5791 299.9941L950.4209 309.986L1283.263 524.0644" />
        <path
          id="path-11"
          style="fill:#4CB73D;stroke:#4CB73D;stroke-width:1pt;"
          d="M269.5497 564.7074H299.9247V595.0824H269.5497z" />
        <path
          id="path-12"
          style="stroke:#4CB73D;stroke-width:1pt;fill:#4CB73D;"
          d="M602.3916 284.8066H632.7666V315.1816H602.3916z" />
        <path
          id="path-13"
          style="fill:#4CB73D;stroke:#4CB73D;stroke-width:1pt;"
          d="M935.2334 294.7985H965.6084V325.1735H935.2334z" />
        <path
          id="path-14"
          style="fill:#4CB73D;stroke:#4CB73D;stroke-width:1pt;"
          d="M1268.075 508.8769H1298.45V539.2519H1268.075z" />
        <path
          id="path-15"
          style="stroke:#4CB73D;stroke-width:1pt;fill:none;"
          d="M284.7372 579.8949L617.5791 299.9941L950.4209 309.986L1283.263 524.0644" />
        <path
          id="path-16"
          style="stroke:#4CB73D;stroke-width:1pt;fill:#4CB73D;"
          d="M269.5497 564.7074H299.9247V595.0824H269.5497z" />
        <path
          id="path-17"
          style="stroke:#4CB73D;stroke-width:1pt;fill:#4CB73D;"
          d="M602.3916 284.8066H632.7666V315.1816H602.3916z" />
        <path
          id="path-18"
          style="stroke:#4CB73D;stroke-width:1pt;fill:#4CB73D;"
          d="M935.2334 294.7985H965.6084V325.1735H935.2334z" />
        <path
          id="path-19"
          style="stroke-width:1pt;fill:#4CB73D;stroke:#4CB73D;"
          d="M1268.075 508.8769H1298.45V539.2519H1268.075z" />
        <path
          id="path-20"
          style="stroke:#FF0000;stroke-width:1pt;fill:none;"
          d="M284.7372 554.7725L617.5791 844.6691L950.4209 811.1293L1283.263 394.0686" />
        <path
          id="path-21"
          style="stroke:#FF0000;stroke-width:1pt;fill:#FF0000;"
          d="M284.7372 539.585L269.5497 569.96H299.9247z" />
        <path
          id="path-22"
          style="stroke:#FF0000;stroke-width:1pt;fill:#FF0000;"
          d="M617.5791 829.4816L602.3916 859.8566H632.7666z" />
        <path
          id="path-23"
          style="stroke:#FF0000;stroke-width:1pt;fill:#FF0000;"
          d="M950.4209 795.9418L935.2334 826.3168H965.6084z" />
        <path
          id="path-24"
          style="stroke:#FF0000;stroke-width:1pt;fill:#FF0000;"
          d="M1283.263 378.8811L1268.075 409.2561H1298.45z" />
        <path
          id="path-25"
          style="stroke:#FF0000;stroke-width:1pt;fill:none;"
          d="M284.7372 554.7725L617.5791 844.6691L950.4209 811.1293L1283.263 394.0686" />
        <path
          id="path-26"
          style="stroke:#FF0000;stroke-width:1pt;fill:#FF0000;"
          d="M284.7372 539.585L269.5497 569.96H299.9247z" />
        <path
          id="path-27"
          style="stroke:#FF0000;stroke-width:1pt;fill:#FF0000;"
          d="M617.5791 829.4816L602.3916 859.8566H632.7666z" />
        <path
          id="path-28"
          style="stroke:#FF0000;stroke-width:1pt;fill:#FF0000;"
          d="M950.4209 795.9418L935.2334 826.3168H965.6084z" />
        <path
          id="path-29"
          style="fill:#FF0000;stroke:#FF0000;stroke-width:1pt;"
          d="M1283.263 378.8811L1268.075 409.2561H1298.45z" />
        <rect
          id="rect-30"
          style="fill:#FAF9FEBF;"
          x="1038"
          y="82"
          width="326"
          height="225" />
        <g
          id="group-31">
          <path
            id="path-0"
            style="stroke:#0000FF;stroke-width:1pt;fill:none;"
            d="M1252 119.5H1364" />
          <path
            id="path-1"
            style="stroke-width:1pt;fill:#0000FF;stroke:#0000FF;"
            d="M1324.875 119.5169C1324.87 128.7742 1317.249 136.388 1307.992 136.3834C1298.734 136.3789 1291.12 128.7576 1291.125 119.5002C1291.125 110.2429 1298.743 102.6251 1308 102.6251C1317.257 102.6251 1324.875 110.2428 1324.875 119.5001z" />
        </g>
        <g
          id="group-32">
          <text
            id="text-0"
            style="text-decoration:none;select-color:#D8E2FF;highlight-color:#FFE17B;x:1038;y:136.51562;stroke:#0000FF;stroke-width:1pt;fill:#191B22;font-size:16.2px;direction:ltr;"
            x="1038"
            y="136.51562">Correct</text>
        </g>
        <g
          id="group-33">
          <path
            id="path-0"
            style="stroke:#4CB73D;stroke-width:1pt;fill:none;"
            d="M1252 194.5H1364" />
          <path
            id="path-1"
            style="stroke:#4CB73D;stroke-width:1pt;fill:#4CB73D;"
            d="M1292.812 179.3125H1323.188V209.6875H1292.812z" />
        </g>
        <g
          id="group-34">
          <text
            id="text-0"
            style="select-color:#D8E2FF;stroke:#4CB73D;fill:#191B22;text-decoration:none;highlight-color:#FFE17B;x:1038;y:211.51562;stroke-width:1pt;font-size:16.2px;direction:ltr;"
            x="1038"
            y="211.51562">Patch D1</text>
        </g>
        <g
          id="group-35">
          <path
            id="path-0"
            style="stroke:#FF0000;stroke-width:1pt;fill:none;"
            d="M1252 269.5H1364" />
          <path
            id="path-1"
            style="stroke:#FF0000;stroke-width:1pt;fill:#FF0000;"
            d="M1308 254.3125L1292.812 284.6875H1323.188z" />
        </g>
        <g
          id="group-36">
          <text
            id="text-0"
            style="stroke:#FF0000;text-decoration:none;direction:ltr;highlight-color:#FFE17B;x:1038;stroke-width:1pt;fill:#191B22;font-size:16.2px;select-color:#D8E2FF;y:286.51562;"
            x="1038"
            y="286.51562">Patch D2</text>
        </g>
      </g>
    </g>
  </g>
</svg>
