<svg
  viewBox="0 0 0 0"
  xmlns:xlink="http://www.w3.org/1999/xlink"
  xmlns="http://www.w3.org/2000/svg">
  <g
    id="group-0">
    <g
      id="group-0">
      <rect
        id="rect-0"
        style="fill:#FAF8FD;"
        x="0"
        y="0"
        width="1366"
        height="1091" />
      <g
        id="group-1">
        <text
          id="text-0"
          style="highlight-color:#FFE17B;x:606.5;y:38.484375;font-size:16.2px;direction:ltr;stroke:none;fill:#191B22;text-decoration:none;select-color:#D8E2FF;"
          x="606.5"
          y="38.484375">Patch DA</text>
      </g>
      <g
        id="group-2">
        <text
          id="text-0"
          style="select-color:#D8E2FF;highlight-color:#FFE17B;x:712.5;y:1083.0625;stroke:none;fill:#191B22;font-size:16.2px;text-decoration:none;direction:ltr;"
          x="712.5"
          y="1083.0625">Trial</text>
      </g>
      <g
        id="group-3">
        <text
          id="text-0"
          style="stroke:none;fill:#191B22;direction:ltr;select-color:#D8E2FF;font-size:16.2px;text-decoration:none;highlight-color:#FFE17B;x:168.35233;y:1040.6188;"
          x="168.35233"
          y="1040.6188">0</text>
      </g>
      <g
        id="group-4">
        <text
          id="text-0"
          style="stroke:none;fill:#191B22;text-decoration:none;direction:ltr;highlight-color:#FFE17B;x:546.45074;font-size:16.2px;select-color:#D8E2FF;y:1040.6188;"
          x="546.45074"
          y="1040.6188">1</text>
      </g>
      <g
        id="group-5">
        <text
          id="text-0"
          style="x:924.54926;y:1040.6188;stroke:none;fill:#191B22;text-decoration:none;font-size:16.2px;direction:ltr;select-color:#D8E2FF;highlight-color:#FFE17B;"
          x="924.54926"
          y="1040.6188">2</text>
      </g>
      <g
        id="group-6">
        <text
          id="text-0"
          style="font-size:16.2px;select-color:#D8E2FF;highlight-color:#FFE17B;x:1302.6477;y:1040.6188;stroke:none;fill:#191B22;text-decoration:none;direction:ltr;"
          x="1302.6477"
          y="1040.6188">3</text>
      </g>
      <path
        id="path-7"
        style="stroke:#191B22;stroke-width:1pt;fill:#000000;"
        d="M175.3523 1014V987" />
      <path
        id="path-8"
        style="stroke:#191B22;stroke-width:1pt;fill:#000000;"
        d="M553.4507 1014V987" />
      <path
        id="path-9"
        style="fill:#000000;stroke:#191B22;stroke-width:1pt;"
        d="M931.5493 1014V987" />
      <path
        id="path-10"
        style="stroke:#191B22;stroke-width:1pt;fill:#000000;"
        d="M1309.648 1014V987" />
      <path
        id="path-11"
        style="fill:#000000;stroke:#191B22;stroke-width:1pt;"
        d="M250.972 1000.5V987" />
      <path
        id="path-12"
        style="stroke-width:1pt;fill:#000000;stroke:#191B22;"
        d="M326.5917 1000.5V987" />
      <path
        id="path-13"
        style="stroke:#191B22;stroke-width:1pt;fill:#000000;"
        d="M402.2114 1000.5V987" />
      <path
        id="path-14"
        style="fill:#000000;stroke:#191B22;stroke-width:1pt;"
        d="M477.8311 1000.5V987" />
      <path
        id="path-15"
        style="stroke:#191B22;stroke-width:1pt;fill:#000000;"
        d="M629.0705 1000.5V987" />
      <path
        id="path-16"
        style="stroke:#191B22;stroke-width:1pt;fill:#000000;"
        d="M704.6902 1000.5V987" />
      <path
        id="path-17"
        style="stroke:#191B22;stroke-width:1pt;fill:#000000;"
        d="M780.3099 1000.5V987" />
      <path
        id="path-18"
        style="stroke-width:1pt;fill:#000000;stroke:#191B22;"
        d="M855.9296 1000.5V987" />
      <path
        id="path-19"
        style="fill:#000000;stroke:#191B22;stroke-width:1pt;"
        d="M1007.169 1000.5V987" />
      <path
        id="path-20"
        style="stroke:#191B22;stroke-width:1pt;fill:#000000;"
        d="M1082.789 1000.5V987" />
      <path
        id="path-21"
        style="fill:#000000;stroke:#191B22;stroke-width:1pt;"
        d="M1158.408 1000.5V987" />
      <path
        id="path-22"
        style="stroke-width:1pt;fill:#000000;stroke:#191B22;"
        d="M1234.028 1000.5V987" />
      <path
        id="path-23"
        style="fill:#000000;stroke:#191B22;stroke-width:1pt;"
        d="M123 987H1362" />
      <g
        id="group-24">
        <text
          id="text-0"
          style="font-size:16.2px;text-decoration:none;select-color:#D8E2FF;x:0;y:613.0625;fill:#191B22;direction:ltr;highlight-color:#FFE17B;stroke:#191B22;stroke-width:1pt;"
          transform="matrix(-4.371139e-08,-1,1,-4.371139e-08,-581,581)"
          x="0"
          y="613.0625">Patch D2</text>
      </g>
      <g
        id="group-25">
        <text
          id="text-0"
          style="stroke:#191B22;stroke-width:1pt;text-decoration:none;direction:ltr;highlight-color:#FFE17B;fill:#191B22;font-size:16.2px;select-color:#D8E2FF;x:42;y:945.3666;"
          x="42"
          y="945.3666">0.00</text>
      </g>
      <g
        id="group-26">
        <text
          id="text-0"
          style="fill:#191B22;font-size:16.2px;highlight-color:#FFE17B;y:736.2614;stroke:#191B22;text-decoration:none;direction:ltr;select-color:#D8E2FF;x:42;stroke-width:1pt;"
          x="42"
          y="736.2614">0.25</text>
      </g>
      <g
        id="group-27">
        <text
          id="text-0"
          style="stroke:#191B22;fill:#191B22;font-size:16.2px;text-decoration:none;x:42;stroke-width:1pt;direction:ltr;select-color:#D8E2FF;highlight-color:#FFE17B;y:527.15625;"
          x="42"
          y="527.15625">0.50</text>
      </g>
      <g
        id="group-28">
        <text
          id="text-0"
          style="stroke-width:1pt;fill:#191B22;text-decoration:none;direction:ltr;x:42;y:318.05112;stroke:#191B22;font-size:16.2px;select-color:#D8E2FF;highlight-color:#FFE17B;"
          x="42"
          y="318.05112">0.75</text>
      </g>
      <g
        id="group-29">
        <text
          id="text-0"
          style="stroke-width:1pt;fill:#191B22;text-decoration:none;direction:ltr;x:42;y:108.945915;stroke:#191B22;font-size:16.2px;select-color:#D8E2FF;highlight-color:#FFE17B;"
          x="42"
          y="108.945915">1.00</text>
      </g>
      <path
        id="path-30"
        style="stroke:#191B22;stroke-width:1pt;fill:#000000;"
        d="M92 936.2103H119" />
      <path
        id="path-31"
        style="stroke:#191B22;stroke-width:1pt;fill:#000000;"
        d="M92 727.1052H119" />
      <path
        id="path-32"
        style="stroke:#191B22;stroke-width:1pt;fill:#000000;"
        d="M92 518H119" />
      <path
        id="path-33"
        style="stroke:#191B22;stroke-width:1pt;fill:#000000;"
        d="M92 308.8949H119" />
      <path
        id="path-34"
        style="stroke:#191B22;stroke-width:1pt;fill:#000000;"
        d="M92 99.78967H119" />
      <path
        id="path-35"
        style="stroke:#191B22;stroke-width:1pt;fill:#000000;"
        d="M105.5 978.0314H119" />
      <path
        id="path-36"
        style="stroke:#191B22;stroke-width:1pt;fill:#000000;"
        d="M105.5 894.3893H119" />
      <path
        id="path-37"
        style="fill:#000000;stroke:#191B22;stroke-width:1pt;"
        d="M105.5 852.5682H119" />
      <path
        id="path-38"
        style="stroke:#191B22;stroke-width:1pt;fill:#000000;"
        d="M105.5 810.7473H119" />
      <path
        id="path-39"
        style="fill:#000000;stroke:#191B22;stroke-width:1pt;"
        d="M105.5 768.9261H119" />
      <path
        id="path-40"
        style="fill:#000000;stroke:#191B22;stroke-width:1pt;"
        d="M105.5 685.2841H119" />
      <path
        id="path-41"
        style="stroke:#191B22;stroke-width:1pt;fill:#000000;"
        d="M105.5 643.4631H119" />
      <path
        id="path-42"
        style="stroke:#191B22;stroke-width:1pt;fill:#000000;"
        d="M105.5 601.642H119" />
      <path
        id="path-43"
        style="fill:#000000;stroke:#191B22;stroke-width:1pt;"
        d="M105.5 559.821H119" />
      <path
        id="path-44"
        style="stroke:#191B22;stroke-width:1pt;fill:#000000;"
        d="M105.5 476.179H119" />
      <path
        id="path-45"
        style="stroke:#191B22;stroke-width:1pt;fill:#000000;"
        d="M105.5 434.3579H119" />
      <path
        id="path-46"
        style="stroke:#191B22;stroke-width:1pt;fill:#000000;"
        d="M105.5 392.5369H119" />
      <path
        id="path-47"
        style="fill:#000000;stroke:#191B22;stroke-width:1pt;"
        d="M105.5 350.7159H119" />
      <path
        id="path-48"
        style="stroke:#191B22;stroke-width:1pt;fill:#000000;"
        d="M105.5 267.0738H119" />
      <path
        id="path-49"
        style="stroke-width:1pt;fill:#000000;stroke:#191B22;"
        d="M105.5 225.2528H119" />
      <path
        id="path-50"
        style="stroke:#191B22;stroke-width:1pt;fill:#000000;"
        d="M105.5 183.4317H119" />
      <path
        id="path-51"
        style="stroke:#191B22;stroke-width:1pt;fill:#000000;"
        d="M105.5 141.6107H119" />
      <path
        id="path-52"
        style="stroke:#191B22;stroke-width:1pt;fill:#000000;"
        d="M105.5 57.96864H119" />
      <path
        id="path-53"
        style="stroke:#191B22;stroke-width:1pt;fill:#000000;"
        d="M119 51V985" />
      <g
        id="group-54">
        <path
          id="path-0"
          style="stroke:#0000FF;stroke-width:1pt;fill:none;"
          d="M175.3523 936.2103L553.4507 99.78969H931.5493L1309.648 936.2103" />
        <path
          id="path-1"
          style="stroke:#0000FF;stroke-width:1pt;fill:#0000FF;"
          d="M185.4773 936.2205C185.4746 941.7748 180.9018 946.3431 175.3474 946.3404C169.793 946.3377 165.2246 941.7648 165.2273 936.2104C165.2273 930.6561 169.7979 926.0854 175.3523 926.0854C180.9067 926.0854 185.4773 930.656 185.4773 936.2104z" />
        <path
          id="path-2"
          style="stroke:#0000FF;stroke-width:1pt;fill:#0000FF;"
          d="M563.5757 99.79981C563.5731 105.3542 559.0002 109.9225 553.4458 109.9198C547.8914 109.917 543.3231 105.3442 543.3257 99.78981C543.3257 94.2354 547.8964 89.66475 553.4507 89.66475C559.0051 89.66475 563.5757 94.23534 563.5757 99.78975z" />
        <path
          id="path-3"
          style="stroke:#0000FF;stroke-width:1pt;fill:#0000FF;"
          d="M941.6743 99.79981C941.6716 105.3542 937.0987 109.9225 931.5443 109.9198C925.9899 109.917 921.4216 105.3442 921.4243 99.78981C921.4243 94.2354 925.9949 89.66475 931.5493 89.66475C937.1036 89.66475 941.6743 94.23534 941.6743 99.78975z" />
        <path
          id="path-4"
          style="stroke:#0000FF;stroke-width:1pt;fill:#0000FF;"
          d="M1319.773 936.2205C1319.77 941.7748 1315.197 946.3431 1309.643 946.3404C1304.088 946.3377 1299.52 941.7648 1299.523 936.2104C1299.523 930.6561 1304.093 926.0854 1309.648 926.0854C1315.202 926.0854 1319.773 930.656 1319.773 936.2104z" />
        <path
          id="path-5"
          style="stroke:#0000FF;stroke-width:1pt;fill:none;"
          d="M175.3523 936.2103L553.4507 99.78969H931.5493L1309.648 936.2103" />
        <path
          id="path-6"
          style="stroke:#0000FF;stroke-width:1pt;fill:#0000FF;"
          d="M185.4773 936.2205C185.4746 941.7748 180.9018 946.3431 175.3474 946.3404C169.793 946.3377 165.2246 941.7648 165.2273 936.2104C165.2273 930.6561 169.7979 926.0854 175.3523 926.0854C180.9067 926.0854 185.4773 930.656 185.4773 936.2104z" />
        <path
          id="path-7"
          style="stroke:#0000FF;stroke-width:1pt;fill:#0000FF;"
          d="M563.5757 99.79981C563.5731 105.3542 559.0002 109.9225 553.4458 109.9198C547.8914 109.917 543.3231 105.3442 543.3257 99.78981C543.3257 94.2354 547.8964 89.66475 553.4507 89.66475C559.0051 89.66475 563.5757 94.23534 563.5757 99.78975z" />
        <path
          id="path-8"
          style="stroke:#0000FF;stroke-width:1pt;fill:#0000FF;"
          d="M941.6743 99.79981C941.6716 105.3542 937.0987 109.9225 931.5443 109.9198C925.9899 109.917 921.4216 105.3442 921.4243 99.78981C921.4243 94.2354 925.9949 89.66475 931.5493 89.66475C937.1036 89.66475 941.6743 94.23534 941.6743 99.78975z" />
        <path
          id="path-9"
          style="fill:#0000FF;stroke:#0000FF;stroke-width:1pt;"
          d="M1319.773 936.2205C1319.77 941.7748 1315.197 946.3431 1309.643 946.3404C1304.088 946.3377 1299.52 941.7648 1299.523 936.2104C1299.523 930.6561 1304.093 926.0854 1309.648 926.0854C1315.202 926.0854 1319.773 930.656 1319.773 936.2104z" />
        <path
          id="path-10"
          style="stroke:#56C145;stroke-width:1pt;fill:none;"
          d="M175.3523 615.8713L553.4507 277.2313L931.5493 289.32L1309.648 548.3244" />
        <path
          id="path-11"
          style="stroke:#56C145;stroke-width:1pt;fill:#56C145;"
          d="M166.2398 606.7588H184.4648V624.9838H166.2398z" />
        <path
          id="path-12"
          style="stroke:#56C145;stroke-width:1pt;fill:#56C145;"
          d="M544.3383 268.1188H562.5632V286.3438H544.3383z" />
        <path
          id="path-13"
          style="fill:#56C145;stroke:#56C145;stroke-width:1pt;"
          d="M922.4368 280.2075H940.6617V298.4325H922.4368z" />
        <path
          id="path-14"
          style="fill:#56C145;stroke:#56C145;stroke-width:1pt;"
          d="M1300.535 539.2119H1318.76V557.4369H1300.535z" />
        <path
          id="path-15"
          style="stroke:#56C145;stroke-width:1pt;fill:none;"
          d="M175.3523 615.8713L553.4507 277.2313L931.5493 289.32L1309.648 548.3244" />
        <path
          id="path-16"
          style="stroke:#56C145;stroke-width:1pt;fill:#56C145;"
          d="M166.2398 606.7588H184.4648V624.9838H166.2398z" />
        <path
          id="path-17"
          style="stroke:#56C145;stroke-width:1pt;fill:#56C145;"
          d="M544.3383 268.1188H562.5632V286.3438H544.3383z" />
        <path
          id="path-18"
          style="stroke:#56C145;stroke-width:1pt;fill:#56C145;"
          d="M922.4368 280.2075H940.6617V298.4325H922.4368z" />
        <path
          id="path-19"
          style="stroke:#56C145;stroke-width:1pt;fill:#56C145;"
          d="M1300.535 539.2119H1318.76V557.4369H1300.535z" />
        <path
          id="path-20"
          style="stroke:#FF0000;stroke-width:1pt;fill:none;"
          d="M175.3523 585.4767L553.4507 936.2103L931.5493 895.6319L1309.648 391.048" />
        <path
          id="path-21"
          style="stroke:#FF0000;stroke-width:1pt;fill:#FF0000;"
          d="M175.3523 576.3643L166.2398 594.5892H184.4648z" />
        <path
          id="path-22"
          style="stroke:#FF0000;stroke-width:1pt;fill:#FF0000;"
          d="M553.4507 927.0978L544.3383 945.3228H562.5632z" />
        <path
          id="path-23"
          style="stroke-width:1pt;fill:#FF0000;stroke:#FF0000;"
          d="M931.5493 886.5194L922.4368 904.7444H940.6617z" />
        <path
          id="path-24"
          style="stroke:#FF0000;stroke-width:1pt;fill:#FF0000;"
          d="M1309.648 381.9355L1300.535 400.1605H1318.76z" />
        <path
          id="path-25"
          style="stroke:#FF0000;stroke-width:1pt;fill:none;"
          d="M175.3523 585.4767L553.4507 936.2103L931.5493 895.6319L1309.648 391.048" />
        <path
          id="path-26"
          style="fill:#FF0000;stroke:#FF0000;stroke-width:1pt;"
          d="M175.3523 576.3643L166.2398 594.5892H184.4648z" />
        <path
          id="path-27"
          style="stroke:#FF0000;stroke-width:1pt;fill:#FF0000;"
          d="M553.4507 927.0978L544.3383 945.3228H562.5632z" />
        <path
          id="path-28"
          style="stroke:#FF0000;stroke-width:1pt;fill:#FF0000;"
          d="M931.5493 886.5194L922.4368 904.7444H940.6617z" />
        <path
          id="path-29"
          style="stroke:#FF0000;stroke-width:1pt;fill:#FF0000;"
          d="M1309.648 381.9355L1300.535 400.1605H1318.76z" />
        <rect
          id="rect-30"
          style="fill:#FAF9FEBF;"
          x="1171"
          y="49"
          width="193"
          height="132" />
        <g
          id="group-31">
          <path
            id="path-0"
            style="stroke:#0000FF;stroke-width:1pt;fill:none;"
            d="M1297 71H1364" />
          <path
            id="path-1"
            style="fill:#0000FF;stroke:#0000FF;stroke-width:1pt;"
            d="M1340.625 71.01012C1340.622 76.56454 1336.049 81.13278 1330.495 81.13007C1324.941 81.12735 1320.372 76.55453 1320.375 71.00012C1320.375 65.44571 1324.946 60.87506 1330.5 60.87506C1336.054 60.87506 1340.625 65.44565 1340.625 71.00006z" />
        </g>
        <g
          id="group-32">
          <text
            id="text-0"
            style="text-decoration:none;select-color:#D8E2FF;highlight-color:#FFE17B;x:1171;stroke:#0000FF;stroke-width:1pt;font-size:16.2px;direction:ltr;y:81.0625;fill:#191B22;"
            x="1171"
            y="81.0625">Correct</text>
        </g>
        <g
          id="group-33">
          <path
            id="path-0"
            style="stroke:#56C145;stroke-width:1pt;fill:none;"
            d="M1297 115H1364" />
          <path
            id="path-1"
            style="stroke:#56C145;stroke-width:1pt;fill:#56C145;"
            d="M1321.387 105.8875H1339.613V124.1125H1321.387z" />
        </g>
        <g
          id="group-34">
          <text
            id="text-0"
            style="stroke:#56C145;stroke-width:1pt;font-size:16.2px;select-color:#D8E2FF;highlight-color:#FFE17B;x:1171;fill:#191B22;text-decoration:none;direction:ltr;y:125.0625;"
            x="1171"
            y="125.0625">Patch D1</text>
        </g>
        <g
          id="group-35">
          <path
            id="path-0"
            style="stroke-width:1pt;fill:none;stroke:#FF0000;"
            d="M1297 159H1364" />
          <path
            id="path-1"
            style="stroke:#FF0000;stroke-width:1pt;fill:#FF0000;"
            d="M1330.5 149.8875L1321.387 168.1125H1339.613z" />
        </g>
        <g
          id="group-36">
          <text
            id="text-0"
            style="stroke:#FF0000;font-size:16.2px;direction:ltr;select-color:#D8E2FF;highlight-color:#FFE17B;x:1171;stroke-width:1pt;fill:#191B22;text-decoration:none;y:169.0625;"
            x="1171"
            y="169.0625">Patch D2</text>
        </g>
      </g>
    </g>
  </g>
</svg>
