<?xml version="1.0"?>
<!-- Generated by SVGo and Plotinum VG -->
<svg width="523.12pt" height="445.12pt" viewBox="0 0 523.12 445.12"
	xmlns="http://www.w3.org/2000/svg"
	xmlns:xlink="http://www.w3.org/1999/xlink">
<g transform="scale(1, -1) translate(0, -445.12)">
<path d="M0,0L523.12,0L523.12,445.12L0,445.12Z" style="fill:#FAF8FD" />
<text x="191.64" y="-435.4" transform="scale(1, -1)"
	style="font-family:Liberation Sans;font-variant:normal;font-weight:normal;font-style:normal;font-size:12px;fill:#191B22">PCore VS Test Epoch Plot</text>
<text x="267.77" y="-3.6797" transform="scale(1, -1)"
	style="font-family:Liberation Sans;font-variant:normal;font-weight:normal;font-style:normal;font-size:12px;fill:#191B22">Epoch</text>
<text x="37.703" y="-16.473" transform="scale(1, -1)"
	style="font-family:Liberation Sans;font-variant:normal;font-weight:normal;font-style:normal;font-size:10px;fill:#191B22">0.00</text>
<text x="444.14" y="-16.473" transform="scale(1, -1)"
	style="font-family:Liberation Sans;font-variant:normal;font-weight:normal;font-style:normal;font-size:10px;fill:#191B22">25.00</text>
<path d="M47.435,24.578L47.435,32.578" style="fill:none;stroke:#191B22;stroke-width:0.5" />
<path d="M456.65,24.578L456.65,32.578" style="fill:none;stroke:#191B22;stroke-width:0.5" />
<path d="M129.28,28.578L129.28,32.578" style="fill:none;stroke:#191B22;stroke-width:0.5" />
<path d="M211.12,28.578L211.12,32.578" style="fill:none;stroke:#191B22;stroke-width:0.5" />
<path d="M292.96,28.578L292.96,32.578" style="fill:none;stroke:#191B22;stroke-width:0.5" />
<path d="M374.81,28.578L374.81,32.578" style="fill:none;stroke:#191B22;stroke-width:0.5" />
<path d="M47.435,32.578L522.12,32.578" style="fill:none;stroke:#191B22;stroke-width:0.5" />
<g transform="rotate(90)">
<text x="219.2" y="9.7266" transform="scale(1, -1)"
	style="font-family:Liberation Sans;font-variant:normal;font-weight:normal;font-style:normal;font-size:12px;fill:#191B22">Gated</text>
</g>
<text x="15.949" y="-37.852" transform="scale(1, -1)"
	style="font-family:Liberation Sans;font-variant:normal;font-weight:normal;font-style:normal;font-size:10px;fill:#191B22">0.0</text>
<text x="15.949" y="-201.67" transform="scale(1, -1)"
	style="font-family:Liberation Sans;font-variant:normal;font-weight:normal;font-style:normal;font-size:10px;fill:#191B22">0.4</text>
<text x="15.949" y="-365.49" transform="scale(1, -1)"
	style="font-family:Liberation Sans;font-variant:normal;font-weight:normal;font-style:normal;font-size:10px;fill:#191B22">0.8</text>
<path d="M32.629,40.371L40.629,40.371" style="fill:none;stroke:#191B22;stroke-width:0.5" />
<path d="M32.629,204.19L40.629,204.19" style="fill:none;stroke:#191B22;stroke-width:0.5" />
<path d="M32.629,368.01L40.629,368.01" style="fill:none;stroke:#191B22;stroke-width:0.5" />
<path d="M36.629,81.326L40.629,81.326" style="fill:none;stroke:#191B22;stroke-width:0.5" />
<path d="M36.629,122.28L40.629,122.28" style="fill:none;stroke:#191B22;stroke-width:0.5" />
<path d="M36.629,163.23L40.629,163.23" style="fill:none;stroke:#191B22;stroke-width:0.5" />
<path d="M36.629,245.14L40.629,245.14" style="fill:none;stroke:#191B22;stroke-width:0.5" />
<path d="M36.629,286.1L40.629,286.1" style="fill:none;stroke:#191B22;stroke-width:0.5" />
<path d="M36.629,327.05L40.629,327.05" style="fill:none;stroke:#191B22;stroke-width:0.5" />
<path d="M36.629,408.96L40.629,408.96" style="fill:none;stroke:#191B22;stroke-width:0.5" />
<path d="M40.629,40.371L40.629,430.72" style="fill:none;stroke:#191B22;stroke-width:0.5" />
<path d="M47.435,248.34L63.803,177.95L80.172,193.95L96.54,241.94L112.91,264.34L129.28,235.54L145.65,245.14L162.02,248.34L178.38,264.34L194.75,261.14L211.12,270.74L227.49,222.75L243.86,254.74L260.23,254.74L276.6,232.35L292.96,267.54L309.33,232.35L325.7,241.94L342.07,241.94L358.44,248.34L374.81,264.34L391.18,293.14L407.54,261.14L423.91,248.34L440.28,248.34L456.65,206.75L473.02,257.94L489.39,267.54L505.76,254.74L522.12,229.15" style="fill:none;stroke:#00B64D;stroke-width:2" />
<path d="M47.435,209.95L63.803,251.54L80.172,235.54L96.54,248.34L112.91,270.74L129.28,235.54L145.65,251.54L162.02,254.74L178.38,267.54L194.75,257.94L211.12,238.74L227.49,241.94L243.86,248.34L260.23,261.14L276.6,222.75L292.96,264.34L309.33,225.95L325.7,232.35L342.07,238.74L358.44,232.35L374.81,257.94L391.18,283.54L407.54,238.74L423.91,241.94L440.28,232.35L456.65,200.35L473.02,238.74L489.39,264.34L505.76,235.54L522.12,222.75" style="fill:none;stroke:#BCAE00;stroke-width:2" />
<path d="M47.435,309.14L63.803,357.13L80.172,389.12L96.54,405.12L112.91,417.92L129.28,411.52L145.65,411.52L162.02,392.32L178.38,414.72L194.75,421.12L211.12,392.32L227.49,392.32L243.86,424.32L260.23,405.12L276.6,421.12L292.96,427.52L309.33,424.32L325.7,401.92L342.07,427.52L358.44,421.12L374.81,424.32L391.18,421.12L407.54,401.92L423.91,430.72L440.28,421.12L456.65,411.52L473.02,411.52L489.39,414.72L505.76,411.52L522.12,430.72" style="fill:none;stroke:#FF5AE2;stroke-width:2" />
<path d="M47.435,69.167L63.803,158.76L80.172,174.75L96.54,203.55L112.91,238.74L129.28,197.15L145.65,213.15L162.02,197.15L178.38,232.35L194.75,229.15L211.12,181.15L227.49,184.35L243.86,222.75L260.23,216.35L276.6,193.95L292.96,241.94L309.33,200.35L325.7,184.35L342.07,216.35L358.44,203.55L374.81,232.35L391.18,254.74L407.54,190.75L423.91,222.75L440.28,203.55L456.65,161.95L473.02,200.35L489.39,229.15L505.76,197.15L522.12,203.55" style="fill:none;stroke:#FFB4AB;stroke-width:2" />
<path d="M503.12,423.94L523.12,423.94" style="fill:none;stroke:#00B64D;stroke-width:2" />
<text x="467.1" y="-421.11" transform="scale(1, -1)"
	style="font-family:Liberation Sans;font-variant:normal;font-weight:normal;font-style:normal;font-size:12px;fill:#191B22">Gated</text>
<path d="M503.12,413.47L523.12,413.47" style="fill:none;stroke:#BCAE00;stroke-width:2" />
<text x="462.43" y="-410.64" transform="scale(1, -1)"
	style="font-family:Liberation Sans;font-variant:normal;font-weight:normal;font-style:normal;font-size:12px;fill:#191B22">Should</text>
<path d="M503.12,403L523.12,403" style="fill:none;stroke:#FF5AE2;stroke-width:2" />
<text x="467.11" y="-400.17" transform="scale(1, -1)"
	style="font-family:Liberation Sans;font-variant:normal;font-weight:normal;font-style:normal;font-size:12px;fill:#191B22">Match</text>
<path d="M503.12,392.53L523.12,392.53" style="fill:none;stroke:#FFB4AB;stroke-width:2" />
<text x="475.79" y="-389.7" transform="scale(1, -1)"
	style="font-family:Liberation Sans;font-variant:normal;font-weight:normal;font-style:normal;font-size:12px;fill:#191B22">Rew</text>
</g>
</svg>
