<?xml version="1.0"?>
<!-- Generated by SVGo and Plotinum VG -->
<svg width="580.12pt" height="443.25pt" viewBox="0 0 580.12 443.25"
	xmlns="http://www.w3.org/2000/svg"
	xmlns:xlink="http://www.w3.org/1999/xlink">
<g transform="scale(1, -1) translate(0, -443.25)">
<text x="229.81" y="-433.52" transform="scale(1, -1)"
	style="font-family:Liberation Sans;font-variant:normal;font-weight:normal;font-style:normal;font-size:12px">PCore Test Epoch Plot</text>
<text x="296.27" y="-3.6797" transform="scale(1, -1)"
	style="font-family:Liberation Sans;font-variant:normal;font-weight:normal;font-style:normal;font-size:12px">Epoch</text>
<text x="43.654" y="-16.473" transform="scale(1, -1)"
	style="font-family:Liberation Sans;font-variant:normal;font-weight:normal;font-style:normal;font-size:10px">0</text>
<text x="258.71" y="-16.473" transform="scale(1, -1)"
	style="font-family:Liberation Sans;font-variant:normal;font-weight:normal;font-style:normal;font-size:10px">20</text>
<text x="476.54" y="-16.473" transform="scale(1, -1)"
	style="font-family:Liberation Sans;font-variant:normal;font-weight:normal;font-style:normal;font-size:10px">40</text>
<path d="M46.435,24.578L46.435,32.578" style="fill:none;stroke:#000000;stroke-width:0.5" />
<path d="M264.27,24.578L264.27,32.578" style="fill:none;stroke:#000000;stroke-width:0.5" />
<path d="M482.1,24.578L482.1,32.578" style="fill:none;stroke:#000000;stroke-width:0.5" />
<path d="M155.35,28.578L155.35,32.578" style="fill:none;stroke:#000000;stroke-width:0.5" />
<path d="M373.18,28.578L373.18,32.578" style="fill:none;stroke:#000000;stroke-width:0.5" />
<path d="M46.435,32.578L580.12,32.578" style="fill:none;stroke:#000000;stroke-width:0.5" />
<g transform="rotate(90)">
<text x="218.76" y="9.7266" transform="scale(1, -1)"
	style="font-family:Liberation Sans;font-variant:normal;font-weight:normal;font-style:normal;font-size:12px">Gated</text>
</g>
<text x="15.949" y="-37.852" transform="scale(1, -1)"
	style="font-family:Liberation Sans;font-variant:normal;font-weight:normal;font-style:normal;font-size:10px">0.0</text>
<text x="15.949" y="-200.13" transform="scale(1, -1)"
	style="font-family:Liberation Sans;font-variant:normal;font-weight:normal;font-style:normal;font-size:10px">0.4</text>
<text x="15.949" y="-362.41" transform="scale(1, -1)"
	style="font-family:Liberation Sans;font-variant:normal;font-weight:normal;font-style:normal;font-size:10px">0.8</text>
<path d="M32.629,40.371L40.629,40.371" style="fill:none;stroke:#000000;stroke-width:0.5" />
<path d="M32.629,202.65L40.629,202.65" style="fill:none;stroke:#000000;stroke-width:0.5" />
<path d="M32.629,364.93L40.629,364.93" style="fill:none;stroke:#000000;stroke-width:0.5" />
<path d="M36.629,80.941L40.629,80.941" style="fill:none;stroke:#000000;stroke-width:0.5" />
<path d="M36.629,121.51L40.629,121.51" style="fill:none;stroke:#000000;stroke-width:0.5" />
<path d="M36.629,162.08L40.629,162.08" style="fill:none;stroke:#000000;stroke-width:0.5" />
<path d="M36.629,243.22L40.629,243.22" style="fill:none;stroke:#000000;stroke-width:0.5" />
<path d="M36.629,283.79L40.629,283.79" style="fill:none;stroke:#000000;stroke-width:0.5" />
<path d="M36.629,324.36L40.629,324.36" style="fill:none;stroke:#000000;stroke-width:0.5" />
<path d="M36.629,405.5L40.629,405.5" style="fill:none;stroke:#000000;stroke-width:0.5" />
<path d="M40.629,40.371L40.629,429.84" style="fill:none;stroke:#000000;stroke-width:0.5" />
<path d="M46.435,145.85L57.326,210.77L68.218,251.34L79.109,235.11L90.001,251.34L100.89,251.34L111.78,194.54L122.68,259.45L133.57,259.45L144.46,267.56L155.35,235.11L166.24,283.79L177.13,210.77L188.03,251.34L198.92,267.56L209.81,275.68L220.7,243.22L231.59,243.22L242.48,218.88L253.38,243.22L264.27,259.45L275.16,243.22L286.05,267.56L296.94,291.91L307.83,267.56L318.73,243.22L329.62,267.56L340.51,235.11L351.4,251.34L362.29,267.56L373.18,251.34L384.08,210.77L394.97,243.22L405.86,283.79L416.75,283.79L427.64,300.02L438.53,226.99L449.43,243.22L460.32,259.45L471.21,251.34L482.1,291.91L492.99,226.99L503.88,218.88L514.78,283.79L525.67,243.22L536.56,226.99L547.45,202.65L558.34,170.2L569.23,218.88L580.12,259.45" style="fill:none;stroke:#FFA500" />
<path d="M46.435,226.99L57.326,275.68L68.218,283.79L79.109,235.11L90.001,235.11L100.89,283.79L111.78,210.77L122.68,283.79L133.57,283.79L144.46,267.56L155.35,259.45L166.24,283.79L177.13,210.77L188.03,226.99L198.92,259.45L209.81,275.68L220.7,267.56L231.59,226.99L242.48,243.22L253.38,243.22L264.27,275.68L275.16,226.99L286.05,291.91L296.94,291.91L307.83,267.56L318.73,267.56L329.62,235.11L340.51,235.11L351.4,275.68L362.29,259.45L373.18,251.34L384.08,194.54L394.97,243.22L405.86,243.22L416.75,283.79L427.64,291.91L438.53,210.77L449.43,235.11L460.32,259.45L471.21,251.34L482.1,283.79L492.99,235.11L503.88,218.88L514.78,275.68L525.67,243.22L536.56,235.11L547.45,218.88L558.34,202.65L569.23,243.22L580.12,267.56" style="fill:none;stroke:#A52A2A" />
<path d="M46.435,316.25L57.326,381.16L68.218,397.39L79.109,413.62L90.001,397.39L100.89,413.62L111.78,397.39L122.68,421.73L133.57,389.27L144.46,413.62L155.35,405.5L166.24,413.62L177.13,397.39L188.03,405.5L198.92,405.5L209.81,413.62L220.7,421.73L231.59,397.39L242.48,405.5L253.38,397.39L264.27,413.62L275.16,429.84L286.05,373.05L296.94,381.16L307.83,397.39L318.73,405.5L329.62,397.39L340.51,413.62L351.4,389.27L362.29,389.27L373.18,413.62L384.08,397.39L394.97,413.62L405.86,340.59L416.75,413.62L427.64,405.5L438.53,397.39L449.43,405.5L460.32,429.84L471.21,429.84L482.1,405.5L492.99,405.5L503.88,429.84L514.78,389.27L525.67,364.93L536.56,373.05L547.45,381.16L558.34,413.62L569.23,389.27L580.12,389.27" style="fill:none;stroke:#7FFF00" />
<path d="M46.435,186.42L57.326,316.25L68.218,348.7L79.109,381.16L90.001,348.7L100.89,381.16L111.78,348.7L122.68,397.39L133.57,332.48L144.46,381.16L155.35,364.93L166.24,381.16L177.13,348.7L188.03,364.93L198.92,364.93L209.81,381.16L220.7,397.39L231.59,348.7L242.48,364.93L253.38,348.7L264.27,381.16L275.16,413.62L286.05,300.02L296.94,316.25L307.83,348.7L318.73,364.93L329.62,348.7L340.51,381.16L351.4,332.48L362.29,332.48L373.18,381.16L384.08,348.7L394.97,381.16L405.86,235.11L416.75,381.16L427.64,364.93L438.53,348.7L449.43,364.93L460.32,413.62L471.21,413.62L482.1,364.93L492.99,364.93L503.88,413.62L514.78,332.48L525.67,283.79L536.56,300.02L547.45,316.25L558.34,381.16L569.23,332.48L580.12,332.48" style="fill:none;stroke:#000080" />
<path d="M46.435,127.31L57.326,153.68L68.218,171.01L79.109,161.27L90.001,174.86L100.89,163.3L111.78,133.24L122.68,164.76L133.57,164.52L144.46,170.15L155.35,150.07L166.24,178.11L177.13,138.19L188.03,155.31L198.92,170.72L209.81,167.27L220.7,143.5L231.59,150.15L242.48,134.29L253.38,148.41L264.27,152.91L275.16,146.95L286.05,161.8L296.94,172.3L307.83,160.3L318.73,143.18L329.62,153.64L340.51,135.71L351.4,149.67L362.29,154.21L373.18,147.52L384.08,125.81L394.97,146.95L405.86,160.22L416.75,163.54L427.64,170.28L438.53,134.25L449.43,138.51L460.32,141.03L471.21,139.77L482.1,161.51L492.99,125.81L503.88,126.83L514.78,157.09L525.67,131.94L536.56,129.02L547.45,116.07L558.34,94.978L569.23,127.39L580.12,148.25" style="fill:none;stroke:#FF00FF" />
<path d="M46.435,143.58L57.326,148.69L68.218,149.23L79.109,148.51L90.001,138.13L100.89,152.01L111.78,136.59L122.68,144.53L133.57,151.9L144.46,151.59L155.35,148.69L166.24,151.56L177.13,143.32L188.03,148.64L198.92,150.54L209.81,154.3L220.7,160.11L231.59,145.02L242.48,142.73L253.38,146.36L264.27,157.4L275.16,153.58L286.05,156.61L296.94,168.3L307.83,154.97L318.73,163.75L329.62,152.47L340.51,164.24L351.4,156.7L362.29,150.77L373.18,158.07L384.08,144.61L394.97,165.49L405.86,147.48L416.75,173.87L427.64,181.94L438.53,170.46L449.43,161.43L460.32,169.93L471.21,176.8L482.1,189.82L492.99,162.97L503.88,169.83L514.78,184.65L525.67,166.95L536.56,155.72L547.45,168.71L558.34,167.22L569.23,163.05L580.12,174.65" style="fill:none;stroke:#D2B48C" />
<path d="M46.435,74.312L57.326,80.602L68.218,88.799L79.109,88.123L90.001,85.081L100.89,92.199L111.78,81.554L122.68,90.567L133.57,94.174L144.46,94.202L155.35,92.498L166.24,94.46L177.13,85.082L188.03,90.77L198.92,93.755L209.81,95.843L220.7,97.764L231.59,90.527L242.48,91.838L253.38,91.499L264.27,98.103L275.16,96.073L286.05,95.156L296.94,102.67L307.83,96.631L318.73,99.972L329.62,94.55L340.51,97.873L351.4,94.692L362.29,93.624L373.18,95.476L384.08,85.106L394.97,94.462L405.86,87.699L416.75,98.61L427.64,104.34L438.53,92.008L449.43,90.932L460.32,95.653L471.21,97.284L482.1,102.23L492.99,89.756L503.88,90.087L514.78,99.224L525.67,89.258L536.56,83.991L547.45,86.628L558.34,83.884L569.23,84.932L580.12,90.735" style="fill:none;stroke:#DAA520" />
<path d="M560.12,422.07L580.12,422.07" style="fill:none;stroke:#FFA500" />
<text x="524.1" y="-419.24" transform="scale(1, -1)"
	style="font-family:Liberation Sans;font-variant:normal;font-weight:normal;font-style:normal;font-size:12px">Gated</text>
<path d="M560.12,411.59L580.12,411.59" style="fill:none;stroke:#A52A2A" />
<text x="519.43" y="-408.77" transform="scale(1, -1)"
	style="font-family:Liberation Sans;font-variant:normal;font-weight:normal;font-style:normal;font-size:12px">Should</text>
<path d="M560.12,401.12L580.12,401.12" style="fill:none;stroke:#7FFF00" />
<text x="524.11" y="-398.3" transform="scale(1, -1)"
	style="font-family:Liberation Sans;font-variant:normal;font-weight:normal;font-style:normal;font-size:12px">Match</text>
<path d="M560.12,390.65L580.12,390.65" style="fill:none;stroke:#000080" />
<text x="532.79" y="-387.83" transform="scale(1, -1)"
	style="font-family:Liberation Sans;font-variant:normal;font-weight:normal;font-style:normal;font-size:12px">Rew</text>
<path d="M560.12,380.18L580.12,380.18" style="fill:none;stroke:#FF00FF" />
<text x="492.34" y="-377.36" transform="scale(1, -1)"
	style="font-family:Liberation Sans;font-variant:normal;font-weight:normal;font-style:normal;font-size:12px">PFCVM_RT</text>
<path d="M560.12,369.71L580.12,369.71" style="fill:none;stroke:#D2B48C" />
<text x="476.98" y="-366.88" transform="scale(1, -1)"
	style="font-family:Liberation Sans;font-variant:normal;font-weight:normal;font-style:normal;font-size:12px">MtxGo_ActAvg</text>
<path d="M560.12,359.24L580.12,359.24" style="fill:none;stroke:#DAA520" />
<text x="470.32" y="-356.41" transform="scale(1, -1)"
	style="font-family:Liberation Sans;font-variant:normal;font-weight:normal;font-style:normal;font-size:12px">PFCVM_ActAvg</text>
</g>
</svg>
