<?xml version="1.0"?>
<!-- Generated by SVGo and Plotinum VG -->
<svg width="495pt" height="544.5pt" viewBox="0 0 495 544.5"
	xmlns="http://www.w3.org/2000/svg"
	xmlns:xlink="http://www.w3.org/1999/xlink">
<g transform="scale(1, -1) translate(0, -544.5)">
<text x="187.25" y="-534.77" transform="scale(1, -1)"
	style="font-family:Liberation Sans;font-variant:normal;font-weight:normal;font-style:normal;font-size:12px">PCore Test Epoch Plot</text>
<text x="253.7" y="-3.6797" transform="scale(1, -1)"
	style="font-family:Liberation Sans;font-variant:normal;font-weight:normal;font-style:normal;font-size:12px">Epoch</text>
<text x="43.654" y="-16.473" transform="scale(1, -1)"
	style="font-family:Liberation Sans;font-variant:normal;font-weight:normal;font-style:normal;font-size:10px">0</text>
<text x="223.96" y="-16.473" transform="scale(1, -1)"
	style="font-family:Liberation Sans;font-variant:normal;font-weight:normal;font-style:normal;font-size:10px">20</text>
<text x="407.05" y="-16.473" transform="scale(1, -1)"
	style="font-family:Liberation Sans;font-variant:normal;font-weight:normal;font-style:normal;font-size:10px">40</text>
<path d="M46.435,24.578L46.435,32.578" style="fill:none;stroke:#000000;stroke-width:0.5" />
<path d="M229.52,24.578L229.52,32.578" style="fill:none;stroke:#000000;stroke-width:0.5" />
<path d="M412.61,24.578L412.61,32.578" style="fill:none;stroke:#000000;stroke-width:0.5" />
<path d="M137.98,28.578L137.98,32.578" style="fill:none;stroke:#000000;stroke-width:0.5" />
<path d="M321.07,28.578L321.07,32.578" style="fill:none;stroke:#000000;stroke-width:0.5" />
<path d="M46.435,32.578L495,32.578" style="fill:none;stroke:#000000;stroke-width:0.5" />
<g transform="rotate(90)">
<text x="269.39" y="9.7266" transform="scale(1, -1)"
	style="font-family:Liberation Sans;font-variant:normal;font-weight:normal;font-style:normal;font-size:12px">Gated</text>
</g>
<text x="15.949" y="-37.852" transform="scale(1, -1)"
	style="font-family:Liberation Sans;font-variant:normal;font-weight:normal;font-style:normal;font-size:10px">0.0</text>
<text x="15.949" y="-188.07" transform="scale(1, -1)"
	style="font-family:Liberation Sans;font-variant:normal;font-weight:normal;font-style:normal;font-size:10px">0.3</text>
<text x="15.949" y="-338.29" transform="scale(1, -1)"
	style="font-family:Liberation Sans;font-variant:normal;font-weight:normal;font-style:normal;font-size:10px">0.6</text>
<text x="15.949" y="-488.52" transform="scale(1, -1)"
	style="font-family:Liberation Sans;font-variant:normal;font-weight:normal;font-style:normal;font-size:10px">0.9</text>
<path d="M32.629,40.371L40.629,40.371" style="fill:none;stroke:#000000;stroke-width:0.5" />
<path d="M32.629,190.59L40.629,190.59" style="fill:none;stroke:#000000;stroke-width:0.5" />
<path d="M32.629,340.81L40.629,340.81" style="fill:none;stroke:#000000;stroke-width:0.5" />
<path d="M32.629,491.03L40.629,491.03" style="fill:none;stroke:#000000;stroke-width:0.5" />
<path d="M36.629,90.445L40.629,90.445" style="fill:none;stroke:#000000;stroke-width:0.5" />
<path d="M36.629,140.52L40.629,140.52" style="fill:none;stroke:#000000;stroke-width:0.5" />
<path d="M36.629,240.67L40.629,240.67" style="fill:none;stroke:#000000;stroke-width:0.5" />
<path d="M36.629,290.74L40.629,290.74" style="fill:none;stroke:#000000;stroke-width:0.5" />
<path d="M36.629,390.89L40.629,390.89" style="fill:none;stroke:#000000;stroke-width:0.5" />
<path d="M36.629,440.96L40.629,440.96" style="fill:none;stroke:#000000;stroke-width:0.5" />
<path d="M40.629,40.371L40.629,531.09" style="fill:none;stroke:#000000;stroke-width:0.5" />
<path d="M46.435,100.46L55.589,220.64L64.743,310.77L73.898,270.71L83.052,280.73L92.207,280.73L101.36,210.62L110.52,280.73L119.67,300.75L128.82,310.77L137.98,270.71L147.13,300.75L156.29,210.62L165.44,280.73L174.6,290.74L183.75,320.78L192.9,300.75L202.06,290.74L211.21,250.68L220.37,280.73L229.52,310.77L238.68,280.73L247.83,300.75L256.99,370.86L266.14,300.75L275.29,330.8L284.45,290.74L293.6,280.73L302.76,280.73L311.91,280.73L321.07,270.71L330.22,190.59L339.38,250.68L348.53,270.71L357.68,300.75L366.84,360.84L375.99,250.68L385.15,280.73L394.3,300.75L403.46,280.73L412.61,330.8L421.76,260.7L430.92,250.68L440.07,300.75L449.23,250.68L458.38,220.64L467.54,210.62L476.69,210.62L485.85,260.7L495,290.74" style="fill:none;stroke:#FFA500" />
<path d="M46.435,270.71L55.589,330.8L64.743,340.81L73.898,280.73L83.052,280.73L92.207,340.81L101.36,250.68L110.52,340.81L119.67,340.81L128.82,320.78L137.98,310.77L147.13,340.81L156.29,250.68L165.44,270.71L174.6,310.77L183.75,330.8L192.9,320.78L202.06,270.71L211.21,290.74L220.37,290.74L229.52,330.8L238.68,270.71L247.83,350.83L256.99,350.83L266.14,320.78L275.29,320.78L284.45,280.73L293.6,280.73L302.76,330.8L311.91,310.77L321.07,300.75L330.22,230.65L339.38,290.74L348.53,290.74L357.68,340.81L366.84,350.83L375.99,250.68L385.15,280.73L394.3,310.77L403.46,300.75L412.61,340.81L421.76,280.73L430.92,260.7L440.07,330.8L449.23,290.74L458.38,280.73L467.54,260.7L476.69,240.67L485.85,290.74L495,320.78" style="fill:none;stroke:#A52A2A" />
<path d="M46.435,330.8L55.589,430.95L64.743,491.03L73.898,471.01L83.052,501.05L92.207,481.02L101.36,481.02L110.52,481.02L119.67,460.99L128.82,471.01L137.98,501.05L147.13,501.05L156.29,460.99L165.44,511.06L174.6,481.02L183.75,491.03L192.9,501.05L202.06,501.05L211.21,501.05L220.37,491.03L229.52,501.05L238.68,531.09L247.83,430.95L256.99,460.99L266.14,460.99L275.29,511.06L284.45,491.03L293.6,501.05L302.76,491.03L311.91,471.01L321.07,491.03L330.22,460.99L339.38,501.05L348.53,460.99L357.68,481.02L366.84,471.01L375.99,501.05L385.15,501.05L394.3,511.06L403.46,521.08L412.61,511.06L421.76,481.02L430.92,511.06L440.07,471.01L449.23,481.02L458.38,481.02L467.54,491.03L476.69,491.03L485.85,471.01L495,471.01" style="fill:none;stroke:#7FFF00" />
<path d="M46.435,88.242L55.589,166.56L64.743,218.63L73.898,185.43L83.052,195L92.207,186.69L101.36,146.13L110.52,178.37L119.67,191.44L128.82,198.4L137.98,174.52L147.13,185.94L156.29,135.96L165.44,172.37L174.6,181.38L183.75,190.14L192.9,176.67L202.06,177.27L211.21,152.74L220.37,170.41L229.52,184.03L238.68,168.41L247.83,175.97L256.99,215.03L266.14,177.12L275.29,190.19L284.45,166.76L293.6,157.69L302.76,161.8L311.91,157.34L321.07,158.65L330.22,118.79L339.38,140.92L348.53,151.38L357.68,166.11L366.84,195.65L375.99,142.02L385.15,159.35L394.3,162.6L403.46,153.49L412.61,181.18L421.76,145.18L430.92,140.02L440.07,159.1L449.23,137.71L458.38,124.49L467.54,120.09L476.69,124.55L485.85,145.58L495,159.5" style="fill:none;stroke:#FF00FF" />
<path d="M46.435,151.28L55.589,169.32L64.743,178.65L73.898,172.31L83.052,159.94L92.207,172.9L101.36,156.7L110.52,162.44L119.67,176.08L128.82,168.7L137.98,172.15L147.13,173.9L156.29,155.9L165.44,169.02L174.6,168.12L183.75,174.72L192.9,183.09L202.06,168.39L211.21,162.6L220.37,168.07L229.52,178.14L238.68,176.38L247.83,175.98L256.99,194.99L266.14,174.34L275.29,190.57L284.45,174.73L293.6,185.23L302.76,177.89L311.91,167.47L321.07,173.01L330.22,149.07L339.38,180.14L348.53,170.21L357.68,191.22L366.84,202.52L375.99,189.61L385.15,180.25L394.3,192.35L403.46,197.38L412.61,218.87L421.76,179.58L430.92,186.68L440.07,205.14L449.23,193.79L458.38,178.98L467.54,190.97L476.69,178.65L485.85,180.79L495,193.35" style="fill:none;stroke:#D2B48C" />
<path d="M46.435,69.758L55.589,84.387L64.743,97.795L73.898,95.047L83.052,93.499L92.207,99.024L101.36,87.713L110.52,94.591L119.67,101.49L128.82,98.392L137.98,99.602L147.13,100.38L156.29,86.645L165.44,98.146L174.6,98.828L183.75,102.45L192.9,106.84L202.06,97.902L211.21,97.384L220.37,98.376L229.52,106.23L238.68,101.95L247.83,100.83L256.99,115.09L266.14,104.26L275.29,112.39L284.45,104.67L293.6,106.76L302.76,106.2L311.91,100.88L321.07,100.6L330.22,85.103L339.38,99.547L348.53,95.783L357.68,104.26L366.84,111.15L375.99,99.405L385.15,97.374L394.3,103.28L403.46,104.02L412.61,113.58L421.76,96.32L430.92,96.728L440.07,105.69L449.23,97.877L458.38,91.205L467.54,96.875L476.69,85.683L485.85,90.576L495,99.433" style="fill:none;stroke:#DAA520" />
<path d="M475,523.32L495,523.32" style="fill:none;stroke:#FFA500" />
<text x="438.98" y="-520.49" transform="scale(1, -1)"
	style="font-family:Liberation Sans;font-variant:normal;font-weight:normal;font-style:normal;font-size:12px">Gated</text>
<path d="M475,512.84L495,512.84" style="fill:none;stroke:#A52A2A" />
<text x="434.3" y="-510.02" transform="scale(1, -1)"
	style="font-family:Liberation Sans;font-variant:normal;font-weight:normal;font-style:normal;font-size:12px">Should</text>
<path d="M475,502.37L495,502.37" style="fill:none;stroke:#7FFF00" />
<text x="438.99" y="-499.55" transform="scale(1, -1)"
	style="font-family:Liberation Sans;font-variant:normal;font-weight:normal;font-style:normal;font-size:12px">Match</text>
<path d="M475,491.9L495,491.9" style="fill:none;stroke:#FF00FF" />
<text x="407.21" y="-489.08" transform="scale(1, -1)"
	style="font-family:Liberation Sans;font-variant:normal;font-weight:normal;font-style:normal;font-size:12px">PFCVM_RT</text>
<path d="M475,481.43L495,481.43" style="fill:none;stroke:#D2B48C" />
<text x="391.86" y="-478.61" transform="scale(1, -1)"
	style="font-family:Liberation Sans;font-variant:normal;font-weight:normal;font-style:normal;font-size:12px">MtxGo_ActAvg</text>
<path d="M475,470.96L495,470.96" style="fill:none;stroke:#DAA520" />
<text x="385.19" y="-468.13" transform="scale(1, -1)"
	style="font-family:Liberation Sans;font-variant:normal;font-weight:normal;font-style:normal;font-size:12px">PFCVM_ActAvg</text>
</g>
</svg>
