<?xml version="1.0"?>
<!-- Generated by SVGo and Plotinum VG -->
<svg width="495pt" height="544.5pt" viewBox="0 0 495 544.5"
	xmlns="http://www.w3.org/2000/svg"
	xmlns:xlink="http://www.w3.org/1999/xlink">
<g transform="scale(1, -1) translate(0, -544.5)">
<text x="187.25" y="-534.77" transform="scale(1, -1)"
	style="font-family:Liberation Sans;font-variant:normal;font-weight:normal;font-style:normal;font-size:12px">PCore Test Epoch Plot</text>
<text x="255.37" y="-3.6797" transform="scale(1, -1)"
	style="font-family:Liberation Sans;font-variant:normal;font-weight:normal;font-style:normal;font-size:12px">Epoch</text>
<text x="46.984" y="-16.473" transform="scale(1, -1)"
	style="font-family:Liberation Sans;font-variant:normal;font-weight:normal;font-style:normal;font-size:10px">0</text>
<text x="225.93" y="-16.473" transform="scale(1, -1)"
	style="font-family:Liberation Sans;font-variant:normal;font-weight:normal;font-style:normal;font-size:10px">20</text>
<text x="407.66" y="-16.473" transform="scale(1, -1)"
	style="font-family:Liberation Sans;font-variant:normal;font-weight:normal;font-style:normal;font-size:10px">40</text>
<path d="M49.765,24.578L49.765,32.578" style="fill:none;stroke:#000000;stroke-width:0.5" />
<path d="M231.49,24.578L231.49,32.578" style="fill:none;stroke:#000000;stroke-width:0.5" />
<path d="M413.22,24.578L413.22,32.578" style="fill:none;stroke:#000000;stroke-width:0.5" />
<path d="M140.63,28.578L140.63,32.578" style="fill:none;stroke:#000000;stroke-width:0.5" />
<path d="M322.36,28.578L322.36,32.578" style="fill:none;stroke:#000000;stroke-width:0.5" />
<path d="M49.765,32.578L495,32.578" style="fill:none;stroke:#000000;stroke-width:0.5" />
<g transform="rotate(90)">
<text x="269.39" y="9.7266" transform="scale(1, -1)"
	style="font-family:Liberation Sans;font-variant:normal;font-weight:normal;font-style:normal;font-size:12px">Gated</text>
</g>
<text x="15.949" y="-101.33" transform="scale(1, -1)"
	style="font-family:Liberation Sans;font-variant:normal;font-weight:normal;font-style:normal;font-size:10px">-0.4</text>
<text x="19.279" y="-228.29" transform="scale(1, -1)"
	style="font-family:Liberation Sans;font-variant:normal;font-weight:normal;font-style:normal;font-size:10px">0.0</text>
<text x="19.279" y="-355.25" transform="scale(1, -1)"
	style="font-family:Liberation Sans;font-variant:normal;font-weight:normal;font-style:normal;font-size:10px">0.4</text>
<text x="19.279" y="-482.21" transform="scale(1, -1)"
	style="font-family:Liberation Sans;font-variant:normal;font-weight:normal;font-style:normal;font-size:10px">0.8</text>
<path d="M35.959,103.85L43.959,103.85" style="fill:none;stroke:#000000;stroke-width:0.5" />
<path d="M35.959,230.81L43.959,230.81" style="fill:none;stroke:#000000;stroke-width:0.5" />
<path d="M35.959,357.77L43.959,357.77" style="fill:none;stroke:#000000;stroke-width:0.5" />
<path d="M35.959,484.73L43.959,484.73" style="fill:none;stroke:#000000;stroke-width:0.5" />
<path d="M39.959,72.111L43.959,72.111" style="fill:none;stroke:#000000;stroke-width:0.5" />
<path d="M39.959,135.59L43.959,135.59" style="fill:none;stroke:#000000;stroke-width:0.5" />
<path d="M39.959,167.33L43.959,167.33" style="fill:none;stroke:#000000;stroke-width:0.5" />
<path d="M39.959,199.07L43.959,199.07" style="fill:none;stroke:#000000;stroke-width:0.5" />
<path d="M39.959,262.55L43.959,262.55" style="fill:none;stroke:#000000;stroke-width:0.5" />
<path d="M39.959,294.29L43.959,294.29" style="fill:none;stroke:#000000;stroke-width:0.5" />
<path d="M39.959,326.03L43.959,326.03" style="fill:none;stroke:#000000;stroke-width:0.5" />
<path d="M39.959,389.51L43.959,389.51" style="fill:none;stroke:#000000;stroke-width:0.5" />
<path d="M39.959,421.25L43.959,421.25" style="fill:none;stroke:#000000;stroke-width:0.5" />
<path d="M39.959,452.99L43.959,452.99" style="fill:none;stroke:#000000;stroke-width:0.5" />
<path d="M39.959,516.47L43.959,516.47" style="fill:none;stroke:#000000;stroke-width:0.5" />
<path d="M43.959,40.371L43.959,531.09" style="fill:none;stroke:#000000;stroke-width:0.5" />
<path d="M49.765,230.81L58.851,230.81L67.938,230.81L77.024,294.29L86.11,256.2L95.197,256.2L104.28,319.68L113.37,376.81L122.46,421.25L131.54,427.6L140.63,364.12L149.72,395.86L158.8,408.55L167.89,427.6L176.97,433.95L186.06,433.95L195.15,427.6L204.23,421.25L213.32,414.9L222.41,414.9L231.49,389.51L240.58,421.25L249.67,408.55L258.75,395.86L267.84,427.6L276.93,433.95L286.01,402.21L295.1,402.21L304.18,421.25L313.27,389.51L322.36,414.9L331.44,421.25L340.53,440.29L349.62,414.9L358.7,408.55L367.79,395.86L376.88,414.9L385.96,370.47L395.05,421.25L404.14,370.47L413.22,357.77L422.31,421.25L431.39,446.64L440.48,433.95L449.57,364.12L458.65,376.81L467.74,370.47L476.83,414.9L485.91,408.55L495,389.51" style="fill:none;stroke:#FFA500" />
<path d="M49.765,421.25L58.851,370.47L67.938,351.42L77.024,408.55L86.11,332.38L95.197,319.68L104.28,364.12L113.37,351.42L122.46,389.51L131.54,370.47L140.63,370.47L149.72,357.77L158.8,364.12L167.89,383.16L176.97,395.86L186.06,383.16L195.15,370.47L204.23,370.47L213.32,383.16L222.41,351.42L231.49,338.73L240.58,376.81L249.67,376.81L258.75,345.07L267.84,332.38L276.93,332.38L286.01,364.12L295.1,395.86L304.18,357.77L313.27,351.42L322.36,370.47L331.44,383.16L340.53,364.12L349.62,338.73L358.7,332.38L367.79,351.42L376.88,370.47L385.96,338.73L395.05,376.81L404.14,326.03L413.22,332.38L422.31,351.42L431.39,395.86L440.48,338.73L449.57,326.03L458.65,338.73L467.74,332.38L476.83,351.42L485.91,351.42L495,351.42" style="fill:none;stroke:#A52A2A" />
<path d="M49.765,357.77L58.851,408.55L67.938,427.6L77.024,383.16L86.11,446.64L95.197,446.64L104.28,452.99L113.37,497.43L122.46,478.38L131.54,478.38L140.63,503.77L149.72,497.43L158.8,478.38L167.89,491.08L176.97,484.73L186.06,484.73L195.15,465.69L204.23,497.43L213.32,516.47L222.41,472.03L231.49,484.73L240.58,478.38L249.67,503.77L258.75,484.73L267.84,440.29L276.93,446.64L286.01,497.43L295.1,503.77L304.18,484.73L313.27,510.12L322.36,503.77L331.44,510.12L340.53,472.03L349.62,459.34L358.7,459.34L367.79,503.77L376.88,491.08L385.96,491.08L395.05,491.08L404.14,491.08L413.22,510.12L422.31,478.38L431.39,472.03L440.48,452.99L449.57,472.03L458.65,510.12L467.74,510.12L476.83,484.73L485.91,491.08L495,497.43" style="fill:none;stroke:#7FFF00" />
<path d="M49.765,40.371L58.851,91.155L67.938,110.2L77.024,103.85L86.11,141.94L95.197,135.59L104.28,199.07L113.37,287.94L122.46,300.64L131.54,294.29L140.63,300.64L149.72,300.64L158.8,281.59L167.89,319.68L176.97,319.68L186.06,313.33L195.15,275.25L204.23,319.68L213.32,351.42L222.41,268.9L231.49,268.9L240.58,294.29L249.67,326.03L258.75,275.25L267.84,218.11L276.93,230.81L286.01,306.99L295.1,332.38L304.18,294.29L313.27,313.33L322.36,326.03L331.44,345.07L340.53,287.94L349.62,243.51L358.7,237.16L367.79,306.99L376.88,306.99L385.96,268.9L395.05,313.33L404.14,262.55L413.22,287.94L422.31,281.59L431.39,306.99L440.48,243.51L449.57,230.81L458.65,300.64L467.74,294.29L476.83,287.94L485.91,294.29L495,294.29" style="fill:none;stroke:#000080" />
<path d="M49.765,230.81L58.851,230.81L67.938,230.81L77.024,483.3L86.11,502.82L95.197,487.11L104.28,531.09L113.37,483.49L122.46,480.5L131.54,468.35L140.63,493.72L149.72,463.73L158.8,483.65L167.89,473.26L176.97,483.79L186.06,466.23L195.15,472.5L204.23,480.92L213.32,470.01L222.41,457.7L231.49,471.4L240.58,454.52L249.67,444.6L258.75,479.36L267.84,476.33L276.93,456.61L286.01,472.8L295.1,444.23L304.18,461.03L313.27,453.24L322.36,454.96L331.44,453.73L340.53,460.78L349.62,438.32L358.7,446.81L367.79,466.54L376.88,457.37L385.96,459.84L395.05,452.2L404.14,457.82L413.22,425.77L422.31,451.67L431.39,451.59L440.48,446.64L449.57,441.88L458.65,430.43L467.74,446.28L476.83,461.47L485.91,436.78L495,454.32" style="fill:none;stroke:#FF00FF" />
<path d="M49.765,230.81L58.851,230.81L67.938,230.81L77.024,230.81L86.11,230.81L95.197,230.81L104.28,230.81L113.37,230.81L122.46,230.81L131.54,230.81L140.63,230.81L149.72,230.81L158.8,230.81L167.89,230.81L176.97,230.81L186.06,230.81L195.15,230.81L204.23,230.81L213.32,230.81L222.41,230.81L231.49,230.81L240.58,230.81L249.67,230.81L258.75,230.81L267.84,230.81L276.93,230.81L286.01,230.81L295.1,230.81L304.18,230.81L313.27,230.81L322.36,230.81L331.44,230.81L340.53,230.81L349.62,230.81L358.7,230.81L367.79,230.81L376.88,230.81L385.96,230.81L395.05,230.81L404.14,230.81L413.22,230.81L422.31,230.81L431.39,230.81L440.48,230.81L449.57,230.81L458.65,230.81L467.74,230.81L476.83,230.81L485.91,230.81L495,230.81" style="fill:none;stroke:#D2B48C" />
<path d="M49.765,230.81L58.851,230.81L67.938,230.81L77.024,230.81L86.11,230.81L95.197,230.81L104.28,230.81L113.37,230.81L122.46,230.81L131.54,230.81L140.63,230.81L149.72,230.81L158.8,230.81L167.89,230.81L176.97,230.81L186.06,230.81L195.15,230.81L204.23,230.81L213.32,230.81L222.41,230.81L231.49,230.81L240.58,230.81L249.67,230.81L258.75,230.81L267.84,230.81L276.93,230.81L286.01,230.81L295.1,230.81L304.18,230.81L313.27,230.81L322.36,230.81L331.44,230.81L340.53,230.81L349.62,230.81L358.7,230.81L367.79,230.81L376.88,230.81L385.96,230.81L395.05,230.81L404.14,230.81L413.22,230.81L422.31,230.81L431.39,230.81L440.48,230.81L449.57,230.81L458.65,230.81L467.74,230.81L476.83,230.81L485.91,230.81L495,230.81" style="fill:none;stroke:#DAA520" />
<path d="M475,523.32L495,523.32" style="fill:none;stroke:#FFA500" />
<text x="438.98" y="-520.49" transform="scale(1, -1)"
	style="font-family:Liberation Sans;font-variant:normal;font-weight:normal;font-style:normal;font-size:12px">Gated</text>
<path d="M475,512.84L495,512.84" style="fill:none;stroke:#A52A2A" />
<text x="434.3" y="-510.02" transform="scale(1, -1)"
	style="font-family:Liberation Sans;font-variant:normal;font-weight:normal;font-style:normal;font-size:12px">Should</text>
<path d="M475,502.37L495,502.37" style="fill:none;stroke:#7FFF00" />
<text x="438.99" y="-499.55" transform="scale(1, -1)"
	style="font-family:Liberation Sans;font-variant:normal;font-weight:normal;font-style:normal;font-size:12px">Match</text>
<path d="M475,491.9L495,491.9" style="fill:none;stroke:#000080" />
<text x="447.66" y="-489.08" transform="scale(1, -1)"
	style="font-family:Liberation Sans;font-variant:normal;font-weight:normal;font-style:normal;font-size:12px">Rew</text>
<path d="M475,481.43L495,481.43" style="fill:none;stroke:#FF00FF" />
<text x="407.21" y="-478.61" transform="scale(1, -1)"
	style="font-family:Liberation Sans;font-variant:normal;font-weight:normal;font-style:normal;font-size:12px">PFCVM_RT</text>
<path d="M475,470.96L495,470.96" style="fill:none;stroke:#D2B48C" />
<text x="391.86" y="-468.13" transform="scale(1, -1)"
	style="font-family:Liberation Sans;font-variant:normal;font-weight:normal;font-style:normal;font-size:12px">MtxGo_ActAvg</text>
<path d="M475,460.49L495,460.49" style="fill:none;stroke:#DAA520" />
<text x="385.19" y="-457.66" transform="scale(1, -1)"
	style="font-family:Liberation Sans;font-variant:normal;font-weight:normal;font-style:normal;font-size:12px">PFCVM_ActAvg</text>
</g>
</svg>
