<?xml version="1.0"?>
<!-- Generated by SVGo and Plotinum VG -->
<svg width="520.12pt" height="442.88pt" viewBox="0 0 520.12 442.88"
	xmlns="http://www.w3.org/2000/svg"
	xmlns:xlink="http://www.w3.org/1999/xlink">
<g transform="scale(1, -1) translate(0, -442.88)">
<text x="199.81" y="-433.15" transform="scale(1, -1)"
	style="font-family:Liberation Sans;font-variant:normal;font-weight:normal;font-style:normal;font-size:12px">PCore Test Epoch Plot</text>
<text x="266.27" y="-3.6797" transform="scale(1, -1)"
	style="font-family:Liberation Sans;font-variant:normal;font-weight:normal;font-style:normal;font-size:12px">Epoch</text>
<text x="36.703" y="-16.473" transform="scale(1, -1)"
	style="font-family:Liberation Sans;font-variant:normal;font-weight:normal;font-style:normal;font-size:10px">0.00</text>
<text x="442.28" y="-16.473" transform="scale(1, -1)"
	style="font-family:Liberation Sans;font-variant:normal;font-weight:normal;font-style:normal;font-size:10px">25.00</text>
<path d="M46.435,24.578L46.435,32.578" style="fill:none;stroke:#000000;stroke-width:0.5" />
<path d="M454.79,24.578L454.79,32.578" style="fill:none;stroke:#000000;stroke-width:0.5" />
<path d="M128.11,28.578L128.11,32.578" style="fill:none;stroke:#000000;stroke-width:0.5" />
<path d="M209.78,28.578L209.78,32.578" style="fill:none;stroke:#000000;stroke-width:0.5" />
<path d="M291.45,28.578L291.45,32.578" style="fill:none;stroke:#000000;stroke-width:0.5" />
<path d="M373.12,28.578L373.12,32.578" style="fill:none;stroke:#000000;stroke-width:0.5" />
<path d="M46.435,32.578L520.12,32.578" style="fill:none;stroke:#000000;stroke-width:0.5" />
<g transform="rotate(90)">
<text x="218.58" y="9.7266" transform="scale(1, -1)"
	style="font-family:Liberation Sans;font-variant:normal;font-weight:normal;font-style:normal;font-size:12px">Gated</text>
</g>
<text x="15.949" y="-37.852" transform="scale(1, -1)"
	style="font-family:Liberation Sans;font-variant:normal;font-weight:normal;font-style:normal;font-size:10px">0.0</text>
<text x="15.949" y="-157.38" transform="scale(1, -1)"
	style="font-family:Liberation Sans;font-variant:normal;font-weight:normal;font-style:normal;font-size:10px">0.3</text>
<text x="15.949" y="-276.91" transform="scale(1, -1)"
	style="font-family:Liberation Sans;font-variant:normal;font-weight:normal;font-style:normal;font-size:10px">0.6</text>
<text x="15.949" y="-396.44" transform="scale(1, -1)"
	style="font-family:Liberation Sans;font-variant:normal;font-weight:normal;font-style:normal;font-size:10px">0.9</text>
<path d="M32.629,40.371L40.629,40.371" style="fill:none;stroke:#000000;stroke-width:0.5" />
<path d="M32.629,159.9L40.629,159.9" style="fill:none;stroke:#000000;stroke-width:0.5" />
<path d="M32.629,279.43L40.629,279.43" style="fill:none;stroke:#000000;stroke-width:0.5" />
<path d="M32.629,398.96L40.629,398.96" style="fill:none;stroke:#000000;stroke-width:0.5" />
<path d="M36.629,80.215L40.629,80.215" style="fill:none;stroke:#000000;stroke-width:0.5" />
<path d="M36.629,120.06L40.629,120.06" style="fill:none;stroke:#000000;stroke-width:0.5" />
<path d="M36.629,199.75L40.629,199.75" style="fill:none;stroke:#000000;stroke-width:0.5" />
<path d="M36.629,239.59L40.629,239.59" style="fill:none;stroke:#000000;stroke-width:0.5" />
<path d="M36.629,319.28L40.629,319.28" style="fill:none;stroke:#000000;stroke-width:0.5" />
<path d="M36.629,359.12L40.629,359.12" style="fill:none;stroke:#000000;stroke-width:0.5" />
<path d="M40.629,40.371L40.629,429.47" style="fill:none;stroke:#000000;stroke-width:0.5" />
<path d="M46.435,261.38L62.769,267.6L79.103,233.36L95.437,255.15L111.77,267.6L128.11,261.38L144.44,280.06L160.77,295.62L177.11,286.28L193.44,276.94L209.78,295.62L226.11,273.83L242.44,261.38L258.78,289.39L275.11,258.27L291.45,283.17L307.78,255.15L324.12,276.94L340.45,264.49L356.78,252.04L373.12,280.06L389.45,308.07L405.79,289.39L422.12,270.72L438.45,261.38L454.79,252.04L471.12,276.94L487.46,308.07L503.79,283.17L520.12,255.15" style="fill:none;stroke:#FFA500" />
<path d="M46.435,205.35L62.769,245.81L79.103,230.25L95.437,242.7L111.77,264.49L128.11,230.25L144.44,245.81L160.77,248.93L177.11,261.38L193.44,252.04L209.78,233.36L226.11,236.48L242.44,242.7L258.78,255.15L275.11,217.8L291.45,258.27L307.78,220.91L324.12,227.14L340.45,233.36L356.78,227.14L373.12,252.04L389.45,276.94L405.79,233.36L422.12,236.48L438.45,227.14L454.79,196.01L471.12,233.36L487.46,258.27L503.79,230.25L520.12,217.8" style="fill:none;stroke:#A52A2A" />
<path d="M46.435,357.87L62.769,392.12L79.103,404.57L95.437,413.9L111.77,429.47L128.11,389L144.44,398.34L160.77,385.89L177.11,401.45L193.44,395.23L209.78,370.33L226.11,389L242.44,401.45L258.78,398.34L275.11,385.89L291.45,401.45L307.78,392.12L324.12,376.55L340.45,401.45L356.78,395.23L373.12,410.79L389.45,401.45L405.79,370.33L422.12,385.89L438.45,392.12L454.79,376.55L471.12,395.23L487.46,376.55L503.79,385.89L520.12,382.78" style="fill:none;stroke:#7FFF00" />
<path d="M46.435,223.9L62.769,219.91L79.103,223.92L95.437,218.22L111.77,216.32L128.11,220.26L144.44,222.54L160.77,224.16L177.11,212.16L193.44,207.3L209.78,213.17L226.11,211.57L242.44,207.87L258.78,215.97L275.11,211.77L291.45,216.81L307.78,221L324.12,200.39L340.45,209.81L356.78,210.58L373.12,219.28L389.45,207.82L405.79,215.02L422.12,222.99L438.45,217.54L454.79,222.48L471.12,210.55L487.46,219.39L503.79,214.47L520.12,217.68" style="fill:none;stroke:#000080" />
<path d="M46.435,72.376L62.769,83.766L79.103,80.732L95.437,87.332L111.77,93.342L128.11,86.672L144.44,89.946L160.77,94.282L177.11,97.524L193.44,95.239L209.78,92.637L226.11,92.387L242.44,93.361L258.78,94.615L275.11,87.092L291.45,96.648L307.78,82.755L324.12,90.049L340.45,89.286L356.78,84.929L373.12,89.301L389.45,98.7L405.79,89.196L422.12,80.918L438.45,82.189L454.79,75.102L471.12,89.138L487.46,90.4L503.79,88.603L520.12,82.072" style="fill:none;stroke:#00FFFF" />
<path d="M46.435,141.26L62.769,139.92L79.103,136.65L95.437,149.25L111.77,159.77L128.11,154.33L144.44,161.66L160.77,168.93L177.11,179.66L193.44,172.55L209.78,176.18L226.11,176.35L242.44,176.89L258.78,180.35L275.11,175.28L291.45,191.7L307.78,174.56L324.12,184.56L340.45,185.6L356.78,185.19L373.12,186.81L389.45,209.12L405.79,196.08L422.12,179.04L438.45,182.56L454.79,166.96L471.12,193.01L487.46,201.67L503.79,198.13L520.12,192.44" style="fill:none;stroke:#FF00FF" />
<path d="M46.435,276.94L62.769,345.42L79.103,370.33L95.437,389L111.77,420.13L128.11,339.2L144.44,357.87L160.77,332.97L177.11,364.1L193.44,351.65L209.78,301.84L226.11,339.2L242.44,364.1L258.78,357.87L275.11,332.97L291.45,364.1L307.78,345.42L324.12,314.3L340.45,364.1L356.78,351.65L373.12,382.78L389.45,364.1L405.79,301.84L422.12,332.97L438.45,345.42L454.79,314.3L471.12,351.65L487.46,314.3L503.79,332.97L520.12,326.75" style="fill:none;stroke:#D2B48C" />
<path d="M500.12,421.69L520.12,421.69" style="fill:none;stroke:#FFA500" />
<text x="464.1" y="-418.86" transform="scale(1, -1)"
	style="font-family:Liberation Sans;font-variant:normal;font-weight:normal;font-style:normal;font-size:12px">Gated</text>
<path d="M500.12,411.22L520.12,411.22" style="fill:none;stroke:#A52A2A" />
<text x="459.43" y="-408.39" transform="scale(1, -1)"
	style="font-family:Liberation Sans;font-variant:normal;font-weight:normal;font-style:normal;font-size:12px">Should</text>
<path d="M500.12,400.75L520.12,400.75" style="fill:none;stroke:#7FFF00" />
<text x="464.11" y="-397.92" transform="scale(1, -1)"
	style="font-family:Liberation Sans;font-variant:normal;font-weight:normal;font-style:normal;font-size:12px">Match</text>
<path d="M500.12,390.28L520.12,390.28" style="fill:none;stroke:#000080" />
<text x="432.34" y="-387.45" transform="scale(1, -1)"
	style="font-family:Liberation Sans;font-variant:normal;font-weight:normal;font-style:normal;font-size:12px">PFCVM_RT</text>
<path d="M500.12,379.81L520.12,379.81" style="fill:none;stroke:#00FFFF" />
<text x="410.32" y="-376.98" transform="scale(1, -1)"
	style="font-family:Liberation Sans;font-variant:normal;font-weight:normal;font-style:normal;font-size:12px">PFCVM_ActAvg</text>
<path d="M500.12,369.34L520.12,369.34" style="fill:none;stroke:#FF00FF" />
<text x="416.98" y="-366.51" transform="scale(1, -1)"
	style="font-family:Liberation Sans;font-variant:normal;font-weight:normal;font-style:normal;font-size:12px">MtxGo_ActAvg</text>
<path d="M500.12,358.87L520.12,358.87" style="fill:none;stroke:#D2B48C" />
<text x="472.79" y="-356.04" transform="scale(1, -1)"
	style="font-family:Liberation Sans;font-variant:normal;font-weight:normal;font-style:normal;font-size:12px">Rew</text>
</g>
</svg>
