<?xml version="1.0"?>
<!-- Generated by SVGo and Plotinum VG -->
<svg width="718.88pt" height="333.38pt" viewBox="0 0 718.88 333.38"
	xmlns="http://www.w3.org/2000/svg"
	xmlns:xlink="http://www.w3.org/1999/xlink">
<g transform="scale(1, -1) translate(0, -333.38)">
<text x="299.18" y="-323.65" transform="scale(1, -1)"
	style="font-family:Liberation Sans;font-variant:normal;font-weight:normal;font-style:normal;font-size:12px">PCore Test Epoch Plot</text>
<text x="365.64" y="-3.6797" transform="scale(1, -1)"
	style="font-family:Liberation Sans;font-variant:normal;font-weight:normal;font-style:normal;font-size:12px">Epoch</text>
<text x="36.703" y="-16.473" transform="scale(1, -1)"
	style="font-family:Liberation Sans;font-variant:normal;font-weight:normal;font-style:normal;font-size:10px">0.00</text>
<text x="613.61" y="-16.473" transform="scale(1, -1)"
	style="font-family:Liberation Sans;font-variant:normal;font-weight:normal;font-style:normal;font-size:10px">25.00</text>
<path d="M46.435,24.578L46.435,32.578" style="fill:none;stroke:#000000;stroke-width:0.5" />
<path d="M626.12,24.578L626.12,32.578" style="fill:none;stroke:#000000;stroke-width:0.5" />
<path d="M162.37,28.578L162.37,32.578" style="fill:none;stroke:#000000;stroke-width:0.5" />
<path d="M278.31,28.578L278.31,32.578" style="fill:none;stroke:#000000;stroke-width:0.5" />
<path d="M394.25,28.578L394.25,32.578" style="fill:none;stroke:#000000;stroke-width:0.5" />
<path d="M510.19,28.578L510.19,32.578" style="fill:none;stroke:#000000;stroke-width:0.5" />
<path d="M46.435,32.578L718.88,32.578" style="fill:none;stroke:#000000;stroke-width:0.5" />
<g transform="rotate(90)">
<text x="163.83" y="9.7266" transform="scale(1, -1)"
	style="font-family:Liberation Sans;font-variant:normal;font-weight:normal;font-style:normal;font-size:12px">Gated</text>
</g>
<text x="15.949" y="-37.852" transform="scale(1, -1)"
	style="font-family:Liberation Sans;font-variant:normal;font-weight:normal;font-style:normal;font-size:10px">0.0</text>
<text x="15.949" y="-154.35" transform="scale(1, -1)"
	style="font-family:Liberation Sans;font-variant:normal;font-weight:normal;font-style:normal;font-size:10px">0.4</text>
<text x="15.949" y="-270.85" transform="scale(1, -1)"
	style="font-family:Liberation Sans;font-variant:normal;font-weight:normal;font-style:normal;font-size:10px">0.8</text>
<path d="M32.629,40.371L40.629,40.371" style="fill:none;stroke:#000000;stroke-width:0.5" />
<path d="M32.629,156.87L40.629,156.87" style="fill:none;stroke:#000000;stroke-width:0.5" />
<path d="M32.629,273.37L40.629,273.37" style="fill:none;stroke:#000000;stroke-width:0.5" />
<path d="M36.629,69.496L40.629,69.496" style="fill:none;stroke:#000000;stroke-width:0.5" />
<path d="M36.629,98.621L40.629,98.621" style="fill:none;stroke:#000000;stroke-width:0.5" />
<path d="M36.629,127.75L40.629,127.75" style="fill:none;stroke:#000000;stroke-width:0.5" />
<path d="M36.629,185.99L40.629,185.99" style="fill:none;stroke:#000000;stroke-width:0.5" />
<path d="M36.629,215.12L40.629,215.12" style="fill:none;stroke:#000000;stroke-width:0.5" />
<path d="M36.629,244.24L40.629,244.24" style="fill:none;stroke:#000000;stroke-width:0.5" />
<path d="M36.629,302.49L40.629,302.49" style="fill:none;stroke:#000000;stroke-width:0.5" />
<path d="M40.629,40.371L40.629,319.97" style="fill:none;stroke:#000000;stroke-width:0.5" />
<path d="M46.435,238.42L69.622,209.29L92.81,185.99L116,185.99L139.18,156.87L162.37,174.34L185.56,116.1L208.75,162.7L231.94,162.7L255.12,180.17L278.31,191.82L301.5,197.64L324.69,180.17L347.87,203.47L371.06,180.17L394.25,197.64L417.44,197.64L440.62,168.52L463.81,215.12L487,185.99L510.19,215.12L533.37,232.59L556.56,191.82L579.75,185.99L602.94,156.87L626.12,197.64L649.31,162.7L672.5,162.7L695.69,180.17L718.88,185.99" style="fill:none;stroke:#FFA500" />
<path d="M46.435,174.34L69.622,185.99L92.81,197.64L116,185.99L139.18,151.05L162.37,185.99L185.56,133.57L208.75,168.52L231.94,162.7L255.12,197.64L278.31,209.29L301.5,191.82L324.69,174.34L347.87,215.12L371.06,180.17L394.25,180.17L417.44,174.34L440.62,168.52L463.81,203.47L487,174.34L510.19,203.47L533.37,209.29L556.56,191.82L579.75,156.87L602.94,151.05L626.12,168.52L649.31,139.4L672.5,180.17L695.69,174.34L718.88,174.34" style="fill:none;stroke:#A52A2A" />
<path d="M46.435,244.24L69.622,261.72L92.81,273.37L116,319.97L139.18,290.84L162.37,308.32L185.56,314.14L208.75,302.49L231.94,285.02L255.12,290.84L278.31,302.49L301.5,314.14L324.69,314.14L347.87,308.32L371.06,285.02L394.25,302.49L417.44,308.32L440.62,308.32L463.81,319.97L487,285.02L510.19,308.32L533.37,285.02L556.56,319.97L579.75,290.84L602.94,314.14L626.12,302.49L649.31,285.02L672.5,302.49L695.69,314.14L718.88,296.67" style="fill:none;stroke:#7FFF00" />
<path d="M46.435,156.87L69.622,191.82L92.81,215.12L116,308.32L139.18,250.07L162.37,285.02L185.56,296.67L208.75,273.37L231.94,238.42L255.12,250.07L278.31,273.37L301.5,296.67L324.69,296.67L347.87,285.02L371.06,238.42L394.25,273.37L417.44,285.02L440.62,285.02L463.81,308.32L487,238.42L510.19,285.02L533.37,238.42L556.56,308.32L579.75,250.07L602.94,296.67L626.12,273.37L649.31,238.42L672.5,273.37L695.69,296.67L718.88,261.72" style="fill:none;stroke:#000080" />
<path d="M46.435,130.37L69.622,116.88L92.81,102.99L116,101.56L139.18,88.514L162.37,97.339L185.56,70.632L208.75,97.98L231.94,92.97L255.12,100.51L278.31,100.75L301.5,105.23L324.69,96.465L347.87,107.94L371.06,102.26L394.25,110.77L417.44,107.94L440.62,93.99L463.81,113.42L487,105.06L510.19,111.93L533.37,124.8L556.56,100.48L579.75,103.51L602.94,85.747L626.12,105.99L649.31,92.33L672.5,93.99L695.69,101.56L718.88,110.18" style="fill:none;stroke:#FF00FF" />
<path d="M46.435,128.98L69.622,119.65L92.81,115.21L116,109.14L139.18,104.02L162.37,100.53L185.56,85.728L208.75,90.981L231.94,92.857L255.12,115.57L278.31,122.39L301.5,128.74L324.69,117.35L347.87,127.98L371.06,118.48L394.25,114.84L417.44,120.69L440.62,118.1L463.81,134.68L487,115.09L510.19,142.47L533.37,137.83L556.56,143.25L579.75,124.43L602.94,120.19L626.12,122.99L649.31,118.53L672.5,122.52L695.69,119.41L718.88,129.53" style="fill:none;stroke:#D2B48C" />
<path d="M46.435,72.843L69.622,75.82L92.81,75.527L116,77.304L139.18,73.509L162.37,71.994L185.56,62.642L208.75,65.73L231.94,65.884L255.12,78.008L278.31,83.798L301.5,84.788L324.69,80.091L347.87,85.448L371.06,76.635L394.25,76.226L417.44,80.652L440.62,75.081L463.81,86.147L487,74.003L510.19,87.731L533.37,82.855L556.56,86.514L579.75,73.531L602.94,71.825L626.12,73.447L649.31,68.646L672.5,71.461L695.69,71.502L718.88,73.876" style="fill:none;stroke:#DAA520" />
<path d="M698.88,312.19L718.88,312.19" style="fill:none;stroke:#FFA500" />
<text x="662.85" y="-309.36" transform="scale(1, -1)"
	style="font-family:Liberation Sans;font-variant:normal;font-weight:normal;font-style:normal;font-size:12px">Gated</text>
<path d="M698.88,301.72L718.88,301.72" style="fill:none;stroke:#A52A2A" />
<text x="658.18" y="-298.89" transform="scale(1, -1)"
	style="font-family:Liberation Sans;font-variant:normal;font-weight:normal;font-style:normal;font-size:12px">Should</text>
<path d="M698.88,291.25L718.88,291.25" style="fill:none;stroke:#7FFF00" />
<text x="662.86" y="-288.42" transform="scale(1, -1)"
	style="font-family:Liberation Sans;font-variant:normal;font-weight:normal;font-style:normal;font-size:12px">Match</text>
<path d="M698.88,280.78L718.88,280.78" style="fill:none;stroke:#000080" />
<text x="671.54" y="-277.95" transform="scale(1, -1)"
	style="font-family:Liberation Sans;font-variant:normal;font-weight:normal;font-style:normal;font-size:12px">Rew</text>
<path d="M698.88,270.31L718.88,270.31" style="fill:none;stroke:#FF00FF" />
<text x="631.09" y="-267.48" transform="scale(1, -1)"
	style="font-family:Liberation Sans;font-variant:normal;font-weight:normal;font-style:normal;font-size:12px">PFCVM_RT</text>
<path d="M698.88,259.84L718.88,259.84" style="fill:none;stroke:#D2B48C" />
<text x="615.73" y="-257.01" transform="scale(1, -1)"
	style="font-family:Liberation Sans;font-variant:normal;font-weight:normal;font-style:normal;font-size:12px">MtxGo_ActAvg</text>
<path d="M698.88,249.37L718.88,249.37" style="fill:none;stroke:#DAA520" />
<text x="609.07" y="-246.54" transform="scale(1, -1)"
	style="font-family:Liberation Sans;font-variant:normal;font-weight:normal;font-style:normal;font-size:12px">PFCVM_ActAvg</text>
</g>
</svg>
