<?xml version="1.0"?>
<!-- Generated by SVGo and Plotinum VG -->
<svg width="495pt" height="544.5pt" viewBox="0 0 495 544.5"
	xmlns="http://www.w3.org/2000/svg"
	xmlns:xlink="http://www.w3.org/1999/xlink">
<g transform="scale(1, -1) translate(0, -544.5)">
<text x="187.25" y="-534.77" transform="scale(1, -1)"
	style="font-family:Liberation Sans;font-variant:normal;font-weight:normal;font-style:normal;font-size:12px">PCore Test Epoch Plot</text>
<text x="253.7" y="-3.6797" transform="scale(1, -1)"
	style="font-family:Liberation Sans;font-variant:normal;font-weight:normal;font-style:normal;font-size:12px">Epoch</text>
<text x="43.654" y="-16.473" transform="scale(1, -1)"
	style="font-family:Liberation Sans;font-variant:normal;font-weight:normal;font-style:normal;font-size:10px">0</text>
<text x="223.96" y="-16.473" transform="scale(1, -1)"
	style="font-family:Liberation Sans;font-variant:normal;font-weight:normal;font-style:normal;font-size:10px">20</text>
<text x="407.05" y="-16.473" transform="scale(1, -1)"
	style="font-family:Liberation Sans;font-variant:normal;font-weight:normal;font-style:normal;font-size:10px">40</text>
<path d="M46.435,24.578L46.435,32.578" style="fill:none;stroke:#000000;stroke-width:0.5" />
<path d="M229.52,24.578L229.52,32.578" style="fill:none;stroke:#000000;stroke-width:0.5" />
<path d="M412.61,24.578L412.61,32.578" style="fill:none;stroke:#000000;stroke-width:0.5" />
<path d="M137.98,28.578L137.98,32.578" style="fill:none;stroke:#000000;stroke-width:0.5" />
<path d="M321.07,28.578L321.07,32.578" style="fill:none;stroke:#000000;stroke-width:0.5" />
<path d="M46.435,32.578L495,32.578" style="fill:none;stroke:#000000;stroke-width:0.5" />
<g transform="rotate(90)">
<text x="269.39" y="9.7266" transform="scale(1, -1)"
	style="font-family:Liberation Sans;font-variant:normal;font-weight:normal;font-style:normal;font-size:12px">Gated</text>
</g>
<text x="15.949" y="-37.852" transform="scale(1, -1)"
	style="font-family:Liberation Sans;font-variant:normal;font-weight:normal;font-style:normal;font-size:10px">0.0</text>
<text x="15.949" y="-188.07" transform="scale(1, -1)"
	style="font-family:Liberation Sans;font-variant:normal;font-weight:normal;font-style:normal;font-size:10px">0.3</text>
<text x="15.949" y="-338.29" transform="scale(1, -1)"
	style="font-family:Liberation Sans;font-variant:normal;font-weight:normal;font-style:normal;font-size:10px">0.6</text>
<text x="15.949" y="-488.52" transform="scale(1, -1)"
	style="font-family:Liberation Sans;font-variant:normal;font-weight:normal;font-style:normal;font-size:10px">0.9</text>
<path d="M32.629,40.371L40.629,40.371" style="fill:none;stroke:#000000;stroke-width:0.5" />
<path d="M32.629,190.59L40.629,190.59" style="fill:none;stroke:#000000;stroke-width:0.5" />
<path d="M32.629,340.81L40.629,340.81" style="fill:none;stroke:#000000;stroke-width:0.5" />
<path d="M32.629,491.03L40.629,491.03" style="fill:none;stroke:#000000;stroke-width:0.5" />
<path d="M36.629,90.445L40.629,90.445" style="fill:none;stroke:#000000;stroke-width:0.5" />
<path d="M36.629,140.52L40.629,140.52" style="fill:none;stroke:#000000;stroke-width:0.5" />
<path d="M36.629,240.67L40.629,240.67" style="fill:none;stroke:#000000;stroke-width:0.5" />
<path d="M36.629,290.74L40.629,290.74" style="fill:none;stroke:#000000;stroke-width:0.5" />
<path d="M36.629,390.89L40.629,390.89" style="fill:none;stroke:#000000;stroke-width:0.5" />
<path d="M36.629,440.96L40.629,440.96" style="fill:none;stroke:#000000;stroke-width:0.5" />
<path d="M40.629,40.371L40.629,531.09" style="fill:none;stroke:#000000;stroke-width:0.5" />
<path d="M46.435,180.58L55.589,270.71L64.743,360.84L73.898,300.75L83.052,320.78L92.207,330.8L101.36,260.7L110.52,310.77L119.67,350.83L128.82,330.8L137.98,320.78L147.13,350.83L156.29,270.71L165.44,300.75L174.6,340.81L183.75,340.81L192.9,340.81L202.06,320.78L211.21,290.74L220.37,300.75L229.52,320.78L238.68,290.74L247.83,350.83L256.99,410.92L266.14,380.87L275.29,360.84L284.45,320.78L293.6,300.75L302.76,300.75L311.91,300.75L321.07,300.75L330.22,240.67L339.38,260.7L348.53,290.74L357.68,320.78L366.84,390.89L375.99,300.75L385.15,310.77L394.3,300.75L403.46,300.75L412.61,360.84L421.76,290.74L430.92,270.71L440.07,330.8L449.23,280.73L458.38,250.68L467.54,260.7L476.69,220.64L485.85,300.75L495,290.74" style="fill:none;stroke:#FFA500" />
<path d="M46.435,270.71L55.589,330.8L64.743,340.81L73.898,280.73L83.052,280.73L92.207,340.81L101.36,250.68L110.52,340.81L119.67,340.81L128.82,320.78L137.98,310.77L147.13,340.81L156.29,250.68L165.44,270.71L174.6,310.77L183.75,330.8L192.9,320.78L202.06,270.71L211.21,290.74L220.37,290.74L229.52,330.8L238.68,270.71L247.83,350.83L256.99,350.83L266.14,320.78L275.29,320.78L284.45,280.73L293.6,280.73L302.76,330.8L311.91,310.77L321.07,300.75L330.22,230.65L339.38,290.74L348.53,290.74L357.68,340.81L366.84,350.83L375.99,250.68L385.15,280.73L394.3,310.77L403.46,300.75L412.61,340.81L421.76,280.73L430.92,260.7L440.07,330.8L449.23,290.74L458.38,280.73L467.54,260.7L476.69,240.67L485.85,290.74L495,320.78" style="fill:none;stroke:#A52A2A" />
<path d="M46.435,370.86L55.589,460.99L64.743,460.99L73.898,481.02L83.052,481.02L92.207,511.06L101.36,471.01L110.52,511.06L119.67,450.98L128.82,491.03L137.98,491.03L147.13,511.06L156.29,481.02L165.44,491.03L174.6,471.01L183.75,511.06L192.9,501.05L202.06,491.03L211.21,521.08L220.37,471.01L229.52,511.06L238.68,521.08L247.83,481.02L256.99,440.96L266.14,440.96L275.29,501.05L284.45,481.02L293.6,501.05L302.76,511.06L311.91,491.03L321.07,521.08L330.22,491.03L339.38,511.06L348.53,460.99L357.68,501.05L366.84,481.02L375.99,491.03L385.15,511.06L394.3,511.06L403.46,521.08L412.61,501.05L421.76,471.01L430.92,531.09L440.07,481.02L449.23,491.03L458.38,491.03L467.54,481.02L476.69,481.02L485.85,491.03L495,471.01" style="fill:none;stroke:#7FFF00" />
<path d="M46.435,144.82L55.589,185.53L64.743,246.02L73.898,199.2L83.052,222.04L92.207,221.44L101.36,182.43L110.52,196.1L119.67,218.58L128.82,206.42L137.98,204.16L147.13,211.22L156.29,169.16L165.44,182.88L174.6,206.72L183.75,197.8L192.9,197.95L202.06,190.54L211.21,173.77L220.37,178.02L229.52,185.69L238.68,170.46L247.83,203.06L256.99,237.01L266.14,220.04L275.29,208.82L284.45,177.57L293.6,165.81L302.76,164.45L311.91,168.31L321.07,164.8L330.22,141.77L339.38,142.97L348.53,161.3L357.68,177.72L366.84,208.77L375.99,164.15L385.15,167.56L394.3,157.39L403.46,160.35L412.61,191.19L421.76,157.04L430.92,145.93L440.07,169.06L449.23,154.54L458.38,135.81L467.54,144.98L476.69,123.84L485.85,164.2L495,149.18" style="fill:none;stroke:#FF00FF" />
<path d="M46.435,156.11L55.589,174.17L64.743,178.17L73.898,176.51L83.052,164.82L92.207,181.46L101.36,160.23L110.52,167.81L119.67,177.76L128.82,176.69L137.98,175.09L147.13,180.45L156.29,161.35L165.44,171.64L174.6,171.89L183.75,185.22L192.9,186.94L202.06,170.81L211.21,168.84L220.37,169.32L229.52,182.64L238.68,179.54L247.83,186.36L256.99,193.81L266.14,173.99L275.29,190.84L284.45,175.45L293.6,189.93L302.76,187.28L311.91,177.63L321.07,185.58L330.22,162.24L339.38,189.77L348.53,175.89L357.68,199.61L366.84,211.46L375.99,195.09L385.15,189.43L394.3,197.05L403.46,202.83L412.61,222.18L421.76,179.19L430.92,190.75L440.07,205.36L449.23,195.98L458.38,181.72L467.54,188.33L476.69,177.5L485.85,182.28L495,193.79" style="fill:none;stroke:#D2B48C" />
<path d="M46.435,80.79L55.589,94.21L64.743,102.88L73.898,102.46L83.052,99.946L92.207,108.69L101.36,94.578L110.52,102.51L119.67,108.38L128.82,107.41L137.98,104.91L147.13,108.79L156.29,97.463L165.44,105.07L174.6,106.01L183.75,111.55L192.9,111.9L202.06,103.99L211.21,104.03L220.37,102.21L229.52,112.96L238.68,108.93L247.83,111.83L256.99,118.72L266.14,110.31L275.29,117.42L284.45,109.32L293.6,112.04L302.76,113.2L311.91,108.16L321.07,112.87L330.22,96.676L339.38,108.12L348.53,104.25L357.68,113.62L366.84,120.35L375.99,107.34L385.15,107.6L394.3,108.55L403.46,113.84L412.61,122.71L421.76,101.65L430.92,105.82L440.07,113.79L449.23,105.19L458.38,99.84L467.54,100.72L476.69,91.07L485.85,97.914L495,103.81" style="fill:none;stroke:#DAA520" />
<path d="M475,523.32L495,523.32" style="fill:none;stroke:#FFA500" />
<text x="438.98" y="-520.49" transform="scale(1, -1)"
	style="font-family:Liberation Sans;font-variant:normal;font-weight:normal;font-style:normal;font-size:12px">Gated</text>
<path d="M475,512.84L495,512.84" style="fill:none;stroke:#A52A2A" />
<text x="434.3" y="-510.02" transform="scale(1, -1)"
	style="font-family:Liberation Sans;font-variant:normal;font-weight:normal;font-style:normal;font-size:12px">Should</text>
<path d="M475,502.37L495,502.37" style="fill:none;stroke:#7FFF00" />
<text x="438.99" y="-499.55" transform="scale(1, -1)"
	style="font-family:Liberation Sans;font-variant:normal;font-weight:normal;font-style:normal;font-size:12px">Match</text>
<path d="M475,491.9L495,491.9" style="fill:none;stroke:#FF00FF" />
<text x="407.21" y="-489.08" transform="scale(1, -1)"
	style="font-family:Liberation Sans;font-variant:normal;font-weight:normal;font-style:normal;font-size:12px">PFCVM_RT</text>
<path d="M475,481.43L495,481.43" style="fill:none;stroke:#D2B48C" />
<text x="391.86" y="-478.61" transform="scale(1, -1)"
	style="font-family:Liberation Sans;font-variant:normal;font-weight:normal;font-style:normal;font-size:12px">MtxGo_ActAvg</text>
<path d="M475,470.96L495,470.96" style="fill:none;stroke:#DAA520" />
<text x="385.19" y="-468.13" transform="scale(1, -1)"
	style="font-family:Liberation Sans;font-variant:normal;font-weight:normal;font-style:normal;font-size:12px">PFCVM_ActAvg</text>
</g>
</svg>
