<?xml version="1.0"?>
<!-- Generated by SVGo and Plotinum VG -->
<svg width="520.12pt" height="442.88pt" viewBox="0 0 520.12 442.88"
	xmlns="http://www.w3.org/2000/svg"
	xmlns:xlink="http://www.w3.org/1999/xlink">
<g transform="scale(1, -1) translate(0, -442.88)">
<text x="199.81" y="-433.15" transform="scale(1, -1)"
	style="font-family:Liberation Sans;font-variant:normal;font-weight:normal;font-style:normal;font-size:12px">PCore Test Epoch Plot</text>
<text x="266.27" y="-3.6797" transform="scale(1, -1)"
	style="font-family:Liberation Sans;font-variant:normal;font-weight:normal;font-style:normal;font-size:12px">Epoch</text>
<text x="36.703" y="-16.473" transform="scale(1, -1)"
	style="font-family:Liberation Sans;font-variant:normal;font-weight:normal;font-style:normal;font-size:10px">0.00</text>
<text x="442.28" y="-16.473" transform="scale(1, -1)"
	style="font-family:Liberation Sans;font-variant:normal;font-weight:normal;font-style:normal;font-size:10px">25.00</text>
<path d="M46.435,24.578L46.435,32.578" style="fill:none;stroke:#000000;stroke-width:0.5" />
<path d="M454.79,24.578L454.79,32.578" style="fill:none;stroke:#000000;stroke-width:0.5" />
<path d="M128.11,28.578L128.11,32.578" style="fill:none;stroke:#000000;stroke-width:0.5" />
<path d="M209.78,28.578L209.78,32.578" style="fill:none;stroke:#000000;stroke-width:0.5" />
<path d="M291.45,28.578L291.45,32.578" style="fill:none;stroke:#000000;stroke-width:0.5" />
<path d="M373.12,28.578L373.12,32.578" style="fill:none;stroke:#000000;stroke-width:0.5" />
<path d="M46.435,32.578L520.12,32.578" style="fill:none;stroke:#000000;stroke-width:0.5" />
<g transform="rotate(90)">
<text x="218.58" y="9.7266" transform="scale(1, -1)"
	style="font-family:Liberation Sans;font-variant:normal;font-weight:normal;font-style:normal;font-size:12px">Gated</text>
</g>
<text x="15.949" y="-37.852" transform="scale(1, -1)"
	style="font-family:Liberation Sans;font-variant:normal;font-weight:normal;font-style:normal;font-size:10px">0.0</text>
<text x="15.949" y="-202.49" transform="scale(1, -1)"
	style="font-family:Liberation Sans;font-variant:normal;font-weight:normal;font-style:normal;font-size:10px">0.4</text>
<text x="15.949" y="-367.14" transform="scale(1, -1)"
	style="font-family:Liberation Sans;font-variant:normal;font-weight:normal;font-style:normal;font-size:10px">0.8</text>
<path d="M32.629,40.371L40.629,40.371" style="fill:none;stroke:#000000;stroke-width:0.5" />
<path d="M32.629,205.01L40.629,205.01" style="fill:none;stroke:#000000;stroke-width:0.5" />
<path d="M32.629,369.66L40.629,369.66" style="fill:none;stroke:#000000;stroke-width:0.5" />
<path d="M36.629,81.532L40.629,81.532" style="fill:none;stroke:#000000;stroke-width:0.5" />
<path d="M36.629,122.69L40.629,122.69" style="fill:none;stroke:#000000;stroke-width:0.5" />
<path d="M36.629,163.85L40.629,163.85" style="fill:none;stroke:#000000;stroke-width:0.5" />
<path d="M36.629,246.17L40.629,246.17" style="fill:none;stroke:#000000;stroke-width:0.5" />
<path d="M36.629,287.34L40.629,287.34" style="fill:none;stroke:#000000;stroke-width:0.5" />
<path d="M36.629,328.5L40.629,328.5" style="fill:none;stroke:#000000;stroke-width:0.5" />
<path d="M36.629,410.82L40.629,410.82" style="fill:none;stroke:#000000;stroke-width:0.5" />
<path d="M40.629,40.371L40.629,429.47" style="fill:none;stroke:#000000;stroke-width:0.5" />
<path d="M46.435,265.47L62.769,271.9L79.103,233.31L95.437,268.68L111.77,304.06L128.11,275.12L144.44,291.19L160.77,300.84L177.11,297.63L193.44,294.41L209.78,304.06L226.11,281.55L242.44,281.55L258.78,310.49L275.11,284.76L291.45,320.14L307.78,291.19L324.12,284.76L340.45,275.12L356.78,262.25L373.12,275.12L389.45,329.78L405.79,294.41L422.12,287.98L438.45,278.33L454.79,252.61L471.12,294.41L487.46,316.92L503.79,307.27L520.12,271.9" style="fill:none;stroke:#FFA500" />
<path d="M46.435,210.8L62.769,252.61L79.103,236.53L95.437,249.39L111.77,271.9L128.11,236.53L144.44,252.61L160.77,255.82L177.11,268.68L193.44,259.04L209.78,239.74L226.11,242.96L242.44,249.39L258.78,262.25L275.11,223.67L291.45,265.47L307.78,226.88L324.12,233.31L340.45,239.74L356.78,233.31L373.12,259.04L389.45,284.76L405.79,239.74L422.12,242.96L438.45,233.31L454.79,201.16L471.12,239.74L487.46,265.47L503.79,236.53L520.12,223.67" style="fill:none;stroke:#A52A2A" />
<path d="M46.435,365.16L62.769,413.39L79.103,429.47L95.437,419.82L111.77,413.39L128.11,400.53L144.44,400.53L160.77,400.53L177.11,423.04L193.44,410.17L209.78,381.23L226.11,387.66L242.44,406.96L258.78,390.88L275.11,390.88L291.45,384.45L307.78,368.37L324.12,387.66L340.45,410.17L356.78,410.17L373.12,423.04L389.45,394.1L405.79,384.45L422.12,406.96L438.45,400.53L454.79,400.53L471.12,397.31L487.46,387.66L503.79,374.8L520.12,390.88" style="fill:none;stroke:#7FFF00" />
<path d="M46.435,224.41L62.769,226.01L79.103,232.45L95.437,224.41L111.77,232.75L128.11,234.56L144.44,232.5L160.77,224.74L177.11,219.39L193.44,226.13L209.78,219.16L226.11,215.65L242.44,211.19L258.78,225.59L275.11,220.39L291.45,221L307.78,233.41L324.12,217.12L340.45,215.55L356.78,221.59L373.12,222.77L389.45,214.37L405.79,213.25L422.12,225.49L438.45,221.44L454.79,248.59L471.12,212.31L487.46,221.54L503.79,223.38L520.12,223.54" style="fill:none;stroke:#000080" />
<path d="M46.435,73.671L62.769,86.351L79.103,83.417L95.437,90.546L111.77,98.416L128.11,87.056L144.44,92.038L160.77,95.149L177.11,100.53L193.44,97.876L209.78,96.207L226.11,94.138L242.44,92.711L258.78,96.217L275.11,88.473L291.45,100.62L307.78,90.956L324.12,96.805L340.45,92.315L356.78,86.391L373.12,87.924L389.45,99.994L405.79,93.002L422.12,85.136L438.45,86.879L454.79,76.783L471.12,92.316L487.46,93.241L503.79,93.291L520.12,82.671" style="fill:none;stroke:#00FFFF" />
<path d="M46.435,143.52L62.769,146.27L79.103,141.49L95.437,155.12L111.77,169.64L128.11,159.59L144.44,167.64L160.77,174.96L177.11,185.93L193.44,181.91L209.78,182.43L226.11,185.27L242.44,180.23L258.78,188.8L275.11,180.01L291.45,202.74L307.78,194.03L324.12,201.44L340.45,199.12L356.78,194.24L373.12,189.3L389.45,218.04L405.79,208.22L422.12,193.65L438.45,193.3L454.79,171.48L471.12,202.61L487.46,210.2L503.79,209.36L520.12,200.72" style="fill:none;stroke:#FF00FF" />
<path d="M46.435,278.33L62.769,374.8L79.103,406.96L95.437,387.66L111.77,374.8L128.11,349.08L144.44,349.08L160.77,349.08L177.11,394.1L193.44,368.37L209.78,310.49L226.11,323.35L242.44,361.94L258.78,329.78L275.11,329.78L291.45,316.92L307.78,284.76L324.12,323.35L340.45,368.37L356.78,368.37L373.12,394.1L389.45,336.21L405.79,316.92L422.12,361.94L438.45,349.08L454.79,349.08L471.12,342.65L487.46,323.35L503.79,297.63L520.12,329.78" style="fill:none;stroke:#D2B48C" />
<path d="M500.12,421.69L520.12,421.69" style="fill:none;stroke:#FFA500" />
<text x="464.1" y="-418.86" transform="scale(1, -1)"
	style="font-family:Liberation Sans;font-variant:normal;font-weight:normal;font-style:normal;font-size:12px">Gated</text>
<path d="M500.12,411.22L520.12,411.22" style="fill:none;stroke:#A52A2A" />
<text x="459.43" y="-408.39" transform="scale(1, -1)"
	style="font-family:Liberation Sans;font-variant:normal;font-weight:normal;font-style:normal;font-size:12px">Should</text>
<path d="M500.12,400.75L520.12,400.75" style="fill:none;stroke:#7FFF00" />
<text x="464.11" y="-397.92" transform="scale(1, -1)"
	style="font-family:Liberation Sans;font-variant:normal;font-weight:normal;font-style:normal;font-size:12px">Match</text>
<path d="M500.12,390.28L520.12,390.28" style="fill:none;stroke:#000080" />
<text x="432.34" y="-387.45" transform="scale(1, -1)"
	style="font-family:Liberation Sans;font-variant:normal;font-weight:normal;font-style:normal;font-size:12px">PFCVM_RT</text>
<path d="M500.12,379.81L520.12,379.81" style="fill:none;stroke:#00FFFF" />
<text x="410.32" y="-376.98" transform="scale(1, -1)"
	style="font-family:Liberation Sans;font-variant:normal;font-weight:normal;font-style:normal;font-size:12px">PFCVM_ActAvg</text>
<path d="M500.12,369.34L520.12,369.34" style="fill:none;stroke:#FF00FF" />
<text x="416.98" y="-366.51" transform="scale(1, -1)"
	style="font-family:Liberation Sans;font-variant:normal;font-weight:normal;font-style:normal;font-size:12px">MtxGo_ActAvg</text>
<path d="M500.12,358.87L520.12,358.87" style="fill:none;stroke:#D2B48C" />
<text x="472.79" y="-356.04" transform="scale(1, -1)"
	style="font-family:Liberation Sans;font-variant:normal;font-weight:normal;font-style:normal;font-size:12px">Rew</text>
</g>
</svg>
