<?xml version="1.0"?>
<!-- Generated by SVGo and Plotinum VG -->
<svg width="453.75pt" height="406.12pt" viewBox="0 0 453.75 406.12"
	xmlns="http://www.w3.org/2000/svg"
	xmlns:xlink="http://www.w3.org/1999/xlink">
<g transform="scale(1, -1) translate(0, -406.12)">
<text x="177.08" y="-396.4" transform="scale(1, -1)"
	style="font-family:Liberation Sans;font-variant:normal;font-weight:normal;font-style:normal;font-size:12px">Time Function Plot</text>
<text x="242.54" y="-3.6797" transform="scale(1, -1)"
	style="font-family:Liberation Sans;font-variant:normal;font-weight:normal;font-style:normal;font-size:12px">Time</text>
<text x="47.826" y="-16.473" transform="scale(1, -1)"
	style="font-family:Liberation Sans;font-variant:normal;font-weight:normal;font-style:normal;font-size:10px">0.00</text>
<text x="379.09" y="-16.473" transform="scale(1, -1)"
	style="font-family:Liberation Sans;font-variant:normal;font-weight:normal;font-style:normal;font-size:10px">0.25</text>
<path d="M57.558,24.578L57.558,32.578" style="fill:none;stroke:#000000;stroke-width:0.5" />
<path d="M388.82,24.578L388.82,32.578" style="fill:none;stroke:#000000;stroke-width:0.5" />
<path d="M123.81,28.578L123.81,32.578" style="fill:none;stroke:#000000;stroke-width:0.5" />
<path d="M190.06,28.578L190.06,32.578" style="fill:none;stroke:#000000;stroke-width:0.5" />
<path d="M256.32,28.578L256.32,32.578" style="fill:none;stroke:#000000;stroke-width:0.5" />
<path d="M322.57,28.578L322.57,32.578" style="fill:none;stroke:#000000;stroke-width:0.5" />
<path d="M57.558,32.578L453.75,32.578" style="fill:none;stroke:#000000;stroke-width:0.5" />
<g transform="rotate(90)">
<text x="194.54" y="9.7266" transform="scale(1, -1)"
	style="font-family:Liberation Sans;font-variant:normal;font-weight:normal;font-style:normal;font-size:12px">GmAHP</text>
</g>
<text x="35.412" y="-37.852" transform="scale(1, -1)"
	style="font-family:Liberation Sans;font-variant:normal;font-weight:normal;font-style:normal;font-size:10px">0</text>
<text x="15.949" y="-152.05" transform="scale(1, -1)"
	style="font-family:Liberation Sans;font-variant:normal;font-weight:normal;font-style:normal;font-size:10px">0.025</text>
<text x="21.511" y="-266.24" transform="scale(1, -1)"
	style="font-family:Liberation Sans;font-variant:normal;font-weight:normal;font-style:normal;font-size:10px">0.05</text>
<text x="15.949" y="-380.43" transform="scale(1, -1)"
	style="font-family:Liberation Sans;font-variant:normal;font-weight:normal;font-style:normal;font-size:10px">0.075</text>
<path d="M43.752,40.371L51.752,40.371" style="fill:none;stroke:#000000;stroke-width:0.5" />
<path d="M43.752,154.57L51.752,154.57" style="fill:none;stroke:#000000;stroke-width:0.5" />
<path d="M43.752,268.76L51.752,268.76" style="fill:none;stroke:#000000;stroke-width:0.5" />
<path d="M43.752,382.95L51.752,382.95" style="fill:none;stroke:#000000;stroke-width:0.5" />
<path d="M47.752,63.21L51.752,63.21" style="fill:none;stroke:#000000;stroke-width:0.5" />
<path d="M47.752,86.049L51.752,86.049" style="fill:none;stroke:#000000;stroke-width:0.5" />
<path d="M47.752,108.89L51.752,108.89" style="fill:none;stroke:#000000;stroke-width:0.5" />
<path d="M47.752,131.73L51.752,131.73" style="fill:none;stroke:#000000;stroke-width:0.5" />
<path d="M47.752,177.4L51.752,177.4" style="fill:none;stroke:#000000;stroke-width:0.5" />
<path d="M47.752,200.24L51.752,200.24" style="fill:none;stroke:#000000;stroke-width:0.5" />
<path d="M47.752,223.08L51.752,223.08" style="fill:none;stroke:#000000;stroke-width:0.5" />
<path d="M47.752,245.92L51.752,245.92" style="fill:none;stroke:#000000;stroke-width:0.5" />
<path d="M47.752,291.6L51.752,291.6" style="fill:none;stroke:#000000;stroke-width:0.5" />
<path d="M47.752,314.44L51.752,314.44" style="fill:none;stroke:#000000;stroke-width:0.5" />
<path d="M47.752,337.28L51.752,337.28" style="fill:none;stroke:#000000;stroke-width:0.5" />
<path d="M47.752,360.11L51.752,360.11" style="fill:none;stroke:#000000;stroke-width:0.5" />
<path d="M51.752,40.371L51.752,392.72" style="fill:none;stroke:#000000;stroke-width:0.5" />
<path d="M57.558,40.371L58.883,99.927L60.208,99.927L61.533,100.27L62.858,100.94L64.183,101.88L65.508,103.08L66.833,104.52L68.158,106.18L69.483,108.04L70.808,110.11L72.133,112.36L73.458,114.79L74.783,117.4L76.108,120.18L77.433,123.14L78.759,126.26L80.084,129.56L81.409,133.02L82.734,136.66L84.059,140.48L85.384,144.47L86.709,148.65L88.034,153.01L89.359,157.56L90.684,162.31L92.009,167.25L93.334,172.41L94.659,177.78L95.984,183.36L97.309,189.18L98.634,195.22L99.959,201.51L101.28,208.04L102.61,214.83L103.93,221.89L105.26,229.22L106.58,236.83L107.91,244.73L109.23,252.93L110.56,261.44L111.88,270.26L113.21,279.42L114.54,288.92L115.86,298.77L117.19,308.98L118.51,319.56L119.84,330.53L121.16,341.88L122.49,353.65L123.81,365.83L125.14,378.44L126.46,391.49L127.79,353.87L129.11,321.79L130.44,294.49L131.76,271.27L133.09,251.59L134.41,234.95L135.74,220.94L137.06,209.22L138.39,199.48L139.71,191.47L141.04,184.97L142.36,179.81L143.69,175.82L145.01,172.87L146.34,170.84L147.66,169.64L148.99,169.17L150.31,169.38L151.64,170.2L152.96,171.58L154.29,173.47L155.61,175.84L156.94,178.66L158.26,181.9L159.59,185.54L160.91,189.56L162.24,193.96L163.56,198.71L164.89,203.81L166.21,209.25L167.54,215.03L168.86,221.15L170.19,227.6L171.51,234.39L172.84,241.52L174.16,248.99L175.49,256.8L176.81,264.96L178.14,273.47L179.46,282.35L180.79,291.59L182.11,301.21L183.44,311.21L184.76,321.6L186.09,332.39L187.41,343.59L188.74,355.22L190.06,367.27L191.39,379.77L192.71,392.71L194.04,354.93L195.36,322.72L196.69,295.29L198.01,271.98L199.34,252.21L200.66,235.49L201.99,221.41L203.31,209.63L204.64,199.84L205.96,191.79L207.29,185.26L208.61,180.06L209.94,176.04L211.26,173.06L212.59,171.01L213.91,169.79L215.24,169.31L216.56,169.5L217.89,170.31L219.21,171.68L220.54,173.56L221.86,175.92L223.19,178.73L224.51,181.96L225.84,185.6L227.17,189.61L228.49,194L229.82,198.75L231.14,203.84L232.47,209.28L233.79,215.06L235.12,221.18L236.44,227.63L237.77,234.41L239.09,241.54L240.42,249L241.74,256.81L243.07,264.97L244.39,273.48L245.72,282.36L247.04,291.6L248.37,301.22L249.69,311.22L251.02,321.61L252.34,332.4L253.67,343.6L254.99,355.22L256.32,367.28L257.64,379.77L258.97,392.72L260.29,354.93L261.62,322.72L262.94,295.3L264.27,271.98L265.59,252.21L266.92,235.49L268.24,221.42L269.57,209.63L270.89,199.84L272.22,191.79L273.54,185.26L274.87,180.06L276.19,176.04L277.52,173.07L278.84,171.01L280.17,169.79L281.49,169.31L282.82,169.5L284.14,170.31L285.47,171.68L286.79,173.56L288.12,175.92L289.44,178.73L290.77,181.96L292.09,185.6L293.42,189.61L294.74,194L296.07,198.75L297.39,203.84L298.72,209.28L300.04,215.06L301.37,221.18L302.69,227.63L304.02,234.41L305.34,241.54L306.67,249L307.99,256.81L309.32,264.97L310.64,273.48L311.97,282.36L313.29,291.6L314.62,301.22L315.94,311.22L317.27,321.61L318.59,332.4L319.92,343.6L321.24,355.22L322.57,367.28L323.89,379.77L325.22,392.72L326.54,354.93L327.87,322.72L329.19,295.3L330.52,271.98L331.84,252.21L333.17,235.49L334.49,221.42L335.82,209.63L337.14,199.84L338.47,191.79L339.79,185.26L341.12,180.06L342.45,176.04L343.77,173.07L345.1,171.01L346.42,169.79L347.75,169.31L349.07,169.5L350.4,170.31L351.72,171.68L353.05,173.56L354.37,175.92L355.7,178.73L357.02,181.96L358.35,185.6L359.67,189.61L361,194L362.32,198.75L363.65,203.84L364.97,209.28L366.3,215.06L367.62,221.18L368.95,227.63L370.27,234.41L371.6,241.54L372.92,249L374.25,256.81L375.57,264.97L376.9,273.48L378.22,282.36L379.55,291.6L380.87,301.22L382.2,311.22L383.52,321.61L384.85,332.4L386.17,343.6L387.5,355.22L388.82,367.28L390.15,379.77L391.47,392.72L392.8,354.93L394.12,322.72L395.45,295.3L396.77,271.98L398.1,252.21L399.42,235.49L400.75,221.42L402.07,209.63L403.4,199.84L404.72,191.79L406.05,185.26L407.37,180.06L408.7,176.04L410.02,173.07L411.35,171.01L412.67,169.79L414,169.31L415.32,169.5L416.65,170.31L417.97,171.68L419.3,173.56L420.62,175.92L421.95,178.73L423.27,181.96L424.6,185.6L425.92,189.61L427.25,194L428.57,198.75L429.9,203.84L431.22,209.28L432.55,215.06L433.87,221.18L435.2,227.63L436.52,234.41L437.85,241.54L439.17,249L440.5,256.81L441.82,264.97L443.15,273.48L444.47,282.36L445.8,291.6L447.12,301.22L448.45,311.22L449.77,321.61L451.1,332.4L452.42,343.6L453.75,355.22" style="fill:none;stroke:#FF0000" />
<path d="M57.558,40.371L58.883,40.371L60.208,40.371L61.533,40.371L62.858,40.371L64.183,40.371L65.508,40.371L66.833,40.371L68.158,40.371L69.483,40.371L70.808,40.371L72.133,40.371L73.458,40.371L74.783,40.371L76.108,40.371L77.433,40.371L78.759,40.371L80.084,40.371L81.409,40.371L82.734,40.371L84.059,40.371L85.384,40.371L86.709,40.371L88.034,40.371L89.359,40.371L90.684,40.371L92.009,40.371L93.334,40.371L94.659,40.371L95.984,40.371L97.309,40.371L98.634,40.371L99.959,40.371L101.28,40.371L102.61,40.371L103.93,40.371L105.26,40.371L106.58,40.371L107.91,40.371L109.23,40.371L110.56,40.371L111.88,40.371L113.21,40.371L114.54,40.371L115.86,40.371L117.19,40.371L118.51,40.371L119.84,40.371L121.16,40.371L122.49,40.371L123.81,40.371L125.14,268.76L126.46,264.19L127.79,259.72L129.11,255.33L130.44,251.03L131.76,246.82L133.09,242.69L134.41,238.64L135.74,234.68L137.06,230.79L138.39,226.98L139.71,223.25L141.04,219.59L142.36,216.01L143.69,212.49L145.01,209.05L146.34,205.68L147.66,202.37L148.99,199.13L150.31,195.96L151.64,192.85L152.96,189.8L154.29,186.81L155.61,183.88L156.94,181.01L158.26,178.2L159.59,175.44L160.91,172.74L162.24,170.09L163.56,167.5L164.89,164.95L166.21,162.46L167.54,160.02L168.86,157.63L170.19,155.28L171.51,152.98L172.84,150.73L174.16,148.52L175.49,146.36L176.81,144.24L178.14,142.16L179.46,140.13L180.79,138.13L182.11,136.18L183.44,134.26L184.76,132.38L186.09,130.54L187.41,128.74L188.74,126.97L190.06,125.24L191.39,349.39L192.71,343.21L194.04,337.15L195.36,331.21L196.69,325.4L198.01,319.7L199.34,314.11L200.66,308.63L201.99,303.27L203.31,298.01L204.64,292.86L205.96,287.81L207.29,282.86L208.61,278.01L209.94,273.26L211.26,268.6L212.59,264.04L213.91,259.56L215.24,255.18L216.56,250.88L217.89,246.67L219.21,242.55L220.54,238.5L221.86,234.54L223.19,230.66L224.51,226.85L225.84,223.12L227.17,219.47L228.49,215.88L229.82,212.37L231.14,208.93L232.47,205.56L233.79,202.26L235.12,199.02L236.44,195.85L237.77,192.74L239.09,189.69L240.42,186.7L241.74,183.78L243.07,180.91L244.39,178.1L245.72,175.34L247.04,172.64L248.37,170L249.69,167.41L251.02,164.87L252.34,162.38L253.67,159.94L254.99,157.54L256.32,155.2L257.64,377.85L258.97,371.1L260.29,364.48L261.62,358L262.94,351.65L264.27,345.42L265.59,339.32L266.92,333.34L268.24,327.48L269.57,321.74L270.89,316.11L272.22,310.6L273.54,305.2L274.87,299.9L276.19,294.71L277.52,289.62L278.84,284.64L280.17,279.75L281.49,274.96L282.82,270.27L284.14,265.67L285.47,261.17L286.79,256.75L288.12,252.42L289.44,248.18L290.77,244.03L292.09,239.95L293.42,235.96L294.74,232.05L296.07,228.22L297.39,224.46L298.72,220.78L300.04,217.17L301.37,213.63L302.69,210.17L304.02,206.77L305.34,203.44L306.67,200.18L307.99,196.99L309.32,193.85L310.64,190.78L311.97,187.78L313.29,184.83L314.62,181.94L315.94,179.11L317.27,176.33L318.59,173.61L319.92,170.95L321.24,168.34L322.57,165.78L323.89,387.9L325.22,380.95L326.54,374.13L327.87,367.46L329.19,360.92L330.52,354.51L331.84,348.22L333.17,342.07L334.49,336.03L335.82,330.12L337.14,324.32L338.47,318.65L339.79,313.08L341.12,307.63L342.45,302.28L343.77,297.04L345.1,291.91L346.42,286.88L347.75,281.95L349.07,277.12L350.4,272.38L351.72,267.74L353.05,263.19L354.37,258.74L355.7,254.37L357.02,250.09L358.35,245.9L359.67,241.79L361,237.76L362.32,233.81L363.65,229.94L364.97,226.15L366.3,222.43L367.62,218.79L368.95,215.22L370.27,211.73L371.6,208.3L372.92,204.94L374.25,201.65L375.57,198.42L376.9,195.26L378.22,192.17L379.55,189.13L380.87,186.15L382.2,183.24L383.52,180.38L384.85,177.58L386.17,174.84L387.5,172.15L388.82,169.51L390.15,391.44L391.47,384.42L392.8,377.54L394.12,370.8L395.45,364.19L396.77,357.71L398.1,351.37L399.42,345.15L400.75,339.05L402.07,333.08L403.4,327.22L404.72,321.49L406.05,315.86L407.37,310.35L408.7,304.95L410.02,299.66L411.35,294.48L412.67,289.39L414,284.41L415.32,279.53L416.65,274.75L417.97,270.06L419.3,265.47L420.62,260.97L421.95,256.55L423.27,252.23L424.6,247.99L425.92,243.84L427.25,239.77L428.57,235.78L429.9,231.88L431.22,228.05L432.55,224.29L433.87,220.61L435.2,217.01L436.52,213.48L437.85,210.01L439.17,206.62L440.5,203.3L441.82,200.04L443.15,196.84L444.47,193.71L445.8,190.65L447.12,187.64L448.45,184.7L449.77,181.81L451.1,178.98L452.42,176.21L453.75,173.49" style="fill:none;stroke:#A52A2A" />
<path d="M433.75,384.94L453.75,384.94" style="fill:none;stroke:#FF0000" />
<text x="386.41" y="-382.11" transform="scale(1, -1)"
	style="font-family:Liberation Sans;font-variant:normal;font-weight:normal;font-style:normal;font-size:12px">GmAHP</text>
<path d="M433.75,374.47L453.75,374.47" style="fill:none;stroke:#A52A2A" />
<text x="409.06" y="-371.64" transform="scale(1, -1)"
	style="font-family:Liberation Sans;font-variant:normal;font-weight:normal;font-style:normal;font-size:12px">Kna</text>
</g>
</svg>
