<?xml version="1.0"?>
<!-- Generated by SVGo and Plotinum VG -->
<svg width="417pt" height="397.12pt" viewBox="0 0 417 397.12"
	xmlns="http://www.w3.org/2000/svg"
	xmlns:xlink="http://www.w3.org/1999/xlink">
<g transform="scale(1, -1) translate(0, -397.12)">
<text x="181.49" y="-387.4" transform="scale(1, -1)"
	style="font-family:Liberation Sans;font-variant:normal;font-weight:normal;font-style:normal;font-size:12px">HiddenCT</text>
<text x="214.21" y="-3.6797" transform="scale(1, -1)"
	style="font-family:Liberation Sans;font-variant:normal;font-weight:normal;font-style:normal;font-size:12px">Prjn0</text>
<text x="83.915" y="-16.473" transform="scale(1, -1)"
	style="font-family:Liberation Sans;font-variant:normal;font-weight:normal;font-style:normal;font-size:10px">-1</text>
<text x="200.65" y="-16.473" transform="scale(1, -1)"
	style="font-family:Liberation Sans;font-variant:normal;font-weight:normal;font-style:normal;font-size:10px">0</text>
<text x="315.71" y="-16.473" transform="scale(1, -1)"
	style="font-family:Liberation Sans;font-variant:normal;font-weight:normal;font-style:normal;font-size:10px">1</text>
<path d="M88.361,24.578L88.361,32.578" style="fill:none;stroke:#000000;stroke-width:0.5" />
<path d="M203.43,24.578L203.43,32.578" style="fill:none;stroke:#000000;stroke-width:0.5" />
<path d="M318.49,24.578L318.49,32.578" style="fill:none;stroke:#000000;stroke-width:0.5" />
<path d="M65.347,28.578L65.347,32.578" style="fill:none;stroke:#000000;stroke-width:0.5" />
<path d="M111.37,28.578L111.37,32.578" style="fill:none;stroke:#000000;stroke-width:0.5" />
<path d="M134.39,28.578L134.39,32.578" style="fill:none;stroke:#000000;stroke-width:0.5" />
<path d="M157.4,28.578L157.4,32.578" style="fill:none;stroke:#000000;stroke-width:0.5" />
<path d="M180.41,28.578L180.41,32.578" style="fill:none;stroke:#000000;stroke-width:0.5" />
<path d="M226.44,28.578L226.44,32.578" style="fill:none;stroke:#000000;stroke-width:0.5" />
<path d="M249.45,28.578L249.45,32.578" style="fill:none;stroke:#000000;stroke-width:0.5" />
<path d="M272.47,28.578L272.47,32.578" style="fill:none;stroke:#000000;stroke-width:0.5" />
<path d="M295.48,28.578L295.48,32.578" style="fill:none;stroke:#000000;stroke-width:0.5" />
<path d="M341.51,28.578L341.51,32.578" style="fill:none;stroke:#000000;stroke-width:0.5" />
<path d="M364.52,28.578L364.52,32.578" style="fill:none;stroke:#000000;stroke-width:0.5" />
<path d="M387.53,28.578L387.53,32.578" style="fill:none;stroke:#000000;stroke-width:0.5" />
<path d="M410.55,28.578L410.55,32.578" style="fill:none;stroke:#000000;stroke-width:0.5" />
<path d="M44.425,32.578L412,32.578" style="fill:none;stroke:#000000;stroke-width:0.5" />
<g transform="rotate(90)">
<text x="196.19" y="9.7266" transform="scale(1, -1)"
	style="font-family:Liberation Sans;font-variant:normal;font-weight:normal;font-style:normal;font-size:12px">Time</text>
</g>
<text x="15.949" y="-88.365" transform="scale(1, -1)"
	style="font-family:Liberation Sans;font-variant:normal;font-weight:normal;font-style:normal;font-size:10px">-1</text>
<text x="19.279" y="-190.19" transform="scale(1, -1)"
	style="font-family:Liberation Sans;font-variant:normal;font-weight:normal;font-style:normal;font-size:10px">0</text>
<text x="19.279" y="-292.02" transform="scale(1, -1)"
	style="font-family:Liberation Sans;font-variant:normal;font-weight:normal;font-style:normal;font-size:10px">1</text>
<path d="M27.619,90.884L35.619,90.884" style="fill:none;stroke:#000000;stroke-width:0.5" />
<path d="M27.619,192.71L35.619,192.71" style="fill:none;stroke:#000000;stroke-width:0.5" />
<path d="M27.619,294.54L35.619,294.54" style="fill:none;stroke:#000000;stroke-width:0.5" />
<path d="M31.619,50.154L35.619,50.154" style="fill:none;stroke:#000000;stroke-width:0.5" />
<path d="M31.619,70.519L35.619,70.519" style="fill:none;stroke:#000000;stroke-width:0.5" />
<path d="M31.619,111.25L35.619,111.25" style="fill:none;stroke:#000000;stroke-width:0.5" />
<path d="M31.619,131.62L35.619,131.62" style="fill:none;stroke:#000000;stroke-width:0.5" />
<path d="M31.619,151.98L35.619,151.98" style="fill:none;stroke:#000000;stroke-width:0.5" />
<path d="M31.619,172.35L35.619,172.35" style="fill:none;stroke:#000000;stroke-width:0.5" />
<path d="M31.619,213.08L35.619,213.08" style="fill:none;stroke:#000000;stroke-width:0.5" />
<path d="M31.619,233.44L35.619,233.44" style="fill:none;stroke:#000000;stroke-width:0.5" />
<path d="M31.619,253.81L35.619,253.81" style="fill:none;stroke:#000000;stroke-width:0.5" />
<path d="M31.619,274.17L35.619,274.17" style="fill:none;stroke:#000000;stroke-width:0.5" />
<path d="M31.619,314.9L35.619,314.9" style="fill:none;stroke:#000000;stroke-width:0.5" />
<path d="M31.619,335.27L35.619,335.27" style="fill:none;stroke:#000000;stroke-width:0.5" />
<path d="M31.619,355.63L35.619,355.63" style="fill:none;stroke:#000000;stroke-width:0.5" />
<path d="M35.619,43.371L35.619,375.23" style="fill:none;stroke:#000000;stroke-width:0.5" />
<path d="M228.19,317.92L346.77,213.07L327.59,280.62L372.99,170.79L317.7,213.64L332.48,199.23L324.25,241.71L363.22,203.85L354.07,215.85L412,171.81L268.86,294.98L226.54,268.27L190.45,47.167L337.28,211.58L188.38,43.371L303.04,203.61L206.33,148.83L283.39,220.63L153.29,244.56L248.37,249.05L191.75,48.872L304.45,212.21L234.62,120.15L64.445,344.31L175.36,257.43L70.642,100.73L61.458,375.23L44.425,162.33L49.235,89.416L57.296,144.84L71.171,369.52" style="fill:none;stroke:#FF0000" />
<path d="M231.19,317.92A3,3 0 1 1 225.19,317.92A3,3 0 1 1 231.19,317.92Z" style="fill:none;stroke:#FF0000;stroke-width:0.5" />
<path d="M349.77,213.07A3,3 0 1 1 343.77,213.07A3,3 0 1 1 349.77,213.07Z" style="fill:none;stroke:#FF0000;stroke-width:0.5" />
<path d="M330.59,280.62A3,3 0 1 1 324.59,280.62A3,3 0 1 1 330.59,280.62Z" style="fill:none;stroke:#FF0000;stroke-width:0.5" />
<path d="M375.99,170.79A3,3 0 1 1 369.99,170.79A3,3 0 1 1 375.99,170.79Z" style="fill:none;stroke:#FF0000;stroke-width:0.5" />
<path d="M320.7,213.64A3,3 0 1 1 314.7,213.64A3,3 0 1 1 320.7,213.64Z" style="fill:none;stroke:#FF0000;stroke-width:0.5" />
<path d="M335.48,199.23A3,3 0 1 1 329.48,199.23A3,3 0 1 1 335.48,199.23Z" style="fill:none;stroke:#FF0000;stroke-width:0.5" />
<path d="M327.25,241.71A3,3 0 1 1 321.25,241.71A3,3 0 1 1 327.25,241.71Z" style="fill:none;stroke:#FF0000;stroke-width:0.5" />
<path d="M366.22,203.85A3,3 0 1 1 360.22,203.85A3,3 0 1 1 366.22,203.85Z" style="fill:none;stroke:#FF0000;stroke-width:0.5" />
<path d="M357.07,215.85A3,3 0 1 1 351.07,215.85A3,3 0 1 1 357.07,215.85Z" style="fill:none;stroke:#FF0000;stroke-width:0.5" />
<path d="M415,171.81A3,3 0 1 1 409,171.81A3,3 0 1 1 415,171.81Z" style="fill:none;stroke:#FF0000;stroke-width:0.5" />
<path d="M271.86,294.98A3,3 0 1 1 265.86,294.98A3,3 0 1 1 271.86,294.98Z" style="fill:none;stroke:#FF0000;stroke-width:0.5" />
<path d="M229.54,268.27A3,3 0 1 1 223.54,268.27A3,3 0 1 1 229.54,268.27Z" style="fill:none;stroke:#FF0000;stroke-width:0.5" />
<path d="M193.45,47.167A3,3 0 1 1 187.45,47.167A3,3 0 1 1 193.45,47.167Z" style="fill:none;stroke:#FF0000;stroke-width:0.5" />
<path d="M340.28,211.58A3,3 0 1 1 334.28,211.58A3,3 0 1 1 340.28,211.58Z" style="fill:none;stroke:#FF0000;stroke-width:0.5" />
<path d="M191.38,43.371A3,3 0 1 1 185.38,43.371A3,3 0 1 1 191.38,43.371Z" style="fill:none;stroke:#FF0000;stroke-width:0.5" />
<path d="M306.04,203.61A3,3 0 1 1 300.04,203.61A3,3 0 1 1 306.04,203.61Z" style="fill:none;stroke:#FF0000;stroke-width:0.5" />
<path d="M209.33,148.83A3,3 0 1 1 203.33,148.83A3,3 0 1 1 209.33,148.83Z" style="fill:none;stroke:#FF0000;stroke-width:0.5" />
<path d="M286.39,220.63A3,3 0 1 1 280.39,220.63A3,3 0 1 1 286.39,220.63Z" style="fill:none;stroke:#FF0000;stroke-width:0.5" />
<path d="M156.29,244.56A3,3 0 1 1 150.29,244.56A3,3 0 1 1 156.29,244.56Z" style="fill:none;stroke:#FF0000;stroke-width:0.5" />
<path d="M251.37,249.05A3,3 0 1 1 245.37,249.05A3,3 0 1 1 251.37,249.05Z" style="fill:none;stroke:#FF0000;stroke-width:0.5" />
<path d="M194.75,48.872A3,3 0 1 1 188.75,48.872A3,3 0 1 1 194.75,48.872Z" style="fill:none;stroke:#FF0000;stroke-width:0.5" />
<path d="M307.45,212.21A3,3 0 1 1 301.45,212.21A3,3 0 1 1 307.45,212.21Z" style="fill:none;stroke:#FF0000;stroke-width:0.5" />
<path d="M237.62,120.15A3,3 0 1 1 231.62,120.15A3,3 0 1 1 237.62,120.15Z" style="fill:none;stroke:#FF0000;stroke-width:0.5" />
<path d="M67.445,344.31A3,3 0 1 1 61.445,344.31A3,3 0 1 1 67.445,344.31Z" style="fill:none;stroke:#FF0000;stroke-width:0.5" />
<path d="M178.36,257.43A3,3 0 1 1 172.36,257.43A3,3 0 1 1 178.36,257.43Z" style="fill:none;stroke:#FF0000;stroke-width:0.5" />
<path d="M73.642,100.73A3,3 0 1 1 67.642,100.73A3,3 0 1 1 73.642,100.73Z" style="fill:none;stroke:#FF0000;stroke-width:0.5" />
<path d="M64.458,375.23A3,3 0 1 1 58.458,375.23A3,3 0 1 1 64.458,375.23Z" style="fill:none;stroke:#FF0000;stroke-width:0.5" />
<path d="M47.425,162.33A3,3 0 1 1 41.425,162.33A3,3 0 1 1 47.425,162.33Z" style="fill:none;stroke:#FF0000;stroke-width:0.5" />
<path d="M52.235,89.416A3,3 0 1 1 46.235,89.416A3,3 0 1 1 52.235,89.416Z" style="fill:none;stroke:#FF0000;stroke-width:0.5" />
<path d="M60.296,144.84A3,3 0 1 1 54.296,144.84A3,3 0 1 1 60.296,144.84Z" style="fill:none;stroke:#FF0000;stroke-width:0.5" />
<path d="M74.171,369.52A3,3 0 1 1 68.171,369.52A3,3 0 1 1 74.171,369.52Z" style="fill:none;stroke:#FF0000;stroke-width:0.5" />
<text x="228.19" y="-319" transform="scale(1, -1)"
	style="font-family:Liberation Serif;font-variant:normal;font-weight:normal;font-style:normal;font-size:10px">29</text>
<text x="346.77" y="-214.16" transform="scale(1, -1)"
	style="font-family:Liberation Serif;font-variant:normal;font-weight:normal;font-style:normal;font-size:10px">30</text>
<text x="327.59" y="-281.71" transform="scale(1, -1)"
	style="font-family:Liberation Serif;font-variant:normal;font-weight:normal;font-style:normal;font-size:10px">0</text>
<text x="372.99" y="-171.88" transform="scale(1, -1)"
	style="font-family:Liberation Serif;font-variant:normal;font-weight:normal;font-style:normal;font-size:10px">1</text>
<text x="317.7" y="-214.73" transform="scale(1, -1)"
	style="font-family:Liberation Serif;font-variant:normal;font-weight:normal;font-style:normal;font-size:10px">2</text>
<text x="332.48" y="-200.32" transform="scale(1, -1)"
	style="font-family:Liberation Serif;font-variant:normal;font-weight:normal;font-style:normal;font-size:10px">3</text>
<text x="324.25" y="-242.8" transform="scale(1, -1)"
	style="font-family:Liberation Serif;font-variant:normal;font-weight:normal;font-style:normal;font-size:10px">4</text>
<text x="363.22" y="-204.93" transform="scale(1, -1)"
	style="font-family:Liberation Serif;font-variant:normal;font-weight:normal;font-style:normal;font-size:10px">5</text>
<text x="354.07" y="-216.94" transform="scale(1, -1)"
	style="font-family:Liberation Serif;font-variant:normal;font-weight:normal;font-style:normal;font-size:10px">6</text>
<text x="412" y="-172.9" transform="scale(1, -1)"
	style="font-family:Liberation Serif;font-variant:normal;font-weight:normal;font-style:normal;font-size:10px">7</text>
<text x="268.86" y="-296.07" transform="scale(1, -1)"
	style="font-family:Liberation Serif;font-variant:normal;font-weight:normal;font-style:normal;font-size:10px">8</text>
<text x="226.54" y="-269.35" transform="scale(1, -1)"
	style="font-family:Liberation Serif;font-variant:normal;font-weight:normal;font-style:normal;font-size:10px">9</text>
<text x="190.45" y="-48.256" transform="scale(1, -1)"
	style="font-family:Liberation Serif;font-variant:normal;font-weight:normal;font-style:normal;font-size:10px">10</text>
<text x="337.28" y="-212.67" transform="scale(1, -1)"
	style="font-family:Liberation Serif;font-variant:normal;font-weight:normal;font-style:normal;font-size:10px">11</text>
<text x="188.38" y="-44.46" transform="scale(1, -1)"
	style="font-family:Liberation Serif;font-variant:normal;font-weight:normal;font-style:normal;font-size:10px">12</text>
<text x="303.04" y="-204.7" transform="scale(1, -1)"
	style="font-family:Liberation Serif;font-variant:normal;font-weight:normal;font-style:normal;font-size:10px">13</text>
<text x="206.33" y="-149.92" transform="scale(1, -1)"
	style="font-family:Liberation Serif;font-variant:normal;font-weight:normal;font-style:normal;font-size:10px">14</text>
<text x="283.39" y="-221.72" transform="scale(1, -1)"
	style="font-family:Liberation Serif;font-variant:normal;font-weight:normal;font-style:normal;font-size:10px">15</text>
<text x="153.29" y="-245.65" transform="scale(1, -1)"
	style="font-family:Liberation Serif;font-variant:normal;font-weight:normal;font-style:normal;font-size:10px">16</text>
<text x="248.37" y="-250.14" transform="scale(1, -1)"
	style="font-family:Liberation Serif;font-variant:normal;font-weight:normal;font-style:normal;font-size:10px">17</text>
<text x="191.75" y="-49.961" transform="scale(1, -1)"
	style="font-family:Liberation Serif;font-variant:normal;font-weight:normal;font-style:normal;font-size:10px">18</text>
<text x="304.45" y="-213.3" transform="scale(1, -1)"
	style="font-family:Liberation Serif;font-variant:normal;font-weight:normal;font-style:normal;font-size:10px">19</text>
<text x="234.62" y="-121.24" transform="scale(1, -1)"
	style="font-family:Liberation Serif;font-variant:normal;font-weight:normal;font-style:normal;font-size:10px">20</text>
<text x="64.445" y="-345.4" transform="scale(1, -1)"
	style="font-family:Liberation Serif;font-variant:normal;font-weight:normal;font-style:normal;font-size:10px">21</text>
<text x="175.36" y="-258.52" transform="scale(1, -1)"
	style="font-family:Liberation Serif;font-variant:normal;font-weight:normal;font-style:normal;font-size:10px">22</text>
<text x="70.642" y="-101.82" transform="scale(1, -1)"
	style="font-family:Liberation Serif;font-variant:normal;font-weight:normal;font-style:normal;font-size:10px">23</text>
<text x="61.458" y="-376.32" transform="scale(1, -1)"
	style="font-family:Liberation Serif;font-variant:normal;font-weight:normal;font-style:normal;font-size:10px">24</text>
<text x="44.425" y="-163.42" transform="scale(1, -1)"
	style="font-family:Liberation Serif;font-variant:normal;font-weight:normal;font-style:normal;font-size:10px">25</text>
<text x="49.235" y="-90.505" transform="scale(1, -1)"
	style="font-family:Liberation Serif;font-variant:normal;font-weight:normal;font-style:normal;font-size:10px">26</text>
<text x="57.296" y="-145.93" transform="scale(1, -1)"
	style="font-family:Liberation Serif;font-variant:normal;font-weight:normal;font-style:normal;font-size:10px">27</text>
<text x="71.171" y="-370.6" transform="scale(1, -1)"
	style="font-family:Liberation Serif;font-variant:normal;font-weight:normal;font-style:normal;font-size:10px">28</text>
<path d="M397,375.94L417,375.94" style="fill:none;stroke:#FF0000" />
<text x="365.65" y="-373.11" transform="scale(1, -1)"
	style="font-family:Liberation Sans;font-variant:normal;font-weight:normal;font-style:normal;font-size:12px">Prjn1</text>
</g>
</svg>
