<?xml version="1.0"?>
<!-- Generated by SVGo and Plotinum VG -->
<svg width="579.75pt" height="438.38pt" viewBox="0 0 579.75 438.38"
	xmlns="http://www.w3.org/2000/svg"
	xmlns:xlink="http://www.w3.org/1999/xlink">
<g transform="scale(1, -1) translate(0, -438.38)">
<path d="M0,0L579.75,0L579.75,438.38L0,438.38Z" style="fill:#FAF8FD" />
<text x="235.84" y="-428.65" transform="scale(1, -1)"
	style="font-family:Liberation Sans;font-variant:normal;font-weight:normal;font-style:normal;font-size:12px;fill:#191B22">VSPatch Epoch Plot</text>
<text x="296.08" y="-3.6797" transform="scale(1, -1)"
	style="font-family:Liberation Sans;font-variant:normal;font-weight:normal;font-style:normal;font-size:12px;fill:#191B22">Epoch</text>
<text x="44.654" y="-16.473" transform="scale(1, -1)"
	style="font-family:Liberation Sans;font-variant:normal;font-weight:normal;font-style:normal;font-size:10px;fill:#191B22">0</text>
<text x="202.88" y="-16.473" transform="scale(1, -1)"
	style="font-family:Liberation Sans;font-variant:normal;font-weight:normal;font-style:normal;font-size:10px;fill:#191B22">30</text>
<text x="363.88" y="-16.473" transform="scale(1, -1)"
	style="font-family:Liberation Sans;font-variant:normal;font-weight:normal;font-style:normal;font-size:10px;fill:#191B22">60</text>
<text x="524.89" y="-16.473" transform="scale(1, -1)"
	style="font-family:Liberation Sans;font-variant:normal;font-weight:normal;font-style:normal;font-size:10px;fill:#191B22">90</text>
<path d="M47.435,24.578L47.435,32.578" style="fill:none;stroke:#191B22;stroke-width:0.5" />
<path d="M208.44,24.578L208.44,32.578" style="fill:none;stroke:#191B22;stroke-width:0.5" />
<path d="M369.44,24.578L369.44,32.578" style="fill:none;stroke:#191B22;stroke-width:0.5" />
<path d="M530.45,24.578L530.45,32.578" style="fill:none;stroke:#191B22;stroke-width:0.5" />
<path d="M101.1,28.578L101.1,32.578" style="fill:none;stroke:#191B22;stroke-width:0.5" />
<path d="M154.77,28.578L154.77,32.578" style="fill:none;stroke:#191B22;stroke-width:0.5" />
<path d="M262.11,28.578L262.11,32.578" style="fill:none;stroke:#191B22;stroke-width:0.5" />
<path d="M315.78,28.578L315.78,32.578" style="fill:none;stroke:#191B22;stroke-width:0.5" />
<path d="M423.11,28.578L423.11,32.578" style="fill:none;stroke:#191B22;stroke-width:0.5" />
<path d="M476.78,28.578L476.78,32.578" style="fill:none;stroke:#191B22;stroke-width:0.5" />
<path d="M47.435,32.578L578.75,32.578" style="fill:none;stroke:#191B22;stroke-width:0.5" />
<g transform="rotate(90)">
<text x="196.31" y="9.7266" transform="scale(1, -1)"
	style="font-family:Liberation Sans;font-variant:normal;font-weight:normal;font-style:normal;font-size:12px;fill:#191B22">Cond_0_Rew</text>
</g>
<text x="15.949" y="-115.89" transform="scale(1, -1)"
	style="font-family:Liberation Sans;font-variant:normal;font-weight:normal;font-style:normal;font-size:10px;fill:#191B22">0.0</text>
<text x="15.949" y="-264.08" transform="scale(1, -1)"
	style="font-family:Liberation Sans;font-variant:normal;font-weight:normal;font-style:normal;font-size:10px;fill:#191B22">0.4</text>
<text x="15.949" y="-412.26" transform="scale(1, -1)"
	style="font-family:Liberation Sans;font-variant:normal;font-weight:normal;font-style:normal;font-size:10px;fill:#191B22">0.8</text>
<path d="M32.629,118.41L40.629,118.41" style="fill:none;stroke:#191B22;stroke-width:0.5" />
<path d="M32.629,266.6L40.629,266.6" style="fill:none;stroke:#191B22;stroke-width:0.5" />
<path d="M32.629,414.78L40.629,414.78" style="fill:none;stroke:#191B22;stroke-width:0.5" />
<path d="M36.629,44.317L40.629,44.317" style="fill:none;stroke:#191B22;stroke-width:0.5" />
<path d="M36.629,81.364L40.629,81.364" style="fill:none;stroke:#191B22;stroke-width:0.5" />
<path d="M36.629,155.46L40.629,155.46" style="fill:none;stroke:#191B22;stroke-width:0.5" />
<path d="M36.629,192.5L40.629,192.5" style="fill:none;stroke:#191B22;stroke-width:0.5" />
<path d="M36.629,229.55L40.629,229.55" style="fill:none;stroke:#191B22;stroke-width:0.5" />
<path d="M36.629,303.64L40.629,303.64" style="fill:none;stroke:#191B22;stroke-width:0.5" />
<path d="M36.629,340.69L40.629,340.69" style="fill:none;stroke:#191B22;stroke-width:0.5" />
<path d="M36.629,377.74L40.629,377.74" style="fill:none;stroke:#191B22;stroke-width:0.5" />
<path d="M40.629,41.371L40.629,423.97" style="fill:none;stroke:#191B22;stroke-width:0.5" />
<path d="M47.435,163.72L52.801,179.33L58.168,215.77L63.535,194.95L68.902,205.36L74.269,215.77L79.636,179.33L85.002,215.77L90.369,189.74L95.736,194.95L101.1,179.33L106.47,179.33L111.84,215.77L117.2,179.33L122.57,184.54L127.94,179.33L133.3,215.77L138.67,194.95L144.04,220.97L149.4,189.74L154.77,194.95L160.14,200.15L165.5,184.54L170.87,168.92L176.24,200.15L181.61,184.54L186.97,205.36L192.34,205.36L197.71,174.13L203.07,215.77L208.44,179.33L213.81,184.54L219.17,184.54L224.54,168.92L229.91,168.92L235.27,168.92L240.64,189.74L246.01,148.1L251.37,200.15L256.74,194.95L262.11,226.18L267.47,319.87L272.84,319.87L278.21,314.66L283.57,299.05L288.94,314.66L294.31,345.89L299.68,345.89L305.04,319.87L310.41,330.28L315.78,314.66L321.14,325.07L326.51,319.87L331.88,351.1L337.24,345.89L342.61,304.25L347.98,325.07L353.34,325.07L358.71,330.28L364.08,340.69L369.44,340.69L374.81,226.18L380.18,267.82L385.54,257.41L390.91,267.82L396.28,247L401.64,252.2L407.01,220.97L412.38,220.97L417.75,278.23L423.11,257.41L428.48,241.79L433.85,252.2L439.21,226.18L444.58,299.05L449.95,278.23L455.31,257.41L460.68,283.43L466.05,257.41L471.41,304.25L476.78,215.77L482.15,194.95L487.51,215.77L492.88,168.92L498.25,189.74L503.61,194.95L508.98,189.74L514.35,200.15L519.71,205.36L525.08,174.13L530.45,174.13L535.82,184.54L541.18,205.36L546.55,210.56L551.92,205.36L557.28,179.33L562.65,179.33L568.02,194.95L573.38,189.74L578.75,200.15" style="fill:none;stroke:#FD8F00;stroke-width:2" />
<path d="M47.435,165.77L52.801,188.09L58.168,193.64L63.535,209.6L68.902,206.92L74.269,195.44L79.636,202.38L85.002,203.31L90.369,203L95.736,195.21L101.1,181.86L106.47,178.99L111.84,196.71L117.2,197.57L122.57,181.01L127.94,187.62L133.3,202.16L138.67,202.9L144.04,207L149.4,203.74L154.77,190.75L160.14,209.42L165.5,195.06L170.87,160L176.24,195.34L181.61,195.98L186.97,194.09L192.34,200.02L197.71,191.5L203.07,196.18L208.44,207.9L213.81,163.93L219.17,191.01L224.54,185.58L229.91,148.87L235.27,167.27L240.64,189.2L246.01,168.09L251.37,171.37L256.74,202.65L262.11,194.36L267.47,252.84L272.84,290.24L278.21,330.4L283.57,316.92L288.94,297.17L294.31,331.76L299.68,336.93L305.04,325.74L310.41,315.9L315.78,331.73L321.14,320.88L326.51,321.76L331.88,335.18L337.24,356.2L342.61,307.67L347.98,315.43L353.34,327.55L358.71,338.7L364.08,321L369.44,343.04L374.81,282.96L380.18,261.83L385.54,247.16L390.91,293.84L396.28,236.61L401.64,256.39L407.01,236.1L412.38,223.97L417.75,243.78L423.11,270.92L428.48,246.77L433.85,253.95L439.21,234.71L444.58,268.69L449.95,283.27L455.31,258.98L460.68,278.95L466.05,267.06L471.41,302.04L476.78,253.66L482.15,190.11L487.51,213.21L492.88,173.34L498.25,189.06L503.61,194.98L508.98,195.38L514.35,193.93L519.71,190.11L525.08,200.82L530.45,178.32L535.82,171.19L541.18,200.46L546.55,207.25L551.92,207.37L557.28,188.84L562.65,192.78L568.02,187.5L573.38,186.7L578.75,201.28" style="fill:none;stroke:#AC8AFF;stroke-width:2" />
<path d="M47.435,116.36L52.801,109.65L58.168,140.54L63.535,103.75L68.902,116.85L74.269,138.74L79.636,95.36L85.002,130.87L90.369,105.15L95.736,118.15L101.1,115.88L106.47,118.75L111.84,137.47L117.2,100.18L122.57,121.94L127.94,110.12L133.3,132.02L138.67,110.46L144.04,132.39L149.4,104.41L154.77,122.61L160.14,109.14L165.5,107.89L170.87,127.34L176.24,123.23L181.61,106.97L186.97,129.68L192.34,123.74L197.71,101.04L203.07,138L208.44,89.844L213.81,139.02L219.17,111.94L224.54,101.75L229.91,138.46L235.27,120.07L240.64,118.95L246.01,98.43L251.37,147.19L256.74,110.71L262.11,150.23L267.47,185.44L272.84,148.04L278.21,102.67L283.57,100.54L288.94,135.91L294.31,132.55L299.68,127.38L305.04,112.54L310.41,132.79L315.78,101.34L321.14,122.61L326.51,116.52L331.88,134.33L337.24,108.1L342.61,114.99L347.98,128.05L353.34,115.94L358.71,109.99L364.08,138.1L369.44,116.06L374.81,61.63L380.18,124.4L385.54,128.66L390.91,92.388L396.28,128.8L401.64,114.23L407.01,103.28L412.38,115.42L417.75,152.86L423.11,104.9L428.48,113.44L433.85,116.66L439.21,109.88L444.58,148.77L449.95,113.37L455.31,116.84L460.68,122.89L466.05,108.76L471.41,120.62L476.78,80.515L482.15,123.25L487.51,120.97L492.88,113.99L498.25,119.09L503.61,118.37L508.98,112.78L514.35,124.63L519.71,133.66L525.08,91.716L530.45,114.22L535.82,131.76L541.18,123.31L546.55,121.73L551.92,116.4L557.28,108.9L562.65,104.96L568.02,125.85L573.38,121.46L578.75,117.29" style="fill:none;stroke:#FFB4AB;stroke-width:2" />
<path d="M47.435,104.08L52.801,118.41L58.168,118.41L63.535,106.72L68.902,118.41L74.269,118.41L79.636,118.41L85.002,118.41L90.369,118.41L95.736,118.41L101.1,118.41L106.47,118.41L111.84,118.41L117.2,118.41L122.57,118.41L127.94,118.41L133.3,118.41L138.67,118.41L144.04,118.41L149.4,118.41L154.77,118.41L160.14,118.41L165.5,118.41L170.87,118.41L176.24,118.41L181.61,118.41L186.97,118.41L192.34,118.41L197.71,118.41L203.07,118.41L208.44,118.41L213.81,118.41L219.17,118.41L224.54,118.41L229.91,118.41L235.27,118.41L240.64,118.41L246.01,118.41L251.37,118.41L256.74,118.41L262.11,118.41L267.47,99.224L272.84,106.18L278.21,118.41L283.57,118.41L288.94,118.41L294.31,106.27L299.68,118.41L305.04,118.41L310.41,118.41L315.78,118.41L321.14,118.41L326.51,118.41L331.88,118.41L337.24,118.41L342.61,118.41L347.98,118.41L353.34,118.41L358.71,118.41L364.08,118.41L369.44,107.74L374.81,118.41L380.18,118.41L385.54,118.41L390.91,118.41L396.28,118.41L401.64,118.41L407.01,118.41L412.38,118.41L417.75,118.41L423.11,118.41L428.48,118.41L433.85,118.41L439.21,118.41L444.58,118.41L449.95,118.41L455.31,118.41L460.68,118.41L466.05,118.41L471.41,118.41L476.78,118.41L482.15,118.41L487.51,118.41L492.88,118.41L498.25,118.41L503.61,118.41L508.98,118.41L514.35,118.41L519.71,118.41L525.08,118.41L530.45,118.41L535.82,118.41L541.18,118.41L546.55,118.41L551.92,118.41L557.28,118.41L562.65,118.41L568.02,118.41L573.38,118.41L578.75,118.41" style="fill:none;stroke:#00E563;stroke-width:2" />
<path d="M47.435,267.82L52.801,257.41L58.168,257.41L63.535,278.23L68.902,252.2L74.269,257.41L79.636,226.18L85.002,194.95L90.369,241.79L95.736,252.2L101.1,262.61L106.47,257.41L111.84,236.59L117.2,273.02L122.57,252.2L127.94,257.41L133.3,273.02L138.67,273.02L144.04,267.82L149.4,231.38L154.77,257.41L160.14,247L165.5,247L170.87,252.2L176.24,241.79L181.61,220.97L186.97,257.41L192.34,241.79L197.71,247L203.07,231.38L208.44,252.2L213.81,262.61L219.17,267.82L224.54,273.02L229.91,278.23L235.27,241.79L240.64,252.2L246.01,241.79L251.37,247L256.74,288.64L262.11,257.41L267.47,366.71L272.84,356.3L278.21,387.53L283.57,387.53L288.94,382.33L294.31,387.53L299.68,361.51L305.04,387.53L310.41,382.33L315.78,371.92L321.14,382.33L326.51,408.35L331.88,392.74L337.24,408.35L342.61,387.53L347.98,397.94L353.34,387.53L358.71,397.94L364.08,361.51L369.44,387.53L374.81,194.95L380.18,179.33L385.54,163.72L390.91,163.72L396.28,189.74L401.64,194.95L407.01,163.72L412.38,168.92L417.75,200.15L423.11,184.54L428.48,189.74L433.85,205.36L439.21,163.72L444.58,184.54L449.95,184.54L455.31,189.74L460.68,184.54L466.05,184.54L471.41,184.54L476.78,210.56L482.15,377.12L487.51,408.35L492.88,361.51L498.25,392.74L503.61,377.12L508.98,371.92L514.35,403.15L519.71,418.76L525.08,371.92L530.45,403.15L535.82,382.33L541.18,408.35L546.55,392.74L551.92,377.12L557.28,397.94L562.65,418.76L568.02,382.33L573.38,366.71L578.75,387.53" style="fill:none;stroke:#E9D700;stroke-width:2" />
<path d="M47.435,193.08L52.801,241.79L58.168,273.29L63.535,258.19L68.902,260.91L74.269,258.46L79.636,251.64L85.002,207.01L90.369,200.62L95.736,255.12L101.1,277.34L106.47,242.79L111.84,249.85L117.2,262.52L122.57,251.64L127.94,249.64L133.3,274.59L138.67,257.99L144.04,274.5L149.4,244.66L154.77,249.14L160.14,249.9L165.5,243.43L170.87,266.8L176.24,238.52L181.61,231.22L186.97,247.87L192.34,231.35L197.71,250.87L203.07,227.18L208.44,251.72L213.81,249.94L219.17,274.12L224.54,286.97L229.91,262.01L235.27,250.53L240.64,237.12L246.01,250.8L251.37,246.3L256.74,283.88L262.11,261.78L267.47,318.63L272.84,350.99L278.21,383.36L283.57,381.1L288.94,379.32L294.31,390.06L299.68,374.12L305.04,371.4L310.41,381.49L315.78,371.8L321.14,385.71L326.51,392.3L331.88,406.37L337.24,384.61L342.61,394.24L347.98,403.81L353.34,386.38L358.71,405.08L364.08,357.28L369.44,396.38L374.81,264.55L380.18,177.66L385.54,173.16L390.91,161.38L396.28,177L401.64,184.17L407.01,189.75L412.38,174.88L417.75,194.23L423.11,171.26L428.48,209.09L433.85,174.57L439.21,183.98L444.58,170.1L449.95,196.78L455.31,184.58L460.68,184.97L466.05,176.95L471.41,191.53L476.78,195.33L482.15,315.45L487.51,378.77L492.88,390.49L498.25,380.65L503.61,375.08L508.98,378.84L514.35,386.31L519.71,419.79L525.08,398.42L530.45,364.27L535.82,400.64L541.18,395.21L546.55,396.38L551.92,387.18L557.28,399.07L562.65,402.84L568.02,382.17L573.38,396.8L578.75,359.74" style="fill:none;stroke:#FFACE7;stroke-width:2" />
<path d="M47.435,193.15L52.801,134.03L58.168,102.53L63.535,138.44L68.902,109.7L74.269,117.36L79.636,92.95L85.002,106.35L90.369,159.58L95.736,115.49L101.1,103.69L106.47,133.03L111.84,105.15L117.2,128.91L122.57,118.97L127.94,126.18L133.3,116.84L138.67,133.45L144.04,111.73L149.4,105.14L154.77,126.68L160.14,115.51L165.5,121.98L170.87,103.81L176.24,121.68L181.61,108.17L186.97,127.95L192.34,128.86L197.71,114.54L203.07,122.61L208.44,118.89L213.81,131.08L219.17,112.11L224.54,104.47L229.91,134.63L235.27,109.68L240.64,133.49L246.01,109.41L251.37,119.11L256.74,123.17L262.11,114.04L267.47,166.49L272.84,123.72L278.21,122.59L283.57,124.84L288.94,121.42L294.31,115.88L299.68,105.8L305.04,134.54L310.41,119.25L315.78,118.53L321.14,115.03L326.51,134.46L331.88,104.78L337.24,142.16L342.61,111.71L347.98,112.54L353.34,119.56L358.71,111.27L364.08,122.64L369.44,109.57L374.81,48.805L380.18,120.08L385.54,108.97L390.91,120.75L396.28,131.16L401.64,129.19L407.01,92.378L412.38,112.45L417.75,124.34L423.11,131.69L428.48,99.066L433.85,149.2L439.21,98.151L444.58,132.85L449.95,106.17L455.31,123.57L460.68,117.98L466.05,126L471.41,111.42L476.78,133.64L482.15,180.08L487.51,147.99L492.88,89.428L498.25,130.5L503.61,120.45L508.98,111.49L514.35,135.25L519.71,117.39L525.08,91.908L530.45,157.29L535.82,100.1L541.18,131.55L546.55,114.77L551.92,108.35L557.28,117.29L562.65,134.34L568.02,118.57L573.38,88.322L578.75,146.2" style="fill:none;stroke:#00DAF1;stroke-width:2" />
<path d="M47.435,105.4L52.801,104.57L58.168,118.41L63.535,118.41L68.902,118.41L74.269,118.41L79.636,118.41L85.002,118.41L90.369,118.41L95.736,118.41L101.1,118.41L106.47,118.41L111.84,118.41L117.2,118.41L122.57,118.41L127.94,118.41L133.3,118.41L138.67,118.41L144.04,118.41L149.4,118.41L154.77,118.41L160.14,118.41L165.5,118.41L170.87,118.41L176.24,118.41L181.61,118.41L186.97,118.41L192.34,118.41L197.71,118.41L203.07,118.41L208.44,118.41L213.81,118.41L219.17,118.41L224.54,118.41L229.91,118.41L235.27,118.41L240.64,118.41L246.01,118.41L251.37,118.41L256.74,118.41L262.11,118.41L267.47,118.41L272.84,118.41L278.21,108.01L283.57,118.41L288.94,118.41L294.31,118.41L299.68,118.41L305.04,118.41L310.41,118.41L315.78,118.41L321.14,118.41L326.51,118.41L331.88,106.97L337.24,118.41L342.61,118.41L347.98,118.41L353.34,118.41L358.71,118.41L364.08,118.41L369.44,118.41L374.81,118.41L380.18,118.41L385.54,118.41L390.91,118.41L396.28,118.41L401.64,118.41L407.01,118.41L412.38,118.41L417.75,118.41L423.11,118.41L428.48,118.41L433.85,118.41L439.21,118.41L444.58,118.41L449.95,118.41L455.31,118.41L460.68,118.41L466.05,118.41L471.41,118.41L476.78,118.41L482.15,118.41L487.51,118.41L492.88,118.41L498.25,118.41L503.61,118.41L508.98,118.41L514.35,118.41L519.71,118.41L525.08,118.41L530.45,118.41L535.82,118.41L541.18,118.41L546.55,118.41L551.92,118.41L557.28,118.41L562.65,118.41L568.02,118.41L573.38,118.41L578.75,118.41" style="fill:none;stroke:#D0BCFF;stroke-width:2" />
<path d="M47.435,314.66L52.801,330.28L58.168,319.87L63.535,319.87L68.902,330.28L74.269,335.48L79.636,314.66L85.002,304.25L90.369,330.28L95.736,345.89L101.1,304.25L106.47,351.1L111.84,345.89L117.2,351.1L122.57,330.28L127.94,293.84L133.3,325.07L138.67,330.28L144.04,319.87L149.4,325.07L154.77,319.87L160.14,335.48L165.5,340.69L170.87,325.07L176.24,330.28L181.61,319.87L186.97,335.48L192.34,314.66L197.71,314.66L203.07,314.66L208.44,340.69L213.81,325.07L219.17,314.66L224.54,356.3L229.91,299.05L235.27,319.87L240.64,319.87L246.01,304.25L251.37,299.05L256.74,330.28L262.11,325.07L267.47,236.59L272.84,236.59L278.21,236.59L283.57,257.41L288.94,231.38L294.31,304.25L299.68,262.61L305.04,267.82L310.41,267.82L315.78,273.02L321.14,252.2L326.51,273.02L331.88,257.41L337.24,262.61L342.61,241.79L347.98,262.61L353.34,273.02L358.71,247L364.08,267.82L369.44,273.02L374.81,283.43L380.18,345.89L385.54,293.84L390.91,299.05L396.28,309.46L401.64,309.46L407.01,288.64L412.38,351.1L417.75,361.51L423.11,325.07L428.48,345.89L433.85,309.46L439.21,319.87L444.58,293.84L449.95,304.25L455.31,319.87L460.68,330.28L466.05,319.87L471.41,325.07L476.78,278.23L482.15,247L487.51,252.2L492.88,210.56L498.25,236.59L503.61,262.61L508.98,241.79L514.35,247L519.71,215.77L525.08,267.82L530.45,247L535.82,262.61L541.18,262.61L546.55,252.2L551.92,215.77L557.28,241.79L562.65,267.82L568.02,283.43L573.38,267.82L578.75,262.61" style="fill:none;stroke:#D01F1F;stroke-width:2" />
<path d="M47.435,208.15L52.801,260.92L58.168,291.98L63.535,280.47L68.902,313.11L74.269,313L79.636,294.94L85.002,330.27L90.369,293.52L95.736,331.65L101.1,313.1L106.47,327.23L111.84,331.41L117.2,344.11L122.57,330.08L127.94,280.31L133.3,313.86L138.67,314.03L144.04,327.16L149.4,323.42L154.77,319.79L160.14,325.03L165.5,324.94L170.87,349.71L176.24,311.81L181.61,312.19L186.97,326.21L192.34,311.46L197.71,306.9L203.07,320.01L208.44,312.09L213.81,316.21L219.17,312.31L224.54,325.28L229.91,310.13L235.27,292.23L240.64,312.18L246.01,304.25L251.37,287.4L256.74,335.16L262.11,320.22L267.47,290.88L272.84,227.12L278.21,248.8L283.57,247.59L288.94,244.92L294.31,280.79L299.68,260.96L305.04,258.09L310.41,264.89L315.78,281.09L321.14,246.3L326.51,274.39L331.88,263.29L337.24,269.98L342.61,254.52L347.98,236.69L353.34,278.05L358.71,249.51L364.08,272.64L369.44,259.21L374.81,263.58L380.18,345.77L385.54,271.76L390.91,308.17L396.28,317.11L401.64,293.21L407.01,296.63L412.38,329.69L417.75,352.65L423.11,329.71L428.48,353.98L433.85,311.77L439.21,286.8L444.58,317.93L449.95,302.66L455.31,291.42L460.68,359.32L466.05,309.72L471.41,328.23L476.78,273.24L482.15,282.34L487.51,256.52L492.88,218.72L498.25,222.79L503.61,244.24L508.98,270.55L514.35,230.37L519.71,219.32L525.08,238.39L530.45,274.62L535.82,237.24L541.18,274.96L546.55,256.11L551.92,242.59L557.28,223.59L562.65,256.18L568.02,269.54L573.38,270.58L578.75,266.34" style="fill:none;stroke:#005592;stroke-width:2" />
<path d="M47.435,224.93L52.801,187.77L58.168,146.3L63.535,157.81L68.902,135.58L74.269,140.9L79.636,138.14L85.002,92.399L90.369,155.17L95.736,132.65L101.1,109.56L106.47,142.28L111.84,132.89L117.2,125.4L122.57,118.61L127.94,131.95L133.3,129.62L138.67,134.66L144.04,111.12L149.4,120.06L154.77,118.49L160.14,128.86L165.5,134.16L170.87,93.775L176.24,136.88L181.61,126.09L186.97,127.69L192.34,121.62L197.71,126.17L203.07,113.07L208.44,147.01L213.81,127.28L219.17,120.77L224.54,149.43L229.91,107.32L235.27,146.05L240.64,126.1L246.01,118.42L251.37,130.06L256.74,113.53L262.11,123.27L267.47,64.119L272.84,127.88L278.21,106.2L283.57,128.23L288.94,104.87L294.31,141.87L299.68,120.06L305.04,128.14L310.41,121.34L315.78,110.35L321.14,124.31L326.51,117.04L331.88,112.53L337.24,111.05L342.61,105.69L347.98,144.34L353.34,113.39L358.71,115.9L364.08,113.58L369.44,132.22L374.81,138.26L380.18,118.53L385.54,140.5L390.91,109.29L396.28,110.76L401.64,134.66L407.01,110.42L412.38,139.82L417.75,127.27L423.11,113.77L428.48,110.32L433.85,116.1L439.21,151.47L444.58,94.322L449.95,120L455.31,146.86L460.68,89.37L466.05,128.56L471.41,115.25L476.78,123.4L482.15,83.073L487.51,114.09L492.88,110.25L498.25,132.21L503.61,136.79L508.98,89.65L514.35,135.04L519.71,114.86L525.08,147.84L530.45,90.792L535.82,143.78L541.18,106.06L546.55,114.5L551.92,91.59L557.28,136.62L562.65,130.05L568.02,132.3L573.38,115.65L578.75,114.69" style="fill:none;stroke:#007C32;stroke-width:2" />
<path d="M47.435,50.761L52.801,58.383L58.168,79.41L63.535,107.25L68.902,86.578L74.269,98.41L79.636,118.41L85.002,108.71L90.369,107.34L95.736,107.94L101.1,118.41L106.47,107.56L111.84,109.12L117.2,108.52L122.57,99.486L127.94,118.41L133.3,118.41L138.67,118.41L144.04,107.83L149.4,118.41L154.77,118.41L160.14,118.41L165.5,118.41L170.87,108.3L176.24,118.41L181.61,118.41L186.97,108.94L192.34,108.82L197.71,108.9L203.07,107.86L208.44,106.53L213.81,99.412L219.17,118.41L224.54,118.41L229.91,94.406L235.27,118.41L240.64,94.489L246.01,108.45L251.37,118.41L256.74,118.41L262.11,118.41L267.47,118.41L272.84,118.41L278.21,118.41L283.57,118.41L288.94,118.41L294.31,118.41L299.68,118.41L305.04,118.41L310.41,118.41L315.78,118.41L321.14,118.41L326.51,118.41L331.88,118.41L337.24,118.41L342.61,118.41L347.98,118.41L353.34,118.41L358.71,118.41L364.08,118.41L369.44,118.41L374.81,118.41L380.18,118.41L385.54,118.41L390.91,118.41L396.28,118.41L401.64,118.41L407.01,118.41L412.38,105.52L417.75,118.41L423.11,118.41L428.48,108.85L433.85,118.41L439.21,118.41L444.58,118.41L449.95,118.41L455.31,118.41L460.68,118.41L466.05,118.41L471.41,118.41L476.78,118.41L482.15,118.41L487.51,118.41L492.88,118.41L498.25,118.41L503.61,118.41L508.98,118.41L514.35,118.41L519.71,118.41L525.08,118.41L530.45,118.41L535.82,118.41L541.18,118.41L546.55,118.41L551.92,118.41L557.28,118.41L562.65,118.41L568.02,118.41L573.38,118.41L578.75,118.41" style="fill:none;stroke:#C200AD;stroke-width:2" />
<path d="M47.435,377.12L52.801,397.94L58.168,408.35L63.535,397.94L68.902,403.15L74.269,392.74L79.636,392.74L85.002,397.94L90.369,403.15L95.736,392.74L101.1,397.94L106.47,387.53L111.84,392.74L117.2,413.56L122.57,371.92L127.94,387.53L133.3,418.76L138.67,382.33L144.04,397.94L149.4,387.53L154.77,392.74L160.14,397.94L165.5,366.71L170.87,387.53L176.24,371.92L181.61,377.12L186.97,392.74L192.34,392.74L197.71,403.15L203.07,387.53L208.44,392.74L213.81,345.89L219.17,397.94L224.54,387.53L229.91,371.92L235.27,397.94L240.64,366.71L246.01,387.53L251.37,377.12L256.74,392.74L262.11,377.12L267.47,210.56L272.84,174.13L278.21,226.18L283.57,205.36L288.94,200.15L294.31,174.13L299.68,189.74L305.04,194.95L310.41,200.15L315.78,179.33L321.14,200.15L326.51,210.56L331.88,194.95L337.24,194.95L342.61,220.97L347.98,179.33L353.34,179.33L358.71,205.36L364.08,205.36L369.44,215.77L374.81,377.12L380.18,387.53L385.54,408.35L390.91,423.97L396.28,392.74L401.64,387.53L407.01,403.15L412.38,361.51L417.75,392.74L423.11,377.12L428.48,392.74L433.85,397.94L439.21,397.94L444.58,356.3L449.95,418.76L455.31,377.12L460.68,403.15L466.05,403.15L471.41,366.71L476.78,387.53L482.15,351.1L487.51,351.1L492.88,293.84L498.25,335.48L503.61,309.46L508.98,356.3L514.35,335.48L519.71,309.46L525.08,340.69L530.45,293.84L535.82,304.25L541.18,330.28L546.55,283.43L551.92,325.07L557.28,299.05L562.65,325.07L568.02,309.46L573.38,309.46L578.75,283.43" style="fill:none;stroke:#007683;stroke-width:2" />
<path d="M47.435,224.57L52.801,354.85L58.168,372.75L63.535,383.2L68.902,388.83L74.269,394.25L79.636,375.58L85.002,394.55L90.369,401.71L95.736,385.81L101.1,401.72L106.47,365.35L111.84,405.02L117.2,391.56L122.57,384.74L127.94,378.91L133.3,410.24L138.67,377.83L144.04,388.56L149.4,396.52L154.77,391.94L160.14,391.65L165.5,359.46L170.87,393.66L176.24,362.36L181.61,385.58L186.97,370.62L192.34,396.66L197.71,390.9L203.07,400.68L208.44,386.49L213.81,348.99L219.17,388.27L224.54,374.47L229.91,393.25L235.27,380.61L240.64,378.69L246.01,375.44L251.37,380.16L256.74,381.07L262.11,394.97L267.47,287.6L272.84,187.02L278.21,211.9L283.57,200.65L288.94,212.09L294.31,177.84L299.68,196.81L305.04,186.37L310.41,196.93L315.78,183.41L321.14,193.09L326.51,219.41L331.88,183.88L337.24,202.72L342.61,208.51L347.98,193.99L353.34,173.69L358.71,198.02L364.08,218.72L369.44,211.56L374.81,286.3L380.18,396.44L385.54,393.49L390.91,421.63L396.28,404.1L401.64,380.54L407.01,399.7L412.38,368.5L417.75,387.93L423.11,382.61L428.48,380.58L433.85,394.36L439.21,409.54L444.58,364.54L449.95,397.25L455.31,393.05L460.68,399.61L466.05,403.57L471.41,372.54L476.78,368.76L482.15,351.91L487.51,356.42L492.88,317.02L498.25,323.24L503.61,327.68L508.98,309.01L514.35,359.75L519.71,308.85L525.08,323.98L530.45,311.79L535.82,321.38L541.18,322.81L546.55,297.72L551.92,304.02L557.28,293.38L562.65,332.47L568.02,300.27L573.38,304.24L578.75,322.32" style="fill:none;stroke:#B26300;stroke-width:2" />
<path d="M47.435,270.96L52.801,161.5L58.168,154.02L63.535,133.16L68.902,132.73L74.269,116.9L79.636,135.57L85.002,121.8L90.369,119.85L95.736,125.34L101.1,114.63L106.47,140.59L111.84,106.13L117.2,140.41L122.57,105.59L127.94,127.04L133.3,126.94L138.67,122.91L144.04,127.8L149.4,109.43L154.77,119.21L160.14,124.71L165.5,125.66L170.87,112.28L176.24,127.97L181.61,109.96L186.97,140.53L192.34,114.49L197.71,130.66L203.07,105.26L208.44,124.66L213.81,115.32L219.17,128.08L224.54,131.47L229.91,97.08L235.27,135.75L240.64,106.43L246.01,130.5L251.37,115.38L256.74,130.08L262.11,100.56L267.47,41.371L272.84,105.52L278.21,132.69L283.57,123.12L288.94,106.48L294.31,114.7L299.68,111.35L305.04,126.99L310.41,121.64L315.78,114.33L321.14,125.48L326.51,109.56L331.88,129.47L337.24,110.64L342.61,130.88L347.98,103.75L353.34,124.05L358.71,125.75L364.08,105.05L369.44,122.62L374.81,209.23L380.18,109.5L385.54,133.27L390.91,120.75L396.28,107.05L401.64,125.4L407.01,121.86L412.38,111.42L417.75,123.22L423.11,112.93L428.48,130.57L433.85,122L439.21,106.81L444.58,110.17L449.95,139.93L455.31,102.48L460.68,121.95L466.05,117.99L471.41,112.59L476.78,137.19L482.15,117.6L487.51,113.09L492.88,95.237L498.25,130.66L503.61,100.19L508.98,165.71L514.35,94.146L519.71,119.02L525.08,135.12L530.45,100.46L535.82,101.28L541.18,125.88L546.55,104.12L551.92,139.47L557.28,124.08L562.65,111.01L568.02,127.6L573.38,123.63L578.75,79.525" style="fill:none;stroke:#7D39FF;stroke-width:2" />
<path d="M47.435,69.682L52.801,83.972L58.168,107.44L63.535,109.01L68.902,118.41L74.269,108.7L79.636,118.41L85.002,118.41L90.369,118.41L95.736,118.41L101.1,118.41L106.47,118.41L111.84,108L117.2,118.41L122.57,118.41L127.94,118.41L133.3,118.41L138.67,118.41L144.04,107.86L149.4,118.41L154.77,118.41L160.14,118.41L165.5,118.41L170.87,108.52L176.24,118.41L181.61,118.41L186.97,107.91L192.34,118.41L197.71,118.41L203.07,118.41L208.44,118.41L213.81,118.41L219.17,118.41L224.54,118.41L229.91,118.41L235.27,118.41L240.64,118.41L246.01,118.41L251.37,118.41L256.74,118.41L262.11,108.21L267.47,118.41L272.84,118.41L278.21,118.41L283.57,118.41L288.94,118.41L294.31,118.41L299.68,118.41L305.04,118.41L310.41,118.41L315.78,118.41L321.14,118.41L326.51,118.41L331.88,118.41L337.24,118.41L342.61,118.41L347.98,118.41L353.34,118.41L358.71,118.41L364.08,118.41L369.44,118.41L374.81,118.41L380.18,118.41L385.54,118.41L390.91,118.41L396.28,118.41L401.64,118.41L407.01,118.41L412.38,118.41L417.75,118.41L423.11,118.41L428.48,118.41L433.85,118.41L439.21,118.41L444.58,118.41L449.95,118.41L455.31,118.41L460.68,118.41L466.05,118.41L471.41,118.41L476.78,118.41L482.15,118.41L487.51,118.41L492.88,118.41L498.25,118.41L503.61,118.41L508.98,118.41L514.35,118.41L519.71,118.41L525.08,118.41L530.45,118.41L535.82,118.41L541.18,118.41L546.55,118.41L551.92,118.41L557.28,118.41L562.65,118.41L568.02,118.41L573.38,118.41L578.75,118.41" style="fill:none;stroke:#74859D;stroke-width:2" />
<path d="M559.75,417.19L579.75,417.19" style="fill:none;stroke:#FD8F00;stroke-width:2" />
<text x="483.7" y="-414.36" transform="scale(1, -1)"
	style="font-family:Liberation Sans;font-variant:normal;font-weight:normal;font-style:normal;font-size:12px;fill:#191B22">Cond_0_Rew</text>
<path d="M559.75,406.72L579.75,406.72" style="fill:none;stroke:#AC8AFF;stroke-width:2" />
<text x="458.35" y="-403.89" transform="scale(1, -1)"
	style="font-family:Liberation Sans;font-variant:normal;font-weight:normal;font-style:normal;font-size:12px;fill:#191B22">Cond_0_RewPred</text>
<path d="M559.75,396.25L579.75,396.25" style="fill:none;stroke:#FFB4AB;stroke-width:2" />
<text x="491.04" y="-393.42" transform="scale(1, -1)"
	style="font-family:Liberation Sans;font-variant:normal;font-weight:normal;font-style:normal;font-size:12px;fill:#191B22">Cond_0_DA</text>
<path d="M559.75,385.78L579.75,385.78" style="fill:none;stroke:#00E563;stroke-width:2" />
<text x="467.03" y="-382.95" transform="scale(1, -1)"
	style="font-family:Liberation Sans;font-variant:normal;font-weight:normal;font-style:normal;font-size:12px;fill:#191B22">Cond_0_DA_NR</text>
<path d="M559.75,375.31L579.75,375.31" style="fill:none;stroke:#E9D700;stroke-width:2" />
<text x="483.7" y="-372.48" transform="scale(1, -1)"
	style="font-family:Liberation Sans;font-variant:normal;font-weight:normal;font-style:normal;font-size:12px;fill:#191B22">Cond_1_Rew</text>
<path d="M559.75,364.84L579.75,364.84" style="fill:none;stroke:#FFACE7;stroke-width:2" />
<text x="458.35" y="-362.01" transform="scale(1, -1)"
	style="font-family:Liberation Sans;font-variant:normal;font-weight:normal;font-style:normal;font-size:12px;fill:#191B22">Cond_1_RewPred</text>
<path d="M559.75,354.37L579.75,354.37" style="fill:none;stroke:#00DAF1;stroke-width:2" />
<text x="491.04" y="-351.54" transform="scale(1, -1)"
	style="font-family:Liberation Sans;font-variant:normal;font-weight:normal;font-style:normal;font-size:12px;fill:#191B22">Cond_1_DA</text>
<path d="M559.75,343.9L579.75,343.9" style="fill:none;stroke:#D0BCFF;stroke-width:2" />
<text x="467.03" y="-341.07" transform="scale(1, -1)"
	style="font-family:Liberation Sans;font-variant:normal;font-weight:normal;font-style:normal;font-size:12px;fill:#191B22">Cond_1_DA_NR</text>
<path d="M559.75,333.42L579.75,333.42" style="fill:none;stroke:#D01F1F;stroke-width:2" />
<text x="483.7" y="-330.6" transform="scale(1, -1)"
	style="font-family:Liberation Sans;font-variant:normal;font-weight:normal;font-style:normal;font-size:12px;fill:#191B22">Cond_2_Rew</text>
<path d="M559.75,322.95L579.75,322.95" style="fill:none;stroke:#005592;stroke-width:2" />
<text x="458.35" y="-320.13" transform="scale(1, -1)"
	style="font-family:Liberation Sans;font-variant:normal;font-weight:normal;font-style:normal;font-size:12px;fill:#191B22">Cond_2_RewPred</text>
<path d="M559.75,312.48L579.75,312.48" style="fill:none;stroke:#007C32;stroke-width:2" />
<text x="491.04" y="-309.66" transform="scale(1, -1)"
	style="font-family:Liberation Sans;font-variant:normal;font-weight:normal;font-style:normal;font-size:12px;fill:#191B22">Cond_2_DA</text>
<path d="M559.75,302.01L579.75,302.01" style="fill:none;stroke:#C200AD;stroke-width:2" />
<text x="467.03" y="-299.19" transform="scale(1, -1)"
	style="font-family:Liberation Sans;font-variant:normal;font-weight:normal;font-style:normal;font-size:12px;fill:#191B22">Cond_2_DA_NR</text>
<path d="M559.75,291.54L579.75,291.54" style="fill:none;stroke:#007683;stroke-width:2" />
<text x="483.7" y="-288.71" transform="scale(1, -1)"
	style="font-family:Liberation Sans;font-variant:normal;font-weight:normal;font-style:normal;font-size:12px;fill:#191B22">Cond_3_Rew</text>
<path d="M559.75,281.07L579.75,281.07" style="fill:none;stroke:#B26300;stroke-width:2" />
<text x="458.35" y="-278.24" transform="scale(1, -1)"
	style="font-family:Liberation Sans;font-variant:normal;font-weight:normal;font-style:normal;font-size:12px;fill:#191B22">Cond_3_RewPred</text>
<path d="M559.75,270.6L579.75,270.6" style="fill:none;stroke:#7D39FF;stroke-width:2" />
<text x="491.04" y="-267.77" transform="scale(1, -1)"
	style="font-family:Liberation Sans;font-variant:normal;font-weight:normal;font-style:normal;font-size:12px;fill:#191B22">Cond_3_DA</text>
<path d="M559.75,260.13L579.75,260.13" style="fill:none;stroke:#74859D;stroke-width:2" />
<text x="467.03" y="-257.3" transform="scale(1, -1)"
	style="font-family:Liberation Sans;font-variant:normal;font-weight:normal;font-style:normal;font-size:12px;fill:#191B22">Cond_3_DA_NR</text>
</g>
</svg>
