<?xml version="1.0"?>
<!-- Generated by SVGo and Plotinum VG -->
<svg width="552.38pt" height="487.12pt" viewBox="0 0 552.38 487.12"
	xmlns="http://www.w3.org/2000/svg"
	xmlns:xlink="http://www.w3.org/1999/xlink">
<g transform="scale(1, -1) translate(0, -487.12)">
<path d="M0,0L552.38,0L552.38,487.12L0,487.12Z" style="fill:#FAF8FD" />
<text x="215.93" y="-477.4" transform="scale(1, -1)"
	style="font-family:Liberation Sans;font-variant:normal;font-weight:normal;font-style:normal;font-size:12px;fill:#191B22">PCore Test Epoch Plot</text>
<text x="282.39" y="-3.6797" transform="scale(1, -1)"
	style="font-family:Liberation Sans;font-variant:normal;font-weight:normal;font-style:normal;font-size:12px;fill:#191B22">Epoch</text>
<text x="37.703" y="-16.473" transform="scale(1, -1)"
	style="font-family:Liberation Sans;font-variant:normal;font-weight:normal;font-style:normal;font-size:10px;fill:#191B22">0.00</text>
<text x="469.35" y="-16.473" transform="scale(1, -1)"
	style="font-family:Liberation Sans;font-variant:normal;font-weight:normal;font-style:normal;font-size:10px;fill:#191B22">25.00</text>
<path d="M47.435,24.578L47.435,32.578" style="fill:none;stroke:#191B22;stroke-width:0.5" />
<path d="M481.87,24.578L481.87,32.578" style="fill:none;stroke:#191B22;stroke-width:0.5" />
<path d="M134.32,28.578L134.32,32.578" style="fill:none;stroke:#191B22;stroke-width:0.5" />
<path d="M221.21,28.578L221.21,32.578" style="fill:none;stroke:#191B22;stroke-width:0.5" />
<path d="M308.09,28.578L308.09,32.578" style="fill:none;stroke:#191B22;stroke-width:0.5" />
<path d="M394.98,28.578L394.98,32.578" style="fill:none;stroke:#191B22;stroke-width:0.5" />
<path d="M47.435,32.578L551.38,32.578" style="fill:none;stroke:#191B22;stroke-width:0.5" />
<g transform="rotate(90)">
<text x="240.2" y="9.7266" transform="scale(1, -1)"
	style="font-family:Liberation Sans;font-variant:normal;font-weight:normal;font-style:normal;font-size:12px;fill:#191B22">Gated</text>
</g>
<text x="15.949" y="-37.852" transform="scale(1, -1)"
	style="font-family:Liberation Sans;font-variant:normal;font-weight:normal;font-style:normal;font-size:10px;fill:#191B22">0.0</text>
<text x="15.949" y="-169.61" transform="scale(1, -1)"
	style="font-family:Liberation Sans;font-variant:normal;font-weight:normal;font-style:normal;font-size:10px;fill:#191B22">0.3</text>
<text x="15.949" y="-301.38" transform="scale(1, -1)"
	style="font-family:Liberation Sans;font-variant:normal;font-weight:normal;font-style:normal;font-size:10px;fill:#191B22">0.6</text>
<text x="15.949" y="-433.14" transform="scale(1, -1)"
	style="font-family:Liberation Sans;font-variant:normal;font-weight:normal;font-style:normal;font-size:10px;fill:#191B22">0.9</text>
<path d="M32.629,40.371L40.629,40.371" style="fill:none;stroke:#191B22;stroke-width:0.5" />
<path d="M32.629,172.13L40.629,172.13" style="fill:none;stroke:#191B22;stroke-width:0.5" />
<path d="M32.629,303.9L40.629,303.9" style="fill:none;stroke:#191B22;stroke-width:0.5" />
<path d="M32.629,435.66L40.629,435.66" style="fill:none;stroke:#191B22;stroke-width:0.5" />
<path d="M36.629,84.292L40.629,84.292" style="fill:none;stroke:#191B22;stroke-width:0.5" />
<path d="M36.629,128.21L40.629,128.21" style="fill:none;stroke:#191B22;stroke-width:0.5" />
<path d="M36.629,216.06L40.629,216.06" style="fill:none;stroke:#191B22;stroke-width:0.5" />
<path d="M36.629,259.98L40.629,259.98" style="fill:none;stroke:#191B22;stroke-width:0.5" />
<path d="M36.629,347.82L40.629,347.82" style="fill:none;stroke:#191B22;stroke-width:0.5" />
<path d="M36.629,391.74L40.629,391.74" style="fill:none;stroke:#191B22;stroke-width:0.5" />
<path d="M40.629,40.371L40.629,472.72" style="fill:none;stroke:#191B22;stroke-width:0.5" />
<path d="M47.435,119.29L64.812,119.29L82.189,160.47L99.566,184.49L116.94,215.37L134.32,187.92L151.7,225.66L169.08,253.11L186.45,290.86L203.83,273.7L221.21,280.56L238.58,239.39L255.96,256.54L273.34,266.84L290.72,239.39L308.09,280.56L325.47,239.39L342.85,280.56L360.23,253.11L377.6,256.54L394.98,270.27L412.36,304.58L429.73,263.41L447.11,263.41L464.49,246.25L481.87,225.66L499.24,259.98L516.62,273.7L534,263.41L551.38,232.53" style="fill:none;stroke:#00B64D;stroke-width:2" />
<path d="M47.435,222.23L64.812,266.84L82.189,249.68L99.566,263.41L116.94,287.43L134.32,249.68L151.7,266.84L169.08,270.27L186.45,284L203.83,273.7L221.21,253.11L238.58,256.54L255.96,263.41L273.34,277.13L290.72,235.96L308.09,280.56L325.47,239.39L342.85,246.25L360.23,253.11L377.6,246.25L394.98,273.7L412.36,301.15L429.73,253.11L447.11,256.54L464.49,246.25L481.87,211.94L499.24,253.11L516.62,280.56L534,249.68L551.38,235.96" style="fill:none;stroke:#BCAE00;stroke-width:2" />
<path d="M47.435,328.6L64.812,325.17L82.189,376.64L99.566,366.35L116.94,393.8L134.32,376.64L151.7,417.82L169.08,400.66L186.45,458.99L203.83,452.13L221.21,417.82L238.58,434.97L255.96,458.99L273.34,434.97L290.72,448.7L308.09,452.13L325.47,452.13L342.85,431.54L360.23,472.72L377.6,455.56L394.98,448.7L412.36,448.7L429.73,448.7L447.11,452.13L464.49,465.86L481.87,445.27L499.24,458.99L516.62,445.27L534,452.13L551.38,448.7" style="fill:none;stroke:#FF5AE2;stroke-width:2" />
<path d="M47.435,71.253L64.812,112.43L82.189,146.74L99.566,150.17L116.94,201.64L134.32,146.74L151.7,205.07L169.08,191.35L186.45,263.41L203.83,246.25L221.21,191.35L238.58,211.94L255.96,242.82L273.34,232.53L290.72,205.07L308.09,253.11L325.47,211.94L342.85,198.21L360.23,246.25L377.6,222.23L394.98,242.82L412.36,270.27L429.73,222.23L447.11,229.09L464.49,232.53L481.87,177.62L499.24,232.53L516.62,246.25L534,222.23L551.38,205.07" style="fill:none;stroke:#FFB4AB;stroke-width:2" />
<path d="M532.38,465.94L552.38,465.94" style="fill:none;stroke:#00B64D;stroke-width:2" />
<text x="496.35" y="-463.11" transform="scale(1, -1)"
	style="font-family:Liberation Sans;font-variant:normal;font-weight:normal;font-style:normal;font-size:12px;fill:#191B22">Gated</text>
<path d="M532.38,455.47L552.38,455.47" style="fill:none;stroke:#BCAE00;stroke-width:2" />
<text x="491.68" y="-452.64" transform="scale(1, -1)"
	style="font-family:Liberation Sans;font-variant:normal;font-weight:normal;font-style:normal;font-size:12px;fill:#191B22">Should</text>
<path d="M532.38,445L552.38,445" style="fill:none;stroke:#FF5AE2;stroke-width:2" />
<text x="496.36" y="-442.17" transform="scale(1, -1)"
	style="font-family:Liberation Sans;font-variant:normal;font-weight:normal;font-style:normal;font-size:12px;fill:#191B22">Match</text>
<path d="M532.38,434.53L552.38,434.53" style="fill:none;stroke:#FFB4AB;stroke-width:2" />
<text x="505.04" y="-431.7" transform="scale(1, -1)"
	style="font-family:Liberation Sans;font-variant:normal;font-weight:normal;font-style:normal;font-size:12px;fill:#191B22">Rew</text>
</g>
</svg>
