<?xml version="1.0"?>
<!-- Generated by SVGo and Plotinum VG -->
<svg width="645.38pt" height="411pt" viewBox="0 0 645.38 411"
	xmlns="http://www.w3.org/2000/svg"
	xmlns:xlink="http://www.w3.org/1999/xlink">
<g transform="scale(1, -1) translate(0, -411)">
<path d="M0,0L645.38,0L645.38,411L0,411Z" style="fill:#FAF8FD" />
<text x="262.43" y="-401.27" transform="scale(1, -1)"
	style="font-family:Liberation Sans;font-variant:normal;font-weight:normal;font-style:normal;font-size:12px;fill:#191B22">PCore Test Epoch Plot</text>
<text x="328.89" y="-3.6797" transform="scale(1, -1)"
	style="font-family:Liberation Sans;font-variant:normal;font-weight:normal;font-style:normal;font-size:12px;fill:#191B22">Epoch</text>
<text x="37.703" y="-16.473" transform="scale(1, -1)"
	style="font-family:Liberation Sans;font-variant:normal;font-weight:normal;font-style:normal;font-size:10px;fill:#191B22">0.00</text>
<text x="549.53" y="-16.473" transform="scale(1, -1)"
	style="font-family:Liberation Sans;font-variant:normal;font-weight:normal;font-style:normal;font-size:10px;fill:#191B22">25.00</text>
<path d="M47.435,24.578L47.435,32.578" style="fill:none;stroke:#191B22;stroke-width:0.5" />
<path d="M562.04,24.578L562.04,32.578" style="fill:none;stroke:#191B22;stroke-width:0.5" />
<path d="M150.36,28.578L150.36,32.578" style="fill:none;stroke:#191B22;stroke-width:0.5" />
<path d="M253.28,28.578L253.28,32.578" style="fill:none;stroke:#191B22;stroke-width:0.5" />
<path d="M356.2,28.578L356.2,32.578" style="fill:none;stroke:#191B22;stroke-width:0.5" />
<path d="M459.12,28.578L459.12,32.578" style="fill:none;stroke:#191B22;stroke-width:0.5" />
<path d="M47.435,32.578L644.38,32.578" style="fill:none;stroke:#191B22;stroke-width:0.5" />
<g transform="rotate(90)">
<text x="202.14" y="9.7266" transform="scale(1, -1)"
	style="font-family:Liberation Sans;font-variant:normal;font-weight:normal;font-style:normal;font-size:12px;fill:#191B22">Gated</text>
</g>
<text x="15.949" y="-37.852" transform="scale(1, -1)"
	style="font-family:Liberation Sans;font-variant:normal;font-weight:normal;font-style:normal;font-size:10px;fill:#191B22">0.0</text>
<text x="15.949" y="-148.17" transform="scale(1, -1)"
	style="font-family:Liberation Sans;font-variant:normal;font-weight:normal;font-style:normal;font-size:10px;fill:#191B22">0.3</text>
<text x="15.949" y="-258.48" transform="scale(1, -1)"
	style="font-family:Liberation Sans;font-variant:normal;font-weight:normal;font-style:normal;font-size:10px;fill:#191B22">0.6</text>
<text x="15.949" y="-368.79" transform="scale(1, -1)"
	style="font-family:Liberation Sans;font-variant:normal;font-weight:normal;font-style:normal;font-size:10px;fill:#191B22">0.9</text>
<path d="M32.629,40.371L40.629,40.371" style="fill:none;stroke:#191B22;stroke-width:0.5" />
<path d="M32.629,150.69L40.629,150.69" style="fill:none;stroke:#191B22;stroke-width:0.5" />
<path d="M32.629,261L40.629,261" style="fill:none;stroke:#191B22;stroke-width:0.5" />
<path d="M32.629,371.31L40.629,371.31" style="fill:none;stroke:#191B22;stroke-width:0.5" />
<path d="M36.629,77.142L40.629,77.142" style="fill:none;stroke:#191B22;stroke-width:0.5" />
<path d="M36.629,113.91L40.629,113.91" style="fill:none;stroke:#191B22;stroke-width:0.5" />
<path d="M36.629,187.46L40.629,187.46" style="fill:none;stroke:#191B22;stroke-width:0.5" />
<path d="M36.629,224.23L40.629,224.23" style="fill:none;stroke:#191B22;stroke-width:0.5" />
<path d="M36.629,297.77L40.629,297.77" style="fill:none;stroke:#191B22;stroke-width:0.5" />
<path d="M36.629,334.54L40.629,334.54" style="fill:none;stroke:#191B22;stroke-width:0.5" />
<path d="M40.629,40.371L40.629,396.59" style="fill:none;stroke:#191B22;stroke-width:0.5" />
<path d="M47.435,135.17L68.019,146.66L88.603,178.26L109.19,215.61L129.77,235.72L150.36,201.25L170.94,204.12L191.52,212.74L212.11,247.21L232.69,232.85L253.28,238.59L273.86,212.74L294.44,224.23L315.03,235.72L335.61,218.48L356.2,238.59L376.78,204.12L397.37,227.1L417.95,218.48L438.53,215.61L459.12,229.97L479.7,261.57L500.29,221.36L520.87,224.23L541.45,209.86L562.04,192.63L582.62,224.23L603.21,232.85L623.79,224.23L644.38,198.37" style="fill:none;stroke:#00B64D;stroke-width:2" />
<path d="M47.435,192.63L68.019,229.97L88.603,215.61L109.19,227.1L129.77,247.21L150.36,215.61L170.94,229.97L191.52,232.85L212.11,244.34L232.69,235.72L253.28,218.48L273.86,221.36L294.44,227.1L315.03,238.59L335.61,204.12L356.2,241.46L376.78,206.99L397.37,212.74L417.95,218.48L438.53,212.74L459.12,235.72L479.7,258.7L500.29,218.48L520.87,221.36L541.45,212.74L562.04,184.01L582.62,218.48L603.21,241.46L623.79,215.61L644.38,204.12" style="fill:none;stroke:#BCAE00;stroke-width:2" />
<path d="M47.435,310.41L68.019,313.28L88.603,336.27L109.19,362.12L129.77,362.12L150.36,359.25L170.94,347.76L191.52,353.5L212.11,387.98L232.69,387.98L253.28,359.25L273.86,376.48L294.44,387.98L315.03,370.74L335.61,382.23L356.2,387.98L376.78,387.98L397.37,382.23L417.95,396.59L438.53,382.23L459.12,396.59L479.7,376.48L500.29,382.23L520.87,382.23L541.45,393.72L562.04,382.23L582.62,390.85L603.21,382.23L623.79,387.98L644.38,385.1" style="fill:none;stroke:#FF5AE2;stroke-width:2" />
<path d="M47.435,94.954L68.019,135.17L88.603,143.79L109.19,181.14L129.77,201.25L150.36,166.77L170.94,169.65L191.52,178.26L212.11,224.23L232.69,215.61L253.28,169.65L273.86,189.75L294.44,206.99L315.03,201.25L335.61,178.26L356.2,221.36L376.78,186.88L397.37,186.88L417.95,206.99L438.53,186.88L459.12,224.23L479.7,227.1L500.29,192.63L520.87,195.5L541.45,198.37L562.04,158.15L582.62,201.25L603.21,215.61L623.79,195.5L644.38,181.14" style="fill:none;stroke:#FFB4AB;stroke-width:2" />
<path d="M625.38,389.82L645.38,389.82" style="fill:none;stroke:#00B64D;stroke-width:2" />
<text x="589.35" y="-386.99" transform="scale(1, -1)"
	style="font-family:Liberation Sans;font-variant:normal;font-weight:normal;font-style:normal;font-size:12px;fill:#191B22">Gated</text>
<path d="M625.38,379.34L645.38,379.34" style="fill:none;stroke:#BCAE00;stroke-width:2" />
<text x="584.68" y="-376.52" transform="scale(1, -1)"
	style="font-family:Liberation Sans;font-variant:normal;font-weight:normal;font-style:normal;font-size:12px;fill:#191B22">Should</text>
<path d="M625.38,368.87L645.38,368.87" style="fill:none;stroke:#FF5AE2;stroke-width:2" />
<text x="589.36" y="-366.05" transform="scale(1, -1)"
	style="font-family:Liberation Sans;font-variant:normal;font-weight:normal;font-style:normal;font-size:12px;fill:#191B22">Match</text>
<path d="M625.38,358.4L645.38,358.4" style="fill:none;stroke:#FFB4AB;stroke-width:2" />
<text x="598.04" y="-355.58" transform="scale(1, -1)"
	style="font-family:Liberation Sans;font-variant:normal;font-weight:normal;font-style:normal;font-size:12px;fill:#191B22">Rew</text>
</g>
</svg>
