<?xml version="1.0"?>
<!-- Generated by SVGo and Plotinum VG -->
<svg width="529.12pt" height="519pt" viewBox="0 0 529.12 519"
	xmlns="http://www.w3.org/2000/svg"
	xmlns:xlink="http://www.w3.org/1999/xlink">
<g transform="scale(1, -1) translate(0, -519)">
<path d="M0,0L529.12,0L529.12,519L0,519Z" style="fill:#FAF8FD" />
<text x="194.64" y="-509.27" transform="scale(1, -1)"
	style="font-family:Liberation Sans;font-variant:normal;font-weight:normal;font-style:normal;font-size:12px;fill:#191B22">PCore VS Test Epoch Plot</text>
<text x="270.77" y="-3.6797" transform="scale(1, -1)"
	style="font-family:Liberation Sans;font-variant:normal;font-weight:normal;font-style:normal;font-size:12px;fill:#191B22">Epoch</text>
<text x="37.703" y="-16.473" transform="scale(1, -1)"
	style="font-family:Liberation Sans;font-variant:normal;font-weight:normal;font-style:normal;font-size:10px;fill:#191B22">0.00</text>
<text x="449.31" y="-16.473" transform="scale(1, -1)"
	style="font-family:Liberation Sans;font-variant:normal;font-weight:normal;font-style:normal;font-size:10px;fill:#191B22">25.00</text>
<path d="M47.435,24.578L47.435,32.578" style="fill:none;stroke:#191B22;stroke-width:0.5" />
<path d="M461.82,24.578L461.82,32.578" style="fill:none;stroke:#191B22;stroke-width:0.5" />
<path d="M130.31,28.578L130.31,32.578" style="fill:none;stroke:#191B22;stroke-width:0.5" />
<path d="M213.19,28.578L213.19,32.578" style="fill:none;stroke:#191B22;stroke-width:0.5" />
<path d="M296.07,28.578L296.07,32.578" style="fill:none;stroke:#191B22;stroke-width:0.5" />
<path d="M378.95,28.578L378.95,32.578" style="fill:none;stroke:#191B22;stroke-width:0.5" />
<path d="M47.435,32.578L528.12,32.578" style="fill:none;stroke:#191B22;stroke-width:0.5" />
<g transform="rotate(90)">
<text x="256.14" y="9.7266" transform="scale(1, -1)"
	style="font-family:Liberation Sans;font-variant:normal;font-weight:normal;font-style:normal;font-size:12px;fill:#191B22">Gated</text>
</g>
<text x="15.949" y="-37.852" transform="scale(1, -1)"
	style="font-family:Liberation Sans;font-variant:normal;font-weight:normal;font-style:normal;font-size:10px;fill:#191B22">0.0</text>
<text x="15.949" y="-179.33" transform="scale(1, -1)"
	style="font-family:Liberation Sans;font-variant:normal;font-weight:normal;font-style:normal;font-size:10px;fill:#191B22">0.3</text>
<text x="15.949" y="-320.81" transform="scale(1, -1)"
	style="font-family:Liberation Sans;font-variant:normal;font-weight:normal;font-style:normal;font-size:10px;fill:#191B22">0.6</text>
<text x="15.949" y="-462.28" transform="scale(1, -1)"
	style="font-family:Liberation Sans;font-variant:normal;font-weight:normal;font-style:normal;font-size:10px;fill:#191B22">0.9</text>
<path d="M32.629,40.371L40.629,40.371" style="fill:none;stroke:#191B22;stroke-width:0.5" />
<path d="M32.629,181.85L40.629,181.85" style="fill:none;stroke:#191B22;stroke-width:0.5" />
<path d="M32.629,323.33L40.629,323.33" style="fill:none;stroke:#191B22;stroke-width:0.5" />
<path d="M32.629,464.8L40.629,464.8" style="fill:none;stroke:#191B22;stroke-width:0.5" />
<path d="M36.629,87.53L40.629,87.53" style="fill:none;stroke:#191B22;stroke-width:0.5" />
<path d="M36.629,134.69L40.629,134.69" style="fill:none;stroke:#191B22;stroke-width:0.5" />
<path d="M36.629,229.01L40.629,229.01" style="fill:none;stroke:#191B22;stroke-width:0.5" />
<path d="M36.629,276.17L40.629,276.17" style="fill:none;stroke:#191B22;stroke-width:0.5" />
<path d="M36.629,370.48L40.629,370.48" style="fill:none;stroke:#191B22;stroke-width:0.5" />
<path d="M36.629,417.64L40.629,417.64" style="fill:none;stroke:#191B22;stroke-width:0.5" />
<path d="M40.629,40.371L40.629,504.59" style="fill:none;stroke:#191B22;stroke-width:0.5" />
<path d="M47.435,136.16L64.01,136.16L80.586,180.37L97.161,235.64L113.74,276.17L130.31,239.32L146.89,257.75L163.46,250.38L180.04,279.85L196.61,272.48L213.19,287.22L229.77,254.06L246.34,279.85L262.92,276.17L279.49,257.75L296.07,298.27L312.64,265.11L329.22,265.11L345.79,261.43L362.37,272.48L378.95,283.54L395.52,324.06L412.1,279.85L428.67,279.85L445.25,250.38L461.82,239.32L478.4,276.17L494.97,290.9L511.55,279.85L528.12,246.69" style="fill:none;stroke:#00B64D;stroke-width:2" />
<path d="M47.435,235.64L64.01,283.54L80.586,265.11L97.161,279.85L113.74,305.64L130.31,265.11L146.89,283.54L163.46,287.22L180.04,301.96L196.61,290.9L213.19,268.8L229.77,272.48L246.34,279.85L262.92,294.59L279.49,250.38L296.07,298.27L312.64,254.06L329.22,261.43L345.79,268.8L362.37,261.43L378.95,290.9L395.52,320.38L412.1,268.8L428.67,272.48L445.25,261.43L461.82,224.59L478.4,268.8L494.97,298.27L511.55,265.11L528.12,250.38" style="fill:none;stroke:#BCAE00;stroke-width:2" />
<path d="M47.435,353.54L64.01,349.85L80.586,412.49L97.161,438.28L113.74,460.38L130.31,441.96L146.89,441.96L163.46,416.17L180.04,475.12L196.61,471.43L213.19,471.43L229.77,471.43L246.34,482.49L262.92,456.7L279.49,482.49L296.07,504.59L312.64,478.8L329.22,464.07L345.79,497.23L362.37,486.17L378.95,504.59L395.52,486.17L412.1,478.8L428.67,489.86L445.25,500.91L461.82,475.12L478.4,475.12L494.97,489.86L511.55,482.49L528.12,493.54" style="fill:none;stroke:#FF5AE2;stroke-width:2" />
<path d="M47.435,77.214L64.01,121.43L80.586,165.64L97.161,206.16L113.74,254.06L130.31,195.11L146.89,213.53L163.46,191.43L180.04,265.11L196.61,250.38L213.19,228.27L229.77,231.96L246.34,250.38L262.92,239.32L279.49,220.9L296.07,290.9L312.64,220.9L329.22,213.53L345.79,254.06L362.37,235.64L378.95,283.54L395.52,294.59L412.1,235.64L428.67,250.38L445.25,250.38L461.82,187.74L478.4,231.96L494.97,276.17L511.55,235.64L528.12,231.96" style="fill:none;stroke:#FFB4AB;stroke-width:2" />
<path d="M509.12,497.82L529.12,497.82" style="fill:none;stroke:#00B64D;stroke-width:2" />
<text x="473.1" y="-494.99" transform="scale(1, -1)"
	style="font-family:Liberation Sans;font-variant:normal;font-weight:normal;font-style:normal;font-size:12px;fill:#191B22">Gated</text>
<path d="M509.12,487.34L529.12,487.34" style="fill:none;stroke:#BCAE00;stroke-width:2" />
<text x="468.43" y="-484.52" transform="scale(1, -1)"
	style="font-family:Liberation Sans;font-variant:normal;font-weight:normal;font-style:normal;font-size:12px;fill:#191B22">Should</text>
<path d="M509.12,476.87L529.12,476.87" style="fill:none;stroke:#FF5AE2;stroke-width:2" />
<text x="473.11" y="-474.05" transform="scale(1, -1)"
	style="font-family:Liberation Sans;font-variant:normal;font-weight:normal;font-style:normal;font-size:12px;fill:#191B22">Match</text>
<path d="M509.12,466.4L529.12,466.4" style="fill:none;stroke:#FFB4AB;stroke-width:2" />
<text x="481.79" y="-463.58" transform="scale(1, -1)"
	style="font-family:Liberation Sans;font-variant:normal;font-weight:normal;font-style:normal;font-size:12px;fill:#191B22">Rew</text>
</g>
</svg>
