<?xml version="1.0"?>
<!-- Generated by SVGo and Plotinum VG -->
<svg width="455.62pt" height="406.12pt" viewBox="0 0 455.62 406.12"
	xmlns="http://www.w3.org/2000/svg"
	xmlns:xlink="http://www.w3.org/1999/xlink">
<g transform="scale(1, -1) translate(0, -406.12)">
<text x="168.23" y="-396.4" transform="scale(1, -1)"
	style="font-family:Liberation Sans;font-variant:normal;font-weight:normal;font-style:normal;font-size:12px">mAHP V Function Plot</text>
<text x="247.03" y="-3.6797" transform="scale(1, -1)"
	style="font-family:Liberation Sans;font-variant:normal;font-weight:normal;font-style:normal;font-size:12px">V</text>
<text x="80.333" y="-16.473" transform="scale(1, -1)"
	style="font-family:Liberation Sans;font-variant:normal;font-weight:normal;font-style:normal;font-size:10px">-80</text>
<text x="249.28" y="-16.473" transform="scale(1, -1)"
	style="font-family:Liberation Sans;font-variant:normal;font-weight:normal;font-style:normal;font-size:10px">0</text>
<text x="411" y="-16.473" transform="scale(1, -1)"
	style="font-family:Liberation Sans;font-variant:normal;font-weight:normal;font-style:normal;font-size:10px">80</text>
<path d="M87.559,24.578L87.559,32.578" style="fill:none;stroke:#000000;stroke-width:0.5" />
<path d="M252.06,24.578L252.06,32.578" style="fill:none;stroke:#000000;stroke-width:0.5" />
<path d="M416.56,24.578L416.56,32.578" style="fill:none;stroke:#000000;stroke-width:0.5" />
<path d="M169.81,28.578L169.81,32.578" style="fill:none;stroke:#000000;stroke-width:0.5" />
<path d="M334.31,28.578L334.31,32.578" style="fill:none;stroke:#000000;stroke-width:0.5" />
<path d="M46.435,32.578L455.62,32.578" style="fill:none;stroke:#000000;stroke-width:0.5" />
<g transform="rotate(90)">
<text x="203.08" y="9.7266" transform="scale(1, -1)"
	style="font-family:Liberation Sans;font-variant:normal;font-weight:normal;font-style:normal;font-size:12px">Ninf</text>
</g>
<text x="15.949" y="-37.852" transform="scale(1, -1)"
	style="font-family:Liberation Sans;font-variant:normal;font-weight:normal;font-style:normal;font-size:10px">0.0</text>
<text x="15.949" y="-211.23" transform="scale(1, -1)"
	style="font-family:Liberation Sans;font-variant:normal;font-weight:normal;font-style:normal;font-size:10px">0.5</text>
<text x="15.949" y="-384.61" transform="scale(1, -1)"
	style="font-family:Liberation Sans;font-variant:normal;font-weight:normal;font-style:normal;font-size:10px">1.0</text>
<path d="M32.629,40.371L40.629,40.371" style="fill:none;stroke:#000000;stroke-width:0.5" />
<path d="M32.629,213.75L40.629,213.75" style="fill:none;stroke:#000000;stroke-width:0.5" />
<path d="M32.629,387.13L40.629,387.13" style="fill:none;stroke:#000000;stroke-width:0.5" />
<path d="M36.629,75.047L40.629,75.047" style="fill:none;stroke:#000000;stroke-width:0.5" />
<path d="M36.629,109.72L40.629,109.72" style="fill:none;stroke:#000000;stroke-width:0.5" />
<path d="M36.629,144.4L40.629,144.4" style="fill:none;stroke:#000000;stroke-width:0.5" />
<path d="M36.629,179.08L40.629,179.08" style="fill:none;stroke:#000000;stroke-width:0.5" />
<path d="M36.629,248.43L40.629,248.43" style="fill:none;stroke:#000000;stroke-width:0.5" />
<path d="M36.629,283.1L40.629,283.1" style="fill:none;stroke:#000000;stroke-width:0.5" />
<path d="M36.629,317.78L40.629,317.78" style="fill:none;stroke:#000000;stroke-width:0.5" />
<path d="M36.629,352.46L40.629,352.46" style="fill:none;stroke:#000000;stroke-width:0.5" />
<path d="M40.629,40.371L40.629,387.13" style="fill:none;stroke:#000000;stroke-width:0.5" />
<path d="M46.435,40.516L48.491,40.533L50.547,40.552L52.603,40.574L54.66,40.598L56.716,40.624L58.772,40.654L60.828,40.687L62.884,40.724L64.941,40.766L66.997,40.812L69.053,40.864L71.109,40.921L73.166,40.986L75.222,41.058L77.278,41.139L79.334,41.229L81.391,41.329L83.447,41.441L85.503,41.567L87.559,41.706L89.615,41.863L91.672,42.037L93.728,42.232L95.784,42.449L97.84,42.692L99.897,42.963L101.95,43.265L104.01,43.602L106.07,43.977L108.12,44.396L110.18,44.863L112.23,45.383L114.29,45.963L116.35,46.608L118.4,47.326L120.46,48.125L122.52,49.014L124.57,50.001L126.63,51.098L128.68,52.315L130.74,53.665L132.8,55.161L134.85,56.817L136.91,58.647L138.97,60.669L141.02,62.9L143.08,65.357L145.13,68.059L147.19,71.025L149.25,74.275L151.3,77.829L153.36,81.706L155.41,85.926L157.47,90.505L159.53,95.461L161.58,100.81L163.64,106.55L165.7,112.71L167.75,119.28L169.81,126.25L171.86,133.63L173.92,141.4L175.98,149.53L178.03,158.01L180.09,166.79L182.15,175.85L184.2,185.12L186.26,194.57L188.31,204.13L190.37,214.06L192.43,223.37L194.48,232.94L196.54,242.38L198.6,251.66L200.65,260.71L202.71,269.5L204.76,277.97L206.82,286.11L208.88,293.87L210.93,301.25L212.99,308.23L215.05,314.8L217.1,320.95L219.16,326.7L221.21,332.04L223.27,337L225.33,341.58L227.38,345.8L229.44,349.68L231.5,353.23L233.55,356.48L235.61,359.45L237.66,362.15L239.72,364.6L241.78,366.83L243.83,368.86L245.89,370.69L247.95,372.34L250,373.84L252.06,375.19L254.11,376.41L256.17,377.5L258.23,378.49L260.28,379.38L262.34,380.18L264.4,380.9L266.45,381.54L268.51,382.12L270.56,382.64L272.62,383.11L274.68,383.53L276.73,383.9L278.79,384.24L280.85,384.54L282.9,384.81L284.96,385.05L287.01,385.27L289.07,385.47L291.13,385.64L293.18,385.8L295.24,385.94L297.3,386.06L299.35,386.17L301.41,386.28L303.46,386.37L305.52,386.45L307.58,386.52L309.63,386.58L311.69,386.64L313.74,386.69L315.8,386.74L317.86,386.78L319.91,386.82L321.97,386.85L324.03,386.88L326.08,386.91L328.14,386.93L330.19,386.95L332.25,386.97L334.31,386.99L336.36,387L338.42,387.02L340.48,387.03L342.53,387.04L344.59,387.05L346.64,387.06L348.7,387.07L350.76,387.07L352.81,387.08L354.87,387.08L356.93,387.09L358.98,387.09L361.04,387.1L363.09,387.1L365.15,387.11L367.21,387.11L369.26,387.11L371.32,387.11L373.38,387.12L375.43,387.12L377.49,387.12L379.54,387.12L381.6,387.12L383.66,387.12L385.71,387.12L387.77,387.12L389.83,387.13L391.88,387.13L393.94,387.13L395.99,387.13L398.05,387.13L400.11,387.13L402.16,387.13L404.22,387.13L406.28,387.13L408.33,387.13L410.39,387.13L412.44,387.13L414.5,387.13L416.56,387.13L418.61,387.13L420.67,387.13L422.73,387.13L424.78,387.13L426.84,387.13L428.89,387.13L430.95,387.13L433.01,387.13L435.06,387.13L437.12,387.13L439.18,387.13L441.23,387.13L443.29,387.13L445.34,387.13L447.4,387.13L449.46,387.13L451.51,387.13L453.57,387.13L455.62,387.13" style="fill:none;stroke:#000000" />
<path d="M435.62,384.94L455.62,384.94" style="fill:none;stroke:#000000" />
<text x="410.95" y="-382.11" transform="scale(1, -1)"
	style="font-family:Liberation Sans;font-variant:normal;font-weight:normal;font-style:normal;font-size:12px">Ninf</text>
</g>
</svg>
