<?xml version="1.0"?>
<!-- Generated by SVGo and Plotinum VG -->
<svg width="455.62pt" height="406.12pt" viewBox="0 0 455.62 406.12"
	xmlns="http://www.w3.org/2000/svg"
	xmlns:xlink="http://www.w3.org/1999/xlink">
<g transform="scale(1, -1) translate(0, -406.12)">
<text x="168.23" y="-396.4" transform="scale(1, -1)"
	style="font-family:Liberation Sans;font-variant:normal;font-weight:normal;font-style:normal;font-size:12px">mAHP V Function Plot</text>
<text x="245.64" y="-3.6797" transform="scale(1, -1)"
	style="font-family:Liberation Sans;font-variant:normal;font-weight:normal;font-style:normal;font-size:12px">V</text>
<text x="77.834" y="-16.473" transform="scale(1, -1)"
	style="font-family:Liberation Sans;font-variant:normal;font-weight:normal;font-style:normal;font-size:10px">-80</text>
<text x="247.89" y="-16.473" transform="scale(1, -1)"
	style="font-family:Liberation Sans;font-variant:normal;font-weight:normal;font-style:normal;font-size:10px">0</text>
<text x="410.73" y="-16.473" transform="scale(1, -1)"
	style="font-family:Liberation Sans;font-variant:normal;font-weight:normal;font-style:normal;font-size:10px">80</text>
<path d="M85.06,24.578L85.06,32.578" style="fill:none;stroke:#000000;stroke-width:0.5" />
<path d="M250.68,24.578L250.68,32.578" style="fill:none;stroke:#000000;stroke-width:0.5" />
<path d="M416.29,24.578L416.29,32.578" style="fill:none;stroke:#000000;stroke-width:0.5" />
<path d="M167.87,28.578L167.87,32.578" style="fill:none;stroke:#000000;stroke-width:0.5" />
<path d="M333.48,28.578L333.48,32.578" style="fill:none;stroke:#000000;stroke-width:0.5" />
<path d="M43.656,32.578L455.62,32.578" style="fill:none;stroke:#000000;stroke-width:0.5" />
<g transform="rotate(90)">
<text x="206.87" y="9.7266" transform="scale(1, -1)"
	style="font-family:Liberation Sans;font-variant:normal;font-weight:normal;font-style:normal;font-size:12px">Tau</text>
</g>
<text x="21.511" y="-37.852" transform="scale(1, -1)"
	style="font-family:Liberation Sans;font-variant:normal;font-weight:normal;font-style:normal;font-size:10px">0</text>
<text x="21.511" y="-200.31" transform="scale(1, -1)"
	style="font-family:Liberation Sans;font-variant:normal;font-weight:normal;font-style:normal;font-size:10px">8</text>
<text x="15.949" y="-362.76" transform="scale(1, -1)"
	style="font-family:Liberation Sans;font-variant:normal;font-weight:normal;font-style:normal;font-size:10px">16</text>
<path d="M29.851,40.371L37.851,40.371" style="fill:none;stroke:#000000;stroke-width:0.5" />
<path d="M29.851,202.83L37.851,202.83" style="fill:none;stroke:#000000;stroke-width:0.5" />
<path d="M29.851,365.28L37.851,365.28" style="fill:none;stroke:#000000;stroke-width:0.5" />
<path d="M33.851,121.6L37.851,121.6" style="fill:none;stroke:#000000;stroke-width:0.5" />
<path d="M33.851,284.06L37.851,284.06" style="fill:none;stroke:#000000;stroke-width:0.5" />
<path d="M37.851,40.371L37.851,392.72" style="fill:none;stroke:#000000;stroke-width:0.5" />
<path d="M43.656,130.69L45.726,131.99L47.797,133.32L49.867,134.7L51.937,136.12L54.007,137.57L56.077,139.08L58.148,140.62L60.218,142.22L62.288,143.86L64.358,145.56L66.428,147.31L68.499,149.12L70.569,150.99L72.639,152.91L74.709,154.91L76.779,156.97L78.85,159.1L80.92,161.3L82.99,163.58L85.06,165.95L87.13,168.39L89.201,170.93L91.271,173.55L93.341,176.28L95.411,179.1L97.481,182.03L99.552,185.07L101.62,188.22L103.69,191.49L105.76,194.88L107.83,198.41L109.9,202.07L111.97,205.87L114.04,209.81L116.11,213.9L118.18,218.15L120.25,222.55L122.32,227.12L124.39,231.85L126.46,236.76L128.53,241.83L130.6,247.07L132.67,252.49L134.74,258.08L136.82,263.84L138.89,269.76L140.96,275.83L143.03,282.05L145.1,288.41L147.17,294.88L149.24,301.45L151.31,308.09L153.38,314.78L155.45,321.48L157.52,328.17L159.59,334.79L161.66,341.31L163.73,347.66L165.8,353.81L167.87,359.7L169.94,365.26L172.01,370.44L174.08,375.18L176.15,379.43L178.22,383.12L180.29,386.22L182.36,388.68L184.43,390.46L186.5,391.53L188.57,392.72L190.64,391.53L192.71,390.46L194.78,388.68L196.85,386.22L198.92,383.12L200.99,379.43L203.06,375.18L205.13,370.44L207.2,365.26L209.27,359.7L211.34,353.81L213.41,347.66L215.48,341.31L217.55,334.79L219.62,328.17L221.69,321.48L223.76,314.78L225.83,308.09L227.9,301.45L229.97,294.88L232.04,288.41L234.11,282.05L236.18,275.83L238.25,269.76L240.32,263.84L242.39,258.08L244.47,252.49L246.54,247.07L248.61,241.83L250.68,236.76L252.75,231.85L254.82,227.12L256.89,222.55L258.96,218.15L261.03,213.9L263.1,209.81L265.17,205.87L267.24,202.07L269.31,198.41L271.38,194.88L273.45,191.49L275.52,188.22L277.59,185.07L279.66,182.03L281.73,179.1L283.8,176.28L285.87,173.55L287.94,170.93L290.01,168.39L292.08,165.95L294.15,163.58L296.22,161.3L298.29,159.1L300.36,156.97L302.43,154.91L304.5,152.91L306.57,150.99L308.64,149.12L310.71,147.31L312.78,145.56L314.85,143.86L316.92,142.22L318.99,140.62L321.06,139.08L323.13,137.57L325.2,136.12L327.27,134.7L329.34,133.32L331.41,131.99L333.48,130.69L335.55,129.42L337.62,128.19L339.69,127L341.76,125.83L343.83,124.7L345.9,123.59L347.97,122.51L350.05,121.46L352.12,120.44L354.19,119.44L356.26,118.47L358.33,117.52L360.4,116.59L362.47,115.68L364.54,114.8L366.61,113.94L368.68,113.09L370.75,112.27L372.82,111.46L374.89,110.67L376.96,109.9L379.03,109.14L381.1,108.4L383.17,107.68L385.24,106.97L387.31,106.28L389.38,105.6L391.45,104.93L393.52,104.28L395.59,103.64L397.66,103.02L399.73,102.4L401.8,101.8L403.87,101.21L405.94,100.63L408.01,100.06L410.08,99.505L412.15,98.958L414.22,98.42L416.29,97.893L418.36,97.375L420.43,96.866L422.5,96.366L424.57,95.875L426.64,95.392L428.71,94.918L430.78,94.452L432.85,93.993L434.92,93.543L436.99,93.1L439.06,92.664L441.13,92.235L443.2,91.814L445.27,91.399L447.34,90.991L449.41,90.589L451.48,90.193L453.55,89.804L455.62,89.421" style="fill:none;stroke:#FF0000" />
<path d="M435.62,384.94L455.62,384.94" style="fill:none;stroke:#FF0000" />
<text x="412.94" y="-382.11" transform="scale(1, -1)"
	style="font-family:Liberation Sans;font-variant:normal;font-weight:normal;font-style:normal;font-size:12px">Tau</text>
</g>
</svg>
