<?xml version="1.0"?>
<!-- Generated by SVGo and Plotinum VG -->
<svg width="498.38pt" height="490.12pt" viewBox="0 0 498.38 490.12"
	xmlns="http://www.w3.org/2000/svg"
	xmlns:xlink="http://www.w3.org/1999/xlink">
<g transform="scale(1, -1) translate(0, -490.12)">
<text x="168.59" y="-480.4" transform="scale(1, -1)"
	style="font-family:Liberation Sans;font-variant:normal;font-weight:normal;font-style:normal;font-size:12px">Axon Inhibition Test Cycle Plot</text>
<text x="253.23" y="-3.6797" transform="scale(1, -1)"
	style="font-family:Liberation Sans;font-variant:normal;font-weight:normal;font-style:normal;font-size:12px">Cycle</text>
<text x="43.654" y="-16.473" transform="scale(1, -1)"
	style="font-family:Liberation Sans;font-variant:normal;font-weight:normal;font-style:normal;font-size:10px">0</text>
<text x="259.89" y="-16.473" transform="scale(1, -1)"
	style="font-family:Liberation Sans;font-variant:normal;font-weight:normal;font-style:normal;font-size:10px">100</text>
<text x="481.69" y="-16.473" transform="scale(1, -1)"
	style="font-family:Liberation Sans;font-variant:normal;font-weight:normal;font-style:normal;font-size:10px">200</text>
<path d="M46.435,24.578L46.435,32.578" style="fill:none;stroke:#000000;stroke-width:0.5" />
<path d="M268.23,24.578L268.23,32.578" style="fill:none;stroke:#000000;stroke-width:0.5" />
<path d="M490.03,24.578L490.03,32.578" style="fill:none;stroke:#000000;stroke-width:0.5" />
<path d="M90.794,28.578L90.794,32.578" style="fill:none;stroke:#000000;stroke-width:0.5" />
<path d="M135.15,28.578L135.15,32.578" style="fill:none;stroke:#000000;stroke-width:0.5" />
<path d="M179.51,28.578L179.51,32.578" style="fill:none;stroke:#000000;stroke-width:0.5" />
<path d="M223.87,28.578L223.87,32.578" style="fill:none;stroke:#000000;stroke-width:0.5" />
<path d="M312.59,28.578L312.59,32.578" style="fill:none;stroke:#000000;stroke-width:0.5" />
<path d="M356.95,28.578L356.95,32.578" style="fill:none;stroke:#000000;stroke-width:0.5" />
<path d="M401.31,28.578L401.31,32.578" style="fill:none;stroke:#000000;stroke-width:0.5" />
<path d="M445.67,28.578L445.67,32.578" style="fill:none;stroke:#000000;stroke-width:0.5" />
<path d="M46.435,32.578L490.03,32.578" style="fill:none;stroke:#000000;stroke-width:0.5" />
<g transform="rotate(90)">
<text x="216.3" y="9.7266" transform="scale(1, -1)"
	style="font-family:Liberation Sans;font-variant:normal;font-weight:normal;font-style:normal;font-size:12px">Layer1_Act.Avg</text>
</g>
<text x="15.949" y="-37.852" transform="scale(1, -1)"
	style="font-family:Liberation Sans;font-variant:normal;font-weight:normal;font-style:normal;font-size:10px">0.0</text>
<text x="15.949" y="-232.44" transform="scale(1, -1)"
	style="font-family:Liberation Sans;font-variant:normal;font-weight:normal;font-style:normal;font-size:10px">0.4</text>
<text x="15.949" y="-427.03" transform="scale(1, -1)"
	style="font-family:Liberation Sans;font-variant:normal;font-weight:normal;font-style:normal;font-size:10px">0.8</text>
<path d="M32.629,40.371L40.629,40.371" style="fill:none;stroke:#000000;stroke-width:0.5" />
<path d="M32.629,234.96L40.629,234.96" style="fill:none;stroke:#000000;stroke-width:0.5" />
<path d="M32.629,429.55L40.629,429.55" style="fill:none;stroke:#000000;stroke-width:0.5" />
<path d="M36.629,89.019L40.629,89.019" style="fill:none;stroke:#000000;stroke-width:0.5" />
<path d="M36.629,137.67L40.629,137.67" style="fill:none;stroke:#000000;stroke-width:0.5" />
<path d="M36.629,186.31L40.629,186.31" style="fill:none;stroke:#000000;stroke-width:0.5" />
<path d="M36.629,283.61L40.629,283.61" style="fill:none;stroke:#000000;stroke-width:0.5" />
<path d="M36.629,332.26L40.629,332.26" style="fill:none;stroke:#000000;stroke-width:0.5" />
<path d="M36.629,380.91L40.629,380.91" style="fill:none;stroke:#000000;stroke-width:0.5" />
<path d="M40.629,40.371L40.629,476.72" style="fill:none;stroke:#000000;stroke-width:0.5" />
<path d="M46.435,40.371L48.653,71.135L50.871,70.538L53.089,69.809L55.307,69.006L57.525,68.166L59.743,67.313L61.961,66.463L64.178,65.624L66.396,64.802L68.614,64L70.832,63.22L73.05,62.464L75.268,61.731L77.486,61.021L79.704,60.334L81.922,59.67L84.14,59.027L86.358,58.406L88.576,57.805L90.794,57.224L93.012,56.662L95.23,56.119L97.448,55.594L99.666,55.087L101.88,54.596L104.1,54.122L106.32,53.678L108.54,53.311L110.76,53.011L112.97,52.757L115.19,52.547L117.41,52.366L119.63,52.206L121.85,52.06L124.06,51.925L126.28,51.799L128.5,51.68L130.72,51.566L132.94,51.457L135.15,51.352L137.37,51.289L139.59,51.253L141.81,51.309L144.03,51.426L146.24,51.618L148.46,51.87L150.68,52.173L152.9,52.523L155.12,52.897L157.33,53.282L159.55,53.684L161.77,54.092L163.99,54.499L166.21,54.9L168.42,55.293L170.64,55.677L172.86,56.05L175.08,56.412L177.3,56.764L179.51,57.105L181.73,57.436L183.95,57.766L186.17,58.116L188.39,58.489L190.6,58.873L192.82,59.259L195.04,59.641L197.26,60.017L199.48,60.384L201.69,60.741L203.91,61.087L206.13,61.421L208.35,61.744L210.57,62.055L212.78,62.354L215,62.642L217.22,62.917L219.44,63.181L221.66,63.433L223.87,63.673L226.09,63.903L228.31,64.132L230.53,64.362L232.75,64.588L234.96,64.809L237.18,65.025L239.4,65.233L241.62,65.436L243.84,65.632L246.05,65.821L248.27,66.005L250.49,66.183L252.71,66.354L254.93,66.518L257.14,66.675L259.36,66.825L261.58,66.967L263.8,67.103L266.02,67.233L268.23,67.365L270.45,67.506L272.67,67.656L274.89,67.81L277.11,67.98L279.32,68.158L281.54,68.339L283.76,68.518L285.98,68.696L288.2,68.87L290.41,69.038L292.63,69.201L294.85,69.358L297.07,69.508L299.29,69.651L301.5,69.785L303.72,69.909L305.94,70.023L308.16,70.129L310.38,70.227L312.59,70.317L314.81,70.403L317.03,70.502L319.25,70.614L321.47,70.732L323.68,70.851L325.9,70.969L328.12,71.086L330.34,71.2L332.56,71.311L334.77,71.418L336.99,71.523L339.21,71.623L341.43,71.72L343.65,71.811L345.86,71.897L348.08,71.98L350.3,72.059L352.52,72.137L354.74,72.218L356.95,72.303L359.17,72.403L361.39,72.515L363.61,72.633L365.83,72.753L368.04,72.874L370.26,72.992L372.48,73.109L374.7,73.222L376.92,73.332L379.13,73.438L381.35,73.538L383.57,73.631L385.79,73.717L388.01,73.797L390.22,73.869L392.44,73.935L394.66,73.995L396.88,74.047L399.1,74.108L401.31,74.173L403.53,74.238L405.75,74.302L407.97,74.363L410.19,74.423L412.4,74.48L414.62,74.533L416.84,74.583L419.06,74.629L421.28,74.671L423.49,74.71L425.71,74.745L427.93,74.774L430.15,74.799L432.36,74.821L434.58,74.839L436.8,74.854L439.02,74.865L441.24,74.874L443.45,74.878L445.67,74.878L447.89,74.874L450.11,74.865L452.33,74.852L454.54,74.835L456.76,74.817L458.98,74.796L461.2,74.775L463.42,74.753L465.63,74.731L467.85,74.71L470.07,74.689L472.29,74.668L474.51,74.651L476.72,74.636L478.94,74.623L481.16,74.609L483.38,74.6L485.6,74.594L487.81,74.588L490.03,74.582" style="fill:none;stroke:#228B22" />
<path d="M46.435,40.371L48.653,223.27L50.871,217.58L53.089,190.79L55.307,186.91L57.525,159.44L59.743,160.68L61.961,185.57L64.178,231.56L66.396,196.25L68.614,361.62L70.832,451.33L73.05,476.72L75.268,400.19L77.486,360.48L79.704,327.39L81.922,275.49L84.14,232.16L86.358,195.98L88.576,176.24L90.794,175.74L93.012,176.07L95.23,166.16L97.448,147.17L99.666,131.33L101.88,112.63L104.1,146.02L106.32,149.09L108.54,177.46L110.76,248.69L112.97,331.55L115.19,328.03L117.41,323.89L119.63,296.55L121.85,249.55L124.06,235.42L126.28,198.46L128.5,183.21L130.72,181.29L132.94,207.31L135.15,198.29L137.37,180.02L139.59,153.66L141.81,180.65L144.03,153.98L146.24,230.7L148.46,244.64L150.68,304.66L152.9,305.83L155.12,330.74L157.33,303.32L159.55,255.57L161.77,215.69L163.99,206.54L166.21,174.67L168.42,148.04L170.64,131.01L172.86,127.31L175.08,124.49L177.3,146.63L179.51,166L181.73,232.28L183.95,220.97L186.17,187.12L188.39,262.36L190.6,344.21L192.82,410.91L195.04,393.29L197.26,330.38L199.48,277.87L201.69,258.29L203.91,217.64L206.13,183.69L208.35,165.79L210.57,156.26L212.78,159.23L215,157.04L217.22,185.44L219.44,244.12L221.66,236.79L223.87,225.07L226.09,190.86L228.31,211.23L230.53,252.75L232.75,237.7L234.96,300.34L237.18,301.7L239.4,279.12L241.62,259.18L243.84,218.59L246.05,184.68L248.27,156.35L250.49,132.66L252.71,152.74L254.93,140.23L257.14,165.4L259.36,242.1L261.58,221.13L263.8,228.29L266.02,199.1L268.23,217.43L270.45,213.71L272.67,259.38L274.89,391.63L277.11,452.28L279.32,428.2L281.54,408.58L283.76,343.35L285.98,288.91L288.2,243.46L290.41,210.8L292.63,178.27L294.85,151.08L297.07,144.13L299.29,138.61L301.5,134.28L303.72,114.71L305.94,128.55L308.16,160.15L310.38,190.07L312.59,190.72L314.81,185.62L317.03,255.4L319.25,288.86L321.47,413.95L323.68,370.84L325.9,335.32L328.12,306.41L330.34,278.28L332.56,271.2L334.77,299.43L336.99,281.77L339.21,256.31L341.43,223.84L343.65,191.01L345.86,163.53L348.08,164.73L350.3,216.56L352.52,208.89L354.74,275.93L356.95,283.66L359.17,338.28L361.39,383.14L363.61,394.56L365.83,357.02L368.04,300.82L370.26,253.9L372.48,214.7L374.7,181.95L376.92,165.14L379.13,140.59L381.35,141.22L383.57,136.85L385.79,144.31L388.01,164.5L390.22,171.17L392.44,221.03L394.66,217.62L396.88,208.99L399.1,277.04L401.31,331.74L403.53,424.73L405.75,406.79L407.97,391.32L410.19,329.12L412.4,277.19L414.62,233.83L416.84,202.87L419.06,198.11L421.28,216.36L423.49,194.95L425.71,177.23L427.93,162.59L430.15,139.33L432.36,144.06L434.58,223.25L436.8,189.57L439.02,234.55L441.24,223.06L443.45,239.32L445.67,299.39L447.89,325.11L450.11,273.9L452.33,231.14L454.54,220.26L456.76,210.32L458.98,183.14L461.2,190.46L463.42,182.46L465.63,229.82L467.85,242.14L470.07,211.6L472.29,236.9L474.51,231.6L476.72,197.13L478.94,217.74L481.16,283.07L483.38,239.7L485.6,277.13L487.81,308.21L490.03,333.18" style="fill:none;stroke:#A52A2A" />
<path d="M46.435,40.371L48.653,148.42L50.871,130.27L53.089,112.63L55.307,122.74L57.525,105.88L59.743,117.46L61.961,151.45L64.178,205.09L66.396,174.46L68.614,347.57L70.832,440.98L73.05,467.56L75.268,389.56L77.486,350.39L79.704,318.62L81.922,268.1L84.14,227.19L86.358,194.26L88.576,168.69L90.794,148.1L93.012,129.56L95.23,112.01L97.448,96.781L99.666,84.685L101.88,74.692L104.1,116.79L106.32,126.26L108.54,160.54L110.76,237.24L112.97,324.28L115.19,321.97L117.41,319.06L119.63,292.47L121.85,246.27L124.06,234.5L126.28,199.54L128.5,172.69L130.72,150.96L132.94,133.04L135.15,112.92L137.37,95.372L139.59,80.85L141.81,120.06L144.03,102.82L146.24,189.77L148.46,210.56L150.68,277.25L152.9,282.69L155.12,311.9L157.33,287.05L159.55,241.63L161.77,204.77L163.99,199.64L166.21,171.04L168.42,148.06L170.64,130.18L172.86,116.6L175.08,104.59L177.3,118.29L179.51,129.18L181.73,188.26L183.95,183.94L186.17,156.41L188.39,234.96L190.6,323.94L192.82,395.64L195.04,379.97L197.26,318.23L199.48,268.13L201.69,252.44L203.91,215.21L206.13,185.3L208.35,162.18L210.57,143.52L212.78,128.22L215,113.98L217.22,126.24L219.44,186.03L221.66,182.66L223.87,180.32L226.09,154.54L228.31,183.84L230.53,233.31L232.75,223.74L234.96,292.92L237.18,298.19L239.4,278.71L241.62,262L243.84,224.24L246.05,193.74L248.27,169.19L250.49,149.62L252.71,159.65L254.93,142.29L257.14,153.7L259.36,213.25L261.58,182.75L263.8,182.44L266.02,156.51L268.23,184.64L270.45,183.9L272.67,233.14L274.89,374.62L277.11,440.62L279.32,419.01L281.54,402.05L283.76,338.53L285.98,286.98L288.2,245.34L290.41,212.31L292.63,184.77L294.85,162.81L297.07,146.6L299.29,132.76L301.5,120.48L303.72,108.14L305.94,124.34L308.16,163.27L310.38,194.27L312.59,194.73L314.81,194.38L317.03,269.98L319.25,307L321.47,436.99L323.68,392.81L325.9,357.38L328.12,329.7L330.34,284.28L332.56,247.44L334.77,216.92L336.99,183.38L339.21,154.52L341.43,131.5L343.65,114L345.86,100.73L348.08,115.01L350.3,178.72L352.52,179.92L354.74,255.86L356.95,270.04L359.17,331.18L361.39,381.36L363.61,396.59L365.83,361.35L368.04,307.3L370.26,263.36L372.48,227.79L374.7,199.12L376.92,176.77L379.13,157.37L381.35,143.69L383.57,131.04L385.79,120.8L388.01,133.87L390.22,144.26L392.44,203.51L394.66,201.68L396.88,199.98L399.1,275.73L401.31,336.22L403.53,434.64L405.75,418.25L407.97,404.47L410.19,343.01L412.4,293.15L414.62,252.9L416.84,220.86L419.06,196.58L421.28,176.98L423.49,154.41L425.71,135.41L427.93,120.3L430.15,107.86L432.36,122.93L434.58,212.29L436.8,184.82L439.02,236.96L441.24,230.37L443.45,251.66L445.67,316.95L447.89,346.09L450.11,296.18L452.33,255.56L454.54,248.05L456.76,241.46L458.98,212.46L461.2,214.62L463.42,191.44L465.63,174.98L467.85,176.37L470.07,151.16L472.29,183.54L474.51,184.44L476.72,160.38L478.94,191.47L481.16,266.48L483.38,229.21L485.6,273.86L487.81,310.87L490.03,340.77" style="fill:none;stroke:#7FFF00" />
<path d="M478.38,468.94L498.38,468.94" style="fill:none;stroke:#228B22" />
<text x="390.54" y="-466.11" transform="scale(1, -1)"
	style="font-family:Liberation Sans;font-variant:normal;font-weight:normal;font-style:normal;font-size:12px">Layer1_Act.Avg</text>
<path d="M478.38,458.47L498.38,458.47" style="fill:none;stroke:#A52A2A" />
<text x="411.67" y="-455.64" transform="scale(1, -1)"
	style="font-family:Liberation Sans;font-variant:normal;font-weight:normal;font-style:normal;font-size:12px">Layer2_SGi</text>
<path d="M478.38,448L498.38,448" style="fill:none;stroke:#7FFF00" />
<text x="410.34" y="-445.17" transform="scale(1, -1)"
	style="font-family:Liberation Sans;font-variant:normal;font-weight:normal;font-style:normal;font-size:12px">Layer2_OGi</text>
</g>
</svg>
