<?xml version="1.0"?>
<!-- Generated by SVGo and Plotinum VG -->
<svg width="992.62pt" height="677.25pt" viewBox="0 0 992.62 677.25"
	xmlns="http://www.w3.org/2000/svg"
	xmlns:xlink="http://www.w3.org/1999/xlink">
<g transform="scale(1, -1) translate(0, -677.25)">
<text x="355.23" y="-667.52" transform="scale(1, -1)"
	style="font-family:Liberation Sans;font-variant:normal;font-weight:normal;font-style:normal;font-size:12px">Leabra Random Associator, Experimental Epoch Plot</text>
<text x="505.3" y="-3.6797" transform="scale(1, -1)"
	style="font-family:Liberation Sans;font-variant:normal;font-weight:normal;font-style:normal;font-size:12px">Epoch</text>
<text x="49.215" y="-16.473" transform="scale(1, -1)"
	style="font-family:Liberation Sans;font-variant:normal;font-weight:normal;font-style:normal;font-size:10px">0</text>
<text x="471.84" y="-16.473" transform="scale(1, -1)"
	style="font-family:Liberation Sans;font-variant:normal;font-weight:normal;font-style:normal;font-size:10px">90</text>
<text x="894.47" y="-16.473" transform="scale(1, -1)"
	style="font-family:Liberation Sans;font-variant:normal;font-weight:normal;font-style:normal;font-size:10px">180</text>
<path d="M51.996,24.578L51.996,32.578" style="fill:none;stroke:#000000;stroke-width:0.5" />
<path d="M477.41,24.578L477.41,32.578" style="fill:none;stroke:#000000;stroke-width:0.5" />
<path d="M902.82,24.578L902.82,32.578" style="fill:none;stroke:#000000;stroke-width:0.5" />
<path d="M264.7,28.578L264.7,32.578" style="fill:none;stroke:#000000;stroke-width:0.5" />
<path d="M690.11,28.578L690.11,32.578" style="fill:none;stroke:#000000;stroke-width:0.5" />
<path d="M51.996,32.578L992.62,32.578" style="fill:none;stroke:#000000;stroke-width:0.5" />
<g transform="rotate(90)">
<text x="289.29" y="9.7266" transform="scale(1, -1)"
	style="font-family:Liberation Sans;font-variant:normal;font-weight:normal;font-style:normal;font-size:12px">Hidden1_AvgAbsCaDiff</text>
</g>
<text x="15.949" y="-50.944" transform="scale(1, -1)"
	style="font-family:Liberation Sans;font-variant:normal;font-weight:normal;font-style:normal;font-size:10px">0.01</text>
<text x="15.949" y="-340.69" transform="scale(1, -1)"
	style="font-family:Liberation Sans;font-variant:normal;font-weight:normal;font-style:normal;font-size:10px">0.02</text>
<text x="15.949" y="-630.43" transform="scale(1, -1)"
	style="font-family:Liberation Sans;font-variant:normal;font-weight:normal;font-style:normal;font-size:10px">0.03</text>
<path d="M38.19,53.464L46.19,53.464" style="fill:none;stroke:#000000;stroke-width:0.5" />
<path d="M38.19,343.21L46.19,343.21" style="fill:none;stroke:#000000;stroke-width:0.5" />
<path d="M38.19,632.95L46.19,632.95" style="fill:none;stroke:#000000;stroke-width:0.5" />
<path d="M42.19,111.41L46.19,111.41" style="fill:none;stroke:#000000;stroke-width:0.5" />
<path d="M42.19,169.36L46.19,169.36" style="fill:none;stroke:#000000;stroke-width:0.5" />
<path d="M42.19,227.31L46.19,227.31" style="fill:none;stroke:#000000;stroke-width:0.5" />
<path d="M42.19,285.26L46.19,285.26" style="fill:none;stroke:#000000;stroke-width:0.5" />
<path d="M42.19,401.16L46.19,401.16" style="fill:none;stroke:#000000;stroke-width:0.5" />
<path d="M42.19,459.1L46.19,459.1" style="fill:none;stroke:#000000;stroke-width:0.5" />
<path d="M42.19,517.05L46.19,517.05" style="fill:none;stroke:#000000;stroke-width:0.5" />
<path d="M42.19,575L46.19,575" style="fill:none;stroke:#000000;stroke-width:0.5" />
<path d="M46.19,40.371L46.19,663.84" style="fill:none;stroke:#000000;stroke-width:0.5" />
<path d="M51.996,168.78L56.723,141.18L61.45,127.9L66.176,137.24L70.903,126.06L75.63,123.47L80.357,115.81L85.084,120.24L89.81,119.63L94.537,121.41L99.264,103.28L103.99,120.1L108.72,118.49L113.44,115.96L118.17,109.54L122.9,117.12L127.62,113.9L132.35,111.88L137.08,109.98L141.8,121.52L146.53,118.42L151.26,115.83L155.99,121.62L160.71,113.03L165.44,105.75L170.17,121.28L174.89,113.58L179.62,130.21L184.35,125.47L189.07,135.31L193.8,125.34L198.53,128.01L203.25,129.32L207.98,146.43L212.71,145.02L217.43,128.36L222.16,145.77L226.89,139L231.61,145.82L236.34,149.64L241.07,150L245.79,162.31L250.52,159.98L255.25,165.04L259.97,168.94L264.7,160.5L269.43,171.94L274.15,173.8L278.88,181.48L283.61,189.51L288.34,183.02L293.06,191.51L297.79,191.98L302.52,191.22L307.24,185.42L311.97,203.37L316.7,193.61L321.42,192.57L326.15,192.73L330.88,194.34L335.6,203.05L340.33,196.94L345.06,201.22L349.78,197.49L354.51,196.62L359.24,204.02L363.96,205.93L368.69,199.24L373.42,213.35L378.14,216.54L382.87,213.58L387.6,201.12L392.32,216.91L397.05,229.47L401.78,212.25L406.5,220.81L411.23,220.52L415.96,219.15L420.68,220.65L425.41,232.14L430.14,223.13L434.87,228.38L439.59,230.04L444.32,222.91L449.05,230.69L453.77,215.8L458.5,221.02L463.23,227.74L467.95,231.14L472.68,234.7L477.41,236.51L482.13,242.7L486.86,245.1L491.59,244.7L496.31,243.83L501.04,240.64L505.77,247.48L510.49,237.79L515.22,248.67L519.95,241.19L524.67,251.79L529.4,248.63L534.13,246.83L538.85,254.64L543.58,256.29L548.31,265.23L553.03,261.38L557.76,261.71L562.49,263.09L567.21,268.38L571.94,273.72L576.67,258.92L581.4,256.95L586.12,264.95L590.85,270.53L595.58,262.13L600.3,256.73L605.03,275.46L609.76,264.72L614.48,262.45L619.21,264.88L623.94,274.28L628.66,266.66L633.39,264.32L638.12,282.09L642.84,275.31L647.57,267.93L652.3,276.03L657.02,283.73L661.75,259.93L666.48,273.79L671.2,288.58L675.93,278.48L680.66,293.25L685.38,296.08L690.11,282.87L694.84,295.28L699.56,294.78L704.29,295.92L709.02,289.18L713.75,285.97L718.47,286.2L723.2,290.34L727.93,288.58L732.65,291.02L737.38,287.34L742.11,296.61L746.83,303.27L751.56,299.62L756.29,297.23L761.01,301.56L765.74,294.2L770.47,311.38L775.19,295.57L779.92,301.74L784.65,316.21L789.37,314.44L794.1,309.76L798.83,291.27L803.55,307.72L808.28,305.24L813.01,318.16L817.73,302.55L822.46,310.1L827.19,315.52L831.91,322.49L836.64,315.66L841.37,315.89L846.09,318.9L850.82,315.93L855.55,329.17L860.28,310.45L865,320.23L869.73,335.24L874.46,325.63L879.18,318.66L883.91,318.63L888.64,328.73L893.36,325.98L898.09,335.61L902.82,329.24L907.54,318.02L912.27,318.13L917,312.5L921.72,330.63L926.45,335.14L931.18,337.42L935.9,337.56L940.63,328.31L945.36,334.59L950.08,337.54L954.81,336.75L959.54,331.94L964.26,333.66L968.99,333.15L973.72,334.08L978.44,340.68L983.17,348.13L987.9,345.14L992.62,346.96" style="fill:none;stroke:#FA8072" />
<path d="M51.996,663.84L56.723,578.22L61.45,542.3L66.176,543.29L70.903,535.59L75.63,503.16L80.357,495.99L85.084,494.7L89.81,462.9L94.537,447.05L99.264,424.31L103.99,377.68L108.72,395.63L113.44,343.03L118.17,346.72L122.9,303.49L127.62,352.92L132.35,301.16L137.08,283.4L141.8,300.63L146.53,253.46L151.26,284.6L155.99,271.1L160.71,274.01L165.44,199.73L170.17,207.35L174.89,220.8L179.62,198.03L184.35,229.3L189.07,189.64L193.8,174.26L198.53,153.83L203.25,179.86L207.98,178.02L212.71,123.89L217.43,120.77L222.16,160.88L226.89,128.15L231.61,123.48L236.34,165.43L241.07,108.78L245.79,119.77L250.52,121.14L255.25,90.948L259.97,110.52L264.7,96.995L269.43,83.25L274.15,81.928L278.88,101.8L283.61,97.626L288.34,101.62L293.06,72.611L297.79,69.374L302.52,73.407L307.24,112.78L311.97,87.015L316.7,99L321.42,106.26L326.15,80.091L330.88,89.287L335.6,82.63L340.33,83.688L345.06,65.277L349.78,91.623L354.51,78.066L359.24,83.387L363.96,84.005L368.69,84.197L373.42,82.46L378.14,82.255L382.87,78.065L387.6,69.954L392.32,84.276L397.05,94.694L401.78,78.421L406.5,79.902L411.23,80.243L415.96,95.872L420.68,89.218L425.41,87.705L430.14,77.125L434.87,77.849L439.59,77.996L444.32,61.658L449.05,70.295L453.77,96.655L458.5,76.617L463.23,86.584L467.95,62.982L472.68,79.102L477.41,108.82L482.13,80.278L486.86,66.173L491.59,88.271L496.31,86.839L501.04,87.741L505.77,55.12L510.49,57.21L515.22,51.19L519.95,77.071L524.67,89.814L529.4,63.959L534.13,75.85L538.85,69.798L543.58,102.35L548.31,73.89L553.03,56.507L557.76,67.848L562.49,97.924L567.21,54.236L571.94,115.65L576.67,90.113L581.4,72.018L586.12,86.885L590.85,72.406L595.58,89.17L600.3,77.745L605.03,85.125L609.76,71.959L614.48,72.294L619.21,64.068L623.94,82.735L628.66,71.22L633.39,63.673L638.12,106.42L642.84,79.957L647.57,89.092L652.3,80.843L657.02,99.689L661.75,51.962L666.48,86.652L671.2,68.419L675.93,74.048L680.66,77.122L685.38,52.476L690.11,75.757L694.84,83.182L699.56,85.193L704.29,59.658L709.02,50.471L713.75,68.469L718.47,65.857L723.2,77.128L727.93,54.798L732.65,66.154L737.38,77.613L742.11,44.299L746.83,47.482L751.56,69.256L756.29,78.79L761.01,75.214L765.74,73.964L770.47,91.458L775.19,56.117L779.92,81.97L784.65,82.393L789.37,83.93L794.1,88.147L798.83,55.623L803.55,54.317L808.28,68.803L813.01,70.586L817.73,85.926L822.46,74.774L827.19,65.447L831.91,67.435L836.64,73.724L841.37,72.019L846.09,84.05L850.82,95.284L855.55,72.027L860.28,40.371L865,55.049L869.73,90.975L874.46,84.262L879.18,71.688L883.91,69.228L888.64,61.94L893.36,57.696L898.09,69.643L902.82,63.49L907.54,54.045L912.27,85.846L917,68.518L921.72,58.192L926.45,75.929L931.18,67.832L935.9,69.363L940.63,83.46L945.36,67.045L950.08,43.368L954.81,75.667L959.54,46.381L964.26,63.608L968.99,54.863L973.72,62.636L978.44,71.96L983.17,79.836L987.9,59.782L992.62,77.328" style="fill:none;stroke:#DAA520" />
<path d="M972.62,656.07L992.62,656.07" style="fill:none;stroke:#FA8072" />
<text x="843.65" y="-653.24" transform="scale(1, -1)"
	style="font-family:Liberation Sans;font-variant:normal;font-weight:normal;font-style:normal;font-size:12px">Hidden1_AvgAbsCaDiff</text>
<path d="M972.62,645.59L992.62,645.59" style="fill:none;stroke:#DAA520" />
<text x="841.66" y="-642.77" transform="scale(1, -1)"
	style="font-family:Liberation Sans;font-variant:normal;font-weight:normal;font-style:normal;font-size:12px">Hidden1_AvgAbsActDiff</text>
</g>
</svg>
